ISO-10303-21;
HEADER;
/* Generated by software containing ST-Developer
 * from STEP Tools, Inc. (www.steptools.com) 
 */
/* OPTION: using custom renumber hook */

FILE_DESCRIPTION(
/* description */ ('STEP AP242 Edition 2',
'CAx-IF Rec.Pracs.---Representation and Presentation of Product Manufa
cturing Information (PMI)---4.0---2014-10-13',
'CAx-IF Rec.Pracs.---3D Tessellated Geometry---0.4---2014-09-14','2;1',
'CAx-IF Rec.Pracs.---User Defined Attributes---1.5---2016-08-15'),
/* implementation_level */ '2;1');

FILE_NAME(
/* name */ 'Keeb - Case_Right',
/* time_stamp */ '2026-09-04T15:32:09Z',
/* author */ (''),
/* organization */ (''),
/* preprocessor_version */ 'ST-DEVELOPER v20',
/* originating_system */ 'ONSHAPE BY PTC INC, 1.220',
/* authorisation */ '  ');

FILE_SCHEMA (('AP242_MANAGED_MODEL_BASED_3D_ENGINEERING_MIM_LF { 1 0 10303 442 3 1 4 }'));
ENDSEC;

DATA;
#10=SHAPE_REPRESENTATION_RELATIONSHIP('','',#640,#11);
#11=ADVANCED_BREP_SHAPE_REPRESENTATION('',(#638),#1100);
#12=(
BOUNDED_SURFACE()
B_SPLINE_SURFACE(3,2,((#985,#986,#987),(#988,#989,#990),(#991,#992,#993),
(#994,#995,#996),(#997,#998,#999),(#1000,#1001,#1002),(#1003,#1004,#1005),
(#1006,#1007,#1008),(#1009,#1010,#1011)),.UNSPECIFIED.,.F.,.F.,.F.)
B_SPLINE_SURFACE_WITH_KNOTS((4,1,1,1,1,1,4),(3,3),(6.28318530717959,6.47953484802895,
6.67588438887831,6.87223392972767,7.06858347057703,7.46128255227576,7.85398163397448),
(0.,1.),.UNSPECIFIED.)
GEOMETRIC_REPRESENTATION_ITEM()
RATIONAL_B_SPLINE_SURFACE(((1.,0.707106781186548,1.),(1.,0.707106781267532,
1.),(1.,0.716400177564137,1.),(1.,0.754563896254173,1.),(1.,0.808034956510771,
1.),(1.,0.886299164406782,1.),(1.,0.973513794551672,1.),(1.,0.999999999985521,
1.),(1.,1.,1.)))
REPRESENTATION_ITEM('')
SURFACE()
);
#13=(
BOUNDED_SURFACE()
B_SPLINE_SURFACE(3,2,((#1013,#1014,#1015),(#1016,#1017,#1018),(#1019,#1020,
#1021),(#1022,#1023,#1024),(#1025,#1026,#1027),(#1028,#1029,#1030),(#1031,
#1032,#1033),(#1034,#1035,#1036),(#1037,#1038,#1039)),.UNSPECIFIED.,.F.,
 .F.,.F.)
B_SPLINE_SURFACE_WITH_KNOTS((4,1,1,1,1,1,4),(3,3),(6.28318530717959,6.47953484802895,
6.67588438887831,6.87223392972767,7.06858347057703,7.46128255227576,7.85398163397448),
(0.,1.),.UNSPECIFIED.)
GEOMETRIC_REPRESENTATION_ITEM()
RATIONAL_B_SPLINE_SURFACE(((1.,0.707106781186548,1.),(1.,0.707106781267532,
1.),(1.,0.716400177564135,1.),(1.,0.754563896254177,1.),(1.,0.80803495651077,
1.),(1.,0.886299164406785,1.),(1.,0.97351379455167,1.),(1.,0.999999999985521,
1.),(1.,1.,1.)))
REPRESENTATION_ITEM('')
SURFACE()
);
#14=ELLIPSE('',#672,0.00509901951359278,0.005);
#15=ELLIPSE('',#673,0.00509901951359278,0.005);
#16=ELLIPSE('',#675,0.00509901951359278,0.005);
#17=ELLIPSE('',#676,0.00509901951359278,0.005);
#18=CYLINDRICAL_SURFACE('',#657,0.00205);
#19=CYLINDRICAL_SURFACE('',#659,0.00205);
#20=CYLINDRICAL_SURFACE('',#661,0.00205);
#21=CYLINDRICAL_SURFACE('',#663,0.00205);
#22=CYLINDRICAL_SURFACE('',#665,0.004);
#23=CYLINDRICAL_SURFACE('',#668,0.004);
#24=CYLINDRICAL_SURFACE('',#671,0.005);
#25=CYLINDRICAL_SURFACE('',#679,0.005);
#26=CYLINDRICAL_SURFACE('',#680,0.005);
#27=CIRCLE('',#646,0.005);
#28=CIRCLE('',#647,0.005);
#29=CIRCLE('',#649,0.00205);
#30=CIRCLE('',#651,0.00205);
#31=CIRCLE('',#653,0.00205);
#32=CIRCLE('',#655,0.00205);
#33=CIRCLE('',#658,0.00205);
#34=CIRCLE('',#660,0.00205);
#35=CIRCLE('',#662,0.00205);
#36=CIRCLE('',#664,0.00205);
#37=CIRCLE('',#666,0.004);
#38=CIRCLE('',#667,0.004);
#39=CIRCLE('',#669,0.004);
#40=CIRCLE('',#670,0.004);
#41=ORIENTED_EDGE('',*,*,#203,.T.);
#42=ORIENTED_EDGE('',*,*,#204,.T.);
#43=ORIENTED_EDGE('',*,*,#205,.F.);
#44=ORIENTED_EDGE('',*,*,#206,.T.);
#45=ORIENTED_EDGE('',*,*,#207,.F.);
#46=ORIENTED_EDGE('',*,*,#208,.T.);
#47=ORIENTED_EDGE('',*,*,#209,.T.);
#48=ORIENTED_EDGE('',*,*,#210,.F.);
#49=ORIENTED_EDGE('',*,*,#211,.F.);
#50=ORIENTED_EDGE('',*,*,#212,.T.);
#51=ORIENTED_EDGE('',*,*,#213,.T.);
#52=ORIENTED_EDGE('',*,*,#214,.F.);
#53=ORIENTED_EDGE('',*,*,#215,.T.);
#54=ORIENTED_EDGE('',*,*,#216,.T.);
#55=ORIENTED_EDGE('',*,*,#217,.F.);
#56=ORIENTED_EDGE('',*,*,#218,.F.);
#57=ORIENTED_EDGE('',*,*,#219,.T.);
#58=ORIENTED_EDGE('',*,*,#204,.F.);
#59=ORIENTED_EDGE('',*,*,#220,.F.);
#60=ORIENTED_EDGE('',*,*,#221,.F.);
#61=ORIENTED_EDGE('',*,*,#222,.F.);
#62=ORIENTED_EDGE('',*,*,#223,.T.);
#63=ORIENTED_EDGE('',*,*,#224,.T.);
#64=ORIENTED_EDGE('',*,*,#225,.F.);
#65=ORIENTED_EDGE('',*,*,#226,.T.);
#66=ORIENTED_EDGE('',*,*,#217,.T.);
#67=ORIENTED_EDGE('',*,*,#227,.F.);
#68=ORIENTED_EDGE('',*,*,#228,.F.);
#69=ORIENTED_EDGE('',*,*,#229,.T.);
#70=ORIENTED_EDGE('',*,*,#230,.F.);
#71=ORIENTED_EDGE('',*,*,#231,.T.);
#72=ORIENTED_EDGE('',*,*,#232,.T.);
#73=ORIENTED_EDGE('',*,*,#233,.T.);
#74=ORIENTED_EDGE('',*,*,#234,.T.);
#75=ORIENTED_EDGE('',*,*,#235,.T.);
#76=ORIENTED_EDGE('',*,*,#236,.T.);
#77=ORIENTED_EDGE('',*,*,#237,.F.);
#78=ORIENTED_EDGE('',*,*,#238,.F.);
#79=ORIENTED_EDGE('',*,*,#231,.F.);
#80=ORIENTED_EDGE('',*,*,#239,.T.);
#81=ORIENTED_EDGE('',*,*,#232,.F.);
#82=ORIENTED_EDGE('',*,*,#240,.T.);
#83=ORIENTED_EDGE('',*,*,#233,.F.);
#84=ORIENTED_EDGE('',*,*,#241,.T.);
#85=ORIENTED_EDGE('',*,*,#234,.F.);
#86=ORIENTED_EDGE('',*,*,#242,.T.);
#87=ORIENTED_EDGE('',*,*,#237,.T.);
#88=ORIENTED_EDGE('',*,*,#243,.T.);
#89=ORIENTED_EDGE('',*,*,#244,.F.);
#90=ORIENTED_EDGE('',*,*,#245,.F.);
#91=ORIENTED_EDGE('',*,*,#225,.T.);
#92=ORIENTED_EDGE('',*,*,#246,.T.);
#93=ORIENTED_EDGE('',*,*,#235,.F.);
#94=ORIENTED_EDGE('',*,*,#247,.F.);
#95=ORIENTED_EDGE('',*,*,#248,.T.);
#96=ORIENTED_EDGE('',*,*,#236,.F.);
#97=ORIENTED_EDGE('',*,*,#249,.F.);
#98=ORIENTED_EDGE('',*,*,#250,.F.);
#99=ORIENTED_EDGE('',*,*,#206,.F.);
#100=ORIENTED_EDGE('',*,*,#251,.F.);
#101=ORIENTED_EDGE('',*,*,#252,.T.);
#102=ORIENTED_EDGE('',*,*,#253,.T.);
#103=ORIENTED_EDGE('',*,*,#254,.F.);
#104=ORIENTED_EDGE('',*,*,#243,.F.);
#105=ORIENTED_EDGE('',*,*,#248,.F.);
#106=ORIENTED_EDGE('',*,*,#249,.T.);
#107=ORIENTED_EDGE('',*,*,#246,.F.);
#108=ORIENTED_EDGE('',*,*,#255,.F.);
#109=ORIENTED_EDGE('',*,*,#256,.T.);
#110=ORIENTED_EDGE('',*,*,#220,.T.);
#111=ORIENTED_EDGE('',*,*,#203,.F.);
#112=ORIENTED_EDGE('',*,*,#253,.F.);
#113=ORIENTED_EDGE('',*,*,#219,.F.);
#114=ORIENTED_EDGE('',*,*,#257,.F.);
#115=ORIENTED_EDGE('',*,*,#251,.T.);
#116=ORIENTED_EDGE('',*,*,#205,.T.);
#117=ORIENTED_EDGE('',*,*,#258,.F.);
#118=ORIENTED_EDGE('',*,*,#230,.T.);
#119=ORIENTED_EDGE('',*,*,#259,.F.);
#120=ORIENTED_EDGE('',*,*,#255,.T.);
#121=ORIENTED_EDGE('',*,*,#224,.F.);
#122=ORIENTED_EDGE('',*,*,#260,.F.);
#123=ORIENTED_EDGE('',*,*,#228,.T.);
#124=ORIENTED_EDGE('',*,*,#261,.F.);
#125=ORIENTED_EDGE('',*,*,#262,.F.);
#126=ORIENTED_EDGE('',*,*,#254,.T.);
#127=ORIENTED_EDGE('',*,*,#229,.F.);
#128=ORIENTED_EDGE('',*,*,#260,.T.);
#129=ORIENTED_EDGE('',*,*,#250,.T.);
#130=ORIENTED_EDGE('',*,*,#259,.T.);
#131=ORIENTED_EDGE('',*,*,#263,.F.);
#132=ORIENTED_EDGE('',*,*,#264,.T.);
#133=ORIENTED_EDGE('',*,*,#215,.F.);
#134=ORIENTED_EDGE('',*,*,#265,.F.);
#135=ORIENTED_EDGE('',*,*,#244,.T.);
#136=ORIENTED_EDGE('',*,*,#262,.T.);
#137=ORIENTED_EDGE('',*,*,#242,.F.);
#138=ORIENTED_EDGE('',*,*,#241,.F.);
#139=ORIENTED_EDGE('',*,*,#240,.F.);
#140=ORIENTED_EDGE('',*,*,#239,.F.);
#141=ORIENTED_EDGE('',*,*,#265,.T.);
#142=ORIENTED_EDGE('',*,*,#221,.T.);
#143=ORIENTED_EDGE('',*,*,#256,.F.);
#144=ORIENTED_EDGE('',*,*,#252,.F.);
#145=ORIENTED_EDGE('',*,*,#257,.T.);
#146=ORIENTED_EDGE('',*,*,#218,.T.);
#147=ORIENTED_EDGE('',*,*,#226,.F.);
#148=ORIENTED_EDGE('',*,*,#247,.T.);
#149=ORIENTED_EDGE('',*,*,#238,.T.);
#150=ORIENTED_EDGE('',*,*,#245,.T.);
#151=ORIENTED_EDGE('',*,*,#216,.F.);
#152=ORIENTED_EDGE('',*,*,#264,.F.);
#153=ORIENTED_EDGE('',*,*,#266,.T.);
#154=ORIENTED_EDGE('',*,*,#222,.T.);
#155=ORIENTED_EDGE('',*,*,#227,.T.);
#156=ORIENTED_EDGE('',*,*,#258,.T.);
#157=ORIENTED_EDGE('',*,*,#267,.F.);
#158=ORIENTED_EDGE('',*,*,#261,.T.);
#159=ORIENTED_EDGE('',*,*,#266,.F.);
#160=ORIENTED_EDGE('',*,*,#263,.T.);
#161=ORIENTED_EDGE('',*,*,#267,.T.);
#162=ORIENTED_EDGE('',*,*,#223,.F.);
#163=ORIENTED_EDGE('',*,*,#208,.F.);
#164=ORIENTED_EDGE('',*,*,#268,.F.);
#165=ORIENTED_EDGE('',*,*,#269,.T.);
#166=ORIENTED_EDGE('',*,*,#270,.T.);
#167=ORIENTED_EDGE('',*,*,#207,.T.);
#168=ORIENTED_EDGE('',*,*,#271,.F.);
#169=ORIENTED_EDGE('',*,*,#272,.F.);
#170=ORIENTED_EDGE('',*,*,#268,.T.);
#171=ORIENTED_EDGE('',*,*,#210,.T.);
#172=ORIENTED_EDGE('',*,*,#273,.F.);
#173=ORIENTED_EDGE('',*,*,#274,.F.);
#174=ORIENTED_EDGE('',*,*,#271,.T.);
#175=ORIENTED_EDGE('',*,*,#209,.F.);
#176=ORIENTED_EDGE('',*,*,#270,.F.);
#177=ORIENTED_EDGE('',*,*,#275,.T.);
#178=ORIENTED_EDGE('',*,*,#273,.T.);
#179=ORIENTED_EDGE('',*,*,#269,.F.);
#180=ORIENTED_EDGE('',*,*,#272,.T.);
#181=ORIENTED_EDGE('',*,*,#274,.T.);
#182=ORIENTED_EDGE('',*,*,#275,.F.);
#183=ORIENTED_EDGE('',*,*,#212,.F.);
#184=ORIENTED_EDGE('',*,*,#276,.F.);
#185=ORIENTED_EDGE('',*,*,#277,.T.);
#186=ORIENTED_EDGE('',*,*,#278,.T.);
#187=ORIENTED_EDGE('',*,*,#211,.T.);
#188=ORIENTED_EDGE('',*,*,#279,.F.);
#189=ORIENTED_EDGE('',*,*,#280,.F.);
#190=ORIENTED_EDGE('',*,*,#276,.T.);
#191=ORIENTED_EDGE('',*,*,#214,.T.);
#192=ORIENTED_EDGE('',*,*,#281,.F.);
#193=ORIENTED_EDGE('',*,*,#282,.F.);
#194=ORIENTED_EDGE('',*,*,#279,.T.);
#195=ORIENTED_EDGE('',*,*,#213,.F.);
#196=ORIENTED_EDGE('',*,*,#278,.F.);
#197=ORIENTED_EDGE('',*,*,#283,.T.);
#198=ORIENTED_EDGE('',*,*,#281,.T.);
#199=ORIENTED_EDGE('',*,*,#277,.F.);
#200=ORIENTED_EDGE('',*,*,#280,.T.);
#201=ORIENTED_EDGE('',*,*,#282,.T.);
#202=ORIENTED_EDGE('',*,*,#283,.F.);
#203=EDGE_CURVE('',#284,#285,#338,.T.);
#204=EDGE_CURVE('',#285,#286,#339,.T.);
#205=EDGE_CURVE('',#287,#286,#340,.T.);
#206=EDGE_CURVE('',#287,#284,#341,.T.);
#207=EDGE_CURVE('',#288,#289,#342,.T.);
#208=EDGE_CURVE('',#288,#290,#343,.T.);
#209=EDGE_CURVE('',#290,#291,#344,.T.);
#210=EDGE_CURVE('',#289,#291,#345,.T.);
#211=EDGE_CURVE('',#292,#293,#346,.T.);
#212=EDGE_CURVE('',#292,#294,#347,.T.);
#213=EDGE_CURVE('',#294,#295,#348,.T.);
#214=EDGE_CURVE('',#293,#295,#349,.T.);
#215=EDGE_CURVE('',#296,#297,#350,.T.);
#216=EDGE_CURVE('',#297,#298,#351,.T.);
#217=EDGE_CURVE('',#299,#298,#352,.T.);
#218=EDGE_CURVE('',#300,#299,#353,.T.);
#219=EDGE_CURVE('',#300,#286,#354,.T.);
#220=EDGE_CURVE('',#301,#285,#355,.T.);
#221=EDGE_CURVE('',#296,#301,#356,.T.);
#222=EDGE_CURVE('',#302,#298,#357,.T.);
#223=EDGE_CURVE('',#302,#303,#358,.T.);
#224=EDGE_CURVE('',#303,#304,#359,.F.);
#225=EDGE_CURVE('',#305,#304,#360,.T.);
#226=EDGE_CURVE('',#305,#299,#361,.T.);
#227=EDGE_CURVE('',#306,#307,#362,.T.);
#228=EDGE_CURVE('',#308,#306,#27,.F.);
#229=EDGE_CURVE('',#308,#309,#363,.T.);
#230=EDGE_CURVE('',#307,#309,#28,.F.);
#231=EDGE_CURVE('',#310,#310,#29,.T.);
#232=EDGE_CURVE('',#311,#311,#30,.T.);
#233=EDGE_CURVE('',#312,#312,#31,.T.);
#234=EDGE_CURVE('',#313,#313,#32,.T.);
#235=EDGE_CURVE('',#314,#315,#364,.T.);
#236=EDGE_CURVE('',#315,#316,#365,.T.);
#237=EDGE_CURVE('',#317,#316,#366,.T.);
#238=EDGE_CURVE('',#314,#317,#367,.T.);
#239=EDGE_CURVE('',#318,#318,#33,.T.);
#240=EDGE_CURVE('',#319,#319,#34,.T.);
#241=EDGE_CURVE('',#320,#320,#35,.T.);
#242=EDGE_CURVE('',#321,#321,#36,.T.);
#243=EDGE_CURVE('',#316,#322,#37,.T.);
#244=EDGE_CURVE('',#323,#322,#368,.T.);
#245=EDGE_CURVE('',#317,#323,#38,.T.);
#246=EDGE_CURVE('',#304,#315,#39,.T.);
#247=EDGE_CURVE('',#305,#314,#40,.T.);
#248=EDGE_CURVE('',#324,#316,#14,.T.);
#249=EDGE_CURVE('',#325,#315,#15,.T.);
#250=EDGE_CURVE('',#324,#325,#369,.F.);
#251=EDGE_CURVE('',#326,#287,#370,.T.);
#252=EDGE_CURVE('',#326,#327,#371,.T.);
#253=EDGE_CURVE('',#327,#284,#372,.T.);
#254=EDGE_CURVE('',#322,#324,#16,.F.);
#255=EDGE_CURVE('',#325,#304,#17,.T.);
#256=EDGE_CURVE('',#327,#301,#373,.T.);
#257=EDGE_CURVE('',#326,#300,#374,.T.);
#258=EDGE_CURVE('',#307,#303,#375,.F.);
#259=EDGE_CURVE('',#325,#309,#376,.T.);
#260=EDGE_CURVE('',#308,#324,#377,.F.);
#261=EDGE_CURVE('',#328,#306,#378,.T.);
#262=EDGE_CURVE('',#322,#328,#379,.T.);
#263=EDGE_CURVE('',#329,#328,#380,.T.);
#264=EDGE_CURVE('',#329,#297,#381,.T.);
#265=EDGE_CURVE('',#323,#296,#382,.T.);
#266=EDGE_CURVE('',#329,#302,#383,.T.);
#267=EDGE_CURVE('',#328,#303,#384,.T.);
#268=EDGE_CURVE('',#330,#288,#385,.T.);
#269=EDGE_CURVE('',#330,#331,#386,.T.);
#270=EDGE_CURVE('',#331,#290,#387,.T.);
#271=EDGE_CURVE('',#332,#289,#388,.T.);
#272=EDGE_CURVE('',#330,#332,#389,.T.);
#273=EDGE_CURVE('',#333,#291,#390,.T.);
#274=EDGE_CURVE('',#332,#333,#391,.T.);
#275=EDGE_CURVE('',#331,#333,#392,.T.);
#276=EDGE_CURVE('',#334,#292,#393,.T.);
#277=EDGE_CURVE('',#334,#335,#394,.T.);
#278=EDGE_CURVE('',#335,#294,#395,.T.);
#279=EDGE_CURVE('',#336,#293,#396,.T.);
#280=EDGE_CURVE('',#334,#336,#397,.T.);
#281=EDGE_CURVE('',#337,#295,#398,.T.);
#282=EDGE_CURVE('',#336,#337,#399,.T.);
#283=EDGE_CURVE('',#335,#337,#400,.T.);
#284=VERTEX_POINT('',#875);
#285=VERTEX_POINT('',#876);
#286=VERTEX_POINT('',#878);
#287=VERTEX_POINT('',#880);
#288=VERTEX_POINT('',#883);
#289=VERTEX_POINT('',#884);
#290=VERTEX_POINT('',#886);
#291=VERTEX_POINT('',#888);
#292=VERTEX_POINT('',#891);
#293=VERTEX_POINT('',#892);
#294=VERTEX_POINT('',#894);
#295=VERTEX_POINT('',#896);
#296=VERTEX_POINT('',#900);
#297=VERTEX_POINT('',#901);
#298=VERTEX_POINT('',#903);
#299=VERTEX_POINT('',#905);
#300=VERTEX_POINT('',#907);
#301=VERTEX_POINT('',#910);
#302=VERTEX_POINT('',#914);
#303=VERTEX_POINT('',#916);
#304=VERTEX_POINT('',#918);
#305=VERTEX_POINT('',#920);
#306=VERTEX_POINT('',#924);
#307=VERTEX_POINT('',#925);
#308=VERTEX_POINT('',#927);
#309=VERTEX_POINT('',#929);
#310=VERTEX_POINT('',#933);
#311=VERTEX_POINT('',#936);
#312=VERTEX_POINT('',#939);
#313=VERTEX_POINT('',#942);
#314=VERTEX_POINT('',#945);
#315=VERTEX_POINT('',#946);
#316=VERTEX_POINT('',#948);
#317=VERTEX_POINT('',#950);
#318=VERTEX_POINT('',#954);
#319=VERTEX_POINT('',#957);
#320=VERTEX_POINT('',#960);
#321=VERTEX_POINT('',#963);
#322=VERTEX_POINT('',#966);
#323=VERTEX_POINT('',#968);
#324=VERTEX_POINT('',#975);
#325=VERTEX_POINT('',#977);
#326=VERTEX_POINT('',#981);
#327=VERTEX_POINT('',#983);
#328=VERTEX_POINT('',#1051);
#329=VERTEX_POINT('',#1056);
#330=VERTEX_POINT('',#1067);
#331=VERTEX_POINT('',#1069);
#332=VERTEX_POINT('',#1073);
#333=VERTEX_POINT('',#1077);
#334=VERTEX_POINT('',#1084);
#335=VERTEX_POINT('',#1086);
#336=VERTEX_POINT('',#1090);
#337=VERTEX_POINT('',#1094);
#338=LINE('',#874,#401);
#339=LINE('',#877,#402);
#340=LINE('',#879,#403);
#341=LINE('',#881,#404);
#342=LINE('',#882,#405);
#343=LINE('',#885,#406);
#344=LINE('',#887,#407);
#345=LINE('',#889,#408);
#346=LINE('',#890,#409);
#347=LINE('',#893,#410);
#348=LINE('',#895,#411);
#349=LINE('',#897,#412);
#350=LINE('',#899,#413);
#351=LINE('',#902,#414);
#352=LINE('',#904,#415);
#353=LINE('',#906,#416);
#354=LINE('',#908,#417);
#355=LINE('',#909,#418);
#356=LINE('',#911,#419);
#357=LINE('',#913,#420);
#358=LINE('',#915,#421);
#359=LINE('',#917,#422);
#360=LINE('',#919,#423);
#361=LINE('',#921,#424);
#362=LINE('',#923,#425);
#363=LINE('',#928,#426);
#364=LINE('',#944,#427);
#365=LINE('',#947,#428);
#366=LINE('',#949,#429);
#367=LINE('',#951,#430);
#368=LINE('',#967,#431);
#369=LINE('',#978,#432);
#370=LINE('',#980,#433);
#371=LINE('',#982,#434);
#372=LINE('',#984,#435);
#373=LINE('',#1042,#436);
#374=LINE('',#1044,#437);
#375=LINE('',#1046,#438);
#376=LINE('',#1047,#439);
#377=LINE('',#1049,#440);
#378=LINE('',#1050,#441);
#379=LINE('',#1052,#442);
#380=LINE('',#1055,#443);
#381=LINE('',#1057,#444);
#382=LINE('',#1058,#445);
#383=LINE('',#1061,#446);
#384=LINE('',#1063,#447);
#385=LINE('',#1066,#448);
#386=LINE('',#1068,#449);
#387=LINE('',#1070,#450);
#388=LINE('',#1072,#451);
#389=LINE('',#1074,#452);
#390=LINE('',#1076,#453);
#391=LINE('',#1078,#454);
#392=LINE('',#1080,#455);
#393=LINE('',#1083,#456);
#394=LINE('',#1085,#457);
#395=LINE('',#1087,#458);
#396=LINE('',#1089,#459);
#397=LINE('',#1091,#460);
#398=LINE('',#1093,#461);
#399=LINE('',#1095,#462);
#400=LINE('',#1097,#463);
#401=VECTOR('',#701,1.);
#402=VECTOR('',#702,1.);
#403=VECTOR('',#703,1.);
#404=VECTOR('',#704,1.);
#405=VECTOR('',#705,1.);
#406=VECTOR('',#706,1.);
#407=VECTOR('',#707,1.);
#408=VECTOR('',#708,1.);
#409=VECTOR('',#709,1.);
#410=VECTOR('',#710,1.);
#411=VECTOR('',#711,1.);
#412=VECTOR('',#712,1.);
#413=VECTOR('',#715,1.);
#414=VECTOR('',#716,1.);
#415=VECTOR('',#717,1.);
#416=VECTOR('',#718,1.);
#417=VECTOR('',#719,1.);
#418=VECTOR('',#720,1.);
#419=VECTOR('',#721,1.);
#420=VECTOR('',#724,1.);
#421=VECTOR('',#725,1.);
#422=VECTOR('',#726,1.);
#423=VECTOR('',#727,1.);
#424=VECTOR('',#728,1.);
#425=VECTOR('',#731,1.);
#426=VECTOR('',#734,1.);
#427=VECTOR('',#755,1.);
#428=VECTOR('',#756,1.);
#429=VECTOR('',#757,1.);
#430=VECTOR('',#758,1.);
#431=VECTOR('',#779,1.);
#432=VECTOR('',#794,1.);
#433=VECTOR('',#797,1.);
#434=VECTOR('',#798,1.);
#435=VECTOR('',#799,1.);
#436=VECTOR('',#806,1.);
#437=VECTOR('',#809,1.);
#438=VECTOR('',#812,1.);
#439=VECTOR('',#813,1.);
#440=VECTOR('',#816,1.);
#441=VECTOR('',#817,1.);
#442=VECTOR('',#818,1.);
#443=VECTOR('',#823,1.);
#444=VECTOR('',#824,1.);
#445=VECTOR('',#825,1.);
#446=VECTOR('',#830,1.);
#447=VECTOR('',#833,1.);
#448=VECTOR('',#838,1.);
#449=VECTOR('',#839,1.);
#450=VECTOR('',#840,1.);
#451=VECTOR('',#843,1.);
#452=VECTOR('',#844,1.);
#453=VECTOR('',#847,1.);
#454=VECTOR('',#848,1.);
#455=VECTOR('',#851,1.);
#456=VECTOR('',#856,1.);
#457=VECTOR('',#857,1.);
#458=VECTOR('',#858,1.);
#459=VECTOR('',#861,1.);
#460=VECTOR('',#862,1.);
#461=VECTOR('',#865,1.);
#462=VECTOR('',#866,1.);
#463=VECTOR('',#869,1.);
#464=EDGE_LOOP('',(#41,#42,#43,#44));
#465=EDGE_LOOP('',(#45,#46,#47,#48));
#466=EDGE_LOOP('',(#49,#50,#51,#52));
#467=EDGE_LOOP('',(#53,#54,#55,#56,#57,#58,#59,#60));
#468=EDGE_LOOP('',(#61,#62,#63,#64,#65,#66));
#469=EDGE_LOOP('',(#67,#68,#69,#70));
#470=EDGE_LOOP('',(#71));
#471=EDGE_LOOP('',(#72));
#472=EDGE_LOOP('',(#73));
#473=EDGE_LOOP('',(#74));
#474=EDGE_LOOP('',(#75,#76,#77,#78));
#475=EDGE_LOOP('',(#79));
#476=EDGE_LOOP('',(#80));
#477=EDGE_LOOP('',(#81));
#478=EDGE_LOOP('',(#82));
#479=EDGE_LOOP('',(#83));
#480=EDGE_LOOP('',(#84));
#481=EDGE_LOOP('',(#85));
#482=EDGE_LOOP('',(#86));
#483=EDGE_LOOP('',(#87,#88,#89,#90));
#484=EDGE_LOOP('',(#91,#92,#93,#94));
#485=EDGE_LOOP('',(#95,#96,#97,#98));
#486=EDGE_LOOP('',(#99,#100,#101,#102));
#487=EDGE_LOOP('',(#103,#104,#105));
#488=EDGE_LOOP('',(#106,#107,#108));
#489=EDGE_LOOP('',(#109,#110,#111,#112));
#490=EDGE_LOOP('',(#113,#114,#115,#116));
#491=EDGE_LOOP('',(#117,#118,#119,#120,#121));
#492=EDGE_LOOP('',(#122,#123,#124,#125,#126));
#493=EDGE_LOOP('',(#127,#128,#129,#130));
#494=EDGE_LOOP('',(#131,#132,#133,#134,#135,#136));
#495=EDGE_LOOP('',(#137));
#496=EDGE_LOOP('',(#138));
#497=EDGE_LOOP('',(#139));
#498=EDGE_LOOP('',(#140));
#499=EDGE_LOOP('',(#141,#142,#143,#144,#145,#146,#147,#148,#149,#150));
#500=EDGE_LOOP('',(#151,#152,#153,#154));
#501=EDGE_LOOP('',(#155,#156,#157,#158));
#502=EDGE_LOOP('',(#159,#160,#161,#162));
#503=EDGE_LOOP('',(#163,#164,#165,#166));
#504=EDGE_LOOP('',(#167,#168,#169,#170));
#505=EDGE_LOOP('',(#171,#172,#173,#174));
#506=EDGE_LOOP('',(#175,#176,#177,#178));
#507=EDGE_LOOP('',(#179,#180,#181,#182));
#508=EDGE_LOOP('',(#183,#184,#185,#186));
#509=EDGE_LOOP('',(#187,#188,#189,#190));
#510=EDGE_LOOP('',(#191,#192,#193,#194));
#511=EDGE_LOOP('',(#195,#196,#197,#198));
#512=EDGE_LOOP('',(#199,#200,#201,#202));
#513=FACE_BOUND('',#464,.T.);
#514=FACE_BOUND('',#465,.T.);
#515=FACE_BOUND('',#466,.T.);
#516=FACE_BOUND('',#467,.T.);
#517=FACE_BOUND('',#468,.T.);
#518=FACE_BOUND('',#469,.T.);
#519=FACE_BOUND('',#470,.T.);
#520=FACE_BOUND('',#471,.T.);
#521=FACE_BOUND('',#472,.T.);
#522=FACE_BOUND('',#473,.T.);
#523=FACE_BOUND('',#474,.T.);
#524=FACE_BOUND('',#475,.T.);
#525=FACE_BOUND('',#476,.T.);
#526=FACE_BOUND('',#477,.T.);
#527=FACE_BOUND('',#478,.T.);
#528=FACE_BOUND('',#479,.T.);
#529=FACE_BOUND('',#480,.T.);
#530=FACE_BOUND('',#481,.T.);
#531=FACE_BOUND('',#482,.T.);
#532=FACE_BOUND('',#483,.T.);
#533=FACE_BOUND('',#484,.T.);
#534=FACE_BOUND('',#485,.T.);
#535=FACE_BOUND('',#486,.T.);
#536=FACE_BOUND('',#487,.T.);
#537=FACE_BOUND('',#488,.T.);
#538=FACE_BOUND('',#489,.T.);
#539=FACE_BOUND('',#490,.T.);
#540=FACE_BOUND('',#491,.T.);
#541=FACE_BOUND('',#492,.T.);
#542=FACE_BOUND('',#493,.T.);
#543=FACE_BOUND('',#494,.T.);
#544=FACE_BOUND('',#495,.T.);
#545=FACE_BOUND('',#496,.T.);
#546=FACE_BOUND('',#497,.T.);
#547=FACE_BOUND('',#498,.T.);
#548=FACE_BOUND('',#499,.T.);
#549=FACE_BOUND('',#500,.T.);
#550=FACE_BOUND('',#501,.T.);
#551=FACE_BOUND('',#502,.T.);
#552=FACE_BOUND('',#503,.T.);
#553=FACE_BOUND('',#504,.T.);
#554=FACE_BOUND('',#505,.T.);
#555=FACE_BOUND('',#506,.T.);
#556=FACE_BOUND('',#507,.T.);
#557=FACE_BOUND('',#508,.T.);
#558=FACE_BOUND('',#509,.T.);
#559=FACE_BOUND('',#510,.T.);
#560=FACE_BOUND('',#511,.T.);
#561=FACE_BOUND('',#512,.T.);
#562=PLANE('',#642);
#563=PLANE('',#643);
#564=PLANE('',#644);
#565=PLANE('',#645);
#566=PLANE('',#648);
#567=PLANE('',#650);
#568=PLANE('',#652);
#569=PLANE('',#654);
#570=PLANE('',#656);
#571=PLANE('',#674);
#572=PLANE('',#677);
#573=PLANE('',#678);
#574=PLANE('',#681);
#575=PLANE('',#682);
#576=PLANE('',#683);
#577=PLANE('',#684);
#578=PLANE('',#685);
#579=PLANE('',#686);
#580=PLANE('',#687);
#581=PLANE('',#688);
#582=PLANE('',#689);
#583=PLANE('',#690);
#584=PLANE('',#691);
#585=PLANE('',#692);
#586=PLANE('',#693);
#587=PLANE('',#694);
#588=PLANE('',#695);
#589=PLANE('',#696);
#590=ADVANCED_FACE('',(#513,#514,#515),#562,.T.);
#591=ADVANCED_FACE('',(#516),#563,.T.);
#592=ADVANCED_FACE('',(#517),#564,.T.);
#593=ADVANCED_FACE('',(#518),#565,.T.);
#594=ADVANCED_FACE('',(#519),#566,.T.);
#595=ADVANCED_FACE('',(#520),#567,.T.);
#596=ADVANCED_FACE('',(#521),#568,.T.);
#597=ADVANCED_FACE('',(#522),#569,.T.);
#598=ADVANCED_FACE('',(#523),#570,.F.);
#599=ADVANCED_FACE('',(#524,#525),#18,.F.);
#600=ADVANCED_FACE('',(#526,#527),#19,.F.);
#601=ADVANCED_FACE('',(#528,#529),#20,.F.);
#602=ADVANCED_FACE('',(#530,#531),#21,.F.);
#603=ADVANCED_FACE('',(#532),#22,.T.);
#604=ADVANCED_FACE('',(#533),#23,.T.);
#605=ADVANCED_FACE('',(#534),#24,.T.);
#606=ADVANCED_FACE('',(#535),#571,.T.);
#607=ADVANCED_FACE('',(#536),#12,.T.);
#608=ADVANCED_FACE('',(#537),#13,.T.);
#609=ADVANCED_FACE('',(#538),#572,.T.);
#610=ADVANCED_FACE('',(#539),#573,.F.);
#611=ADVANCED_FACE('',(#540),#25,.T.);
#612=ADVANCED_FACE('',(#541),#26,.T.);
#613=ADVANCED_FACE('',(#542),#574,.F.);
#614=ADVANCED_FACE('',(#543),#575,.F.);
#615=ADVANCED_FACE('',(#544,#545,#546,#547,#548),#576,.T.);
#616=ADVANCED_FACE('',(#549),#577,.T.);
#617=ADVANCED_FACE('',(#550),#578,.F.);
#618=ADVANCED_FACE('',(#551),#579,.T.);
#619=ADVANCED_FACE('',(#552),#580,.T.);
#620=ADVANCED_FACE('',(#553),#581,.F.);
#621=ADVANCED_FACE('',(#554),#582,.F.);
#622=ADVANCED_FACE('',(#555),#583,.T.);
#623=ADVANCED_FACE('',(#556),#584,.T.);
#624=ADVANCED_FACE('',(#557),#585,.T.);
#625=ADVANCED_FACE('',(#558),#586,.F.);
#626=ADVANCED_FACE('',(#559),#587,.F.);
#627=ADVANCED_FACE('',(#560),#588,.T.);
#628=ADVANCED_FACE('',(#561),#589,.T.);
#629=CLOSED_SHELL('',(#590,#591,#592,#593,#594,#595,#596,#597,#598,#599,
#600,#601,#602,#603,#604,#605,#606,#607,#608,#609,#610,#611,#612,#613,#614,
#615,#616,#617,#618,#619,#620,#621,#622,#623,#624,#625,#626,#627,#628));
#630=STYLED_ITEM('',(#631),#638);
#631=PRESENTATION_STYLE_ASSIGNMENT((#632));
#632=SURFACE_STYLE_USAGE(.BOTH.,#633);
#633=SURFACE_SIDE_STYLE('',(#634));
#634=SURFACE_STYLE_FILL_AREA(#635);
#635=FILL_AREA_STYLE('',(#636));
#636=FILL_AREA_STYLE_COLOUR('',#637);
#637=COLOUR_RGB('',0.917647058823529,0.917647058823529,0.917647058823529);
#638=MANIFOLD_SOLID_BREP('Case_Right',#629);
#639=SHAPE_DEFINITION_REPRESENTATION(#1105,#640);
#640=SHAPE_REPRESENTATION('Case_Right',(#641),#1100);
#641=AXIS2_PLACEMENT_3D('',#872,#697,#698);
#642=AXIS2_PLACEMENT_3D('',#873,#699,#700);
#643=AXIS2_PLACEMENT_3D('',#898,#713,#714);
#644=AXIS2_PLACEMENT_3D('',#912,#722,#723);
#645=AXIS2_PLACEMENT_3D('',#922,#729,#730);
#646=AXIS2_PLACEMENT_3D('',#926,#732,#733);
#647=AXIS2_PLACEMENT_3D('',#930,#735,#736);
#648=AXIS2_PLACEMENT_3D('',#931,#737,#738);
#649=AXIS2_PLACEMENT_3D('',#932,#739,#740);
#650=AXIS2_PLACEMENT_3D('',#934,#741,#742);
#651=AXIS2_PLACEMENT_3D('',#935,#743,#744);
#652=AXIS2_PLACEMENT_3D('',#937,#745,#746);
#653=AXIS2_PLACEMENT_3D('',#938,#747,#748);
#654=AXIS2_PLACEMENT_3D('',#940,#749,#750);
#655=AXIS2_PLACEMENT_3D('',#941,#751,#752);
#656=AXIS2_PLACEMENT_3D('',#943,#753,#754);
#657=AXIS2_PLACEMENT_3D('',#952,#759,#760);
#658=AXIS2_PLACEMENT_3D('',#953,#761,#762);
#659=AXIS2_PLACEMENT_3D('',#955,#763,#764);
#660=AXIS2_PLACEMENT_3D('',#956,#765,#766);
#661=AXIS2_PLACEMENT_3D('',#958,#767,#768);
#662=AXIS2_PLACEMENT_3D('',#959,#769,#770);
#663=AXIS2_PLACEMENT_3D('',#961,#771,#772);
#664=AXIS2_PLACEMENT_3D('',#962,#773,#774);
#665=AXIS2_PLACEMENT_3D('',#964,#775,#776);
#666=AXIS2_PLACEMENT_3D('',#965,#777,#778);
#667=AXIS2_PLACEMENT_3D('',#969,#780,#781);
#668=AXIS2_PLACEMENT_3D('',#970,#782,#783);
#669=AXIS2_PLACEMENT_3D('',#971,#784,#785);
#670=AXIS2_PLACEMENT_3D('',#972,#786,#787);
#671=AXIS2_PLACEMENT_3D('',#973,#788,#789);
#672=AXIS2_PLACEMENT_3D('',#974,#790,#791);
#673=AXIS2_PLACEMENT_3D('',#976,#792,#793);
#674=AXIS2_PLACEMENT_3D('',#979,#795,#796);
#675=AXIS2_PLACEMENT_3D('',#1012,#800,#801);
#676=AXIS2_PLACEMENT_3D('',#1040,#802,#803);
#677=AXIS2_PLACEMENT_3D('',#1041,#804,#805);
#678=AXIS2_PLACEMENT_3D('',#1043,#807,#808);
#679=AXIS2_PLACEMENT_3D('',#1045,#810,#811);
#680=AXIS2_PLACEMENT_3D('',#1048,#814,#815);
#681=AXIS2_PLACEMENT_3D('',#1053,#819,#820);
#682=AXIS2_PLACEMENT_3D('',#1054,#821,#822);
#683=AXIS2_PLACEMENT_3D('',#1059,#826,#827);
#684=AXIS2_PLACEMENT_3D('',#1060,#828,#829);
#685=AXIS2_PLACEMENT_3D('',#1062,#831,#832);
#686=AXIS2_PLACEMENT_3D('',#1064,#834,#835);
#687=AXIS2_PLACEMENT_3D('',#1065,#836,#837);
#688=AXIS2_PLACEMENT_3D('',#1071,#841,#842);
#689=AXIS2_PLACEMENT_3D('',#1075,#845,#846);
#690=AXIS2_PLACEMENT_3D('',#1079,#849,#850);
#691=AXIS2_PLACEMENT_3D('',#1081,#852,#853);
#692=AXIS2_PLACEMENT_3D('',#1082,#854,#855);
#693=AXIS2_PLACEMENT_3D('',#1088,#859,#860);
#694=AXIS2_PLACEMENT_3D('',#1092,#863,#864);
#695=AXIS2_PLACEMENT_3D('',#1096,#867,#868);
#696=AXIS2_PLACEMENT_3D('',#1098,#870,#871);
#697=DIRECTION('',(0.,0.,1.));
#698=DIRECTION('',(1.,0.,0.));
#699=DIRECTION('',(0.,0.,1.));
#700=DIRECTION('',(1.,0.,0.));
#701=DIRECTION('',(1.,0.,0.));
#702=DIRECTION('',(0.,1.,0.));
#703=DIRECTION('',(1.,0.,0.));
#704=DIRECTION('',(0.,-1.,0.));
#705=DIRECTION('',(-1.,0.,0.));
#706=DIRECTION('',(0.,-1.,0.));
#707=DIRECTION('',(-1.,0.,0.));
#708=DIRECTION('',(0.,-1.,0.));
#709=DIRECTION('',(-1.,0.,0.));
#710=DIRECTION('',(0.,-1.,0.));
#711=DIRECTION('',(-1.,0.,0.));
#712=DIRECTION('',(0.,-1.,0.));
#713=DIRECTION('',(1.,0.,0.));
#714=DIRECTION('',(0.,0.,-1.));
#715=DIRECTION('',(0.,0.,-1.));
#716=DIRECTION('',(0.,1.,1.83386690555856E-16));
#717=DIRECTION('',(0.,0.,-1.));
#718=DIRECTION('',(0.,1.,0.));
#719=DIRECTION('',(0.,0.,-1.));
#720=DIRECTION('',(0.,0.,-1.));
#721=DIRECTION('',(0.,1.,0.));
#722=DIRECTION('',(0.,1.,0.));
#723=DIRECTION('',(1.,0.,0.));
#724=DIRECTION('',(1.,0.,0.));
#725=DIRECTION('',(0.,0.,-1.));
#726=DIRECTION('',(1.,0.,0.));
#727=DIRECTION('',(0.,0.,-1.));
#728=DIRECTION('',(1.,0.,0.));
#729=DIRECTION('',(1.,0.,0.));
#730=DIRECTION('',(0.,0.,-1.));
#731=DIRECTION('',(0.,1.,0.));
#732=DIRECTION('',(1.,0.,0.));
#733=DIRECTION('',(0.,-1.,0.));
#734=DIRECTION('',(0.,1.,0.));
#735=DIRECTION('',(1.,0.,0.));
#736=DIRECTION('',(0.,-1.,0.));
#737=DIRECTION('',(0.,0.,1.));
#738=DIRECTION('',(1.,0.,0.));
#739=DIRECTION('',(0.,0.,1.));
#740=DIRECTION('',(0.,-1.,0.));
#741=DIRECTION('',(0.,0.,1.));
#742=DIRECTION('',(1.,0.,0.));
#743=DIRECTION('',(0.,0.,1.));
#744=DIRECTION('',(0.,-1.,0.));
#745=DIRECTION('',(0.,0.,1.));
#746=DIRECTION('',(1.,0.,0.));
#747=DIRECTION('',(0.,0.,1.));
#748=DIRECTION('',(0.,-1.,0.));
#749=DIRECTION('',(0.,0.,1.));
#750=DIRECTION('',(1.,0.,0.));
#751=DIRECTION('',(0.,0.,1.));
#752=DIRECTION('',(0.,-1.,0.));
#753=DIRECTION('',(1.,0.,0.));
#754=DIRECTION('',(0.,-1.,0.));
#755=DIRECTION('',(0.,0.,-1.));
#756=DIRECTION('',(0.,-1.,0.));
#757=DIRECTION('',(0.,0.,-1.));
#758=DIRECTION('',(0.,-1.,0.));
#759=DIRECTION('',(0.,0.,1.));
#760=DIRECTION('',(0.,-1.,0.));
#761=DIRECTION('',(0.,0.,1.));
#762=DIRECTION('',(0.,-1.,0.));
#763=DIRECTION('',(0.,0.,1.));
#764=DIRECTION('',(0.,-1.,0.));
#765=DIRECTION('',(0.,0.,1.));
#766=DIRECTION('',(0.,-1.,0.));
#767=DIRECTION('',(0.,0.,1.));
#768=DIRECTION('',(0.,-1.,0.));
#769=DIRECTION('',(0.,0.,1.));
#770=DIRECTION('',(0.,-1.,0.));
#771=DIRECTION('',(0.,0.,1.));
#772=DIRECTION('',(0.,-1.,0.));
#773=DIRECTION('',(0.,0.,1.));
#774=DIRECTION('',(0.,-1.,0.));
#775=DIRECTION('',(0.,0.,-1.));
#776=DIRECTION('',(0.,1.,0.));
#777=DIRECTION('',(0.,0.,1.));
#778=DIRECTION('',(0.,-1.,0.));
#779=DIRECTION('',(0.,0.,-1.));
#780=DIRECTION('',(0.,0.,1.));
#781=DIRECTION('',(0.,-1.,0.));
#782=DIRECTION('',(0.,0.,-1.));
#783=DIRECTION('',(0.,1.,0.));
#784=DIRECTION('',(0.,0.,1.));
#785=DIRECTION('',(0.,-1.,0.));
#786=DIRECTION('',(0.,0.,1.));
#787=DIRECTION('',(0.,-1.,0.));
#788=DIRECTION('',(0.,-1.,0.));
#789=DIRECTION('',(-1.,0.,0.));
#790=DIRECTION('',(-0.196116135138178,0.980580675690921,0.));
#791=DIRECTION('',(-0.980580675690921,-0.196116135138179,0.));
#792=DIRECTION('',(0.196116135138178,0.980580675690921,0.));
#793=DIRECTION('',(-0.980580675690921,0.196116135138179,0.));
#794=DIRECTION('',(0.,-1.,0.));
#795=DIRECTION('',(1.,0.,0.));
#796=DIRECTION('',(0.,-1.,0.));
#797=DIRECTION('',(0.,0.,-1.));
#798=DIRECTION('',(0.,-1.,0.));
#799=DIRECTION('',(0.,0.,-1.));
#800=DIRECTION('',(-0.980580675690921,0.196116135138178,0.));
#801=DIRECTION('',(-0.196116135138179,-0.980580675690921,0.));
#802=DIRECTION('',(0.980580675690921,0.196116135138178,0.));
#803=DIRECTION('',(-0.196116135138179,0.980580675690921,0.));
#804=DIRECTION('',(0.,1.,0.));
#805=DIRECTION('',(1.,0.,0.));
#806=DIRECTION('',(1.,0.,0.));
#807=DIRECTION('',(0.,1.,0.));
#808=DIRECTION('',(1.,0.,0.));
#809=DIRECTION('',(1.,0.,0.));
#810=DIRECTION('',(-1.,0.,0.));
#811=DIRECTION('',(0.,1.,0.));
#812=DIRECTION('',(1.,0.,0.));
#813=DIRECTION('',(1.,0.,0.));
#814=DIRECTION('',(1.,0.,0.));
#815=DIRECTION('',(0.,-1.,0.));
#816=DIRECTION('',(1.,0.,0.));
#817=DIRECTION('',(1.,0.,0.));
#818=DIRECTION('',(1.,0.,0.));
#819=DIRECTION('',(0.,0.,1.));
#820=DIRECTION('',(1.,0.,0.));
#821=DIRECTION('',(0.,1.,0.));
#822=DIRECTION('',(1.,0.,0.));
#823=DIRECTION('',(0.,0.,-1.));
#824=DIRECTION('',(1.,0.,0.));
#825=DIRECTION('',(1.,0.,0.));
#826=DIRECTION('',(0.,0.,1.));
#827=DIRECTION('',(1.,0.,0.));
#828=DIRECTION('',(0.,1.83386690555856E-16,-1.));
#829=DIRECTION('',(0.,1.,1.83386690555856E-16));
#830=DIRECTION('',(0.,1.,1.83386690555856E-16));
#831=DIRECTION('',(0.,0.,-1.));
#832=DIRECTION('',(0.,1.,0.));
#833=DIRECTION('',(0.,1.,0.));
#834=DIRECTION('',(1.,0.,0.));
#835=DIRECTION('',(0.,0.,-1.));
#836=DIRECTION('',(-1.,0.,0.));
#837=DIRECTION('',(0.,1.,0.));
#838=DIRECTION('',(0.,0.,1.));
#839=DIRECTION('',(0.,-1.,0.));
#840=DIRECTION('',(0.,0.,1.));
#841=DIRECTION('',(0.,1.,0.));
#842=DIRECTION('',(1.,0.,0.));
#843=DIRECTION('',(0.,0.,1.));
#844=DIRECTION('',(-1.,0.,0.));
#845=DIRECTION('',(-1.,0.,0.));
#846=DIRECTION('',(0.,1.,0.));
#847=DIRECTION('',(0.,0.,1.));
#848=DIRECTION('',(0.,-1.,0.));
#849=DIRECTION('',(0.,1.,0.));
#850=DIRECTION('',(1.,0.,0.));
#851=DIRECTION('',(-1.,0.,0.));
#852=DIRECTION('',(0.,0.,1.));
#853=DIRECTION('',(1.,0.,0.));
#854=DIRECTION('',(-1.,0.,0.));
#855=DIRECTION('',(0.,1.,0.));
#856=DIRECTION('',(0.,0.,1.));
#857=DIRECTION('',(0.,-1.,0.));
#858=DIRECTION('',(0.,0.,1.));
#859=DIRECTION('',(0.,1.,0.));
#860=DIRECTION('',(1.,0.,0.));
#861=DIRECTION('',(0.,0.,1.));
#862=DIRECTION('',(-1.,0.,0.));
#863=DIRECTION('',(-1.,0.,0.));
#864=DIRECTION('',(0.,1.,0.));
#865=DIRECTION('',(0.,0.,1.));
#866=DIRECTION('',(0.,-1.,0.));
#867=DIRECTION('',(0.,1.,0.));
#868=DIRECTION('',(1.,0.,0.));
#869=DIRECTION('',(-1.,0.,0.));
#870=DIRECTION('',(0.,0.,1.));
#871=DIRECTION('',(1.,0.,0.));
#872=CARTESIAN_POINT('',(0.,0.,0.));
#873=CARTESIAN_POINT('',(-0.00169375,-0.00250624999999992,0.0111));
#874=CARTESIAN_POINT('',(-0.00169375,-0.06968125,0.0111));
#875=CARTESIAN_POINT('',(-0.1807875,-0.06968125,0.0111));
#876=CARTESIAN_POINT('',(0.,-0.06968125,0.0111));
#877=CARTESIAN_POINT('',(0.,-0.00250624999999992,0.0111));
#878=CARTESIAN_POINT('',(0.,0.06466875,0.0111));
#879=CARTESIAN_POINT('',(-0.00169375,0.06466875,0.0111));
#880=CARTESIAN_POINT('',(-0.1807875,0.06466875,0.0111));
#881=CARTESIAN_POINT('',(-0.1807875,-0.00250624999999992,0.0111));
#882=CARTESIAN_POINT('',(-0.17314375,0.061025,0.0111));
#883=CARTESIAN_POINT('',(-0.16914375,0.061025,0.0111));
#884=CARTESIAN_POINT('',(-0.17714375,0.061025,0.0111));
#885=CARTESIAN_POINT('',(-0.16914375,0.057025,0.0111));
#886=CARTESIAN_POINT('',(-0.16914375,0.053025,0.0111));
#887=CARTESIAN_POINT('',(-0.17314375,0.053025,0.0111));
#888=CARTESIAN_POINT('',(-0.17714375,0.053025,0.0111));
#889=CARTESIAN_POINT('',(-0.17714375,0.057025,0.0111));
#890=CARTESIAN_POINT('',(-0.17314375,-0.0580375,0.0111));
#891=CARTESIAN_POINT('',(-0.16914375,-0.0580375,0.0111));
#892=CARTESIAN_POINT('',(-0.17714375,-0.0580375,0.0111));
#893=CARTESIAN_POINT('',(-0.16914375,-0.0620375,0.0111));
#894=CARTESIAN_POINT('',(-0.16914375,-0.0660375,0.0111));
#895=CARTESIAN_POINT('',(-0.17314375,-0.0660375,0.0111));
#896=CARTESIAN_POINT('',(-0.17714375,-0.0660375,0.0111));
#897=CARTESIAN_POINT('',(-0.17714375,-0.0620375,0.0111));
#898=CARTESIAN_POINT('',(0.,0.,0.));
#899=CARTESIAN_POINT('',(0.,-0.07818125,0.0111));
#900=CARTESIAN_POINT('',(0.,-0.07818125,0.01523));
#901=CARTESIAN_POINT('',(0.,-0.07818125,0.008));
#902=CARTESIAN_POINT('',(0.,-0.00250624999999992,0.008));
#903=CARTESIAN_POINT('',(0.,0.07316875,0.008));
#904=CARTESIAN_POINT('',(0.,0.07316875,0.0111));
#905=CARTESIAN_POINT('',(0.,0.07316875,0.01523));
#906=CARTESIAN_POINT('',(0.,-0.0025062499999999,0.01523));
#907=CARTESIAN_POINT('',(0.,0.06466875,0.01523));
#908=CARTESIAN_POINT('',(0.,0.06466875,0.01523));
#909=CARTESIAN_POINT('',(0.,-0.06968125,0.01523));
#910=CARTESIAN_POINT('',(0.,-0.06968125,0.01523));
#911=CARTESIAN_POINT('',(0.,-0.0025062499999999,0.01523));
#912=CARTESIAN_POINT('',(-0.00169375,0.07316875,0.0111));
#913=CARTESIAN_POINT('',(-0.015,0.07316875,0.008));
#914=CARTESIAN_POINT('',(-0.015,0.07316875,0.008));
#915=CARTESIAN_POINT('',(-0.015,0.07316875,0.0111));
#916=CARTESIAN_POINT('',(-0.015,0.07316875,0.005));
#917=CARTESIAN_POINT('',(-0.1852875,0.07316875,0.005));
#918=CARTESIAN_POINT('',(-0.1852875,0.07316875,0.005));
#919=CARTESIAN_POINT('',(-0.1852875,0.07316875,0.0111));
#920=CARTESIAN_POINT('',(-0.1852875,0.07316875,0.01523));
#921=CARTESIAN_POINT('',(-0.00169375,0.07316875,0.01523));
#922=CARTESIAN_POINT('',(0.,0.,0.));
#923=CARTESIAN_POINT('',(0.,-0.00250624999999992,0.005));
#924=CARTESIAN_POINT('',(0.,-0.07818125,0.005));
#925=CARTESIAN_POINT('',(0.,0.07316875,0.005));
#926=CARTESIAN_POINT('',(0.,-0.07318125,0.005));
#927=CARTESIAN_POINT('',(0.,-0.07318125,0.));
#928=CARTESIAN_POINT('',(0.,-0.00250624999999992,0.));
#929=CARTESIAN_POINT('',(0.,0.06816875,0.));
#930=CARTESIAN_POINT('',(0.,0.06816875,0.005));
#931=CARTESIAN_POINT('',(-0.00169375,-0.00250624999999992,0.00773));
#932=CARTESIAN_POINT('',(-0.1850375,-0.07393125,0.00773));
#933=CARTESIAN_POINT('',(-0.1850375,-0.07598125,0.00773));
#934=CARTESIAN_POINT('',(-0.00169375,-0.00250624999999992,0.00773));
#935=CARTESIAN_POINT('',(-0.0650375,0.06891875,0.00773));
#936=CARTESIAN_POINT('',(-0.0650375,0.06686875,0.00773));
#937=CARTESIAN_POINT('',(-0.00169375,-0.00250624999999992,0.00773));
#938=CARTESIAN_POINT('',(-0.0650375,-0.07393125,0.00773));
#939=CARTESIAN_POINT('',(-0.0650375,-0.07598125,0.00773));
#940=CARTESIAN_POINT('',(-0.00169375,-0.00250624999999992,0.00773));
#941=CARTESIAN_POINT('',(-0.1850375,0.06891875,0.00773));
#942=CARTESIAN_POINT('',(-0.1850375,0.06686875,0.00773));
#943=CARTESIAN_POINT('',(-0.1892875,-0.00250624999999992,0.0111));
#944=CARTESIAN_POINT('',(-0.1892875,0.06916875,0.0111));
#945=CARTESIAN_POINT('',(-0.1892875,0.06916875,0.01523));
#946=CARTESIAN_POINT('',(-0.1892875,0.06916875,0.005));
#947=CARTESIAN_POINT('',(-0.1892875,-0.00250624999999992,0.005));
#948=CARTESIAN_POINT('',(-0.1892875,-0.07418125,0.005));
#949=CARTESIAN_POINT('',(-0.1892875,-0.07418125,0.0111));
#950=CARTESIAN_POINT('',(-0.1892875,-0.07418125,0.01523));
#951=CARTESIAN_POINT('',(-0.1892875,-0.00250624999999992,0.01523));
#952=CARTESIAN_POINT('',(-0.1850375,-0.07393125,0.00773));
#953=CARTESIAN_POINT('',(-0.1850375,-0.07393125,0.01523));
#954=CARTESIAN_POINT('',(-0.1850375,-0.07598125,0.01523));
#955=CARTESIAN_POINT('',(-0.0650375,0.06891875,0.00773));
#956=CARTESIAN_POINT('',(-0.0650375,0.06891875,0.01523));
#957=CARTESIAN_POINT('',(-0.0650375,0.06686875,0.01523));
#958=CARTESIAN_POINT('',(-0.0650375,-0.07393125,0.00773));
#959=CARTESIAN_POINT('',(-0.0650375,-0.07393125,0.01523));
#960=CARTESIAN_POINT('',(-0.0650375,-0.07598125,0.01523));
#961=CARTESIAN_POINT('',(-0.1850375,0.06891875,0.00773));
#962=CARTESIAN_POINT('',(-0.1850375,0.06891875,0.01523));
#963=CARTESIAN_POINT('',(-0.1850375,0.06686875,0.01523));
#964=CARTESIAN_POINT('',(-0.1852875,-0.07418125,0.0111));
#965=CARTESIAN_POINT('',(-0.1852875,-0.07418125,0.005));
#966=CARTESIAN_POINT('',(-0.1852875,-0.07818125,0.005));
#967=CARTESIAN_POINT('',(-0.1852875,-0.07818125,0.0111));
#968=CARTESIAN_POINT('',(-0.1852875,-0.07818125,0.01523));
#969=CARTESIAN_POINT('',(-0.1852875,-0.07418125,0.01523));
#970=CARTESIAN_POINT('',(-0.1852875,0.06916875,0.0111));
#971=CARTESIAN_POINT('',(-0.1852875,0.06916875,0.005));
#972=CARTESIAN_POINT('',(-0.1852875,0.06916875,0.01523));
#973=CARTESIAN_POINT('',(-0.1842875,-0.00250624999999992,0.005));
#974=CARTESIAN_POINT('',(-0.1842875,-0.07318125,0.005));
#975=CARTESIAN_POINT('',(-0.1842875,-0.07318125,0.));
#976=CARTESIAN_POINT('',(-0.1842875,0.06816875,0.005));
#977=CARTESIAN_POINT('',(-0.1842875,0.06816875,0.));
#978=CARTESIAN_POINT('',(-0.1842875,-0.00250624999999992,0.));
#979=CARTESIAN_POINT('',(-0.1807875,-0.00250624999999992,0.01523));
#980=CARTESIAN_POINT('',(-0.1807875,0.06466875,0.01523));
#981=CARTESIAN_POINT('',(-0.1807875,0.06466875,0.01523));
#982=CARTESIAN_POINT('',(-0.1807875,-0.00250624999999992,0.01523));
#983=CARTESIAN_POINT('',(-0.1807875,-0.06968125,0.01523));
#984=CARTESIAN_POINT('',(-0.1807875,-0.06968125,0.01523));
#985=CARTESIAN_POINT('',(-0.1892875,-0.07418125,0.005));
#986=CARTESIAN_POINT('',(-0.1892875,-0.07818125,0.005));
#987=CARTESIAN_POINT('',(-0.1852875,-0.07818125,0.005));
#988=CARTESIAN_POINT('',(-0.1892875,-0.0741812499999836,0.00467275065616782));
#989=CARTESIAN_POINT('',(-0.189287499998315,-0.0781812499983151,0.00441095072302478));
#990=CARTESIAN_POINT('',(-0.185287499999984,-0.07818125,0.00467275065616782));
#991=CARTESIAN_POINT('',(-0.189223035318331,-0.0741683570636739,0.00401826511875996));
#992=CARTESIAN_POINT('',(-0.189118336533711,-0.0780120865337112,0.00325705558392841));
#993=CARTESIAN_POINT('',(-0.185274607063674,-0.0781167853183315,0.00401826511875998));
#994=CARTESIAN_POINT('',(-0.188936684797937,-0.0741110869595853,0.00307423643960463));
#995=CARTESIAN_POINT('',(-0.188475242248168,-0.0773689922481676,0.00188916557922996));
#996=CARTESIAN_POINT('',(-0.185217336959585,-0.0778304347979367,0.00307423643960458));
#997=CARTESIAN_POINT('',(-0.18847161146526,-0.0740180722930525,0.002204286151869));
#998=CARTESIAN_POINT('',(-0.187677905107748,-0.0765716551077476,0.00100108812150309));
#999=CARTESIAN_POINT('',(-0.185124322293052,-0.0773653614652601,0.00220428615186906));
#1000=CARTESIAN_POINT('',(-0.187637406458379,-0.0738512312916754,0.001187253899152));
#1001=CARTESIAN_POINT('',(-0.186645074159192,-0.075538824159192,0.00033664663292671));
#1002=CARTESIAN_POINT('',(-0.184957481291675,-0.0765311564583786,0.00118725389915191));
#1003=CARTESIAN_POINT('',(-0.186250793137283,-0.0735739086274566,0.000260275559296701));
#1004=CARTESIAN_POINT('',(-0.185496533385068,-0.0743902833850655,4.78947953414135E-5));
#1005=CARTESIAN_POINT('',(-0.184680158627457,-0.0751445431372826,0.000260275559296732));
#1006=CARTESIAN_POINT('',(-0.184941998578577,-0.0733121497157155,2.25514051876985E-17));
#1007=CARTESIAN_POINT('',(-0.184680199114444,-0.0735739491144503,-5.01405587946912E-11));
#1008=CARTESIAN_POINT('',(-0.184418399715715,-0.0738357485785772,2.25514051876985E-17));
#1009=CARTESIAN_POINT('',(-0.1842875,-0.07318125,2.25514051876985E-17));
#1010=CARTESIAN_POINT('',(-0.1842875,-0.07318125,2.25514051876985E-17));
#1011=CARTESIAN_POINT('',(-0.1842875,-0.07318125,2.25514051876985E-17));
#1012=CARTESIAN_POINT('',(-0.1842875,-0.07318125,0.005));
#1013=CARTESIAN_POINT('',(-0.1852875,0.07316875,0.005));
#1014=CARTESIAN_POINT('',(-0.1892875,0.07316875,0.005));
#1015=CARTESIAN_POINT('',(-0.1892875,0.06916875,0.005));
#1016=CARTESIAN_POINT('',(-0.185287499999984,0.07316875,0.00467275065616782));
#1017=CARTESIAN_POINT('',(-0.189287499998315,0.0731687499983141,0.00441095072302478));
#1018=CARTESIAN_POINT('',(-0.1892875,0.0691687499999836,0.00467275065616782));
#1019=CARTESIAN_POINT('',(-0.185274607063674,0.0731042853183314,0.00401826511875997));
#1020=CARTESIAN_POINT('',(-0.189118336533711,0.0729995865337117,0.00325705558392842));
#1021=CARTESIAN_POINT('',(-0.189223035318332,0.0691558570636738,0.00401826511876));
#1022=CARTESIAN_POINT('',(-0.185217336959585,0.0728179347979367,0.00307423643960461));
#1023=CARTESIAN_POINT('',(-0.188475242248168,0.0723564922481674,0.00188916557922995));
#1024=CARTESIAN_POINT('',(-0.188936684797937,0.0690985869595853,0.00307423643960456));
#1025=CARTESIAN_POINT('',(-0.185124322293053,0.0723528614652601,0.00220428615186904));
#1026=CARTESIAN_POINT('',(-0.187677905107748,0.0715591551077477,0.0010010881215031));
#1027=CARTESIAN_POINT('',(-0.18847161146526,0.0690055722930525,0.00220428615186906));
#1028=CARTESIAN_POINT('',(-0.184957481291675,0.0715186564583787,0.00118725389915195));
#1029=CARTESIAN_POINT('',(-0.186645074159191,0.0705263241591918,0.000336646632926689));
#1030=CARTESIAN_POINT('',(-0.187637406458379,0.0688387312916754,0.00118725389915189));
#1031=CARTESIAN_POINT('',(-0.184680158627457,0.0701320431372826,0.000260275559296732));
#1032=CARTESIAN_POINT('',(-0.185496533385068,0.069377783385067,4.78947953414224E-5));
#1033=CARTESIAN_POINT('',(-0.186250793137283,0.0685614086274567,0.000260275559296754));
#1034=CARTESIAN_POINT('',(-0.184418399715715,0.0688232485785772,2.94902990916057E-17));
#1035=CARTESIAN_POINT('',(-0.184680199114444,0.0685614491144471,-5.0140551855825E-11));
#1036=CARTESIAN_POINT('',(-0.184941998578577,0.0682996497157154,2.94902990916057E-17));
#1037=CARTESIAN_POINT('',(-0.1842875,0.06816875,2.94902990916057E-17));
#1038=CARTESIAN_POINT('',(-0.1842875,0.06816875,2.94902990916057E-17));
#1039=CARTESIAN_POINT('',(-0.1842875,0.06816875,2.94902990916057E-17));
#1040=CARTESIAN_POINT('',(-0.1842875,0.06816875,0.005));
#1041=CARTESIAN_POINT('',(-0.00169375,-0.06968125,0.01523));
#1042=CARTESIAN_POINT('',(-0.00169375,-0.06968125,0.01523));
#1043=CARTESIAN_POINT('',(-0.00169375,0.06466875,0.01523));
#1044=CARTESIAN_POINT('',(-0.00169375,0.06466875,0.01523));
#1045=CARTESIAN_POINT('',(-0.00169375,0.06816875,0.005));
#1046=CARTESIAN_POINT('',(-0.1852875,0.07316875,0.005));
#1047=CARTESIAN_POINT('',(0.1819,0.06816875,0.));
#1048=CARTESIAN_POINT('',(-0.00169375,-0.07318125,0.005));
#1049=CARTESIAN_POINT('',(-0.00169375,-0.07318125,0.));
#1050=CARTESIAN_POINT('',(-0.015,-0.07818125,0.005));
#1051=CARTESIAN_POINT('',(-0.015,-0.07818125,0.005));
#1052=CARTESIAN_POINT('',(-0.00169375,-0.07818125,0.005));
#1053=CARTESIAN_POINT('',(-0.00169375,-0.00250624999999992,0.));
#1054=CARTESIAN_POINT('',(-0.00169375,-0.07818125,0.0111));
#1055=CARTESIAN_POINT('',(-0.015,-0.07818125,0.0111));
#1056=CARTESIAN_POINT('',(-0.015,-0.07818125,0.008));
#1057=CARTESIAN_POINT('',(-0.015,-0.07818125,0.008));
#1058=CARTESIAN_POINT('',(-0.00169375,-0.07818125,0.01523));
#1059=CARTESIAN_POINT('',(-0.00169375,-0.0025062499999999,0.01523));
#1060=CARTESIAN_POINT('',(-0.015,-0.00250624999999992,0.008));
#1061=CARTESIAN_POINT('',(-0.015,-0.00250624999999992,0.008));
#1062=CARTESIAN_POINT('',(-0.015,-0.00250624999999992,0.005));
#1063=CARTESIAN_POINT('',(-0.015,-0.00250624999999992,0.005));
#1064=CARTESIAN_POINT('',(-0.015,-0.00250624999999992,0.007615));
#1065=CARTESIAN_POINT('',(-0.16914375,0.057025,0.0071));
#1066=CARTESIAN_POINT('',(-0.16914375,0.061025,0.0071));
#1067=CARTESIAN_POINT('',(-0.16914375,0.061025,0.0071));
#1068=CARTESIAN_POINT('',(-0.16914375,0.057025,0.0071));
#1069=CARTESIAN_POINT('',(-0.16914375,0.053025,0.0071));
#1070=CARTESIAN_POINT('',(-0.16914375,0.053025,0.0071));
#1071=CARTESIAN_POINT('',(-0.17314375,0.061025,0.0071));
#1072=CARTESIAN_POINT('',(-0.17714375,0.061025,0.0071));
#1073=CARTESIAN_POINT('',(-0.17714375,0.061025,0.0071));
#1074=CARTESIAN_POINT('',(-0.17314375,0.061025,0.0071));
#1075=CARTESIAN_POINT('',(-0.17714375,0.057025,0.0071));
#1076=CARTESIAN_POINT('',(-0.17714375,0.053025,0.0071));
#1077=CARTESIAN_POINT('',(-0.17714375,0.053025,0.0071));
#1078=CARTESIAN_POINT('',(-0.17714375,0.057025,0.0071));
#1079=CARTESIAN_POINT('',(-0.17314375,0.053025,0.0071));
#1080=CARTESIAN_POINT('',(-0.17314375,0.053025,0.0071));
#1081=CARTESIAN_POINT('',(0.000128125000000007,-0.00250624999999992,0.0071));
#1082=CARTESIAN_POINT('',(-0.16914375,-0.0620375,0.0071));
#1083=CARTESIAN_POINT('',(-0.16914375,-0.0580375,0.0071));
#1084=CARTESIAN_POINT('',(-0.16914375,-0.0580375,0.0071));
#1085=CARTESIAN_POINT('',(-0.16914375,-0.0620375,0.0071));
#1086=CARTESIAN_POINT('',(-0.16914375,-0.0660375,0.0071));
#1087=CARTESIAN_POINT('',(-0.16914375,-0.0660375,0.0071));
#1088=CARTESIAN_POINT('',(-0.17314375,-0.0580375,0.0071));
#1089=CARTESIAN_POINT('',(-0.17714375,-0.0580375,0.0071));
#1090=CARTESIAN_POINT('',(-0.17714375,-0.0580375,0.0071));
#1091=CARTESIAN_POINT('',(-0.17314375,-0.0580375,0.0071));
#1092=CARTESIAN_POINT('',(-0.17714375,-0.0620375,0.0071));
#1093=CARTESIAN_POINT('',(-0.17714375,-0.0660375,0.0071));
#1094=CARTESIAN_POINT('',(-0.17714375,-0.0660375,0.0071));
#1095=CARTESIAN_POINT('',(-0.17714375,-0.0620375,0.0071));
#1096=CARTESIAN_POINT('',(-0.17314375,-0.0660375,0.0071));
#1097=CARTESIAN_POINT('',(-0.17314375,-0.0660375,0.0071));
#1098=CARTESIAN_POINT('',(0.000128125000000007,-0.00250624999999992,0.0071));
#1099=MECHANICAL_DESIGN_GEOMETRIC_PRESENTATION_REPRESENTATION('',(#630),
#1100);
#1100=(
GEOMETRIC_REPRESENTATION_CONTEXT(3)
GLOBAL_UNCERTAINTY_ASSIGNED_CONTEXT((#1101))
GLOBAL_UNIT_ASSIGNED_CONTEXT((#1104,#1103,#1102))
REPRESENTATION_CONTEXT('Case_Right','TOP_LEVEL_ASSEMBLY_PART')
);
#1101=UNCERTAINTY_MEASURE_WITH_UNIT(LENGTH_MEASURE(2.E-5),#1104,
'DISTANCE_ACCURACY_VALUE','Maximum Tolerance applied to model');
#1102=(
NAMED_UNIT(*)
SI_UNIT($,.STERADIAN.)
SOLID_ANGLE_UNIT()
);
#1103=(
NAMED_UNIT(*)
PLANE_ANGLE_UNIT()
SI_UNIT($,.RADIAN.)
);
#1104=(
LENGTH_UNIT()
NAMED_UNIT(*)
SI_UNIT($,.METRE.)
);
#1105=PRODUCT_DEFINITION_SHAPE('','',#1106);
#1106=PRODUCT_DEFINITION('','',#1108,#1107);
#1107=PRODUCT_DEFINITION_CONTEXT('',#1114,'design');
#1108=PRODUCT_DEFINITION_FORMATION_WITH_SPECIFIED_SOURCE('','',#1110,
 .NOT_KNOWN.);
#1109=PRODUCT_RELATED_PRODUCT_CATEGORY('','',(#1110));
#1110=PRODUCT('Case_Right','Case_Right','Case_Right',(#1112));
#1111=PRODUCT_CATEGORY('','');
#1112=PRODUCT_CONTEXT('',#1114,'mechanical');
#1113=APPLICATION_PROTOCOL_DEFINITION('international standard',
'ap242_managed_model_based_3d_engineering',2020,#1114);
#1114=APPLICATION_CONTEXT('managed model based 3d engineering');
ENDSEC;
END-ISO-10303-21;
