ISO-10303-21;
HEADER;
/* Generated by software containing ST-Developer
 * from STEP Tools, Inc. (www.steptools.com) 
 */
/* OPTION: using custom renumber hook */

FILE_DESCRIPTION(
/* description */ ('STEP AP242 Edition 2',
'CAx-IF Rec.Pracs.---Representation and Presentation of Product Manufa
cturing Information (PMI)---4.0---2014-10-13',
'CAx-IF Rec.Pracs.---3D Tessellated Geometry---0.4---2014-09-14','2;1',
'CAx-IF Rec.Pracs.---User Defined Attributes---1.5---2016-08-15'),
/* implementation_level */ '2;1');

FILE_NAME(
/* name */ 'Keeb - Top_Left',
/* time_stamp */ '2026-08-24T16:06:01Z',
/* author */ (''),
/* organization */ (''),
/* preprocessor_version */ 'ST-DEVELOPER v20',
/* originating_system */ 'ONSHAPE BY PTC INC, 1.219',
/* authorisation */ '  ');

FILE_SCHEMA (('AP242_MANAGED_MODEL_BASED_3D_ENGINEERING_MIM_LF { 1 0 10303 442 3 1 4 }'));
ENDSEC;

DATA;
#10=SHAPE_REPRESENTATION_RELATIONSHIP('','',#665,#11);
#11=ADVANCED_BREP_SHAPE_REPRESENTATION('',(#663),#1063);
#12=CYLINDRICAL_SURFACE('',#688,0.00400000000000005);
#13=CYLINDRICAL_SURFACE('',#690,0.004);
#14=CYLINDRICAL_SURFACE('',#701,0.00175);
#15=CYLINDRICAL_SURFACE('',#702,0.00175);
#16=CYLINDRICAL_SURFACE('',#703,0.00175);
#17=CYLINDRICAL_SURFACE('',#704,0.00175);
#18=CIRCLE('',#670,0.00175);
#19=CIRCLE('',#671,0.00175);
#20=CIRCLE('',#672,0.00175);
#21=CIRCLE('',#673,0.00175);
#22=CIRCLE('',#674,0.00400000000000005);
#23=CIRCLE('',#675,0.004);
#24=CIRCLE('',#681,0.00175);
#25=CIRCLE('',#682,0.00175);
#26=CIRCLE('',#683,0.00175);
#27=CIRCLE('',#684,0.00175);
#28=CIRCLE('',#685,0.004);
#29=CIRCLE('',#686,0.00400000000000005);
#30=ORIENTED_EDGE('',*,*,#202,.T.);
#31=ORIENTED_EDGE('',*,*,#203,.T.);
#32=ORIENTED_EDGE('',*,*,#204,.T.);
#33=ORIENTED_EDGE('',*,*,#205,.T.);
#34=ORIENTED_EDGE('',*,*,#206,.F.);
#35=ORIENTED_EDGE('',*,*,#207,.T.);
#36=ORIENTED_EDGE('',*,*,#208,.F.);
#37=ORIENTED_EDGE('',*,*,#209,.T.);
#38=ORIENTED_EDGE('',*,*,#210,.T.);
#39=ORIENTED_EDGE('',*,*,#211,.T.);
#40=ORIENTED_EDGE('',*,*,#212,.F.);
#41=ORIENTED_EDGE('',*,*,#213,.F.);
#42=ORIENTED_EDGE('',*,*,#214,.T.);
#43=ORIENTED_EDGE('',*,*,#215,.T.);
#44=ORIENTED_EDGE('',*,*,#216,.F.);
#45=ORIENTED_EDGE('',*,*,#217,.F.);
#46=ORIENTED_EDGE('',*,*,#218,.T.);
#47=ORIENTED_EDGE('',*,*,#219,.T.);
#48=ORIENTED_EDGE('',*,*,#220,.T.);
#49=ORIENTED_EDGE('',*,*,#221,.T.);
#50=ORIENTED_EDGE('',*,*,#209,.F.);
#51=ORIENTED_EDGE('',*,*,#222,.T.);
#52=ORIENTED_EDGE('',*,*,#223,.F.);
#53=ORIENTED_EDGE('',*,*,#224,.F.);
#54=ORIENTED_EDGE('',*,*,#225,.F.);
#55=ORIENTED_EDGE('',*,*,#226,.F.);
#56=ORIENTED_EDGE('',*,*,#205,.F.);
#57=ORIENTED_EDGE('',*,*,#227,.F.);
#58=ORIENTED_EDGE('',*,*,#228,.T.);
#59=ORIENTED_EDGE('',*,*,#229,.T.);
#60=ORIENTED_EDGE('',*,*,#222,.F.);
#61=ORIENTED_EDGE('',*,*,#208,.T.);
#62=ORIENTED_EDGE('',*,*,#230,.F.);
#63=ORIENTED_EDGE('',*,*,#231,.T.);
#64=ORIENTED_EDGE('',*,*,#232,.T.);
#65=ORIENTED_EDGE('',*,*,#233,.T.);
#66=ORIENTED_EDGE('',*,*,#234,.T.);
#67=ORIENTED_EDGE('',*,*,#235,.T.);
#68=ORIENTED_EDGE('',*,*,#202,.F.);
#69=ORIENTED_EDGE('',*,*,#226,.T.);
#70=ORIENTED_EDGE('',*,*,#236,.F.);
#71=ORIENTED_EDGE('',*,*,#237,.F.);
#72=ORIENTED_EDGE('',*,*,#238,.F.);
#73=ORIENTED_EDGE('',*,*,#239,.F.);
#74=ORIENTED_EDGE('',*,*,#240,.F.);
#75=ORIENTED_EDGE('',*,*,#241,.T.);
#76=ORIENTED_EDGE('',*,*,#242,.T.);
#77=ORIENTED_EDGE('',*,*,#243,.T.);
#78=ORIENTED_EDGE('',*,*,#244,.F.);
#79=ORIENTED_EDGE('',*,*,#245,.F.);
#80=ORIENTED_EDGE('',*,*,#246,.T.);
#81=ORIENTED_EDGE('',*,*,#206,.T.);
#82=ORIENTED_EDGE('',*,*,#229,.F.);
#83=ORIENTED_EDGE('',*,*,#247,.F.);
#84=ORIENTED_EDGE('',*,*,#248,.F.);
#85=ORIENTED_EDGE('',*,*,#249,.F.);
#86=ORIENTED_EDGE('',*,*,#250,.T.);
#87=ORIENTED_EDGE('',*,*,#227,.T.);
#88=ORIENTED_EDGE('',*,*,#204,.F.);
#89=ORIENTED_EDGE('',*,*,#251,.F.);
#90=ORIENTED_EDGE('',*,*,#252,.F.);
#91=ORIENTED_EDGE('',*,*,#253,.T.);
#92=ORIENTED_EDGE('',*,*,#254,.F.);
#93=ORIENTED_EDGE('',*,*,#255,.F.);
#94=ORIENTED_EDGE('',*,*,#256,.F.);
#95=ORIENTED_EDGE('',*,*,#257,.F.);
#96=ORIENTED_EDGE('',*,*,#234,.F.);
#97=ORIENTED_EDGE('',*,*,#258,.T.);
#98=ORIENTED_EDGE('',*,*,#242,.F.);
#99=ORIENTED_EDGE('',*,*,#259,.F.);
#100=ORIENTED_EDGE('',*,*,#249,.T.);
#101=ORIENTED_EDGE('',*,*,#260,.T.);
#102=ORIENTED_EDGE('',*,*,#237,.T.);
#103=ORIENTED_EDGE('',*,*,#261,.T.);
#104=ORIENTED_EDGE('',*,*,#262,.T.);
#105=ORIENTED_EDGE('',*,*,#263,.T.);
#106=ORIENTED_EDGE('',*,*,#224,.T.);
#107=ORIENTED_EDGE('',*,*,#264,.F.);
#108=ORIENTED_EDGE('',*,*,#262,.F.);
#109=ORIENTED_EDGE('',*,*,#265,.T.);
#110=ORIENTED_EDGE('',*,*,#223,.T.);
#111=ORIENTED_EDGE('',*,*,#235,.F.);
#112=ORIENTED_EDGE('',*,*,#263,.F.);
#113=ORIENTED_EDGE('',*,*,#264,.T.);
#114=ORIENTED_EDGE('',*,*,#228,.F.);
#115=ORIENTED_EDGE('',*,*,#250,.F.);
#116=ORIENTED_EDGE('',*,*,#259,.T.);
#117=ORIENTED_EDGE('',*,*,#247,.T.);
#118=ORIENTED_EDGE('',*,*,#225,.T.);
#119=ORIENTED_EDGE('',*,*,#265,.F.);
#120=ORIENTED_EDGE('',*,*,#261,.F.);
#121=ORIENTED_EDGE('',*,*,#236,.T.);
#122=ORIENTED_EDGE('',*,*,#210,.F.);
#123=ORIENTED_EDGE('',*,*,#266,.F.);
#124=ORIENTED_EDGE('',*,*,#267,.T.);
#125=ORIENTED_EDGE('',*,*,#268,.T.);
#126=ORIENTED_EDGE('',*,*,#213,.T.);
#127=ORIENTED_EDGE('',*,*,#269,.F.);
#128=ORIENTED_EDGE('',*,*,#270,.F.);
#129=ORIENTED_EDGE('',*,*,#266,.T.);
#130=ORIENTED_EDGE('',*,*,#212,.T.);
#131=ORIENTED_EDGE('',*,*,#271,.F.);
#132=ORIENTED_EDGE('',*,*,#272,.F.);
#133=ORIENTED_EDGE('',*,*,#269,.T.);
#134=ORIENTED_EDGE('',*,*,#211,.F.);
#135=ORIENTED_EDGE('',*,*,#268,.F.);
#136=ORIENTED_EDGE('',*,*,#273,.T.);
#137=ORIENTED_EDGE('',*,*,#271,.T.);
#138=ORIENTED_EDGE('',*,*,#267,.F.);
#139=ORIENTED_EDGE('',*,*,#270,.T.);
#140=ORIENTED_EDGE('',*,*,#272,.T.);
#141=ORIENTED_EDGE('',*,*,#273,.F.);
#142=ORIENTED_EDGE('',*,*,#214,.F.);
#143=ORIENTED_EDGE('',*,*,#274,.F.);
#144=ORIENTED_EDGE('',*,*,#275,.T.);
#145=ORIENTED_EDGE('',*,*,#276,.T.);
#146=ORIENTED_EDGE('',*,*,#217,.T.);
#147=ORIENTED_EDGE('',*,*,#277,.F.);
#148=ORIENTED_EDGE('',*,*,#278,.F.);
#149=ORIENTED_EDGE('',*,*,#274,.T.);
#150=ORIENTED_EDGE('',*,*,#216,.T.);
#151=ORIENTED_EDGE('',*,*,#279,.F.);
#152=ORIENTED_EDGE('',*,*,#280,.F.);
#153=ORIENTED_EDGE('',*,*,#277,.T.);
#154=ORIENTED_EDGE('',*,*,#215,.F.);
#155=ORIENTED_EDGE('',*,*,#276,.F.);
#156=ORIENTED_EDGE('',*,*,#281,.T.);
#157=ORIENTED_EDGE('',*,*,#279,.T.);
#158=ORIENTED_EDGE('',*,*,#275,.F.);
#159=ORIENTED_EDGE('',*,*,#278,.T.);
#160=ORIENTED_EDGE('',*,*,#280,.T.);
#161=ORIENTED_EDGE('',*,*,#281,.F.);
#162=ORIENTED_EDGE('',*,*,#254,.T.);
#163=ORIENTED_EDGE('',*,*,#218,.F.);
#164=ORIENTED_EDGE('',*,*,#255,.T.);
#165=ORIENTED_EDGE('',*,*,#219,.F.);
#166=ORIENTED_EDGE('',*,*,#256,.T.);
#167=ORIENTED_EDGE('',*,*,#220,.F.);
#168=ORIENTED_EDGE('',*,*,#257,.T.);
#169=ORIENTED_EDGE('',*,*,#221,.F.);
#170=ORIENTED_EDGE('',*,*,#282,.F.);
#171=ORIENTED_EDGE('',*,*,#238,.T.);
#172=ORIENTED_EDGE('',*,*,#260,.F.);
#173=ORIENTED_EDGE('',*,*,#248,.T.);
#174=ORIENTED_EDGE('',*,*,#283,.F.);
#175=ORIENTED_EDGE('',*,*,#243,.F.);
#176=ORIENTED_EDGE('',*,*,#258,.F.);
#177=ORIENTED_EDGE('',*,*,#233,.F.);
#178=ORIENTED_EDGE('',*,*,#207,.F.);
#179=ORIENTED_EDGE('',*,*,#246,.F.);
#180=ORIENTED_EDGE('',*,*,#284,.T.);
#181=ORIENTED_EDGE('',*,*,#230,.T.);
#182=ORIENTED_EDGE('',*,*,#283,.T.);
#183=ORIENTED_EDGE('',*,*,#232,.F.);
#184=ORIENTED_EDGE('',*,*,#285,.F.);
#185=ORIENTED_EDGE('',*,*,#244,.T.);
#186=ORIENTED_EDGE('',*,*,#284,.F.);
#187=ORIENTED_EDGE('',*,*,#245,.T.);
#188=ORIENTED_EDGE('',*,*,#285,.T.);
#189=ORIENTED_EDGE('',*,*,#231,.F.);
#190=ORIENTED_EDGE('',*,*,#203,.F.);
#191=ORIENTED_EDGE('',*,*,#241,.F.);
#192=ORIENTED_EDGE('',*,*,#286,.T.);
#193=ORIENTED_EDGE('',*,*,#251,.T.);
#194=ORIENTED_EDGE('',*,*,#282,.T.);
#195=ORIENTED_EDGE('',*,*,#253,.F.);
#196=ORIENTED_EDGE('',*,*,#287,.F.);
#197=ORIENTED_EDGE('',*,*,#239,.T.);
#198=ORIENTED_EDGE('',*,*,#286,.F.);
#199=ORIENTED_EDGE('',*,*,#240,.T.);
#200=ORIENTED_EDGE('',*,*,#287,.T.);
#201=ORIENTED_EDGE('',*,*,#252,.T.);
#202=EDGE_CURVE('',#288,#289,#348,.T.);
#203=EDGE_CURVE('',#289,#290,#349,.T.);
#204=EDGE_CURVE('',#290,#291,#350,.T.);
#205=EDGE_CURVE('',#291,#288,#351,.T.);
#206=EDGE_CURVE('',#292,#293,#352,.T.);
#207=EDGE_CURVE('',#292,#294,#353,.T.);
#208=EDGE_CURVE('',#295,#294,#354,.T.);
#209=EDGE_CURVE('',#295,#293,#355,.T.);
#210=EDGE_CURVE('',#296,#297,#356,.T.);
#211=EDGE_CURVE('',#297,#298,#357,.T.);
#212=EDGE_CURVE('',#299,#298,#358,.T.);
#213=EDGE_CURVE('',#296,#299,#359,.T.);
#214=EDGE_CURVE('',#300,#301,#360,.T.);
#215=EDGE_CURVE('',#301,#302,#361,.T.);
#216=EDGE_CURVE('',#303,#302,#362,.T.);
#217=EDGE_CURVE('',#300,#303,#363,.T.);
#218=EDGE_CURVE('',#304,#304,#18,.T.);
#219=EDGE_CURVE('',#305,#305,#19,.T.);
#220=EDGE_CURVE('',#306,#306,#20,.T.);
#221=EDGE_CURVE('',#307,#307,#21,.T.);
#222=EDGE_CURVE('',#295,#308,#364,.T.);
#223=EDGE_CURVE('',#309,#308,#22,.T.);
#224=EDGE_CURVE('',#310,#309,#365,.T.);
#225=EDGE_CURVE('',#311,#310,#23,.T.);
#226=EDGE_CURVE('',#288,#311,#366,.T.);
#227=EDGE_CURVE('',#312,#291,#367,.T.);
#228=EDGE_CURVE('',#312,#313,#368,.T.);
#229=EDGE_CURVE('',#313,#293,#369,.T.);
#230=EDGE_CURVE('',#314,#294,#370,.T.);
#231=EDGE_CURVE('',#314,#315,#371,.T.);
#232=EDGE_CURVE('',#315,#316,#372,.T.);
#233=EDGE_CURVE('',#316,#317,#373,.T.);
#234=EDGE_CURVE('',#317,#318,#374,.T.);
#235=EDGE_CURVE('',#318,#308,#375,.T.);
#236=EDGE_CURVE('',#319,#311,#376,.T.);
#237=EDGE_CURVE('',#320,#319,#377,.T.);
#238=EDGE_CURVE('',#321,#320,#378,.T.);
#239=EDGE_CURVE('',#322,#321,#379,.T.);
#240=EDGE_CURVE('',#323,#322,#380,.T.);
#241=EDGE_CURVE('',#323,#289,#381,.T.);
#242=EDGE_CURVE('',#324,#325,#382,.T.);
#243=EDGE_CURVE('',#325,#326,#383,.T.);
#244=EDGE_CURVE('',#327,#326,#384,.T.);
#245=EDGE_CURVE('',#328,#327,#385,.T.);
#246=EDGE_CURVE('',#328,#292,#386,.T.);
#247=EDGE_CURVE('',#324,#313,#387,.T.);
#248=EDGE_CURVE('',#329,#330,#388,.T.);
#249=EDGE_CURVE('',#331,#329,#389,.T.);
#250=EDGE_CURVE('',#331,#312,#390,.T.);
#251=EDGE_CURVE('',#332,#290,#391,.T.);
#252=EDGE_CURVE('',#333,#332,#392,.T.);
#253=EDGE_CURVE('',#333,#330,#393,.T.);
#254=EDGE_CURVE('',#334,#334,#24,.T.);
#255=EDGE_CURVE('',#335,#335,#25,.T.);
#256=EDGE_CURVE('',#336,#336,#26,.T.);
#257=EDGE_CURVE('',#337,#337,#27,.T.);
#258=EDGE_CURVE('',#317,#325,#394,.T.);
#259=EDGE_CURVE('',#331,#324,#395,.T.);
#260=EDGE_CURVE('',#329,#320,#396,.T.);
#261=EDGE_CURVE('',#319,#338,#28,.T.);
#262=EDGE_CURVE('',#338,#339,#397,.T.);
#263=EDGE_CURVE('',#339,#318,#29,.T.);
#264=EDGE_CURVE('',#339,#309,#398,.T.);
#265=EDGE_CURVE('',#338,#310,#399,.T.);
#266=EDGE_CURVE('',#340,#296,#400,.T.);
#267=EDGE_CURVE('',#340,#341,#401,.T.);
#268=EDGE_CURVE('',#341,#297,#402,.T.);
#269=EDGE_CURVE('',#342,#299,#403,.T.);
#270=EDGE_CURVE('',#340,#342,#404,.T.);
#271=EDGE_CURVE('',#343,#298,#405,.T.);
#272=EDGE_CURVE('',#342,#343,#406,.T.);
#273=EDGE_CURVE('',#341,#343,#407,.T.);
#274=EDGE_CURVE('',#344,#300,#408,.T.);
#275=EDGE_CURVE('',#344,#345,#409,.T.);
#276=EDGE_CURVE('',#345,#301,#410,.T.);
#277=EDGE_CURVE('',#346,#303,#411,.T.);
#278=EDGE_CURVE('',#344,#346,#412,.T.);
#279=EDGE_CURVE('',#347,#302,#413,.T.);
#280=EDGE_CURVE('',#346,#347,#414,.T.);
#281=EDGE_CURVE('',#345,#347,#415,.T.);
#282=EDGE_CURVE('',#321,#330,#416,.T.);
#283=EDGE_CURVE('',#326,#316,#417,.T.);
#284=EDGE_CURVE('',#328,#314,#418,.T.);
#285=EDGE_CURVE('',#327,#315,#419,.T.);
#286=EDGE_CURVE('',#323,#332,#420,.T.);
#287=EDGE_CURVE('',#322,#333,#421,.T.);
#288=VERTEX_POINT('',#884);
#289=VERTEX_POINT('',#885);
#290=VERTEX_POINT('',#887);
#291=VERTEX_POINT('',#889);
#292=VERTEX_POINT('',#893);
#293=VERTEX_POINT('',#894);
#294=VERTEX_POINT('',#896);
#295=VERTEX_POINT('',#898);
#296=VERTEX_POINT('',#902);
#297=VERTEX_POINT('',#903);
#298=VERTEX_POINT('',#905);
#299=VERTEX_POINT('',#907);
#300=VERTEX_POINT('',#910);
#301=VERTEX_POINT('',#911);
#302=VERTEX_POINT('',#913);
#303=VERTEX_POINT('',#915);
#304=VERTEX_POINT('',#918);
#305=VERTEX_POINT('',#920);
#306=VERTEX_POINT('',#922);
#307=VERTEX_POINT('',#924);
#308=VERTEX_POINT('',#926);
#309=VERTEX_POINT('',#928);
#310=VERTEX_POINT('',#930);
#311=VERTEX_POINT('',#932);
#312=VERTEX_POINT('',#935);
#313=VERTEX_POINT('',#937);
#314=VERTEX_POINT('',#941);
#315=VERTEX_POINT('',#943);
#316=VERTEX_POINT('',#945);
#317=VERTEX_POINT('',#947);
#318=VERTEX_POINT('',#949);
#319=VERTEX_POINT('',#953);
#320=VERTEX_POINT('',#955);
#321=VERTEX_POINT('',#957);
#322=VERTEX_POINT('',#959);
#323=VERTEX_POINT('',#961);
#324=VERTEX_POINT('',#965);
#325=VERTEX_POINT('',#966);
#326=VERTEX_POINT('',#968);
#327=VERTEX_POINT('',#970);
#328=VERTEX_POINT('',#972);
#329=VERTEX_POINT('',#977);
#330=VERTEX_POINT('',#978);
#331=VERTEX_POINT('',#980);
#332=VERTEX_POINT('',#983);
#333=VERTEX_POINT('',#985);
#334=VERTEX_POINT('',#989);
#335=VERTEX_POINT('',#991);
#336=VERTEX_POINT('',#993);
#337=VERTEX_POINT('',#995);
#338=VERTEX_POINT('',#1000);
#339=VERTEX_POINT('',#1002);
#340=VERTEX_POINT('',#1012);
#341=VERTEX_POINT('',#1014);
#342=VERTEX_POINT('',#1018);
#343=VERTEX_POINT('',#1022);
#344=VERTEX_POINT('',#1029);
#345=VERTEX_POINT('',#1031);
#346=VERTEX_POINT('',#1035);
#347=VERTEX_POINT('',#1039);
#348=LINE('',#883,#422);
#349=LINE('',#886,#423);
#350=LINE('',#888,#424);
#351=LINE('',#890,#425);
#352=LINE('',#892,#426);
#353=LINE('',#895,#427);
#354=LINE('',#897,#428);
#355=LINE('',#899,#429);
#356=LINE('',#901,#430);
#357=LINE('',#904,#431);
#358=LINE('',#906,#432);
#359=LINE('',#908,#433);
#360=LINE('',#909,#434);
#361=LINE('',#912,#435);
#362=LINE('',#914,#436);
#363=LINE('',#916,#437);
#364=LINE('',#925,#438);
#365=LINE('',#929,#439);
#366=LINE('',#933,#440);
#367=LINE('',#934,#441);
#368=LINE('',#936,#442);
#369=LINE('',#938,#443);
#370=LINE('',#940,#444);
#371=LINE('',#942,#445);
#372=LINE('',#944,#446);
#373=LINE('',#946,#447);
#374=LINE('',#948,#448);
#375=LINE('',#950,#449);
#376=LINE('',#952,#450);
#377=LINE('',#954,#451);
#378=LINE('',#956,#452);
#379=LINE('',#958,#453);
#380=LINE('',#960,#454);
#381=LINE('',#962,#455);
#382=LINE('',#964,#456);
#383=LINE('',#967,#457);
#384=LINE('',#969,#458);
#385=LINE('',#971,#459);
#386=LINE('',#973,#460);
#387=LINE('',#974,#461);
#388=LINE('',#976,#462);
#389=LINE('',#979,#463);
#390=LINE('',#981,#464);
#391=LINE('',#982,#465);
#392=LINE('',#984,#466);
#393=LINE('',#986,#467);
#394=LINE('',#996,#468);
#395=LINE('',#997,#469);
#396=LINE('',#998,#470);
#397=LINE('',#1001,#471);
#398=LINE('',#1005,#472);
#399=LINE('',#1006,#473);
#400=LINE('',#1011,#474);
#401=LINE('',#1013,#475);
#402=LINE('',#1015,#476);
#403=LINE('',#1017,#477);
#404=LINE('',#1019,#478);
#405=LINE('',#1021,#479);
#406=LINE('',#1023,#480);
#407=LINE('',#1025,#481);
#408=LINE('',#1028,#482);
#409=LINE('',#1030,#483);
#410=LINE('',#1032,#484);
#411=LINE('',#1034,#485);
#412=LINE('',#1036,#486);
#413=LINE('',#1038,#487);
#414=LINE('',#1040,#488);
#415=LINE('',#1042,#489);
#416=LINE('',#1049,#490);
#417=LINE('',#1051,#491);
#418=LINE('',#1053,#492);
#419=LINE('',#1055,#493);
#420=LINE('',#1058,#494);
#421=LINE('',#1060,#495);
#422=VECTOR('',#717,1.);
#423=VECTOR('',#718,1.);
#424=VECTOR('',#719,1.);
#425=VECTOR('',#720,1.);
#426=VECTOR('',#723,1.);
#427=VECTOR('',#724,1.);
#428=VECTOR('',#725,1.);
#429=VECTOR('',#726,1.);
#430=VECTOR('',#729,1.);
#431=VECTOR('',#730,1.);
#432=VECTOR('',#731,1.);
#433=VECTOR('',#732,1.);
#434=VECTOR('',#733,1.);
#435=VECTOR('',#734,1.);
#436=VECTOR('',#735,1.);
#437=VECTOR('',#736,1.);
#438=VECTOR('',#745,1.);
#439=VECTOR('',#748,1.);
#440=VECTOR('',#751,1.);
#441=VECTOR('',#752,1.);
#442=VECTOR('',#753,1.);
#443=VECTOR('',#754,1.);
#444=VECTOR('',#757,1.);
#445=VECTOR('',#758,1.);
#446=VECTOR('',#759,1.);
#447=VECTOR('',#760,1.);
#448=VECTOR('',#761,1.);
#449=VECTOR('',#762,1.);
#450=VECTOR('',#765,1.);
#451=VECTOR('',#766,1.);
#452=VECTOR('',#767,1.);
#453=VECTOR('',#768,1.);
#454=VECTOR('',#769,1.);
#455=VECTOR('',#770,1.);
#456=VECTOR('',#773,1.);
#457=VECTOR('',#774,1.);
#458=VECTOR('',#775,1.);
#459=VECTOR('',#776,1.);
#460=VECTOR('',#777,1.);
#461=VECTOR('',#778,1.);
#462=VECTOR('',#781,1.);
#463=VECTOR('',#782,1.);
#464=VECTOR('',#783,1.);
#465=VECTOR('',#784,1.);
#466=VECTOR('',#785,1.);
#467=VECTOR('',#786,1.);
#468=VECTOR('',#797,1.);
#469=VECTOR('',#798,1.);
#470=VECTOR('',#799,1.);
#471=VECTOR('',#802,1.);
#472=VECTOR('',#807,1.);
#473=VECTOR('',#808,1.);
#474=VECTOR('',#817,1.);
#475=VECTOR('',#818,1.);
#476=VECTOR('',#819,1.);
#477=VECTOR('',#822,1.);
#478=VECTOR('',#823,1.);
#479=VECTOR('',#826,1.);
#480=VECTOR('',#827,1.);
#481=VECTOR('',#830,1.);
#482=VECTOR('',#835,1.);
#483=VECTOR('',#836,1.);
#484=VECTOR('',#837,1.);
#485=VECTOR('',#840,1.);
#486=VECTOR('',#841,1.);
#487=VECTOR('',#844,1.);
#488=VECTOR('',#845,1.);
#489=VECTOR('',#848,1.);
#490=VECTOR('',#861,1.);
#491=VECTOR('',#864,1.);
#492=VECTOR('',#867,1.);
#493=VECTOR('',#870,1.);
#494=VECTOR('',#875,1.);
#495=VECTOR('',#878,1.);
#496=EDGE_LOOP('',(#30,#31,#32,#33));
#497=EDGE_LOOP('',(#34,#35,#36,#37));
#498=EDGE_LOOP('',(#38,#39,#40,#41));
#499=EDGE_LOOP('',(#42,#43,#44,#45));
#500=EDGE_LOOP('',(#46));
#501=EDGE_LOOP('',(#47));
#502=EDGE_LOOP('',(#48));
#503=EDGE_LOOP('',(#49));
#504=EDGE_LOOP('',(#50,#51,#52,#53,#54,#55,#56,#57,#58,#59));
#505=EDGE_LOOP('',(#60,#61,#62,#63,#64,#65,#66,#67));
#506=EDGE_LOOP('',(#68,#69,#70,#71,#72,#73,#74,#75));
#507=EDGE_LOOP('',(#76,#77,#78,#79,#80,#81,#82,#83));
#508=EDGE_LOOP('',(#84,#85,#86,#87,#88,#89,#90,#91));
#509=EDGE_LOOP('',(#92));
#510=EDGE_LOOP('',(#93));
#511=EDGE_LOOP('',(#94));
#512=EDGE_LOOP('',(#95));
#513=EDGE_LOOP('',(#96,#97,#98,#99,#100,#101,#102,#103,#104,#105));
#514=EDGE_LOOP('',(#106,#107,#108,#109));
#515=EDGE_LOOP('',(#110,#111,#112,#113));
#516=EDGE_LOOP('',(#114,#115,#116,#117));
#517=EDGE_LOOP('',(#118,#119,#120,#121));
#518=EDGE_LOOP('',(#122,#123,#124,#125));
#519=EDGE_LOOP('',(#126,#127,#128,#129));
#520=EDGE_LOOP('',(#130,#131,#132,#133));
#521=EDGE_LOOP('',(#134,#135,#136,#137));
#522=EDGE_LOOP('',(#138,#139,#140,#141));
#523=EDGE_LOOP('',(#142,#143,#144,#145));
#524=EDGE_LOOP('',(#146,#147,#148,#149));
#525=EDGE_LOOP('',(#150,#151,#152,#153));
#526=EDGE_LOOP('',(#154,#155,#156,#157));
#527=EDGE_LOOP('',(#158,#159,#160,#161));
#528=EDGE_LOOP('',(#162));
#529=EDGE_LOOP('',(#163));
#530=EDGE_LOOP('',(#164));
#531=EDGE_LOOP('',(#165));
#532=EDGE_LOOP('',(#166));
#533=EDGE_LOOP('',(#167));
#534=EDGE_LOOP('',(#168));
#535=EDGE_LOOP('',(#169));
#536=EDGE_LOOP('',(#170,#171,#172,#173));
#537=EDGE_LOOP('',(#174,#175,#176,#177));
#538=EDGE_LOOP('',(#178,#179,#180,#181));
#539=EDGE_LOOP('',(#182,#183,#184,#185));
#540=EDGE_LOOP('',(#186,#187,#188,#189));
#541=EDGE_LOOP('',(#190,#191,#192,#193));
#542=EDGE_LOOP('',(#194,#195,#196,#197));
#543=EDGE_LOOP('',(#198,#199,#200,#201));
#544=FACE_BOUND('',#496,.T.);
#545=FACE_BOUND('',#497,.T.);
#546=FACE_BOUND('',#498,.T.);
#547=FACE_BOUND('',#499,.T.);
#548=FACE_BOUND('',#500,.T.);
#549=FACE_BOUND('',#501,.T.);
#550=FACE_BOUND('',#502,.T.);
#551=FACE_BOUND('',#503,.T.);
#552=FACE_BOUND('',#504,.T.);
#553=FACE_BOUND('',#505,.T.);
#554=FACE_BOUND('',#506,.T.);
#555=FACE_BOUND('',#507,.T.);
#556=FACE_BOUND('',#508,.T.);
#557=FACE_BOUND('',#509,.T.);
#558=FACE_BOUND('',#510,.T.);
#559=FACE_BOUND('',#511,.T.);
#560=FACE_BOUND('',#512,.T.);
#561=FACE_BOUND('',#513,.T.);
#562=FACE_BOUND('',#514,.T.);
#563=FACE_BOUND('',#515,.T.);
#564=FACE_BOUND('',#516,.T.);
#565=FACE_BOUND('',#517,.T.);
#566=FACE_BOUND('',#518,.T.);
#567=FACE_BOUND('',#519,.T.);
#568=FACE_BOUND('',#520,.T.);
#569=FACE_BOUND('',#521,.T.);
#570=FACE_BOUND('',#522,.T.);
#571=FACE_BOUND('',#523,.T.);
#572=FACE_BOUND('',#524,.T.);
#573=FACE_BOUND('',#525,.T.);
#574=FACE_BOUND('',#526,.T.);
#575=FACE_BOUND('',#527,.T.);
#576=FACE_BOUND('',#528,.T.);
#577=FACE_BOUND('',#529,.T.);
#578=FACE_BOUND('',#530,.T.);
#579=FACE_BOUND('',#531,.T.);
#580=FACE_BOUND('',#532,.T.);
#581=FACE_BOUND('',#533,.T.);
#582=FACE_BOUND('',#534,.T.);
#583=FACE_BOUND('',#535,.T.);
#584=FACE_BOUND('',#536,.T.);
#585=FACE_BOUND('',#537,.T.);
#586=FACE_BOUND('',#538,.T.);
#587=FACE_BOUND('',#539,.T.);
#588=FACE_BOUND('',#540,.T.);
#589=FACE_BOUND('',#541,.T.);
#590=FACE_BOUND('',#542,.T.);
#591=FACE_BOUND('',#543,.T.);
#592=PLANE('',#667);
#593=PLANE('',#668);
#594=PLANE('',#669);
#595=PLANE('',#676);
#596=PLANE('',#677);
#597=PLANE('',#678);
#598=PLANE('',#679);
#599=PLANE('',#680);
#600=PLANE('',#687);
#601=PLANE('',#689);
#602=PLANE('',#691);
#603=PLANE('',#692);
#604=PLANE('',#693);
#605=PLANE('',#694);
#606=PLANE('',#695);
#607=PLANE('',#696);
#608=PLANE('',#697);
#609=PLANE('',#698);
#610=PLANE('',#699);
#611=PLANE('',#700);
#612=PLANE('',#705);
#613=PLANE('',#706);
#614=PLANE('',#707);
#615=PLANE('',#708);
#616=PLANE('',#709);
#617=PLANE('',#710);
#618=PLANE('',#711);
#619=PLANE('',#712);
#620=ADVANCED_FACE('',(#544),#592,.T.);
#621=ADVANCED_FACE('',(#545),#593,.T.);
#622=ADVANCED_FACE('',(#546,#547,#548,#549,#550,#551,#552),#594,.F.);
#623=ADVANCED_FACE('',(#553),#595,.T.);
#624=ADVANCED_FACE('',(#554),#596,.F.);
#625=ADVANCED_FACE('',(#555),#597,.T.);
#626=ADVANCED_FACE('',(#556),#598,.F.);
#627=ADVANCED_FACE('',(#557,#558,#559,#560,#561),#599,.T.);
#628=ADVANCED_FACE('',(#562),#600,.F.);
#629=ADVANCED_FACE('',(#563),#12,.T.);
#630=ADVANCED_FACE('',(#564),#601,.T.);
#631=ADVANCED_FACE('',(#565),#13,.T.);
#632=ADVANCED_FACE('',(#566),#602,.T.);
#633=ADVANCED_FACE('',(#567),#603,.F.);
#634=ADVANCED_FACE('',(#568),#604,.F.);
#635=ADVANCED_FACE('',(#569),#605,.T.);
#636=ADVANCED_FACE('',(#570),#606,.T.);
#637=ADVANCED_FACE('',(#571),#607,.T.);
#638=ADVANCED_FACE('',(#572),#608,.F.);
#639=ADVANCED_FACE('',(#573),#609,.F.);
#640=ADVANCED_FACE('',(#574),#610,.T.);
#641=ADVANCED_FACE('',(#575),#611,.T.);
#642=ADVANCED_FACE('',(#576,#577),#14,.F.);
#643=ADVANCED_FACE('',(#578,#579),#15,.F.);
#644=ADVANCED_FACE('',(#580,#581),#16,.F.);
#645=ADVANCED_FACE('',(#582,#583),#17,.F.);
#646=ADVANCED_FACE('',(#584),#612,.T.);
#647=ADVANCED_FACE('',(#585),#613,.T.);
#648=ADVANCED_FACE('',(#586),#614,.T.);
#649=ADVANCED_FACE('',(#587),#615,.F.);
#650=ADVANCED_FACE('',(#588),#616,.T.);
#651=ADVANCED_FACE('',(#589),#617,.T.);
#652=ADVANCED_FACE('',(#590),#618,.F.);
#653=ADVANCED_FACE('',(#591),#619,.T.);
#654=CLOSED_SHELL('',(#620,#621,#622,#623,#624,#625,#626,#627,#628,#629,
#630,#631,#632,#633,#634,#635,#636,#637,#638,#639,#640,#641,#642,#643,#644,
#645,#646,#647,#648,#649,#650,#651,#652,#653));
#655=STYLED_ITEM('',(#656),#663);
#656=PRESENTATION_STYLE_ASSIGNMENT((#657));
#657=SURFACE_STYLE_USAGE(.BOTH.,#658);
#658=SURFACE_SIDE_STYLE('',(#659));
#659=SURFACE_STYLE_FILL_AREA(#660);
#660=FILL_AREA_STYLE('',(#661));
#661=FILL_AREA_STYLE_COLOUR('',#662);
#662=COLOUR_RGB('',0.917647058823529,0.917647058823529,0.917647058823529);
#663=MANIFOLD_SOLID_BREP('Top_Left',#654);
#664=SHAPE_DEFINITION_REPRESENTATION(#1068,#665);
#665=SHAPE_REPRESENTATION('Top_Left',(#666),#1063);
#666=AXIS2_PLACEMENT_3D('',#881,#713,#714);
#667=AXIS2_PLACEMENT_3D('',#882,#715,#716);
#668=AXIS2_PLACEMENT_3D('',#891,#721,#722);
#669=AXIS2_PLACEMENT_3D('',#900,#727,#728);
#670=AXIS2_PLACEMENT_3D('',#917,#737,#738);
#671=AXIS2_PLACEMENT_3D('',#919,#739,#740);
#672=AXIS2_PLACEMENT_3D('',#921,#741,#742);
#673=AXIS2_PLACEMENT_3D('',#923,#743,#744);
#674=AXIS2_PLACEMENT_3D('',#927,#746,#747);
#675=AXIS2_PLACEMENT_3D('',#931,#749,#750);
#676=AXIS2_PLACEMENT_3D('',#939,#755,#756);
#677=AXIS2_PLACEMENT_3D('',#951,#763,#764);
#678=AXIS2_PLACEMENT_3D('',#963,#771,#772);
#679=AXIS2_PLACEMENT_3D('',#975,#779,#780);
#680=AXIS2_PLACEMENT_3D('',#987,#787,#788);
#681=AXIS2_PLACEMENT_3D('',#988,#789,#790);
#682=AXIS2_PLACEMENT_3D('',#990,#791,#792);
#683=AXIS2_PLACEMENT_3D('',#992,#793,#794);
#684=AXIS2_PLACEMENT_3D('',#994,#795,#796);
#685=AXIS2_PLACEMENT_3D('',#999,#800,#801);
#686=AXIS2_PLACEMENT_3D('',#1003,#803,#804);
#687=AXIS2_PLACEMENT_3D('',#1004,#805,#806);
#688=AXIS2_PLACEMENT_3D('',#1007,#809,#810);
#689=AXIS2_PLACEMENT_3D('',#1008,#811,#812);
#690=AXIS2_PLACEMENT_3D('',#1009,#813,#814);
#691=AXIS2_PLACEMENT_3D('',#1010,#815,#816);
#692=AXIS2_PLACEMENT_3D('',#1016,#820,#821);
#693=AXIS2_PLACEMENT_3D('',#1020,#824,#825);
#694=AXIS2_PLACEMENT_3D('',#1024,#828,#829);
#695=AXIS2_PLACEMENT_3D('',#1026,#831,#832);
#696=AXIS2_PLACEMENT_3D('',#1027,#833,#834);
#697=AXIS2_PLACEMENT_3D('',#1033,#838,#839);
#698=AXIS2_PLACEMENT_3D('',#1037,#842,#843);
#699=AXIS2_PLACEMENT_3D('',#1041,#846,#847);
#700=AXIS2_PLACEMENT_3D('',#1043,#849,#850);
#701=AXIS2_PLACEMENT_3D('',#1044,#851,#852);
#702=AXIS2_PLACEMENT_3D('',#1045,#853,#854);
#703=AXIS2_PLACEMENT_3D('',#1046,#855,#856);
#704=AXIS2_PLACEMENT_3D('',#1047,#857,#858);
#705=AXIS2_PLACEMENT_3D('',#1048,#859,#860);
#706=AXIS2_PLACEMENT_3D('',#1050,#862,#863);
#707=AXIS2_PLACEMENT_3D('',#1052,#865,#866);
#708=AXIS2_PLACEMENT_3D('',#1054,#868,#869);
#709=AXIS2_PLACEMENT_3D('',#1056,#871,#872);
#710=AXIS2_PLACEMENT_3D('',#1057,#873,#874);
#711=AXIS2_PLACEMENT_3D('',#1059,#876,#877);
#712=AXIS2_PLACEMENT_3D('',#1061,#879,#880);
#713=DIRECTION('',(0.,0.,1.));
#714=DIRECTION('',(1.,0.,0.));
#715=DIRECTION('',(1.,0.,0.));
#716=DIRECTION('',(0.,0.,-1.));
#717=DIRECTION('',(0.,0.,1.));
#718=DIRECTION('',(0.,-1.,0.));
#719=DIRECTION('',(0.,0.,-1.));
#720=DIRECTION('',(0.,1.,0.));
#721=DIRECTION('',(1.,0.,0.));
#722=DIRECTION('',(0.,0.,-1.));
#723=DIRECTION('',(0.,0.,-1.));
#724=DIRECTION('',(0.,-1.,-2.18754536693167E-16));
#725=DIRECTION('',(0.,0.,1.));
#726=DIRECTION('',(0.,1.,0.));
#727=DIRECTION('',(0.,0.,1.));
#728=DIRECTION('',(1.,0.,0.));
#729=DIRECTION('',(0.,-1.,0.));
#730=DIRECTION('',(1.,0.,0.));
#731=DIRECTION('',(0.,-1.,0.));
#732=DIRECTION('',(1.,0.,0.));
#733=DIRECTION('',(0.,-1.,0.));
#734=DIRECTION('',(1.,0.,0.));
#735=DIRECTION('',(0.,-1.,0.));
#736=DIRECTION('',(1.,0.,0.));
#737=DIRECTION('',(0.,0.,1.));
#738=DIRECTION('',(0.,-1.,0.));
#739=DIRECTION('',(0.,0.,1.));
#740=DIRECTION('',(0.,-1.,0.));
#741=DIRECTION('',(0.,0.,1.));
#742=DIRECTION('',(0.,-1.,0.));
#743=DIRECTION('',(0.,0.,1.));
#744=DIRECTION('',(0.,-1.,0.));
#745=DIRECTION('',(-1.,-1.51179305480872E-16,0.));
#746=DIRECTION('',(0.,0.,1.));
#747=DIRECTION('',(0.,-1.,0.));
#748=DIRECTION('',(3.87242073465349E-16,-1.,0.));
#749=DIRECTION('',(0.,0.,1.));
#750=DIRECTION('',(0.,-1.,0.));
#751=DIRECTION('',(-1.,-1.51179305480872E-16,0.));
#752=DIRECTION('',(1.,0.,0.));
#753=DIRECTION('',(0.,-1.,0.));
#754=DIRECTION('',(1.,0.,0.));
#755=DIRECTION('',(1.51179305480872E-16,-1.,0.));
#756=DIRECTION('',(-1.,-1.51179305480872E-16,0.));
#757=DIRECTION('',(-1.,0.,0.));
#758=DIRECTION('',(0.,0.,1.));
#759=DIRECTION('',(-1.,0.,0.));
#760=DIRECTION('',(0.,0.,1.));
#761=DIRECTION('',(-1.,-1.51179305480872E-16,0.));
#762=DIRECTION('',(0.,0.,-1.));
#763=DIRECTION('',(1.51179305480872E-16,-1.,0.));
#764=DIRECTION('',(-1.,-1.51179305480872E-16,0.));
#765=DIRECTION('',(0.,0.,-1.));
#766=DIRECTION('',(-1.,-1.51179305480872E-16,0.));
#767=DIRECTION('',(0.,0.,1.));
#768=DIRECTION('',(-1.,0.,0.));
#769=DIRECTION('',(0.,0.,1.));
#770=DIRECTION('',(-1.,0.,0.));
#771=DIRECTION('',(0.,1.,0.));
#772=DIRECTION('',(1.,0.,0.));
#773=DIRECTION('',(1.,0.,0.));
#774=DIRECTION('',(0.,0.,-1.));
#775=DIRECTION('',(-1.,0.,0.));
#776=DIRECTION('',(0.,0.,1.));
#777=DIRECTION('',(-1.,0.,0.));
#778=DIRECTION('',(0.,0.,-1.));
#779=DIRECTION('',(0.,1.,0.));
#780=DIRECTION('',(1.,0.,0.));
#781=DIRECTION('',(0.,0.,-1.));
#782=DIRECTION('',(1.,0.,0.));
#783=DIRECTION('',(0.,0.,-1.));
#784=DIRECTION('',(-1.,0.,0.));
#785=DIRECTION('',(0.,0.,-1.));
#786=DIRECTION('',(-1.,0.,0.));
#787=DIRECTION('',(0.,0.,1.));
#788=DIRECTION('',(1.,0.,0.));
#789=DIRECTION('',(0.,0.,1.));
#790=DIRECTION('',(0.,-1.,0.));
#791=DIRECTION('',(0.,0.,1.));
#792=DIRECTION('',(0.,-1.,0.));
#793=DIRECTION('',(0.,0.,1.));
#794=DIRECTION('',(0.,-1.,0.));
#795=DIRECTION('',(0.,0.,1.));
#796=DIRECTION('',(0.,-1.,0.));
#797=DIRECTION('',(0.,1.,0.));
#798=DIRECTION('',(0.,-1.,0.));
#799=DIRECTION('',(0.,1.,0.));
#800=DIRECTION('',(0.,0.,1.));
#801=DIRECTION('',(0.,-1.,0.));
#802=DIRECTION('',(3.87242073465349E-16,-1.,0.));
#803=DIRECTION('',(0.,0.,1.));
#804=DIRECTION('',(0.,-1.,0.));
#805=DIRECTION('',(1.,3.87242073465349E-16,0.));
#806=DIRECTION('',(3.87242073465349E-16,-1.,0.));
#807=DIRECTION('',(0.,0.,-1.));
#808=DIRECTION('',(0.,0.,-1.));
#809=DIRECTION('',(0.,0.,-1.));
#810=DIRECTION('',(0.,1.,0.));
#811=DIRECTION('',(1.,0.,0.));
#812=DIRECTION('',(0.,-1.,0.));
#813=DIRECTION('',(0.,0.,-1.));
#814=DIRECTION('',(0.,1.,0.));
#815=DIRECTION('',(1.,0.,0.));
#816=DIRECTION('',(0.,-1.,0.));
#817=DIRECTION('',(0.,0.,-1.));
#818=DIRECTION('',(0.,-1.,0.));
#819=DIRECTION('',(0.,0.,-1.));
#820=DIRECTION('',(0.,1.,0.));
#821=DIRECTION('',(1.,0.,0.));
#822=DIRECTION('',(0.,0.,-1.));
#823=DIRECTION('',(1.,0.,0.));
#824=DIRECTION('',(1.,0.,0.));
#825=DIRECTION('',(0.,-1.,0.));
#826=DIRECTION('',(0.,0.,-1.));
#827=DIRECTION('',(0.,-1.,0.));
#828=DIRECTION('',(0.,1.,0.));
#829=DIRECTION('',(1.,0.,0.));
#830=DIRECTION('',(1.,0.,0.));
#831=DIRECTION('',(0.,0.,-1.));
#832=DIRECTION('',(-1.,0.,0.));
#833=DIRECTION('',(1.,0.,0.));
#834=DIRECTION('',(0.,-1.,0.));
#835=DIRECTION('',(0.,0.,-1.));
#836=DIRECTION('',(0.,-1.,0.));
#837=DIRECTION('',(0.,0.,-1.));
#838=DIRECTION('',(0.,1.,0.));
#839=DIRECTION('',(1.,0.,0.));
#840=DIRECTION('',(0.,0.,-1.));
#841=DIRECTION('',(1.,0.,0.));
#842=DIRECTION('',(1.,0.,0.));
#843=DIRECTION('',(0.,-1.,0.));
#844=DIRECTION('',(0.,0.,-1.));
#845=DIRECTION('',(0.,-1.,0.));
#846=DIRECTION('',(0.,1.,0.));
#847=DIRECTION('',(1.,0.,0.));
#848=DIRECTION('',(1.,0.,0.));
#849=DIRECTION('',(0.,0.,-1.));
#850=DIRECTION('',(-1.,0.,0.));
#851=DIRECTION('',(0.,0.,1.));
#852=DIRECTION('',(0.,-1.,0.));
#853=DIRECTION('',(0.,0.,1.));
#854=DIRECTION('',(0.,-1.,0.));
#855=DIRECTION('',(0.,0.,1.));
#856=DIRECTION('',(0.,-1.,0.));
#857=DIRECTION('',(0.,0.,1.));
#858=DIRECTION('',(0.,-1.,0.));
#859=DIRECTION('',(1.,0.,0.));
#860=DIRECTION('',(0.,0.,-1.));
#861=DIRECTION('',(0.,-1.,0.));
#862=DIRECTION('',(1.,0.,0.));
#863=DIRECTION('',(0.,0.,-1.));
#864=DIRECTION('',(0.,-1.,-2.18754536693167E-16));
#865=DIRECTION('',(0.,2.18754536693167E-16,-1.));
#866=DIRECTION('',(0.,1.,2.18754536693167E-16));
#867=DIRECTION('',(0.,-1.,-2.18754536693167E-16));
#868=DIRECTION('',(0.,2.18754536693167E-16,-1.));
#869=DIRECTION('',(0.,1.,2.18754536693167E-16));
#870=DIRECTION('',(0.,-1.,-2.18754536693167E-16));
#871=DIRECTION('',(1.,0.,0.));
#872=DIRECTION('',(0.,0.,-1.));
#873=DIRECTION('',(0.,0.,-1.));
#874=DIRECTION('',(0.,1.,0.));
#875=DIRECTION('',(0.,-1.,0.));
#876=DIRECTION('',(0.,0.,-1.));
#877=DIRECTION('',(0.,1.,0.));
#878=DIRECTION('',(0.,-1.,0.));
#879=DIRECTION('',(1.,0.,0.));
#880=DIRECTION('',(0.,0.,-1.));
#881=CARTESIAN_POINT('',(0.,0.,0.));
#882=CARTESIAN_POINT('',(0.,0.,0.));
#883=CARTESIAN_POINT('',(0.,0.07316875,0.01443));
#884=CARTESIAN_POINT('',(0.,0.07316875,0.00843));
#885=CARTESIAN_POINT('',(0.,0.07316875,0.01013));
#886=CARTESIAN_POINT('',(0.,0.05317375,0.01013));
#887=CARTESIAN_POINT('',(0.,0.03317875,0.01013));
#888=CARTESIAN_POINT('',(0.,0.03317875,0.01443));
#889=CARTESIAN_POINT('',(0.,0.03317875,0.00843));
#890=CARTESIAN_POINT('',(0.,-0.0025062499999999,0.00843));
#891=CARTESIAN_POINT('',(0.,0.,0.));
#892=CARTESIAN_POINT('',(0.,-0.06232125,0.01443));
#893=CARTESIAN_POINT('',(0.,-0.06232125,0.01013));
#894=CARTESIAN_POINT('',(0.,-0.06232125,0.00843));
#895=CARTESIAN_POINT('',(0.,-0.07025125,0.01013));
#896=CARTESIAN_POINT('',(0.,-0.07818125,0.01013));
#897=CARTESIAN_POINT('',(0.,-0.07818125,0.01443));
#898=CARTESIAN_POINT('',(0.,-0.07818125,0.00843));
#899=CARTESIAN_POINT('',(0.,-0.0025062499999999,0.00843));
#900=CARTESIAN_POINT('',(-0.00169375,-0.0025062499999999,0.00843));
#901=CARTESIAN_POINT('',(-0.17664375,0.057025,0.00843));
#902=CARTESIAN_POINT('',(-0.17664375,0.060525,0.00843));
#903=CARTESIAN_POINT('',(-0.17664375,0.053525,0.00843));
#904=CARTESIAN_POINT('',(-0.17314375,0.053525,0.00843));
#905=CARTESIAN_POINT('',(-0.16964375,0.053525,0.00843));
#906=CARTESIAN_POINT('',(-0.16964375,0.057025,0.00843));
#907=CARTESIAN_POINT('',(-0.16964375,0.060525,0.00843));
#908=CARTESIAN_POINT('',(-0.17314375,0.060525,0.00843));
#909=CARTESIAN_POINT('',(-0.17664375,-0.0620375,0.00843));
#910=CARTESIAN_POINT('',(-0.17664375,-0.0585375,0.00843));
#911=CARTESIAN_POINT('',(-0.17664375,-0.0655375,0.00843));
#912=CARTESIAN_POINT('',(-0.17314375,-0.0655375,0.00843));
#913=CARTESIAN_POINT('',(-0.16964375,-0.0655375,0.00843));
#914=CARTESIAN_POINT('',(-0.16964375,-0.0620375,0.00843));
#915=CARTESIAN_POINT('',(-0.16964375,-0.0585375,0.00843));
#916=CARTESIAN_POINT('',(-0.17314375,-0.0585375,0.00843));
#917=CARTESIAN_POINT('',(-0.1850375,0.06891875,0.00843));
#918=CARTESIAN_POINT('',(-0.1850375,0.06716875,0.00843));
#919=CARTESIAN_POINT('',(-0.1850375,-0.07393125,0.00843));
#920=CARTESIAN_POINT('',(-0.1850375,-0.07568125,0.00843));
#921=CARTESIAN_POINT('',(-0.0650375,-0.07393125,0.00843));
#922=CARTESIAN_POINT('',(-0.0650375,-0.07568125,0.00843));
#923=CARTESIAN_POINT('',(-0.0650375,0.06891875,0.00843));
#924=CARTESIAN_POINT('',(-0.0650375,0.06716875,0.00843));
#925=CARTESIAN_POINT('',(-0.00169374999999994,-0.07818125,0.00843));
#926=CARTESIAN_POINT('',(-0.1852875,-0.07818125,0.00843));
#927=CARTESIAN_POINT('',(-0.1852875,-0.07418125,0.00843));
#928=CARTESIAN_POINT('',(-0.1892875,-0.07418125,0.00843));
#929=CARTESIAN_POINT('',(-0.1892875,-0.00250624999999994,0.00843));
#930=CARTESIAN_POINT('',(-0.1892875,0.06916875,0.00843));
#931=CARTESIAN_POINT('',(-0.1852875,0.06916875,0.00843));
#932=CARTESIAN_POINT('',(-0.1852875,0.07316875,0.00843));
#933=CARTESIAN_POINT('',(-0.00169375,0.07316875,0.00843));
#934=CARTESIAN_POINT('',(-0.0288399999999993,0.03317875,0.00843));
#935=CARTESIAN_POINT('',(-0.167087499999994,0.03317875,0.00843));
#936=CARTESIAN_POINT('',(-0.167087499999994,-0.01457125,0.00843));
#937=CARTESIAN_POINT('',(-0.167087499999994,-0.06232125,0.00843));
#938=CARTESIAN_POINT('',(0.1184325,-0.06232125,0.00843));
#939=CARTESIAN_POINT('',(-0.00169374999999994,-0.07818125,0.01443));
#940=CARTESIAN_POINT('',(0.0198,-0.07818125,0.01013));
#941=CARTESIAN_POINT('',(0.0198,-0.07818125,0.01013));
#942=CARTESIAN_POINT('',(0.0198,-0.07818125,0.01143));
#943=CARTESIAN_POINT('',(0.0198,-0.07818125,0.01273));
#944=CARTESIAN_POINT('',(0.0198,-0.07818125,0.01273));
#945=CARTESIAN_POINT('',(0.,-0.07818125,0.01273));
#946=CARTESIAN_POINT('',(0.,-0.07818125,0.01443));
#947=CARTESIAN_POINT('',(0.,-0.07818125,0.01443));
#948=CARTESIAN_POINT('',(-0.00169374999999994,-0.07818125,0.01443));
#949=CARTESIAN_POINT('',(-0.1852875,-0.07818125,0.01443));
#950=CARTESIAN_POINT('',(-0.1852875,-0.07818125,0.01443));
#951=CARTESIAN_POINT('',(-0.00169375,0.07316875,0.01443));
#952=CARTESIAN_POINT('',(-0.1852875,0.07316875,0.01443));
#953=CARTESIAN_POINT('',(-0.1852875,0.07316875,0.01443));
#954=CARTESIAN_POINT('',(-0.00169375,0.07316875,0.01443));
#955=CARTESIAN_POINT('',(0.,0.07316875,0.01443));
#956=CARTESIAN_POINT('',(0.,0.07316875,0.01443));
#957=CARTESIAN_POINT('',(0.,0.07316875,0.01273));
#958=CARTESIAN_POINT('',(0.0198,0.07316875,0.01273));
#959=CARTESIAN_POINT('',(0.0198,0.07316875,0.01273));
#960=CARTESIAN_POINT('',(0.0198,0.07316875,0.01443));
#961=CARTESIAN_POINT('',(0.0198,0.07316875,0.01013));
#962=CARTESIAN_POINT('',(0.0198,0.07316875,0.01013));
#963=CARTESIAN_POINT('',(0.1184325,-0.06232125,0.01443));
#964=CARTESIAN_POINT('',(0.1184325,-0.06232125,0.01443));
#965=CARTESIAN_POINT('',(-0.167087499999994,-0.06232125,0.01443));
#966=CARTESIAN_POINT('',(0.,-0.06232125,0.01443));
#967=CARTESIAN_POINT('',(0.,-0.06232125,0.01443));
#968=CARTESIAN_POINT('',(0.,-0.06232125,0.01273));
#969=CARTESIAN_POINT('',(0.0198,-0.06232125,0.01273));
#970=CARTESIAN_POINT('',(0.0198,-0.06232125,0.01273));
#971=CARTESIAN_POINT('',(0.0198,-0.06232125,0.01143));
#972=CARTESIAN_POINT('',(0.0198,-0.06232125,0.01013));
#973=CARTESIAN_POINT('',(0.0198,-0.06232125,0.01013));
#974=CARTESIAN_POINT('',(-0.167087499999994,-0.06232125,0.01443));
#975=CARTESIAN_POINT('',(-0.0288399999999993,0.03317875,0.01443));
#976=CARTESIAN_POINT('',(0.,0.03317875,0.01443));
#977=CARTESIAN_POINT('',(0.,0.03317875,0.01443));
#978=CARTESIAN_POINT('',(0.,0.03317875,0.01273));
#979=CARTESIAN_POINT('',(-0.0288399999999993,0.03317875,0.01443));
#980=CARTESIAN_POINT('',(-0.167087499999994,0.03317875,0.01443));
#981=CARTESIAN_POINT('',(-0.167087499999994,0.03317875,0.01443));
#982=CARTESIAN_POINT('',(0.0198,0.03317875,0.01013));
#983=CARTESIAN_POINT('',(0.0198,0.03317875,0.01013));
#984=CARTESIAN_POINT('',(0.0198,0.03317875,0.01443));
#985=CARTESIAN_POINT('',(0.0198,0.03317875,0.01273));
#986=CARTESIAN_POINT('',(0.0198,0.03317875,0.01273));
#987=CARTESIAN_POINT('',(-0.00169375,-0.0025062499999999,0.01443));
#988=CARTESIAN_POINT('',(-0.1850375,0.06891875,0.01443));
#989=CARTESIAN_POINT('',(-0.1850375,0.06716875,0.01443));
#990=CARTESIAN_POINT('',(-0.1850375,-0.07393125,0.01443));
#991=CARTESIAN_POINT('',(-0.1850375,-0.07568125,0.01443));
#992=CARTESIAN_POINT('',(-0.0650375,-0.07393125,0.01443));
#993=CARTESIAN_POINT('',(-0.0650375,-0.07568125,0.01443));
#994=CARTESIAN_POINT('',(-0.0650375,0.06891875,0.01443));
#995=CARTESIAN_POINT('',(-0.0650375,0.06716875,0.01443));
#996=CARTESIAN_POINT('',(0.,-0.0025062499999999,0.01443));
#997=CARTESIAN_POINT('',(-0.167087499999994,-0.01457125,0.01443));
#998=CARTESIAN_POINT('',(0.,-0.0025062499999999,0.01443));
#999=CARTESIAN_POINT('',(-0.1852875,0.06916875,0.01443));
#1000=CARTESIAN_POINT('',(-0.1892875,0.06916875,0.01443));
#1001=CARTESIAN_POINT('',(-0.1892875,-0.00250624999999994,0.01443));
#1002=CARTESIAN_POINT('',(-0.1892875,-0.07418125,0.01443));
#1003=CARTESIAN_POINT('',(-0.1852875,-0.07418125,0.01443));
#1004=CARTESIAN_POINT('',(-0.1892875,-0.00250624999999994,0.01443));
#1005=CARTESIAN_POINT('',(-0.1892875,-0.07418125,0.01443));
#1006=CARTESIAN_POINT('',(-0.1892875,0.06916875,0.01443));
#1007=CARTESIAN_POINT('',(-0.1852875,-0.07418125,0.01443));
#1008=CARTESIAN_POINT('',(-0.167087499999994,-0.01457125,0.01443));
#1009=CARTESIAN_POINT('',(-0.1852875,0.06916875,0.01443));
#1010=CARTESIAN_POINT('',(-0.17664375,0.057025,0.01143));
#1011=CARTESIAN_POINT('',(-0.17664375,0.060525,0.01143));
#1012=CARTESIAN_POINT('',(-0.17664375,0.060525,0.01143));
#1013=CARTESIAN_POINT('',(-0.17664375,0.057025,0.01143));
#1014=CARTESIAN_POINT('',(-0.17664375,0.053525,0.01143));
#1015=CARTESIAN_POINT('',(-0.17664375,0.053525,0.01143));
#1016=CARTESIAN_POINT('',(-0.17314375,0.060525,0.01143));
#1017=CARTESIAN_POINT('',(-0.16964375,0.060525,0.01143));
#1018=CARTESIAN_POINT('',(-0.16964375,0.060525,0.01143));
#1019=CARTESIAN_POINT('',(-0.17314375,0.060525,0.01143));
#1020=CARTESIAN_POINT('',(-0.16964375,0.057025,0.01143));
#1021=CARTESIAN_POINT('',(-0.16964375,0.053525,0.01143));
#1022=CARTESIAN_POINT('',(-0.16964375,0.053525,0.01143));
#1023=CARTESIAN_POINT('',(-0.16964375,0.057025,0.01143));
#1024=CARTESIAN_POINT('',(-0.17314375,0.053525,0.01143));
#1025=CARTESIAN_POINT('',(-0.17314375,0.053525,0.01143));
#1026=CARTESIAN_POINT('',(-0.00169374999999994,-0.00250624999999992,0.01143));
#1027=CARTESIAN_POINT('',(-0.17664375,-0.0620375,0.01143));
#1028=CARTESIAN_POINT('',(-0.17664375,-0.0585375,0.01143));
#1029=CARTESIAN_POINT('',(-0.17664375,-0.0585375,0.01143));
#1030=CARTESIAN_POINT('',(-0.17664375,-0.0620375,0.01143));
#1031=CARTESIAN_POINT('',(-0.17664375,-0.0655375,0.01143));
#1032=CARTESIAN_POINT('',(-0.17664375,-0.0655375,0.01143));
#1033=CARTESIAN_POINT('',(-0.17314375,-0.0585375,0.01143));
#1034=CARTESIAN_POINT('',(-0.16964375,-0.0585375,0.01143));
#1035=CARTESIAN_POINT('',(-0.16964375,-0.0585375,0.01143));
#1036=CARTESIAN_POINT('',(-0.17314375,-0.0585375,0.01143));
#1037=CARTESIAN_POINT('',(-0.16964375,-0.0620375,0.01143));
#1038=CARTESIAN_POINT('',(-0.16964375,-0.0655375,0.01143));
#1039=CARTESIAN_POINT('',(-0.16964375,-0.0655375,0.01143));
#1040=CARTESIAN_POINT('',(-0.16964375,-0.0620375,0.01143));
#1041=CARTESIAN_POINT('',(-0.17314375,-0.0655375,0.01143));
#1042=CARTESIAN_POINT('',(-0.17314375,-0.0655375,0.01143));
#1043=CARTESIAN_POINT('',(-0.00169374999999994,-0.00250624999999992,0.01143));
#1044=CARTESIAN_POINT('',(-0.1850375,0.06891875,-0.390189049152698));
#1045=CARTESIAN_POINT('',(-0.1850375,-0.07393125,-0.390189049152698));
#1046=CARTESIAN_POINT('',(-0.0650375,-0.07393125,-0.390189049152698));
#1047=CARTESIAN_POINT('',(-0.0650375,0.06891875,-0.390189049152698));
#1048=CARTESIAN_POINT('',(0.,0.,0.));
#1049=CARTESIAN_POINT('',(0.,0.05317375,0.01273));
#1050=CARTESIAN_POINT('',(0.,0.,0.));
#1051=CARTESIAN_POINT('',(0.,-0.07025125,0.01273));
#1052=CARTESIAN_POINT('',(0.0198,-0.07025125,0.01013));
#1053=CARTESIAN_POINT('',(0.0198,-0.07025125,0.01013));
#1054=CARTESIAN_POINT('',(0.0198,-0.07025125,0.01273));
#1055=CARTESIAN_POINT('',(0.0198,-0.07025125,0.01273));
#1056=CARTESIAN_POINT('',(0.0198,-0.0025062499999999,0.01143));
#1057=CARTESIAN_POINT('',(0.0198,0.05317375,0.01013));
#1058=CARTESIAN_POINT('',(0.0198,0.05317375,0.01013));
#1059=CARTESIAN_POINT('',(0.0198,0.05317375,0.01273));
#1060=CARTESIAN_POINT('',(0.0198,0.05317375,0.01273));
#1061=CARTESIAN_POINT('',(0.0198,-0.0025062499999999,0.01143));
#1062=MECHANICAL_DESIGN_GEOMETRIC_PRESENTATION_REPRESENTATION('',(#655),
#1063);
#1063=(
GEOMETRIC_REPRESENTATION_CONTEXT(3)
GLOBAL_UNCERTAINTY_ASSIGNED_CONTEXT((#1064))
GLOBAL_UNIT_ASSIGNED_CONTEXT((#1067,#1066,#1065))
REPRESENTATION_CONTEXT('Top_Left','TOP_LEVEL_ASSEMBLY_PART')
);
#1064=UNCERTAINTY_MEASURE_WITH_UNIT(LENGTH_MEASURE(1.E-8),#1067,
'DISTANCE_ACCURACY_VALUE','Maximum Tolerance applied to model');
#1065=(
NAMED_UNIT(*)
SI_UNIT($,.STERADIAN.)
SOLID_ANGLE_UNIT()
);
#1066=(
NAMED_UNIT(*)
PLANE_ANGLE_UNIT()
SI_UNIT($,.RADIAN.)
);
#1067=(
LENGTH_UNIT()
NAMED_UNIT(*)
SI_UNIT($,.METRE.)
);
#1068=PRODUCT_DEFINITION_SHAPE('','',#1069);
#1069=PRODUCT_DEFINITION('','',#1071,#1070);
#1070=PRODUCT_DEFINITION_CONTEXT('',#1077,'design');
#1071=PRODUCT_DEFINITION_FORMATION_WITH_SPECIFIED_SOURCE('','',#1073,
 .NOT_KNOWN.);
#1072=PRODUCT_RELATED_PRODUCT_CATEGORY('','',(#1073));
#1073=PRODUCT('Top_Left','Top_Left','Top_Left',(#1075));
#1074=PRODUCT_CATEGORY('','');
#1075=PRODUCT_CONTEXT('',#1077,'mechanical');
#1076=APPLICATION_PROTOCOL_DEFINITION('international standard',
'ap242_managed_model_based_3d_engineering',2020,#1077);
#1077=APPLICATION_CONTEXT('managed model based 3d engineering');
ENDSEC;
END-ISO-10303-21;
