ISO-10303-21;
HEADER;
/* Generated by software containing ST-Developer
 * from STEP Tools, Inc. (www.steptools.com) 
 */
/* OPTION: using custom renumber hook */

FILE_DESCRIPTION(
/* description */ ('STEP AP242 Edition 2',
'CAx-IF Rec.Pracs.---Representation and Presentation of Product Manufa
cturing Information (PMI)---4.0---2014-10-13',
'CAx-IF Rec.Pracs.---3D Tessellated Geometry---0.4---2014-09-14','2;1',
'CAx-IF Rec.Pracs.---User Defined Attributes---1.5---2016-08-15'),
/* implementation_level */ '2;1');

FILE_NAME(
/* name */ 'Keeb - Top_Right',
/* time_stamp */ '2026-08-24T16:06:01Z',
/* author */ (''),
/* organization */ (''),
/* preprocessor_version */ 'ST-DEVELOPER v20',
/* originating_system */ 'ONSHAPE BY PTC INC, 1.219',
/* authorisation */ '  ');

FILE_SCHEMA (('AP242_MANAGED_MODEL_BASED_3D_ENGINEERING_MIM_LF { 1 0 10303 442 3 1 4 }'));
ENDSEC;

DATA;
#10=SHAPE_REPRESENTATION_RELATIONSHIP('','',#749,#11);
#11=ADVANCED_BREP_SHAPE_REPRESENTATION('',(#747),#1195);
#12=CIRCLE('',#766,0.00175);
#13=CIRCLE('',#767,0.00175);
#14=CIRCLE('',#769,0.00175);
#15=CIRCLE('',#770,0.00175);
#16=CIRCLE('',#772,0.00175);
#17=CIRCLE('',#773,0.00175);
#18=CIRCLE('',#775,0.00175);
#19=CIRCLE('',#776,0.00175);
#20=CIRCLE('',#783,0.004);
#21=CIRCLE('',#784,0.004);
#22=CIRCLE('',#787,0.00400000000000008);
#23=CIRCLE('',#788,0.00400000000000008);
#24=CYLINDRICAL_SURFACE('',#765,0.00175);
#25=CYLINDRICAL_SURFACE('',#768,0.00175);
#26=CYLINDRICAL_SURFACE('',#771,0.00175);
#27=CYLINDRICAL_SURFACE('',#774,0.00175);
#28=CYLINDRICAL_SURFACE('',#782,0.004);
#29=CYLINDRICAL_SURFACE('',#786,0.00400000000000008);
#30=ORIENTED_EDGE('',*,*,#226,.F.);
#31=ORIENTED_EDGE('',*,*,#227,.F.);
#32=ORIENTED_EDGE('',*,*,#228,.F.);
#33=ORIENTED_EDGE('',*,*,#229,.F.);
#34=ORIENTED_EDGE('',*,*,#230,.F.);
#35=ORIENTED_EDGE('',*,*,#231,.T.);
#36=ORIENTED_EDGE('',*,*,#232,.F.);
#37=ORIENTED_EDGE('',*,*,#233,.T.);
#38=ORIENTED_EDGE('',*,*,#234,.F.);
#39=ORIENTED_EDGE('',*,*,#235,.T.);
#40=ORIENTED_EDGE('',*,*,#236,.F.);
#41=ORIENTED_EDGE('',*,*,#237,.T.);
#42=ORIENTED_EDGE('',*,*,#238,.T.);
#43=ORIENTED_EDGE('',*,*,#239,.F.);
#44=ORIENTED_EDGE('',*,*,#231,.F.);
#45=ORIENTED_EDGE('',*,*,#240,.F.);
#46=ORIENTED_EDGE('',*,*,#241,.T.);
#47=ORIENTED_EDGE('',*,*,#242,.T.);
#48=ORIENTED_EDGE('',*,*,#233,.F.);
#49=ORIENTED_EDGE('',*,*,#243,.F.);
#50=ORIENTED_EDGE('',*,*,#244,.F.);
#51=ORIENTED_EDGE('',*,*,#245,.T.);
#52=ORIENTED_EDGE('',*,*,#246,.F.);
#53=ORIENTED_EDGE('',*,*,#247,.F.);
#54=ORIENTED_EDGE('',*,*,#248,.F.);
#55=ORIENTED_EDGE('',*,*,#249,.T.);
#56=ORIENTED_EDGE('',*,*,#250,.T.);
#57=ORIENTED_EDGE('',*,*,#251,.F.);
#58=ORIENTED_EDGE('',*,*,#252,.F.);
#59=ORIENTED_EDGE('',*,*,#253,.T.);
#60=ORIENTED_EDGE('',*,*,#254,.T.);
#61=ORIENTED_EDGE('',*,*,#255,.F.);
#62=ORIENTED_EDGE('',*,*,#256,.T.);
#63=ORIENTED_EDGE('',*,*,#257,.F.);
#64=ORIENTED_EDGE('',*,*,#249,.F.);
#65=ORIENTED_EDGE('',*,*,#258,.T.);
#66=ORIENTED_EDGE('',*,*,#259,.T.);
#67=ORIENTED_EDGE('',*,*,#260,.F.);
#68=ORIENTED_EDGE('',*,*,#250,.F.);
#69=ORIENTED_EDGE('',*,*,#257,.T.);
#70=ORIENTED_EDGE('',*,*,#261,.F.);
#71=ORIENTED_EDGE('',*,*,#262,.F.);
#72=ORIENTED_EDGE('',*,*,#251,.T.);
#73=ORIENTED_EDGE('',*,*,#260,.T.);
#74=ORIENTED_EDGE('',*,*,#263,.F.);
#75=ORIENTED_EDGE('',*,*,#258,.F.);
#76=ORIENTED_EDGE('',*,*,#248,.T.);
#77=ORIENTED_EDGE('',*,*,#262,.T.);
#78=ORIENTED_EDGE('',*,*,#264,.T.);
#79=ORIENTED_EDGE('',*,*,#265,.F.);
#80=ORIENTED_EDGE('',*,*,#253,.F.);
#81=ORIENTED_EDGE('',*,*,#266,.T.);
#82=ORIENTED_EDGE('',*,*,#267,.T.);
#83=ORIENTED_EDGE('',*,*,#268,.F.);
#84=ORIENTED_EDGE('',*,*,#254,.F.);
#85=ORIENTED_EDGE('',*,*,#265,.T.);
#86=ORIENTED_EDGE('',*,*,#269,.F.);
#87=ORIENTED_EDGE('',*,*,#270,.F.);
#88=ORIENTED_EDGE('',*,*,#255,.T.);
#89=ORIENTED_EDGE('',*,*,#268,.T.);
#90=ORIENTED_EDGE('',*,*,#271,.F.);
#91=ORIENTED_EDGE('',*,*,#266,.F.);
#92=ORIENTED_EDGE('',*,*,#252,.T.);
#93=ORIENTED_EDGE('',*,*,#270,.T.);
#94=ORIENTED_EDGE('',*,*,#272,.T.);
#95=ORIENTED_EDGE('',*,*,#273,.F.);
#96=ORIENTED_EDGE('',*,*,#274,.T.);
#97=ORIENTED_EDGE('',*,*,#275,.F.);
#98=ORIENTED_EDGE('',*,*,#276,.T.);
#99=ORIENTED_EDGE('',*,*,#277,.F.);
#100=ORIENTED_EDGE('',*,*,#278,.T.);
#101=ORIENTED_EDGE('',*,*,#279,.F.);
#102=ORIENTED_EDGE('',*,*,#280,.T.);
#103=ORIENTED_EDGE('',*,*,#238,.F.);
#104=ORIENTED_EDGE('',*,*,#281,.F.);
#105=ORIENTED_EDGE('',*,*,#282,.T.);
#106=ORIENTED_EDGE('',*,*,#283,.T.);
#107=ORIENTED_EDGE('',*,*,#282,.F.);
#108=ORIENTED_EDGE('',*,*,#284,.F.);
#109=ORIENTED_EDGE('',*,*,#285,.T.);
#110=ORIENTED_EDGE('',*,*,#286,.T.);
#111=ORIENTED_EDGE('',*,*,#285,.F.);
#112=ORIENTED_EDGE('',*,*,#287,.F.);
#113=ORIENTED_EDGE('',*,*,#288,.T.);
#114=ORIENTED_EDGE('',*,*,#289,.T.);
#115=ORIENTED_EDGE('',*,*,#288,.F.);
#116=ORIENTED_EDGE('',*,*,#290,.F.);
#117=ORIENTED_EDGE('',*,*,#291,.T.);
#118=ORIENTED_EDGE('',*,*,#292,.T.);
#119=ORIENTED_EDGE('',*,*,#291,.F.);
#120=ORIENTED_EDGE('',*,*,#293,.F.);
#121=ORIENTED_EDGE('',*,*,#294,.T.);
#122=ORIENTED_EDGE('',*,*,#295,.T.);
#123=ORIENTED_EDGE('',*,*,#296,.F.);
#124=ORIENTED_EDGE('',*,*,#297,.F.);
#125=ORIENTED_EDGE('',*,*,#298,.T.);
#126=ORIENTED_EDGE('',*,*,#299,.F.);
#127=ORIENTED_EDGE('',*,*,#298,.F.);
#128=ORIENTED_EDGE('',*,*,#300,.T.);
#129=ORIENTED_EDGE('',*,*,#301,.T.);
#130=ORIENTED_EDGE('',*,*,#302,.T.);
#131=ORIENTED_EDGE('',*,*,#301,.F.);
#132=ORIENTED_EDGE('',*,*,#303,.F.);
#133=ORIENTED_EDGE('',*,*,#244,.T.);
#134=ORIENTED_EDGE('',*,*,#304,.F.);
#135=ORIENTED_EDGE('',*,*,#245,.F.);
#136=ORIENTED_EDGE('',*,*,#303,.T.);
#137=ORIENTED_EDGE('',*,*,#300,.F.);
#138=ORIENTED_EDGE('',*,*,#297,.T.);
#139=ORIENTED_EDGE('',*,*,#305,.T.);
#140=ORIENTED_EDGE('',*,*,#306,.F.);
#141=ORIENTED_EDGE('',*,*,#307,.T.);
#142=ORIENTED_EDGE('',*,*,#293,.T.);
#143=ORIENTED_EDGE('',*,*,#290,.T.);
#144=ORIENTED_EDGE('',*,*,#287,.T.);
#145=ORIENTED_EDGE('',*,*,#284,.T.);
#146=ORIENTED_EDGE('',*,*,#281,.T.);
#147=ORIENTED_EDGE('',*,*,#237,.F.);
#148=ORIENTED_EDGE('',*,*,#278,.F.);
#149=ORIENTED_EDGE('',*,*,#276,.F.);
#150=ORIENTED_EDGE('',*,*,#274,.F.);
#151=ORIENTED_EDGE('',*,*,#272,.F.);
#152=ORIENTED_EDGE('',*,*,#308,.T.);
#153=ORIENTED_EDGE('',*,*,#309,.T.);
#154=ORIENTED_EDGE('',*,*,#229,.T.);
#155=ORIENTED_EDGE('',*,*,#310,.T.);
#156=ORIENTED_EDGE('',*,*,#294,.F.);
#157=ORIENTED_EDGE('',*,*,#307,.F.);
#158=ORIENTED_EDGE('',*,*,#311,.T.);
#159=ORIENTED_EDGE('',*,*,#312,.F.);
#160=ORIENTED_EDGE('',*,*,#313,.T.);
#161=ORIENTED_EDGE('',*,*,#314,.T.);
#162=ORIENTED_EDGE('',*,*,#315,.T.);
#163=ORIENTED_EDGE('',*,*,#305,.F.);
#164=ORIENTED_EDGE('',*,*,#296,.T.);
#165=ORIENTED_EDGE('',*,*,#316,.T.);
#166=ORIENTED_EDGE('',*,*,#227,.T.);
#167=ORIENTED_EDGE('',*,*,#317,.F.);
#168=ORIENTED_EDGE('',*,*,#279,.T.);
#169=ORIENTED_EDGE('',*,*,#277,.T.);
#170=ORIENTED_EDGE('',*,*,#275,.T.);
#171=ORIENTED_EDGE('',*,*,#273,.T.);
#172=ORIENTED_EDGE('',*,*,#271,.T.);
#173=ORIENTED_EDGE('',*,*,#269,.T.);
#174=ORIENTED_EDGE('',*,*,#267,.F.);
#175=ORIENTED_EDGE('',*,*,#264,.F.);
#176=ORIENTED_EDGE('',*,*,#243,.T.);
#177=ORIENTED_EDGE('',*,*,#232,.T.);
#178=ORIENTED_EDGE('',*,*,#239,.T.);
#179=ORIENTED_EDGE('',*,*,#280,.F.);
#180=ORIENTED_EDGE('',*,*,#283,.F.);
#181=ORIENTED_EDGE('',*,*,#286,.F.);
#182=ORIENTED_EDGE('',*,*,#289,.F.);
#183=ORIENTED_EDGE('',*,*,#292,.F.);
#184=ORIENTED_EDGE('',*,*,#310,.F.);
#185=ORIENTED_EDGE('',*,*,#228,.T.);
#186=ORIENTED_EDGE('',*,*,#316,.F.);
#187=ORIENTED_EDGE('',*,*,#295,.F.);
#188=ORIENTED_EDGE('',*,*,#299,.T.);
#189=ORIENTED_EDGE('',*,*,#302,.F.);
#190=ORIENTED_EDGE('',*,*,#263,.T.);
#191=ORIENTED_EDGE('',*,*,#261,.T.);
#192=ORIENTED_EDGE('',*,*,#259,.F.);
#193=ORIENTED_EDGE('',*,*,#256,.F.);
#194=ORIENTED_EDGE('',*,*,#315,.F.);
#195=ORIENTED_EDGE('',*,*,#318,.T.);
#196=ORIENTED_EDGE('',*,*,#311,.F.);
#197=ORIENTED_EDGE('',*,*,#306,.T.);
#198=ORIENTED_EDGE('',*,*,#236,.T.);
#199=ORIENTED_EDGE('',*,*,#319,.T.);
#200=ORIENTED_EDGE('',*,*,#246,.T.);
#201=ORIENTED_EDGE('',*,*,#304,.T.);
#202=ORIENTED_EDGE('',*,*,#319,.F.);
#203=ORIENTED_EDGE('',*,*,#235,.F.);
#204=ORIENTED_EDGE('',*,*,#320,.T.);
#205=ORIENTED_EDGE('',*,*,#247,.T.);
#206=ORIENTED_EDGE('',*,*,#230,.T.);
#207=ORIENTED_EDGE('',*,*,#242,.F.);
#208=ORIENTED_EDGE('',*,*,#321,.F.);
#209=ORIENTED_EDGE('',*,*,#240,.T.);
#210=ORIENTED_EDGE('',*,*,#320,.F.);
#211=ORIENTED_EDGE('',*,*,#234,.T.);
#212=ORIENTED_EDGE('',*,*,#321,.T.);
#213=ORIENTED_EDGE('',*,*,#241,.F.);
#214=ORIENTED_EDGE('',*,*,#318,.F.);
#215=ORIENTED_EDGE('',*,*,#314,.F.);
#216=ORIENTED_EDGE('',*,*,#322,.T.);
#217=ORIENTED_EDGE('',*,*,#312,.T.);
#218=ORIENTED_EDGE('',*,*,#226,.T.);
#219=ORIENTED_EDGE('',*,*,#309,.F.);
#220=ORIENTED_EDGE('',*,*,#323,.F.);
#221=ORIENTED_EDGE('',*,*,#317,.T.);
#222=ORIENTED_EDGE('',*,*,#322,.F.);
#223=ORIENTED_EDGE('',*,*,#313,.F.);
#224=ORIENTED_EDGE('',*,*,#323,.T.);
#225=ORIENTED_EDGE('',*,*,#308,.F.);
#226=EDGE_CURVE('',#324,#325,#392,.T.);
#227=EDGE_CURVE('',#326,#324,#393,.T.);
#228=EDGE_CURVE('',#327,#326,#394,.T.);
#229=EDGE_CURVE('',#325,#327,#395,.T.);
#230=EDGE_CURVE('',#328,#329,#396,.T.);
#231=EDGE_CURVE('',#328,#330,#397,.T.);
#232=EDGE_CURVE('',#331,#330,#398,.T.);
#233=EDGE_CURVE('',#331,#329,#399,.T.);
#234=EDGE_CURVE('',#332,#333,#400,.T.);
#235=EDGE_CURVE('',#332,#334,#401,.T.);
#236=EDGE_CURVE('',#335,#334,#402,.T.);
#237=EDGE_CURVE('',#335,#336,#403,.T.);
#238=EDGE_CURVE('',#336,#337,#404,.T.);
#239=EDGE_CURVE('',#330,#337,#405,.T.);
#240=EDGE_CURVE('',#333,#328,#406,.T.);
#241=EDGE_CURVE('',#338,#339,#407,.T.);
#242=EDGE_CURVE('',#339,#329,#408,.T.);
#243=EDGE_CURVE('',#340,#331,#409,.T.);
#244=EDGE_CURVE('',#341,#340,#410,.T.);
#245=EDGE_CURVE('',#341,#342,#411,.T.);
#246=EDGE_CURVE('',#343,#342,#412,.T.);
#247=EDGE_CURVE('',#338,#343,#413,.T.);
#248=EDGE_CURVE('',#344,#345,#414,.T.);
#249=EDGE_CURVE('',#344,#346,#415,.T.);
#250=EDGE_CURVE('',#346,#347,#416,.T.);
#251=EDGE_CURVE('',#345,#347,#417,.T.);
#252=EDGE_CURVE('',#348,#349,#418,.T.);
#253=EDGE_CURVE('',#348,#350,#419,.T.);
#254=EDGE_CURVE('',#350,#351,#420,.T.);
#255=EDGE_CURVE('',#349,#351,#421,.T.);
#256=EDGE_CURVE('',#352,#353,#422,.T.);
#257=EDGE_CURVE('',#346,#353,#423,.T.);
#258=EDGE_CURVE('',#344,#352,#424,.T.);
#259=EDGE_CURVE('',#353,#354,#425,.T.);
#260=EDGE_CURVE('',#347,#354,#426,.T.);
#261=EDGE_CURVE('',#355,#354,#427,.T.);
#262=EDGE_CURVE('',#345,#355,#428,.T.);
#263=EDGE_CURVE('',#352,#355,#429,.T.);
#264=EDGE_CURVE('',#356,#357,#430,.T.);
#265=EDGE_CURVE('',#350,#357,#431,.T.);
#266=EDGE_CURVE('',#348,#356,#432,.T.);
#267=EDGE_CURVE('',#357,#358,#433,.T.);
#268=EDGE_CURVE('',#351,#358,#434,.T.);
#269=EDGE_CURVE('',#359,#358,#435,.T.);
#270=EDGE_CURVE('',#349,#359,#436,.T.);
#271=EDGE_CURVE('',#356,#359,#437,.T.);
#272=EDGE_CURVE('',#360,#360,#12,.T.);
#273=EDGE_CURVE('',#361,#361,#13,.T.);
#274=EDGE_CURVE('',#362,#362,#14,.T.);
#275=EDGE_CURVE('',#363,#363,#15,.T.);
#276=EDGE_CURVE('',#364,#364,#16,.T.);
#277=EDGE_CURVE('',#365,#365,#17,.T.);
#278=EDGE_CURVE('',#366,#366,#18,.T.);
#279=EDGE_CURVE('',#367,#367,#19,.T.);
#280=EDGE_CURVE('',#368,#337,#438,.T.);
#281=EDGE_CURVE('',#369,#336,#439,.T.);
#282=EDGE_CURVE('',#369,#368,#440,.T.);
#283=EDGE_CURVE('',#370,#368,#441,.T.);
#284=EDGE_CURVE('',#371,#369,#442,.T.);
#285=EDGE_CURVE('',#371,#370,#443,.T.);
#286=EDGE_CURVE('',#372,#370,#444,.T.);
#287=EDGE_CURVE('',#373,#371,#445,.T.);
#288=EDGE_CURVE('',#373,#372,#446,.T.);
#289=EDGE_CURVE('',#374,#372,#447,.T.);
#290=EDGE_CURVE('',#375,#373,#448,.T.);
#291=EDGE_CURVE('',#375,#374,#449,.T.);
#292=EDGE_CURVE('',#376,#374,#450,.T.);
#293=EDGE_CURVE('',#377,#375,#451,.T.);
#294=EDGE_CURVE('',#377,#376,#452,.T.);
#295=EDGE_CURVE('',#378,#379,#20,.T.);
#296=EDGE_CURVE('',#380,#379,#453,.T.);
#297=EDGE_CURVE('',#381,#380,#21,.T.);
#298=EDGE_CURVE('',#381,#378,#454,.T.);
#299=EDGE_CURVE('',#378,#382,#455,.T.);
#300=EDGE_CURVE('',#381,#383,#456,.T.);
#301=EDGE_CURVE('',#383,#382,#457,.T.);
#302=EDGE_CURVE('',#340,#382,#22,.T.);
#303=EDGE_CURVE('',#341,#383,#23,.T.);
#304=EDGE_CURVE('',#342,#335,#458,.T.);
#305=EDGE_CURVE('',#380,#384,#459,.T.);
#306=EDGE_CURVE('',#385,#384,#460,.T.);
#307=EDGE_CURVE('',#385,#377,#461,.T.);
#308=EDGE_CURVE('',#386,#387,#462,.T.);
#309=EDGE_CURVE('',#387,#325,#463,.T.);
#310=EDGE_CURVE('',#327,#376,#464,.T.);
#311=EDGE_CURVE('',#385,#388,#465,.T.);
#312=EDGE_CURVE('',#386,#388,#466,.T.);
#313=EDGE_CURVE('',#389,#390,#467,.T.);
#314=EDGE_CURVE('',#390,#391,#468,.T.);
#315=EDGE_CURVE('',#391,#384,#469,.T.);
#316=EDGE_CURVE('',#379,#326,#470,.T.);
#317=EDGE_CURVE('',#389,#324,#471,.T.);
#318=EDGE_CURVE('',#391,#388,#472,.T.);
#319=EDGE_CURVE('',#334,#343,#473,.T.);
#320=EDGE_CURVE('',#332,#338,#474,.T.);
#321=EDGE_CURVE('',#333,#339,#475,.T.);
#322=EDGE_CURVE('',#390,#386,#476,.T.);
#323=EDGE_CURVE('',#389,#387,#477,.T.);
#324=VERTEX_POINT('',#992);
#325=VERTEX_POINT('',#993);
#326=VERTEX_POINT('',#995);
#327=VERTEX_POINT('',#997);
#328=VERTEX_POINT('',#1001);
#329=VERTEX_POINT('',#1002);
#330=VERTEX_POINT('',#1004);
#331=VERTEX_POINT('',#1006);
#332=VERTEX_POINT('',#1010);
#333=VERTEX_POINT('',#1011);
#334=VERTEX_POINT('',#1013);
#335=VERTEX_POINT('',#1015);
#336=VERTEX_POINT('',#1017);
#337=VERTEX_POINT('',#1019);
#338=VERTEX_POINT('',#1024);
#339=VERTEX_POINT('',#1025);
#340=VERTEX_POINT('',#1028);
#341=VERTEX_POINT('',#1030);
#342=VERTEX_POINT('',#1032);
#343=VERTEX_POINT('',#1034);
#344=VERTEX_POINT('',#1038);
#345=VERTEX_POINT('',#1039);
#346=VERTEX_POINT('',#1041);
#347=VERTEX_POINT('',#1043);
#348=VERTEX_POINT('',#1047);
#349=VERTEX_POINT('',#1048);
#350=VERTEX_POINT('',#1050);
#351=VERTEX_POINT('',#1052);
#352=VERTEX_POINT('',#1056);
#353=VERTEX_POINT('',#1057);
#354=VERTEX_POINT('',#1062);
#355=VERTEX_POINT('',#1066);
#356=VERTEX_POINT('',#1072);
#357=VERTEX_POINT('',#1073);
#358=VERTEX_POINT('',#1078);
#359=VERTEX_POINT('',#1082);
#360=VERTEX_POINT('',#1088);
#361=VERTEX_POINT('',#1090);
#362=VERTEX_POINT('',#1093);
#363=VERTEX_POINT('',#1095);
#364=VERTEX_POINT('',#1098);
#365=VERTEX_POINT('',#1100);
#366=VERTEX_POINT('',#1103);
#367=VERTEX_POINT('',#1105);
#368=VERTEX_POINT('',#1108);
#369=VERTEX_POINT('',#1110);
#370=VERTEX_POINT('',#1114);
#371=VERTEX_POINT('',#1116);
#372=VERTEX_POINT('',#1120);
#373=VERTEX_POINT('',#1122);
#374=VERTEX_POINT('',#1126);
#375=VERTEX_POINT('',#1128);
#376=VERTEX_POINT('',#1132);
#377=VERTEX_POINT('',#1134);
#378=VERTEX_POINT('',#1138);
#379=VERTEX_POINT('',#1139);
#380=VERTEX_POINT('',#1141);
#381=VERTEX_POINT('',#1143);
#382=VERTEX_POINT('',#1147);
#383=VERTEX_POINT('',#1149);
#384=VERTEX_POINT('',#1157);
#385=VERTEX_POINT('',#1159);
#386=VERTEX_POINT('',#1163);
#387=VERTEX_POINT('',#1164);
#388=VERTEX_POINT('',#1168);
#389=VERTEX_POINT('',#1172);
#390=VERTEX_POINT('',#1173);
#391=VERTEX_POINT('',#1175);
#392=LINE('',#991,#478);
#393=LINE('',#994,#479);
#394=LINE('',#996,#480);
#395=LINE('',#998,#481);
#396=LINE('',#1000,#482);
#397=LINE('',#1003,#483);
#398=LINE('',#1005,#484);
#399=LINE('',#1007,#485);
#400=LINE('',#1009,#486);
#401=LINE('',#1012,#487);
#402=LINE('',#1014,#488);
#403=LINE('',#1016,#489);
#404=LINE('',#1018,#490);
#405=LINE('',#1020,#491);
#406=LINE('',#1021,#492);
#407=LINE('',#1023,#493);
#408=LINE('',#1026,#494);
#409=LINE('',#1027,#495);
#410=LINE('',#1029,#496);
#411=LINE('',#1031,#497);
#412=LINE('',#1033,#498);
#413=LINE('',#1035,#499);
#414=LINE('',#1037,#500);
#415=LINE('',#1040,#501);
#416=LINE('',#1042,#502);
#417=LINE('',#1044,#503);
#418=LINE('',#1046,#504);
#419=LINE('',#1049,#505);
#420=LINE('',#1051,#506);
#421=LINE('',#1053,#507);
#422=LINE('',#1055,#508);
#423=LINE('',#1058,#509);
#424=LINE('',#1059,#510);
#425=LINE('',#1061,#511);
#426=LINE('',#1063,#512);
#427=LINE('',#1065,#513);
#428=LINE('',#1067,#514);
#429=LINE('',#1069,#515);
#430=LINE('',#1071,#516);
#431=LINE('',#1074,#517);
#432=LINE('',#1075,#518);
#433=LINE('',#1077,#519);
#434=LINE('',#1079,#520);
#435=LINE('',#1081,#521);
#436=LINE('',#1083,#522);
#437=LINE('',#1085,#523);
#438=LINE('',#1107,#524);
#439=LINE('',#1109,#525);
#440=LINE('',#1111,#526);
#441=LINE('',#1113,#527);
#442=LINE('',#1115,#528);
#443=LINE('',#1117,#529);
#444=LINE('',#1119,#530);
#445=LINE('',#1121,#531);
#446=LINE('',#1123,#532);
#447=LINE('',#1125,#533);
#448=LINE('',#1127,#534);
#449=LINE('',#1129,#535);
#450=LINE('',#1131,#536);
#451=LINE('',#1133,#537);
#452=LINE('',#1135,#538);
#453=LINE('',#1140,#539);
#454=LINE('',#1144,#540);
#455=LINE('',#1146,#541);
#456=LINE('',#1148,#542);
#457=LINE('',#1150,#543);
#458=LINE('',#1155,#544);
#459=LINE('',#1156,#545);
#460=LINE('',#1158,#546);
#461=LINE('',#1160,#547);
#462=LINE('',#1162,#548);
#463=LINE('',#1165,#549);
#464=LINE('',#1166,#550);
#465=LINE('',#1167,#551);
#466=LINE('',#1169,#552);
#467=LINE('',#1171,#553);
#468=LINE('',#1174,#554);
#469=LINE('',#1176,#555);
#470=LINE('',#1177,#556);
#471=LINE('',#1178,#557);
#472=LINE('',#1181,#558);
#473=LINE('',#1183,#559);
#474=LINE('',#1185,#560);
#475=LINE('',#1187,#561);
#476=LINE('',#1190,#562);
#477=LINE('',#1192,#563);
#478=VECTOR('',#805,1.);
#479=VECTOR('',#806,1.);
#480=VECTOR('',#807,1.);
#481=VECTOR('',#808,1.);
#482=VECTOR('',#811,1.);
#483=VECTOR('',#812,1.);
#484=VECTOR('',#813,1.);
#485=VECTOR('',#814,1.);
#486=VECTOR('',#817,1.);
#487=VECTOR('',#818,1.);
#488=VECTOR('',#819,1.);
#489=VECTOR('',#820,1.);
#490=VECTOR('',#821,1.);
#491=VECTOR('',#822,1.);
#492=VECTOR('',#823,1.);
#493=VECTOR('',#826,1.);
#494=VECTOR('',#827,1.);
#495=VECTOR('',#828,1.);
#496=VECTOR('',#829,1.);
#497=VECTOR('',#830,1.);
#498=VECTOR('',#831,1.);
#499=VECTOR('',#832,1.);
#500=VECTOR('',#835,1.);
#501=VECTOR('',#836,1.);
#502=VECTOR('',#837,1.);
#503=VECTOR('',#838,1.);
#504=VECTOR('',#841,1.);
#505=VECTOR('',#842,1.);
#506=VECTOR('',#843,1.);
#507=VECTOR('',#844,1.);
#508=VECTOR('',#847,1.);
#509=VECTOR('',#848,1.);
#510=VECTOR('',#849,1.);
#511=VECTOR('',#852,1.);
#512=VECTOR('',#853,1.);
#513=VECTOR('',#856,1.);
#514=VECTOR('',#857,1.);
#515=VECTOR('',#860,1.);
#516=VECTOR('',#863,1.);
#517=VECTOR('',#864,1.);
#518=VECTOR('',#865,1.);
#519=VECTOR('',#868,1.);
#520=VECTOR('',#869,1.);
#521=VECTOR('',#872,1.);
#522=VECTOR('',#873,1.);
#523=VECTOR('',#876,1.);
#524=VECTOR('',#903,1.);
#525=VECTOR('',#904,1.);
#526=VECTOR('',#905,1.);
#527=VECTOR('',#908,1.);
#528=VECTOR('',#909,1.);
#529=VECTOR('',#910,1.);
#530=VECTOR('',#913,1.);
#531=VECTOR('',#914,1.);
#532=VECTOR('',#915,1.);
#533=VECTOR('',#918,1.);
#534=VECTOR('',#919,1.);
#535=VECTOR('',#920,1.);
#536=VECTOR('',#923,1.);
#537=VECTOR('',#924,1.);
#538=VECTOR('',#925,1.);
#539=VECTOR('',#930,1.);
#540=VECTOR('',#933,1.);
#541=VECTOR('',#936,1.);
#542=VECTOR('',#937,1.);
#543=VECTOR('',#938,1.);
#544=VECTOR('',#947,1.);
#545=VECTOR('',#948,1.);
#546=VECTOR('',#949,1.);
#547=VECTOR('',#950,1.);
#548=VECTOR('',#953,1.);
#549=VECTOR('',#954,1.);
#550=VECTOR('',#955,1.);
#551=VECTOR('',#956,1.);
#552=VECTOR('',#957,1.);
#553=VECTOR('',#960,1.);
#554=VECTOR('',#961,1.);
#555=VECTOR('',#962,1.);
#556=VECTOR('',#963,1.);
#557=VECTOR('',#964,1.);
#558=VECTOR('',#969,1.);
#559=VECTOR('',#972,1.);
#560=VECTOR('',#975,1.);
#561=VECTOR('',#978,1.);
#562=VECTOR('',#983,1.);
#563=VECTOR('',#986,1.);
#564=EDGE_LOOP('',(#30,#31,#32,#33));
#565=EDGE_LOOP('',(#34,#35,#36,#37));
#566=EDGE_LOOP('',(#38,#39,#40,#41,#42,#43,#44,#45));
#567=EDGE_LOOP('',(#46,#47,#48,#49,#50,#51,#52,#53));
#568=EDGE_LOOP('',(#54,#55,#56,#57));
#569=EDGE_LOOP('',(#58,#59,#60,#61));
#570=EDGE_LOOP('',(#62,#63,#64,#65));
#571=EDGE_LOOP('',(#66,#67,#68,#69));
#572=EDGE_LOOP('',(#70,#71,#72,#73));
#573=EDGE_LOOP('',(#74,#75,#76,#77));
#574=EDGE_LOOP('',(#78,#79,#80,#81));
#575=EDGE_LOOP('',(#82,#83,#84,#85));
#576=EDGE_LOOP('',(#86,#87,#88,#89));
#577=EDGE_LOOP('',(#90,#91,#92,#93));
#578=EDGE_LOOP('',(#94));
#579=EDGE_LOOP('',(#95));
#580=EDGE_LOOP('',(#96));
#581=EDGE_LOOP('',(#97));
#582=EDGE_LOOP('',(#98));
#583=EDGE_LOOP('',(#99));
#584=EDGE_LOOP('',(#100));
#585=EDGE_LOOP('',(#101));
#586=EDGE_LOOP('',(#102,#103,#104,#105));
#587=EDGE_LOOP('',(#106,#107,#108,#109));
#588=EDGE_LOOP('',(#110,#111,#112,#113));
#589=EDGE_LOOP('',(#114,#115,#116,#117));
#590=EDGE_LOOP('',(#118,#119,#120,#121));
#591=EDGE_LOOP('',(#122,#123,#124,#125));
#592=EDGE_LOOP('',(#126,#127,#128,#129));
#593=EDGE_LOOP('',(#130,#131,#132,#133));
#594=EDGE_LOOP('',(#134,#135,#136,#137,#138,#139,#140,#141,#142,#143,#144,
#145,#146,#147));
#595=EDGE_LOOP('',(#148));
#596=EDGE_LOOP('',(#149));
#597=EDGE_LOOP('',(#150));
#598=EDGE_LOOP('',(#151));
#599=EDGE_LOOP('',(#152,#153,#154,#155,#156,#157,#158,#159));
#600=EDGE_LOOP('',(#160,#161,#162,#163,#164,#165,#166,#167));
#601=EDGE_LOOP('',(#168));
#602=EDGE_LOOP('',(#169));
#603=EDGE_LOOP('',(#170));
#604=EDGE_LOOP('',(#171));
#605=EDGE_LOOP('',(#172,#173,#174,#175));
#606=EDGE_LOOP('',(#176,#177,#178,#179,#180,#181,#182,#183,#184,#185,#186,
#187,#188,#189));
#607=EDGE_LOOP('',(#190,#191,#192,#193));
#608=EDGE_LOOP('',(#194,#195,#196,#197));
#609=EDGE_LOOP('',(#198,#199,#200,#201));
#610=EDGE_LOOP('',(#202,#203,#204,#205));
#611=EDGE_LOOP('',(#206,#207,#208,#209));
#612=EDGE_LOOP('',(#210,#211,#212,#213));
#613=EDGE_LOOP('',(#214,#215,#216,#217));
#614=EDGE_LOOP('',(#218,#219,#220,#221));
#615=EDGE_LOOP('',(#222,#223,#224,#225));
#616=FACE_BOUND('',#564,.T.);
#617=FACE_BOUND('',#565,.T.);
#618=FACE_BOUND('',#566,.T.);
#619=FACE_BOUND('',#567,.T.);
#620=FACE_BOUND('',#568,.T.);
#621=FACE_BOUND('',#569,.T.);
#622=FACE_BOUND('',#570,.T.);
#623=FACE_BOUND('',#571,.T.);
#624=FACE_BOUND('',#572,.T.);
#625=FACE_BOUND('',#573,.T.);
#626=FACE_BOUND('',#574,.T.);
#627=FACE_BOUND('',#575,.T.);
#628=FACE_BOUND('',#576,.T.);
#629=FACE_BOUND('',#577,.T.);
#630=FACE_BOUND('',#578,.T.);
#631=FACE_BOUND('',#579,.T.);
#632=FACE_BOUND('',#580,.T.);
#633=FACE_BOUND('',#581,.T.);
#634=FACE_BOUND('',#582,.T.);
#635=FACE_BOUND('',#583,.T.);
#636=FACE_BOUND('',#584,.T.);
#637=FACE_BOUND('',#585,.T.);
#638=FACE_BOUND('',#586,.T.);
#639=FACE_BOUND('',#587,.T.);
#640=FACE_BOUND('',#588,.T.);
#641=FACE_BOUND('',#589,.T.);
#642=FACE_BOUND('',#590,.T.);
#643=FACE_BOUND('',#591,.T.);
#644=FACE_BOUND('',#592,.T.);
#645=FACE_BOUND('',#593,.T.);
#646=FACE_BOUND('',#594,.T.);
#647=FACE_BOUND('',#595,.T.);
#648=FACE_BOUND('',#596,.T.);
#649=FACE_BOUND('',#597,.T.);
#650=FACE_BOUND('',#598,.T.);
#651=FACE_BOUND('',#599,.T.);
#652=FACE_BOUND('',#600,.T.);
#653=FACE_BOUND('',#601,.T.);
#654=FACE_BOUND('',#602,.T.);
#655=FACE_BOUND('',#603,.T.);
#656=FACE_BOUND('',#604,.T.);
#657=FACE_BOUND('',#605,.T.);
#658=FACE_BOUND('',#606,.T.);
#659=FACE_BOUND('',#607,.T.);
#660=FACE_BOUND('',#608,.T.);
#661=FACE_BOUND('',#609,.T.);
#662=FACE_BOUND('',#610,.T.);
#663=FACE_BOUND('',#611,.T.);
#664=FACE_BOUND('',#612,.T.);
#665=FACE_BOUND('',#613,.T.);
#666=FACE_BOUND('',#614,.T.);
#667=FACE_BOUND('',#615,.T.);
#668=PLANE('',#751);
#669=PLANE('',#752);
#670=PLANE('',#753);
#671=PLANE('',#754);
#672=PLANE('',#755);
#673=PLANE('',#756);
#674=PLANE('',#757);
#675=PLANE('',#758);
#676=PLANE('',#759);
#677=PLANE('',#760);
#678=PLANE('',#761);
#679=PLANE('',#762);
#680=PLANE('',#763);
#681=PLANE('',#764);
#682=PLANE('',#777);
#683=PLANE('',#778);
#684=PLANE('',#779);
#685=PLANE('',#780);
#686=PLANE('',#781);
#687=PLANE('',#785);
#688=PLANE('',#789);
#689=PLANE('',#790);
#690=PLANE('',#791);
#691=PLANE('',#792);
#692=PLANE('',#793);
#693=PLANE('',#794);
#694=PLANE('',#795);
#695=PLANE('',#796);
#696=PLANE('',#797);
#697=PLANE('',#798);
#698=PLANE('',#799);
#699=PLANE('',#800);
#700=ADVANCED_FACE('',(#616),#668,.F.);
#701=ADVANCED_FACE('',(#617),#669,.F.);
#702=ADVANCED_FACE('',(#618),#670,.T.);
#703=ADVANCED_FACE('',(#619),#671,.T.);
#704=ADVANCED_FACE('',(#620),#672,.T.);
#705=ADVANCED_FACE('',(#621),#673,.T.);
#706=ADVANCED_FACE('',(#622),#674,.F.);
#707=ADVANCED_FACE('',(#623),#675,.F.);
#708=ADVANCED_FACE('',(#624),#676,.T.);
#709=ADVANCED_FACE('',(#625),#677,.T.);
#710=ADVANCED_FACE('',(#626),#678,.F.);
#711=ADVANCED_FACE('',(#627),#679,.F.);
#712=ADVANCED_FACE('',(#628),#680,.T.);
#713=ADVANCED_FACE('',(#629),#681,.T.);
#714=ADVANCED_FACE('',(#630,#631),#24,.F.);
#715=ADVANCED_FACE('',(#632,#633),#25,.F.);
#716=ADVANCED_FACE('',(#634,#635),#26,.F.);
#717=ADVANCED_FACE('',(#636,#637),#27,.F.);
#718=ADVANCED_FACE('',(#638),#682,.F.);
#719=ADVANCED_FACE('',(#639),#683,.F.);
#720=ADVANCED_FACE('',(#640),#684,.F.);
#721=ADVANCED_FACE('',(#641),#685,.F.);
#722=ADVANCED_FACE('',(#642),#686,.F.);
#723=ADVANCED_FACE('',(#643),#28,.T.);
#724=ADVANCED_FACE('',(#644),#687,.T.);
#725=ADVANCED_FACE('',(#645),#29,.T.);
#726=ADVANCED_FACE('',(#646,#647,#648,#649,#650),#688,.T.);
#727=ADVANCED_FACE('',(#651),#689,.F.);
#728=ADVANCED_FACE('',(#652),#690,.F.);
#729=ADVANCED_FACE('',(#653,#654,#655,#656,#657,#658,#659),#691,.F.);
#730=ADVANCED_FACE('',(#660),#692,.F.);
#731=ADVANCED_FACE('',(#661),#693,.F.);
#732=ADVANCED_FACE('',(#662),#694,.T.);
#733=ADVANCED_FACE('',(#663),#695,.F.);
#734=ADVANCED_FACE('',(#664),#696,.T.);
#735=ADVANCED_FACE('',(#665),#697,.T.);
#736=ADVANCED_FACE('',(#666),#698,.F.);
#737=ADVANCED_FACE('',(#667),#699,.T.);
#738=CLOSED_SHELL('',(#700,#701,#702,#703,#704,#705,#706,#707,#708,#709,
#710,#711,#712,#713,#714,#715,#716,#717,#718,#719,#720,#721,#722,#723,#724,
#725,#726,#727,#728,#729,#730,#731,#732,#733,#734,#735,#736,#737));
#739=STYLED_ITEM('',(#740),#747);
#740=PRESENTATION_STYLE_ASSIGNMENT((#741));
#741=SURFACE_STYLE_USAGE(.BOTH.,#742);
#742=SURFACE_SIDE_STYLE('',(#743));
#743=SURFACE_STYLE_FILL_AREA(#744);
#744=FILL_AREA_STYLE('',(#745));
#745=FILL_AREA_STYLE_COLOUR('',#746);
#746=COLOUR_RGB('',0.917647058823529,0.917647058823529,0.917647058823529);
#747=MANIFOLD_SOLID_BREP('Top_Right',#738);
#748=SHAPE_DEFINITION_REPRESENTATION(#1200,#749);
#749=SHAPE_REPRESENTATION('Top_Right',(#750),#1195);
#750=AXIS2_PLACEMENT_3D('',#989,#801,#802);
#751=AXIS2_PLACEMENT_3D('',#990,#803,#804);
#752=AXIS2_PLACEMENT_3D('',#999,#809,#810);
#753=AXIS2_PLACEMENT_3D('',#1008,#815,#816);
#754=AXIS2_PLACEMENT_3D('',#1022,#824,#825);
#755=AXIS2_PLACEMENT_3D('',#1036,#833,#834);
#756=AXIS2_PLACEMENT_3D('',#1045,#839,#840);
#757=AXIS2_PLACEMENT_3D('',#1054,#845,#846);
#758=AXIS2_PLACEMENT_3D('',#1060,#850,#851);
#759=AXIS2_PLACEMENT_3D('',#1064,#854,#855);
#760=AXIS2_PLACEMENT_3D('',#1068,#858,#859);
#761=AXIS2_PLACEMENT_3D('',#1070,#861,#862);
#762=AXIS2_PLACEMENT_3D('',#1076,#866,#867);
#763=AXIS2_PLACEMENT_3D('',#1080,#870,#871);
#764=AXIS2_PLACEMENT_3D('',#1084,#874,#875);
#765=AXIS2_PLACEMENT_3D('',#1086,#877,#878);
#766=AXIS2_PLACEMENT_3D('',#1087,#879,#880);
#767=AXIS2_PLACEMENT_3D('',#1089,#881,#882);
#768=AXIS2_PLACEMENT_3D('',#1091,#883,#884);
#769=AXIS2_PLACEMENT_3D('',#1092,#885,#886);
#770=AXIS2_PLACEMENT_3D('',#1094,#887,#888);
#771=AXIS2_PLACEMENT_3D('',#1096,#889,#890);
#772=AXIS2_PLACEMENT_3D('',#1097,#891,#892);
#773=AXIS2_PLACEMENT_3D('',#1099,#893,#894);
#774=AXIS2_PLACEMENT_3D('',#1101,#895,#896);
#775=AXIS2_PLACEMENT_3D('',#1102,#897,#898);
#776=AXIS2_PLACEMENT_3D('',#1104,#899,#900);
#777=AXIS2_PLACEMENT_3D('',#1106,#901,#902);
#778=AXIS2_PLACEMENT_3D('',#1112,#906,#907);
#779=AXIS2_PLACEMENT_3D('',#1118,#911,#912);
#780=AXIS2_PLACEMENT_3D('',#1124,#916,#917);
#781=AXIS2_PLACEMENT_3D('',#1130,#921,#922);
#782=AXIS2_PLACEMENT_3D('',#1136,#926,#927);
#783=AXIS2_PLACEMENT_3D('',#1137,#928,#929);
#784=AXIS2_PLACEMENT_3D('',#1142,#931,#932);
#785=AXIS2_PLACEMENT_3D('',#1145,#934,#935);
#786=AXIS2_PLACEMENT_3D('',#1151,#939,#940);
#787=AXIS2_PLACEMENT_3D('',#1152,#941,#942);
#788=AXIS2_PLACEMENT_3D('',#1153,#943,#944);
#789=AXIS2_PLACEMENT_3D('',#1154,#945,#946);
#790=AXIS2_PLACEMENT_3D('',#1161,#951,#952);
#791=AXIS2_PLACEMENT_3D('',#1170,#958,#959);
#792=AXIS2_PLACEMENT_3D('',#1179,#965,#966);
#793=AXIS2_PLACEMENT_3D('',#1180,#967,#968);
#794=AXIS2_PLACEMENT_3D('',#1182,#970,#971);
#795=AXIS2_PLACEMENT_3D('',#1184,#973,#974);
#796=AXIS2_PLACEMENT_3D('',#1186,#976,#977);
#797=AXIS2_PLACEMENT_3D('',#1188,#979,#980);
#798=AXIS2_PLACEMENT_3D('',#1189,#981,#982);
#799=AXIS2_PLACEMENT_3D('',#1191,#984,#985);
#800=AXIS2_PLACEMENT_3D('',#1193,#987,#988);
#801=DIRECTION('',(0.,0.,1.));
#802=DIRECTION('',(1.,0.,0.));
#803=DIRECTION('',(1.,0.,0.));
#804=DIRECTION('',(0.,0.,-1.));
#805=DIRECTION('',(0.,-1.,0.));
#806=DIRECTION('',(0.,0.,1.));
#807=DIRECTION('',(0.,1.,0.));
#808=DIRECTION('',(0.,0.,-1.));
#809=DIRECTION('',(1.,0.,0.));
#810=DIRECTION('',(0.,0.,-1.));
#811=DIRECTION('',(0.,-1.,0.));
#812=DIRECTION('',(0.,0.,-1.));
#813=DIRECTION('',(0.,1.,0.));
#814=DIRECTION('',(0.,0.,1.));
#815=DIRECTION('',(0.,1.,0.));
#816=DIRECTION('',(1.,0.,0.));
#817=DIRECTION('',(0.,0.,-1.));
#818=DIRECTION('',(-1.,0.,0.));
#819=DIRECTION('',(0.,0.,-1.));
#820=DIRECTION('',(1.,0.,0.));
#821=DIRECTION('',(0.,0.,-1.));
#822=DIRECTION('',(1.,0.,0.));
#823=DIRECTION('',(-1.,0.,0.));
#824=DIRECTION('',(1.51179305480872E-16,-1.,0.));
#825=DIRECTION('',(-1.,-1.51179305480872E-16,0.));
#826=DIRECTION('',(0.,0.,-1.));
#827=DIRECTION('',(-1.,0.,0.));
#828=DIRECTION('',(-1.,-1.51179305480872E-16,0.));
#829=DIRECTION('',(0.,0.,-1.));
#830=DIRECTION('',(-1.,-1.51179305480872E-16,0.));
#831=DIRECTION('',(0.,0.,1.));
#832=DIRECTION('',(-1.,0.,0.));
#833=DIRECTION('',(0.,0.,-1.));
#834=DIRECTION('',(-1.,0.,0.));
#835=DIRECTION('',(0.,-1.,0.));
#836=DIRECTION('',(1.,0.,0.));
#837=DIRECTION('',(0.,-1.,0.));
#838=DIRECTION('',(1.,0.,0.));
#839=DIRECTION('',(0.,0.,-1.));
#840=DIRECTION('',(-1.,0.,0.));
#841=DIRECTION('',(0.,-1.,0.));
#842=DIRECTION('',(1.,0.,0.));
#843=DIRECTION('',(0.,-1.,0.));
#844=DIRECTION('',(1.,0.,0.));
#845=DIRECTION('',(0.,1.,0.));
#846=DIRECTION('',(1.,0.,0.));
#847=DIRECTION('',(1.,0.,0.));
#848=DIRECTION('',(0.,0.,-1.));
#849=DIRECTION('',(0.,0.,-1.));
#850=DIRECTION('',(1.,0.,0.));
#851=DIRECTION('',(0.,-1.,0.));
#852=DIRECTION('',(0.,-1.,0.));
#853=DIRECTION('',(0.,0.,-1.));
#854=DIRECTION('',(0.,1.,0.));
#855=DIRECTION('',(1.,0.,0.));
#856=DIRECTION('',(1.,0.,0.));
#857=DIRECTION('',(0.,0.,-1.));
#858=DIRECTION('',(1.,0.,0.));
#859=DIRECTION('',(0.,-1.,0.));
#860=DIRECTION('',(0.,-1.,0.));
#861=DIRECTION('',(0.,1.,0.));
#862=DIRECTION('',(1.,0.,0.));
#863=DIRECTION('',(1.,0.,0.));
#864=DIRECTION('',(0.,0.,-1.));
#865=DIRECTION('',(0.,0.,-1.));
#866=DIRECTION('',(1.,0.,0.));
#867=DIRECTION('',(0.,-1.,0.));
#868=DIRECTION('',(0.,-1.,0.));
#869=DIRECTION('',(0.,0.,-1.));
#870=DIRECTION('',(0.,1.,0.));
#871=DIRECTION('',(1.,0.,0.));
#872=DIRECTION('',(1.,0.,0.));
#873=DIRECTION('',(0.,0.,-1.));
#874=DIRECTION('',(1.,0.,0.));
#875=DIRECTION('',(0.,-1.,0.));
#876=DIRECTION('',(0.,-1.,0.));
#877=DIRECTION('',(0.,0.,1.));
#878=DIRECTION('',(0.,-1.,0.));
#879=DIRECTION('',(0.,0.,1.));
#880=DIRECTION('',(0.,-1.,0.));
#881=DIRECTION('',(0.,0.,1.));
#882=DIRECTION('',(0.,-1.,0.));
#883=DIRECTION('',(0.,0.,1.));
#884=DIRECTION('',(0.,-1.,0.));
#885=DIRECTION('',(0.,0.,1.));
#886=DIRECTION('',(0.,-1.,0.));
#887=DIRECTION('',(0.,0.,1.));
#888=DIRECTION('',(0.,-1.,0.));
#889=DIRECTION('',(0.,0.,1.));
#890=DIRECTION('',(0.,-1.,0.));
#891=DIRECTION('',(0.,0.,1.));
#892=DIRECTION('',(0.,-1.,0.));
#893=DIRECTION('',(0.,0.,1.));
#894=DIRECTION('',(0.,-1.,0.));
#895=DIRECTION('',(0.,0.,1.));
#896=DIRECTION('',(0.,-1.,0.));
#897=DIRECTION('',(0.,0.,1.));
#898=DIRECTION('',(0.,-1.,0.));
#899=DIRECTION('',(0.,0.,1.));
#900=DIRECTION('',(0.,-1.,0.));
#901=DIRECTION('',(1.,-1.69697301691393E-13,0.));
#902=DIRECTION('',(-1.69697301691393E-13,-1.,0.));
#903=DIRECTION('',(-1.69697301691393E-13,-1.,0.));
#904=DIRECTION('',(-1.69697301691393E-13,-1.,0.));
#905=DIRECTION('',(0.,0.,-1.));
#906=DIRECTION('',(0.,1.,0.));
#907=DIRECTION('',(1.,0.,0.));
#908=DIRECTION('',(1.,0.,0.));
#909=DIRECTION('',(1.,0.,0.));
#910=DIRECTION('',(0.,0.,-1.));
#911=DIRECTION('',(1.,-1.69010329208029E-13,0.));
#912=DIRECTION('',(-1.69010329208029E-13,-1.,0.));
#913=DIRECTION('',(-1.69010329208029E-13,-1.,0.));
#914=DIRECTION('',(-1.69010329208029E-13,-1.,0.));
#915=DIRECTION('',(0.,0.,-1.));
#916=DIRECTION('',(0.,1.,0.));
#917=DIRECTION('',(1.,0.,0.));
#918=DIRECTION('',(1.,0.,0.));
#919=DIRECTION('',(1.,0.,0.));
#920=DIRECTION('',(0.,0.,-1.));
#921=DIRECTION('',(1.,1.70952976670196E-13,0.));
#922=DIRECTION('',(1.70952976670196E-13,-1.,0.));
#923=DIRECTION('',(1.70952976670196E-13,-1.,0.));
#924=DIRECTION('',(1.70952976670196E-13,-1.,0.));
#925=DIRECTION('',(0.,0.,-1.));
#926=DIRECTION('',(0.,0.,-1.));
#927=DIRECTION('',(0.,1.,0.));
#928=DIRECTION('',(0.,0.,1.));
#929=DIRECTION('',(0.,-1.,0.));
#930=DIRECTION('',(0.,0.,-1.));
#931=DIRECTION('',(0.,0.,1.));
#932=DIRECTION('',(0.,-1.,0.));
#933=DIRECTION('',(0.,0.,-1.));
#934=DIRECTION('',(1.,3.87242073465349E-16,0.));
#935=DIRECTION('',(3.87242073465349E-16,-1.,0.));
#936=DIRECTION('',(3.87242073465349E-16,-1.,0.));
#937=DIRECTION('',(3.87242073465349E-16,-1.,0.));
#938=DIRECTION('',(0.,0.,-1.));
#939=DIRECTION('',(0.,0.,-1.));
#940=DIRECTION('',(0.,1.,0.));
#941=DIRECTION('',(0.,0.,1.));
#942=DIRECTION('',(0.,-1.,0.));
#943=DIRECTION('',(0.,0.,1.));
#944=DIRECTION('',(0.,-1.,0.));
#945=DIRECTION('',(0.,0.,1.));
#946=DIRECTION('',(1.,0.,0.));
#947=DIRECTION('',(0.,1.,0.));
#948=DIRECTION('',(-1.,-1.51179305480872E-16,0.));
#949=DIRECTION('',(0.,1.,0.));
#950=DIRECTION('',(1.,0.,0.));
#951=DIRECTION('',(0.,1.,0.));
#952=DIRECTION('',(1.,0.,0.));
#953=DIRECTION('',(0.,0.,-1.));
#954=DIRECTION('',(-1.,0.,0.));
#955=DIRECTION('',(1.,0.,0.));
#956=DIRECTION('',(0.,0.,-1.));
#957=DIRECTION('',(-1.,0.,0.));
#958=DIRECTION('',(1.51179305480872E-16,-1.,0.));
#959=DIRECTION('',(-1.,-1.51179305480872E-16,0.));
#960=DIRECTION('',(0.,0.,1.));
#961=DIRECTION('',(-1.,0.,0.));
#962=DIRECTION('',(0.,0.,1.));
#963=DIRECTION('',(-1.,-1.51179305480872E-16,0.));
#964=DIRECTION('',(-1.,0.,0.));
#965=DIRECTION('',(0.,0.,1.));
#966=DIRECTION('',(1.,0.,0.));
#967=DIRECTION('',(1.,0.,0.));
#968=DIRECTION('',(0.,0.,-1.));
#969=DIRECTION('',(0.,-1.,0.));
#970=DIRECTION('',(1.,0.,0.));
#971=DIRECTION('',(0.,0.,-1.));
#972=DIRECTION('',(0.,-1.,0.));
#973=DIRECTION('',(0.,0.,-1.));
#974=DIRECTION('',(0.,1.,0.));
#975=DIRECTION('',(0.,-1.,0.));
#976=DIRECTION('',(0.,0.,-1.));
#977=DIRECTION('',(0.,1.,0.));
#978=DIRECTION('',(0.,-1.,0.));
#979=DIRECTION('',(-1.,0.,0.));
#980=DIRECTION('',(0.,0.,1.));
#981=DIRECTION('',(0.,0.,-1.));
#982=DIRECTION('',(0.,1.,0.));
#983=DIRECTION('',(0.,-1.,0.));
#984=DIRECTION('',(0.,0.,-1.));
#985=DIRECTION('',(0.,1.,0.));
#986=DIRECTION('',(0.,-1.,0.));
#987=DIRECTION('',(-1.,0.,0.));
#988=DIRECTION('',(0.,0.,1.));
#989=CARTESIAN_POINT('',(0.,0.,0.));
#990=CARTESIAN_POINT('',(0.,0.,0.));
#991=CARTESIAN_POINT('',(0.,0.05317375,0.00993));
#992=CARTESIAN_POINT('',(0.,0.07316875,0.00993));
#993=CARTESIAN_POINT('',(0.,0.03317875,0.00993));
#994=CARTESIAN_POINT('',(0.,0.07316875,0.01443));
#995=CARTESIAN_POINT('',(0.,0.07316875,0.00843));
#996=CARTESIAN_POINT('',(0.,-0.0025062499999999,0.00843));
#997=CARTESIAN_POINT('',(0.,0.03317875,0.00843));
#998=CARTESIAN_POINT('',(0.,0.03317875,0.01443));
#999=CARTESIAN_POINT('',(0.,0.,0.));
#1000=CARTESIAN_POINT('',(0.,-0.07025125,0.00993));
#1001=CARTESIAN_POINT('',(0.,-0.06232125,0.00993));
#1002=CARTESIAN_POINT('',(0.,-0.07818125,0.00993));
#1003=CARTESIAN_POINT('',(0.,-0.06232125,0.01443));
#1004=CARTESIAN_POINT('',(0.,-0.06232125,0.00843));
#1005=CARTESIAN_POINT('',(0.,-0.0025062499999999,0.00843));
#1006=CARTESIAN_POINT('',(0.,-0.07818125,0.00843));
#1007=CARTESIAN_POINT('',(0.,-0.07818125,0.01443));
#1008=CARTESIAN_POINT('',(0.1184325,-0.06232125,0.01443));
#1009=CARTESIAN_POINT('',(0.02,-0.06232125,0.01143));
#1010=CARTESIAN_POINT('',(0.02,-0.06232125,0.01293));
#1011=CARTESIAN_POINT('',(0.02,-0.06232125,0.00993));
#1012=CARTESIAN_POINT('',(0.02,-0.06232125,0.01293));
#1013=CARTESIAN_POINT('',(0.,-0.06232125,0.01293));
#1014=CARTESIAN_POINT('',(0.,-0.06232125,0.01443));
#1015=CARTESIAN_POINT('',(0.,-0.06232125,0.01443));
#1016=CARTESIAN_POINT('',(0.1184325,-0.06232125,0.01443));
#1017=CARTESIAN_POINT('',(0.147507499999998,-0.06232125,0.01443));
#1018=CARTESIAN_POINT('',(0.147507499999998,-0.06232125,0.01443));
#1019=CARTESIAN_POINT('',(0.147507499999998,-0.06232125,0.00843));
#1020=CARTESIAN_POINT('',(0.1184325,-0.06232125,0.00843));
#1021=CARTESIAN_POINT('',(0.02,-0.06232125,0.00993));
#1022=CARTESIAN_POINT('',(-0.00169374999999994,-0.07818125,0.01443));
#1023=CARTESIAN_POINT('',(0.02,-0.07818125,0.01143));
#1024=CARTESIAN_POINT('',(0.02,-0.07818125,0.01293));
#1025=CARTESIAN_POINT('',(0.02,-0.07818125,0.00993));
#1026=CARTESIAN_POINT('',(0.02,-0.07818125,0.00993));
#1027=CARTESIAN_POINT('',(-0.00169374999999994,-0.07818125,0.00843));
#1028=CARTESIAN_POINT('',(0.1819,-0.07818125,0.00843));
#1029=CARTESIAN_POINT('',(0.1819,-0.07818125,0.01443));
#1030=CARTESIAN_POINT('',(0.1819,-0.07818125,0.01443));
#1031=CARTESIAN_POINT('',(-0.00169374999999994,-0.07818125,0.01443));
#1032=CARTESIAN_POINT('',(0.,-0.07818125,0.01443));
#1033=CARTESIAN_POINT('',(0.,-0.07818125,0.01443));
#1034=CARTESIAN_POINT('',(0.,-0.07818125,0.01293));
#1035=CARTESIAN_POINT('',(0.02,-0.07818125,0.01293));
#1036=CARTESIAN_POINT('',(-0.00169374999999994,-0.00250624999999992,0.01143));
#1037=CARTESIAN_POINT('',(0.163875,-0.0620375,0.01143));
#1038=CARTESIAN_POINT('',(0.163875,-0.0585375,0.01143));
#1039=CARTESIAN_POINT('',(0.163875,-0.0655375,0.01143));
#1040=CARTESIAN_POINT('',(0.167375,-0.0585375,0.01143));
#1041=CARTESIAN_POINT('',(0.170875,-0.0585375,0.01143));
#1042=CARTESIAN_POINT('',(0.170875,-0.0620375,0.01143));
#1043=CARTESIAN_POINT('',(0.170875,-0.0655375,0.01143));
#1044=CARTESIAN_POINT('',(0.167375,-0.0655375,0.01143));
#1045=CARTESIAN_POINT('',(-0.00169374999999994,-0.00250624999999992,0.01143));
#1046=CARTESIAN_POINT('',(0.163875,0.057025,0.01143));
#1047=CARTESIAN_POINT('',(0.163875,0.060525,0.01143));
#1048=CARTESIAN_POINT('',(0.163875,0.053525,0.01143));
#1049=CARTESIAN_POINT('',(0.167375,0.060525,0.01143));
#1050=CARTESIAN_POINT('',(0.170875,0.060525,0.01143));
#1051=CARTESIAN_POINT('',(0.170875,0.057025,0.01143));
#1052=CARTESIAN_POINT('',(0.170875,0.053525,0.01143));
#1053=CARTESIAN_POINT('',(0.167375,0.053525,0.01143));
#1054=CARTESIAN_POINT('',(0.167375,-0.0585375,0.01143));
#1055=CARTESIAN_POINT('',(0.167375,-0.0585375,0.00843));
#1056=CARTESIAN_POINT('',(0.163875,-0.0585375,0.00843));
#1057=CARTESIAN_POINT('',(0.170875,-0.0585375,0.00843));
#1058=CARTESIAN_POINT('',(0.170875,-0.0585375,0.01143));
#1059=CARTESIAN_POINT('',(0.163875,-0.0585375,0.01143));
#1060=CARTESIAN_POINT('',(0.170875,-0.0620375,0.01143));
#1061=CARTESIAN_POINT('',(0.170875,-0.0620375,0.00843));
#1062=CARTESIAN_POINT('',(0.170875,-0.0655375,0.00843));
#1063=CARTESIAN_POINT('',(0.170875,-0.0655375,0.01143));
#1064=CARTESIAN_POINT('',(0.167375,-0.0655375,0.01143));
#1065=CARTESIAN_POINT('',(0.167375,-0.0655375,0.00843));
#1066=CARTESIAN_POINT('',(0.163875,-0.0655375,0.00843));
#1067=CARTESIAN_POINT('',(0.163875,-0.0655375,0.01143));
#1068=CARTESIAN_POINT('',(0.163875,-0.0620375,0.01143));
#1069=CARTESIAN_POINT('',(0.163875,-0.0620375,0.00843));
#1070=CARTESIAN_POINT('',(0.167375,0.060525,0.01143));
#1071=CARTESIAN_POINT('',(0.167375,0.060525,0.00843));
#1072=CARTESIAN_POINT('',(0.163875,0.060525,0.00843));
#1073=CARTESIAN_POINT('',(0.170875,0.060525,0.00843));
#1074=CARTESIAN_POINT('',(0.170875,0.060525,0.01143));
#1075=CARTESIAN_POINT('',(0.163875,0.060525,0.01143));
#1076=CARTESIAN_POINT('',(0.170875,0.057025,0.01143));
#1077=CARTESIAN_POINT('',(0.170875,0.057025,0.00843));
#1078=CARTESIAN_POINT('',(0.170875,0.053525,0.00843));
#1079=CARTESIAN_POINT('',(0.170875,0.053525,0.01143));
#1080=CARTESIAN_POINT('',(0.167375,0.053525,0.01143));
#1081=CARTESIAN_POINT('',(0.167375,0.053525,0.00843));
#1082=CARTESIAN_POINT('',(0.163875,0.053525,0.00843));
#1083=CARTESIAN_POINT('',(0.163875,0.053525,0.01143));
#1084=CARTESIAN_POINT('',(0.163875,0.057025,0.01143));
#1085=CARTESIAN_POINT('',(0.163875,0.057025,0.00843));
#1086=CARTESIAN_POINT('',(0.06165,-0.07393125,-0.390189049152698));
#1087=CARTESIAN_POINT('',(0.06165,-0.07393125,0.01443));
#1088=CARTESIAN_POINT('',(0.06165,-0.07568125,0.01443));
#1089=CARTESIAN_POINT('',(0.06165,-0.07393125,0.00843));
#1090=CARTESIAN_POINT('',(0.06165,-0.07568125,0.00843));
#1091=CARTESIAN_POINT('',(0.18165,-0.07393125,-0.390189049152698));
#1092=CARTESIAN_POINT('',(0.18165,-0.07393125,0.01443));
#1093=CARTESIAN_POINT('',(0.18165,-0.07568125,0.01443));
#1094=CARTESIAN_POINT('',(0.18165,-0.07393125,0.00843));
#1095=CARTESIAN_POINT('',(0.18165,-0.07568125,0.00843));
#1096=CARTESIAN_POINT('',(0.18165,0.06891875,-0.390189049152698));
#1097=CARTESIAN_POINT('',(0.18165,0.06891875,0.01443));
#1098=CARTESIAN_POINT('',(0.18165,0.06716875,0.01443));
#1099=CARTESIAN_POINT('',(0.18165,0.06891875,0.00843));
#1100=CARTESIAN_POINT('',(0.18165,0.06716875,0.00843));
#1101=CARTESIAN_POINT('',(0.06165,0.06891875,-0.390189049152698));
#1102=CARTESIAN_POINT('',(0.06165,0.06891875,0.01443));
#1103=CARTESIAN_POINT('',(0.06165,0.06716875,0.01443));
#1104=CARTESIAN_POINT('',(0.06165,0.06891875,0.00843));
#1105=CARTESIAN_POINT('',(0.06165,0.06716875,0.00843));
#1106=CARTESIAN_POINT('',(0.1475075,-0.052671249999999,0.01443));
#1107=CARTESIAN_POINT('',(0.1475075,-0.052671249999999,0.00843));
#1108=CARTESIAN_POINT('',(0.147507500000002,-0.043021249999998,0.00843));
#1109=CARTESIAN_POINT('',(0.1475075,-0.052671249999999,0.01443));
#1110=CARTESIAN_POINT('',(0.147507500000002,-0.043021249999998,0.01443));
#1111=CARTESIAN_POINT('',(0.147507500000002,-0.043021249999998,0.01443));
#1112=CARTESIAN_POINT('',(0.1379825,-0.043021249999998,0.01443));
#1113=CARTESIAN_POINT('',(0.1379825,-0.043021249999998,0.00843));
#1114=CARTESIAN_POINT('',(0.128457499999998,-0.043021249999998,0.00843));
#1115=CARTESIAN_POINT('',(0.1379825,-0.043021249999998,0.01443));
#1116=CARTESIAN_POINT('',(0.128457499999998,-0.043021249999998,0.01443));
#1117=CARTESIAN_POINT('',(0.128457499999998,-0.043021249999998,0.01443));
#1118=CARTESIAN_POINT('',(0.1284575,-0.033496249999998,0.01443));
#1119=CARTESIAN_POINT('',(0.1284575,-0.033496249999998,0.00843));
#1120=CARTESIAN_POINT('',(0.128457500000002,-0.023971249999998,0.00843));
#1121=CARTESIAN_POINT('',(0.1284575,-0.033496249999998,0.01443));
#1122=CARTESIAN_POINT('',(0.128457500000002,-0.023971249999998,0.01443));
#1123=CARTESIAN_POINT('',(0.128457500000002,-0.023971249999998,0.01443));
#1124=CARTESIAN_POINT('',(0.118932500000003,-0.023971249999998,0.01443));
#1125=CARTESIAN_POINT('',(0.118932500000003,-0.023971249999998,0.00843));
#1126=CARTESIAN_POINT('',(0.109407500000005,-0.023971249999998,0.00843));
#1127=CARTESIAN_POINT('',(0.118932500000003,-0.023971249999998,0.01443));
#1128=CARTESIAN_POINT('',(0.109407500000005,-0.023971249999998,0.01443));
#1129=CARTESIAN_POINT('',(0.109407500000005,-0.023971249999998,0.01443));
#1130=CARTESIAN_POINT('',(0.1094075,0.00460375000000102,0.01443));
#1131=CARTESIAN_POINT('',(0.1094075,0.00460375000000102,0.00843));
#1132=CARTESIAN_POINT('',(0.109407499999995,0.03317875,0.00843));
#1133=CARTESIAN_POINT('',(0.1094075,0.00460375000000102,0.01443));
#1134=CARTESIAN_POINT('',(0.109407499999995,0.03317875,0.01443));
#1135=CARTESIAN_POINT('',(0.109407499999995,0.03317875,0.01443));
#1136=CARTESIAN_POINT('',(0.1819,0.06916875,0.01443));
#1137=CARTESIAN_POINT('',(0.1819,0.06916875,0.00843));
#1138=CARTESIAN_POINT('',(0.1859,0.06916875,0.00843));
#1139=CARTESIAN_POINT('',(0.1819,0.07316875,0.00843));
#1140=CARTESIAN_POINT('',(0.1819,0.07316875,0.01443));
#1141=CARTESIAN_POINT('',(0.1819,0.07316875,0.01443));
#1142=CARTESIAN_POINT('',(0.1819,0.06916875,0.01443));
#1143=CARTESIAN_POINT('',(0.1859,0.06916875,0.01443));
#1144=CARTESIAN_POINT('',(0.1859,0.06916875,0.01443));
#1145=CARTESIAN_POINT('',(0.1859,-0.00250624999999989,0.01443));
#1146=CARTESIAN_POINT('',(0.1859,-0.00250624999999989,0.00843));
#1147=CARTESIAN_POINT('',(0.1859,-0.07418125,0.00843));
#1148=CARTESIAN_POINT('',(0.1859,-0.00250624999999989,0.01443));
#1149=CARTESIAN_POINT('',(0.1859,-0.07418125,0.01443));
#1150=CARTESIAN_POINT('',(0.1859,-0.07418125,0.01443));
#1151=CARTESIAN_POINT('',(0.1819,-0.07418125,0.01443));
#1152=CARTESIAN_POINT('',(0.1819,-0.07418125,0.00843));
#1153=CARTESIAN_POINT('',(0.1819,-0.07418125,0.01443));
#1154=CARTESIAN_POINT('',(-0.00169375,-0.0025062499999999,0.01443));
#1155=CARTESIAN_POINT('',(0.,-0.0025062499999999,0.01443));
#1156=CARTESIAN_POINT('',(-0.00169375,0.07316875,0.01443));
#1157=CARTESIAN_POINT('',(0.,0.07316875,0.01443));
#1158=CARTESIAN_POINT('',(0.,-0.0025062499999999,0.01443));
#1159=CARTESIAN_POINT('',(0.,0.03317875,0.01443));
#1160=CARTESIAN_POINT('',(-0.0288399999999993,0.03317875,0.01443));
#1161=CARTESIAN_POINT('',(-0.0288399999999993,0.03317875,0.01443));
#1162=CARTESIAN_POINT('',(0.02,0.03317875,0.01443));
#1163=CARTESIAN_POINT('',(0.02,0.03317875,0.01293));
#1164=CARTESIAN_POINT('',(0.02,0.03317875,0.00993));
#1165=CARTESIAN_POINT('',(0.02,0.03317875,0.00993));
#1166=CARTESIAN_POINT('',(-0.0288399999999993,0.03317875,0.00843));
#1167=CARTESIAN_POINT('',(0.,0.03317875,0.01443));
#1168=CARTESIAN_POINT('',(0.,0.03317875,0.01293));
#1169=CARTESIAN_POINT('',(0.02,0.03317875,0.01293));
#1170=CARTESIAN_POINT('',(-0.00169375,0.07316875,0.01443));
#1171=CARTESIAN_POINT('',(0.02,0.07316875,0.01443));
#1172=CARTESIAN_POINT('',(0.02,0.07316875,0.00993));
#1173=CARTESIAN_POINT('',(0.02,0.07316875,0.01293));
#1174=CARTESIAN_POINT('',(0.02,0.07316875,0.01293));
#1175=CARTESIAN_POINT('',(0.,0.07316875,0.01293));
#1176=CARTESIAN_POINT('',(0.,0.07316875,0.01443));
#1177=CARTESIAN_POINT('',(-0.00169375,0.07316875,0.00843));
#1178=CARTESIAN_POINT('',(0.02,0.07316875,0.00993));
#1179=CARTESIAN_POINT('',(-0.00169375,-0.0025062499999999,0.00843));
#1180=CARTESIAN_POINT('',(0.,0.,0.));
#1181=CARTESIAN_POINT('',(0.,0.05317375,0.01293));
#1182=CARTESIAN_POINT('',(0.,0.,0.));
#1183=CARTESIAN_POINT('',(0.,-0.07025125,0.01293));
#1184=CARTESIAN_POINT('',(0.02,-0.07025125,0.01293));
#1185=CARTESIAN_POINT('',(0.02,-0.07025125,0.01293));
#1186=CARTESIAN_POINT('',(0.02,-0.07025125,0.00993));
#1187=CARTESIAN_POINT('',(0.02,-0.07025125,0.00993));
#1188=CARTESIAN_POINT('',(0.02,-0.0025062499999999,0.01143));
#1189=CARTESIAN_POINT('',(0.02,0.05317375,0.01293));
#1190=CARTESIAN_POINT('',(0.02,0.05317375,0.01293));
#1191=CARTESIAN_POINT('',(0.02,0.05317375,0.00993));
#1192=CARTESIAN_POINT('',(0.02,0.05317375,0.00993));
#1193=CARTESIAN_POINT('',(0.02,-0.0025062499999999,0.01143));
#1194=MECHANICAL_DESIGN_GEOMETRIC_PRESENTATION_REPRESENTATION('',(#739),
#1195);
#1195=(
GEOMETRIC_REPRESENTATION_CONTEXT(3)
GLOBAL_UNCERTAINTY_ASSIGNED_CONTEXT((#1196))
GLOBAL_UNIT_ASSIGNED_CONTEXT((#1199,#1198,#1197))
REPRESENTATION_CONTEXT('Top_Right','TOP_LEVEL_ASSEMBLY_PART')
);
#1196=UNCERTAINTY_MEASURE_WITH_UNIT(LENGTH_MEASURE(1.E-8),#1199,
'DISTANCE_ACCURACY_VALUE','Maximum Tolerance applied to model');
#1197=(
NAMED_UNIT(*)
SI_UNIT($,.STERADIAN.)
SOLID_ANGLE_UNIT()
);
#1198=(
NAMED_UNIT(*)
PLANE_ANGLE_UNIT()
SI_UNIT($,.RADIAN.)
);
#1199=(
LENGTH_UNIT()
NAMED_UNIT(*)
SI_UNIT($,.METRE.)
);
#1200=PRODUCT_DEFINITION_SHAPE('','',#1201);
#1201=PRODUCT_DEFINITION('','',#1203,#1202);
#1202=PRODUCT_DEFINITION_CONTEXT('',#1209,'design');
#1203=PRODUCT_DEFINITION_FORMATION_WITH_SPECIFIED_SOURCE('','',#1205,
 .NOT_KNOWN.);
#1204=PRODUCT_RELATED_PRODUCT_CATEGORY('','',(#1205));
#1205=PRODUCT('Top_Right','Top_Right','Top_Right',(#1207));
#1206=PRODUCT_CATEGORY('','');
#1207=PRODUCT_CONTEXT('',#1209,'mechanical');
#1208=APPLICATION_PROTOCOL_DEFINITION('international standard',
'ap242_managed_model_based_3d_engineering',2020,#1209);
#1209=APPLICATION_CONTEXT('managed model based 3d engineering');
ENDSEC;
END-ISO-10303-21;
