ISO-10303-21;
HEADER;
/* Generated by software containing ST-Developer
 * from STEP Tools, Inc. (www.steptools.com) 
 */
/* OPTION: using custom renumber hook */

FILE_DESCRIPTION(
/* description */ ('STEP AP242 Edition 2',
'CAx-IF Rec.Pracs.---Representation and Presentation of Product Manufa
cturing Information (PMI)---4.0---2014-10-13',
'CAx-IF Rec.Pracs.---3D Tessellated Geometry---0.4---2014-09-14','2;1',
'CAx-IF Rec.Pracs.---User Defined Attributes---1.5---2016-08-15'),
/* implementation_level */ '2;1');

FILE_NAME(
/* name */ 'Keeb - Case_Left',
/* time_stamp */ '2026-08-24T16:06:01Z',
/* author */ (''),
/* organization */ (''),
/* preprocessor_version */ 'ST-DEVELOPER v20',
/* originating_system */ 'ONSHAPE BY PTC INC, 1.219',
/* authorisation */ '  ');

FILE_SCHEMA (('AP242_MANAGED_MODEL_BASED_3D_ENGINEERING_MIM_LF { 1 0 10303 442 3 1 4 }'));
ENDSEC;

DATA;
#10=SHAPE_REPRESENTATION_RELATIONSHIP('','',#556,#11);
#11=ADVANCED_BREP_SHAPE_REPRESENTATION('',(#554),#966);
#12=(
BOUNDED_SURFACE()
B_SPLINE_SURFACE(3,2,((#898,#899,#900),(#901,#902,#903),(#904,#905,#906),
(#907,#908,#909),(#910,#911,#912),(#913,#914,#915),(#916,#917,#918),(#919,
#920,#921),(#922,#923,#924)),.UNSPECIFIED.,.F.,.F.,.F.)
B_SPLINE_SURFACE_WITH_KNOTS((4,1,1,1,1,1,4),(3,3),(6.28318530717959,6.47953484802895,
6.67588438887831,6.87223392972767,7.06858347057703,7.46128255227576,7.85398163397448),
(0.,1.),.UNSPECIFIED.)
GEOMETRIC_REPRESENTATION_ITEM()
RATIONAL_B_SPLINE_SURFACE(((1.,0.707106781186548,1.),(1.,0.707106781267532,
1.),(1.,0.716400177564135,1.),(1.,0.754563896254178,1.),(1.,0.808034956510765,
1.),(1.,0.886299164406787,1.),(1.,0.973513794551669,1.),(1.,0.999999999985521,
1.),(1.,1.,1.)))
REPRESENTATION_ITEM('')
SURFACE()
);
#13=(
BOUNDED_SURFACE()
B_SPLINE_SURFACE(3,2,((#931,#932,#933),(#934,#935,#936),(#937,#938,#939),
(#940,#941,#942),(#943,#944,#945),(#946,#947,#948),(#949,#950,#951),(#952,
#953,#954),(#955,#956,#957)),.UNSPECIFIED.,.F.,.F.,.F.)
B_SPLINE_SURFACE_WITH_KNOTS((4,1,1,1,1,1,4),(3,3),(6.28318530717959,6.47953484802895,
6.67588438887831,6.87223392972767,7.06858347057703,7.46128255227576,7.85398163397448),
(0.,1.),.UNSPECIFIED.)
GEOMETRIC_REPRESENTATION_ITEM()
RATIONAL_B_SPLINE_SURFACE(((1.,0.707106781186548,1.),(1.,0.707106781267532,
1.),(1.,0.716400177564134,1.),(1.,0.754563896254181,1.),(1.,0.808034956510765,
1.),(1.,0.886299164406785,1.),(1.,0.973513794551671,1.),(1.,0.999999999985521,
1.),(1.,1.,1.)))
REPRESENTATION_ITEM('')
SURFACE()
);
#14=ELLIPSE('',#596,0.00509901951359278,0.005);
#15=ELLIPSE('',#597,0.00509901951359278,0.005);
#16=ELLIPSE('',#600,0.00509901951359278,0.005);
#17=ELLIPSE('',#602,0.00509901951359278,0.005);
#18=CYLINDRICAL_SURFACE('',#570,0.004);
#19=CYLINDRICAL_SURFACE('',#572,0.004);
#20=CYLINDRICAL_SURFACE('',#582,0.00205);
#21=CYLINDRICAL_SURFACE('',#585,0.00205);
#22=CYLINDRICAL_SURFACE('',#588,0.00205);
#23=CYLINDRICAL_SURFACE('',#591,0.00205);
#24=CYLINDRICAL_SURFACE('',#594,0.005);
#25=CYLINDRICAL_SURFACE('',#598,0.005);
#26=CYLINDRICAL_SURFACE('',#601,0.005);
#27=CIRCLE('',#560,0.004);
#28=CIRCLE('',#561,0.00205);
#29=CIRCLE('',#562,0.00205);
#30=CIRCLE('',#566,0.004);
#31=CIRCLE('',#567,0.00205);
#32=CIRCLE('',#568,0.00205);
#33=CIRCLE('',#571,0.004);
#34=CIRCLE('',#573,0.004);
#35=CIRCLE('',#583,0.00205);
#36=CIRCLE('',#586,0.00205);
#37=CIRCLE('',#589,0.00205);
#38=CIRCLE('',#592,0.00205);
#39=CIRCLE('',#595,0.005);
#40=CIRCLE('',#599,0.005);
#41=ORIENTED_EDGE('',*,*,#183,.F.);
#42=ORIENTED_EDGE('',*,*,#184,.F.);
#43=ORIENTED_EDGE('',*,*,#185,.T.);
#44=ORIENTED_EDGE('',*,*,#186,.T.);
#45=ORIENTED_EDGE('',*,*,#187,.T.);
#46=ORIENTED_EDGE('',*,*,#188,.F.);
#47=ORIENTED_EDGE('',*,*,#189,.T.);
#48=ORIENTED_EDGE('',*,*,#190,.T.);
#49=ORIENTED_EDGE('',*,*,#185,.F.);
#50=ORIENTED_EDGE('',*,*,#191,.T.);
#51=ORIENTED_EDGE('',*,*,#192,.T.);
#52=ORIENTED_EDGE('',*,*,#193,.F.);
#53=ORIENTED_EDGE('',*,*,#194,.F.);
#54=ORIENTED_EDGE('',*,*,#195,.T.);
#55=ORIENTED_EDGE('',*,*,#196,.F.);
#56=ORIENTED_EDGE('',*,*,#197,.F.);
#57=ORIENTED_EDGE('',*,*,#198,.F.);
#58=ORIENTED_EDGE('',*,*,#199,.T.);
#59=ORIENTED_EDGE('',*,*,#200,.T.);
#60=ORIENTED_EDGE('',*,*,#201,.F.);
#61=ORIENTED_EDGE('',*,*,#202,.T.);
#62=ORIENTED_EDGE('',*,*,#203,.T.);
#63=ORIENTED_EDGE('',*,*,#204,.T.);
#64=ORIENTED_EDGE('',*,*,#205,.F.);
#65=ORIENTED_EDGE('',*,*,#193,.T.);
#66=ORIENTED_EDGE('',*,*,#206,.F.);
#67=ORIENTED_EDGE('',*,*,#207,.F.);
#68=ORIENTED_EDGE('',*,*,#208,.T.);
#69=ORIENTED_EDGE('',*,*,#209,.T.);
#70=ORIENTED_EDGE('',*,*,#210,.F.);
#71=ORIENTED_EDGE('',*,*,#195,.F.);
#72=ORIENTED_EDGE('',*,*,#211,.T.);
#73=ORIENTED_EDGE('',*,*,#212,.F.);
#74=ORIENTED_EDGE('',*,*,#189,.F.);
#75=ORIENTED_EDGE('',*,*,#213,.T.);
#76=ORIENTED_EDGE('',*,*,#207,.T.);
#77=ORIENTED_EDGE('',*,*,#214,.T.);
#78=ORIENTED_EDGE('',*,*,#202,.F.);
#79=ORIENTED_EDGE('',*,*,#215,.T.);
#80=ORIENTED_EDGE('',*,*,#216,.F.);
#81=ORIENTED_EDGE('',*,*,#217,.F.);
#82=ORIENTED_EDGE('',*,*,#218,.F.);
#83=ORIENTED_EDGE('',*,*,#191,.F.);
#84=ORIENTED_EDGE('',*,*,#184,.T.);
#85=ORIENTED_EDGE('',*,*,#219,.F.);
#86=ORIENTED_EDGE('',*,*,#220,.T.);
#87=ORIENTED_EDGE('',*,*,#221,.T.);
#88=ORIENTED_EDGE('',*,*,#222,.T.);
#89=ORIENTED_EDGE('',*,*,#223,.T.);
#90=ORIENTED_EDGE('',*,*,#224,.F.);
#91=ORIENTED_EDGE('',*,*,#224,.T.);
#92=ORIENTED_EDGE('',*,*,#225,.T.);
#93=ORIENTED_EDGE('',*,*,#199,.F.);
#94=ORIENTED_EDGE('',*,*,#192,.F.);
#95=ORIENTED_EDGE('',*,*,#201,.T.);
#96=ORIENTED_EDGE('',*,*,#226,.T.);
#97=ORIENTED_EDGE('',*,*,#227,.F.);
#98=ORIENTED_EDGE('',*,*,#215,.F.);
#99=ORIENTED_EDGE('',*,*,#190,.F.);
#100=ORIENTED_EDGE('',*,*,#216,.T.);
#101=ORIENTED_EDGE('',*,*,#227,.T.);
#102=ORIENTED_EDGE('',*,*,#228,.T.);
#103=ORIENTED_EDGE('',*,*,#229,.F.);
#104=ORIENTED_EDGE('',*,*,#230,.F.);
#105=ORIENTED_EDGE('',*,*,#231,.F.);
#106=ORIENTED_EDGE('',*,*,#232,.T.);
#107=ORIENTED_EDGE('',*,*,#233,.T.);
#108=ORIENTED_EDGE('',*,*,#234,.T.);
#109=ORIENTED_EDGE('',*,*,#235,.T.);
#110=ORIENTED_EDGE('',*,*,#236,.T.);
#111=ORIENTED_EDGE('',*,*,#213,.F.);
#112=ORIENTED_EDGE('',*,*,#188,.T.);
#113=ORIENTED_EDGE('',*,*,#237,.T.);
#114=ORIENTED_EDGE('',*,*,#208,.F.);
#115=ORIENTED_EDGE('',*,*,#186,.F.);
#116=ORIENTED_EDGE('',*,*,#196,.T.);
#117=ORIENTED_EDGE('',*,*,#210,.T.);
#118=ORIENTED_EDGE('',*,*,#238,.F.);
#119=ORIENTED_EDGE('',*,*,#187,.F.);
#120=ORIENTED_EDGE('',*,*,#238,.T.);
#121=ORIENTED_EDGE('',*,*,#209,.F.);
#122=ORIENTED_EDGE('',*,*,#237,.F.);
#123=ORIENTED_EDGE('',*,*,#212,.T.);
#124=ORIENTED_EDGE('',*,*,#239,.T.);
#125=ORIENTED_EDGE('',*,*,#204,.F.);
#126=ORIENTED_EDGE('',*,*,#240,.F.);
#127=ORIENTED_EDGE('',*,*,#206,.T.);
#128=ORIENTED_EDGE('',*,*,#240,.T.);
#129=ORIENTED_EDGE('',*,*,#203,.F.);
#130=ORIENTED_EDGE('',*,*,#214,.F.);
#131=ORIENTED_EDGE('',*,*,#194,.T.);
#132=ORIENTED_EDGE('',*,*,#205,.T.);
#133=ORIENTED_EDGE('',*,*,#239,.F.);
#134=ORIENTED_EDGE('',*,*,#211,.F.);
#135=ORIENTED_EDGE('',*,*,#241,.F.);
#136=ORIENTED_EDGE('',*,*,#218,.T.);
#137=ORIENTED_EDGE('',*,*,#241,.T.);
#138=ORIENTED_EDGE('',*,*,#242,.F.);
#139=ORIENTED_EDGE('',*,*,#197,.T.);
#140=ORIENTED_EDGE('',*,*,#242,.T.);
#141=ORIENTED_EDGE('',*,*,#243,.F.);
#142=ORIENTED_EDGE('',*,*,#198,.T.);
#143=ORIENTED_EDGE('',*,*,#243,.T.);
#144=ORIENTED_EDGE('',*,*,#244,.F.);
#145=ORIENTED_EDGE('',*,*,#217,.T.);
#146=ORIENTED_EDGE('',*,*,#244,.T.);
#147=ORIENTED_EDGE('',*,*,#245,.F.);
#148=ORIENTED_EDGE('',*,*,#233,.F.);
#149=ORIENTED_EDGE('',*,*,#246,.F.);
#150=ORIENTED_EDGE('',*,*,#223,.F.);
#151=ORIENTED_EDGE('',*,*,#225,.F.);
#152=ORIENTED_EDGE('',*,*,#246,.T.);
#153=ORIENTED_EDGE('',*,*,#247,.F.);
#154=ORIENTED_EDGE('',*,*,#248,.F.);
#155=ORIENTED_EDGE('',*,*,#228,.F.);
#156=ORIENTED_EDGE('',*,*,#249,.F.);
#157=ORIENTED_EDGE('',*,*,#235,.F.);
#158=ORIENTED_EDGE('',*,*,#247,.T.);
#159=ORIENTED_EDGE('',*,*,#236,.F.);
#160=ORIENTED_EDGE('',*,*,#250,.F.);
#161=ORIENTED_EDGE('',*,*,#200,.F.);
#162=ORIENTED_EDGE('',*,*,#250,.T.);
#163=ORIENTED_EDGE('',*,*,#249,.T.);
#164=ORIENTED_EDGE('',*,*,#226,.F.);
#165=ORIENTED_EDGE('',*,*,#222,.F.);
#166=ORIENTED_EDGE('',*,*,#251,.T.);
#167=ORIENTED_EDGE('',*,*,#229,.T.);
#168=ORIENTED_EDGE('',*,*,#248,.T.);
#169=ORIENTED_EDGE('',*,*,#234,.F.);
#170=ORIENTED_EDGE('',*,*,#245,.T.);
#171=ORIENTED_EDGE('',*,*,#251,.F.);
#172=ORIENTED_EDGE('',*,*,#221,.F.);
#173=ORIENTED_EDGE('',*,*,#252,.T.);
#174=ORIENTED_EDGE('',*,*,#230,.T.);
#175=ORIENTED_EDGE('',*,*,#183,.T.);
#176=ORIENTED_EDGE('',*,*,#232,.F.);
#177=ORIENTED_EDGE('',*,*,#253,.F.);
#178=ORIENTED_EDGE('',*,*,#219,.T.);
#179=ORIENTED_EDGE('',*,*,#252,.F.);
#180=ORIENTED_EDGE('',*,*,#220,.F.);
#181=ORIENTED_EDGE('',*,*,#253,.T.);
#182=ORIENTED_EDGE('',*,*,#231,.T.);
#183=EDGE_CURVE('',#254,#255,#302,.T.);
#184=EDGE_CURVE('',#256,#254,#303,.T.);
#185=EDGE_CURVE('',#256,#257,#304,.T.);
#186=EDGE_CURVE('',#257,#258,#305,.T.);
#187=EDGE_CURVE('',#258,#259,#306,.T.);
#188=EDGE_CURVE('',#260,#259,#307,.T.);
#189=EDGE_CURVE('',#260,#261,#308,.T.);
#190=EDGE_CURVE('',#261,#255,#309,.T.);
#191=EDGE_CURVE('',#256,#262,#310,.T.);
#192=EDGE_CURVE('',#262,#263,#27,.T.);
#193=EDGE_CURVE('',#264,#263,#311,.T.);
#194=EDGE_CURVE('',#265,#264,#312,.T.);
#195=EDGE_CURVE('',#265,#266,#313,.T.);
#196=EDGE_CURVE('',#257,#266,#314,.T.);
#197=EDGE_CURVE('',#267,#267,#28,.T.);
#198=EDGE_CURVE('',#268,#268,#29,.T.);
#199=EDGE_CURVE('',#263,#269,#315,.T.);
#200=EDGE_CURVE('',#269,#270,#316,.F.);
#201=EDGE_CURVE('',#271,#270,#317,.T.);
#202=EDGE_CURVE('',#271,#272,#318,.T.);
#203=EDGE_CURVE('',#272,#273,#319,.T.);
#204=EDGE_CURVE('',#273,#274,#320,.T.);
#205=EDGE_CURVE('',#264,#274,#321,.T.);
#206=EDGE_CURVE('',#275,#276,#322,.T.);
#207=EDGE_CURVE('',#277,#275,#323,.T.);
#208=EDGE_CURVE('',#277,#278,#324,.T.);
#209=EDGE_CURVE('',#278,#279,#325,.T.);
#210=EDGE_CURVE('',#266,#279,#326,.T.);
#211=EDGE_CURVE('',#265,#280,#327,.T.);
#212=EDGE_CURVE('',#276,#280,#328,.T.);
#213=EDGE_CURVE('',#260,#277,#329,.T.);
#214=EDGE_CURVE('',#275,#272,#330,.T.);
#215=EDGE_CURVE('',#271,#281,#30,.T.);
#216=EDGE_CURVE('',#261,#281,#331,.T.);
#217=EDGE_CURVE('',#282,#282,#31,.T.);
#218=EDGE_CURVE('',#283,#283,#32,.T.);
#219=EDGE_CURVE('',#284,#254,#332,.T.);
#220=EDGE_CURVE('',#284,#285,#333,.T.);
#221=EDGE_CURVE('',#285,#286,#334,.T.);
#222=EDGE_CURVE('',#286,#287,#335,.T.);
#223=EDGE_CURVE('',#287,#288,#336,.T.);
#224=EDGE_CURVE('',#262,#288,#337,.T.);
#225=EDGE_CURVE('',#288,#269,#33,.T.);
#226=EDGE_CURVE('',#270,#289,#34,.T.);
#227=EDGE_CURVE('',#281,#289,#338,.T.);
#228=EDGE_CURVE('',#289,#290,#339,.F.);
#229=EDGE_CURVE('',#291,#290,#340,.T.);
#230=EDGE_CURVE('',#292,#291,#341,.T.);
#231=EDGE_CURVE('',#293,#292,#342,.T.);
#232=EDGE_CURVE('',#293,#255,#343,.T.);
#233=EDGE_CURVE('',#294,#295,#344,.F.);
#234=EDGE_CURVE('',#295,#296,#345,.T.);
#235=EDGE_CURVE('',#296,#297,#346,.T.);
#236=EDGE_CURVE('',#297,#294,#347,.T.);
#237=EDGE_CURVE('',#259,#278,#348,.T.);
#238=EDGE_CURVE('',#258,#279,#349,.T.);
#239=EDGE_CURVE('',#280,#274,#350,.T.);
#240=EDGE_CURVE('',#276,#273,#351,.T.);
#241=EDGE_CURVE('',#298,#298,#35,.T.);
#242=EDGE_CURVE('',#299,#299,#36,.T.);
#243=EDGE_CURVE('',#300,#300,#37,.T.);
#244=EDGE_CURVE('',#301,#301,#38,.T.);
#245=EDGE_CURVE('',#295,#287,#39,.F.);
#246=EDGE_CURVE('',#288,#294,#14,.F.);
#247=EDGE_CURVE('',#269,#294,#15,.F.);
#248=EDGE_CURVE('',#290,#296,#40,.F.);
#249=EDGE_CURVE('',#297,#289,#16,.T.);
#250=EDGE_CURVE('',#270,#297,#17,.F.);
#251=EDGE_CURVE('',#286,#291,#352,.T.);
#252=EDGE_CURVE('',#285,#292,#353,.T.);
#253=EDGE_CURVE('',#284,#293,#354,.T.);
#254=VERTEX_POINT('',#763);
#255=VERTEX_POINT('',#764);
#256=VERTEX_POINT('',#766);
#257=VERTEX_POINT('',#768);
#258=VERTEX_POINT('',#770);
#259=VERTEX_POINT('',#772);
#260=VERTEX_POINT('',#774);
#261=VERTEX_POINT('',#776);
#262=VERTEX_POINT('',#780);
#263=VERTEX_POINT('',#782);
#264=VERTEX_POINT('',#784);
#265=VERTEX_POINT('',#786);
#266=VERTEX_POINT('',#788);
#267=VERTEX_POINT('',#791);
#268=VERTEX_POINT('',#793);
#269=VERTEX_POINT('',#796);
#270=VERTEX_POINT('',#798);
#271=VERTEX_POINT('',#800);
#272=VERTEX_POINT('',#802);
#273=VERTEX_POINT('',#804);
#274=VERTEX_POINT('',#806);
#275=VERTEX_POINT('',#810);
#276=VERTEX_POINT('',#811);
#277=VERTEX_POINT('',#813);
#278=VERTEX_POINT('',#815);
#279=VERTEX_POINT('',#817);
#280=VERTEX_POINT('',#820);
#281=VERTEX_POINT('',#826);
#282=VERTEX_POINT('',#829);
#283=VERTEX_POINT('',#831);
#284=VERTEX_POINT('',#834);
#285=VERTEX_POINT('',#836);
#286=VERTEX_POINT('',#838);
#287=VERTEX_POINT('',#840);
#288=VERTEX_POINT('',#842);
#289=VERTEX_POINT('',#848);
#290=VERTEX_POINT('',#852);
#291=VERTEX_POINT('',#854);
#292=VERTEX_POINT('',#856);
#293=VERTEX_POINT('',#858);
#294=VERTEX_POINT('',#862);
#295=VERTEX_POINT('',#863);
#296=VERTEX_POINT('',#865);
#297=VERTEX_POINT('',#867);
#298=VERTEX_POINT('',#881);
#299=VERTEX_POINT('',#885);
#300=VERTEX_POINT('',#889);
#301=VERTEX_POINT('',#893);
#302=LINE('',#762,#355);
#303=LINE('',#765,#356);
#304=LINE('',#767,#357);
#305=LINE('',#769,#358);
#306=LINE('',#771,#359);
#307=LINE('',#773,#360);
#308=LINE('',#775,#361);
#309=LINE('',#777,#362);
#310=LINE('',#779,#363);
#311=LINE('',#783,#364);
#312=LINE('',#785,#365);
#313=LINE('',#787,#366);
#314=LINE('',#789,#367);
#315=LINE('',#795,#368);
#316=LINE('',#797,#369);
#317=LINE('',#799,#370);
#318=LINE('',#801,#371);
#319=LINE('',#803,#372);
#320=LINE('',#805,#373);
#321=LINE('',#807,#374);
#322=LINE('',#809,#375);
#323=LINE('',#812,#376);
#324=LINE('',#814,#377);
#325=LINE('',#816,#378);
#326=LINE('',#818,#379);
#327=LINE('',#819,#380);
#328=LINE('',#821,#381);
#329=LINE('',#823,#382);
#330=LINE('',#824,#383);
#331=LINE('',#827,#384);
#332=LINE('',#833,#385);
#333=LINE('',#835,#386);
#334=LINE('',#837,#387);
#335=LINE('',#839,#388);
#336=LINE('',#841,#389);
#337=LINE('',#843,#390);
#338=LINE('',#849,#391);
#339=LINE('',#851,#392);
#340=LINE('',#853,#393);
#341=LINE('',#855,#394);
#342=LINE('',#857,#395);
#343=LINE('',#859,#396);
#344=LINE('',#861,#397);
#345=LINE('',#864,#398);
#346=LINE('',#866,#399);
#347=LINE('',#868,#400);
#348=LINE('',#870,#401);
#349=LINE('',#872,#402);
#350=LINE('',#875,#403);
#351=LINE('',#876,#404);
#352=LINE('',#959,#405);
#353=LINE('',#961,#406);
#354=LINE('',#963,#407);
#355=VECTOR('',#611,1.);
#356=VECTOR('',#612,1.);
#357=VECTOR('',#613,1.);
#358=VECTOR('',#614,1.);
#359=VECTOR('',#615,1.);
#360=VECTOR('',#616,1.);
#361=VECTOR('',#617,1.);
#362=VECTOR('',#618,1.);
#363=VECTOR('',#621,1.);
#364=VECTOR('',#624,1.);
#365=VECTOR('',#625,1.);
#366=VECTOR('',#626,1.);
#367=VECTOR('',#627,1.);
#368=VECTOR('',#634,1.);
#369=VECTOR('',#635,1.);
#370=VECTOR('',#636,1.);
#371=VECTOR('',#637,1.);
#372=VECTOR('',#638,1.);
#373=VECTOR('',#639,1.);
#374=VECTOR('',#640,1.);
#375=VECTOR('',#643,1.);
#376=VECTOR('',#644,1.);
#377=VECTOR('',#645,1.);
#378=VECTOR('',#646,1.);
#379=VECTOR('',#647,1.);
#380=VECTOR('',#648,1.);
#381=VECTOR('',#649,1.);
#382=VECTOR('',#652,1.);
#383=VECTOR('',#653,1.);
#384=VECTOR('',#656,1.);
#385=VECTOR('',#663,1.);
#386=VECTOR('',#664,1.);
#387=VECTOR('',#665,1.);
#388=VECTOR('',#666,1.);
#389=VECTOR('',#667,1.);
#390=VECTOR('',#668,1.);
#391=VECTOR('',#677,1.);
#392=VECTOR('',#680,1.);
#393=VECTOR('',#681,1.);
#394=VECTOR('',#682,1.);
#395=VECTOR('',#683,1.);
#396=VECTOR('',#684,1.);
#397=VECTOR('',#687,1.);
#398=VECTOR('',#688,1.);
#399=VECTOR('',#689,1.);
#400=VECTOR('',#690,1.);
#401=VECTOR('',#693,1.);
#402=VECTOR('',#696,1.);
#403=VECTOR('',#701,1.);
#404=VECTOR('',#702,1.);
#405=VECTOR('',#751,1.);
#406=VECTOR('',#754,1.);
#407=VECTOR('',#757,1.);
#408=EDGE_LOOP('',(#41,#42,#43,#44,#45,#46,#47,#48));
#409=EDGE_LOOP('',(#49,#50,#51,#52,#53,#54,#55));
#410=EDGE_LOOP('',(#56));
#411=EDGE_LOOP('',(#57));
#412=EDGE_LOOP('',(#58,#59,#60,#61,#62,#63,#64,#65));
#413=EDGE_LOOP('',(#66,#67,#68,#69,#70,#71,#72,#73));
#414=EDGE_LOOP('',(#74,#75,#76,#77,#78,#79,#80));
#415=EDGE_LOOP('',(#81));
#416=EDGE_LOOP('',(#82));
#417=EDGE_LOOP('',(#83,#84,#85,#86,#87,#88,#89,#90));
#418=EDGE_LOOP('',(#91,#92,#93,#94));
#419=EDGE_LOOP('',(#95,#96,#97,#98));
#420=EDGE_LOOP('',(#99,#100,#101,#102,#103,#104,#105,#106));
#421=EDGE_LOOP('',(#107,#108,#109,#110));
#422=EDGE_LOOP('',(#111,#112,#113,#114));
#423=EDGE_LOOP('',(#115,#116,#117,#118));
#424=EDGE_LOOP('',(#119,#120,#121,#122));
#425=EDGE_LOOP('',(#123,#124,#125,#126));
#426=EDGE_LOOP('',(#127,#128,#129,#130));
#427=EDGE_LOOP('',(#131,#132,#133,#134));
#428=EDGE_LOOP('',(#135));
#429=EDGE_LOOP('',(#136));
#430=EDGE_LOOP('',(#137));
#431=EDGE_LOOP('',(#138));
#432=EDGE_LOOP('',(#139));
#433=EDGE_LOOP('',(#140));
#434=EDGE_LOOP('',(#141));
#435=EDGE_LOOP('',(#142));
#436=EDGE_LOOP('',(#143));
#437=EDGE_LOOP('',(#144));
#438=EDGE_LOOP('',(#145));
#439=EDGE_LOOP('',(#146));
#440=EDGE_LOOP('',(#147,#148,#149,#150));
#441=EDGE_LOOP('',(#151,#152,#153));
#442=EDGE_LOOP('',(#154,#155,#156,#157));
#443=EDGE_LOOP('',(#158,#159,#160,#161));
#444=EDGE_LOOP('',(#162,#163,#164));
#445=EDGE_LOOP('',(#165,#166,#167,#168,#169,#170));
#446=EDGE_LOOP('',(#171,#172,#173,#174));
#447=EDGE_LOOP('',(#175,#176,#177,#178));
#448=EDGE_LOOP('',(#179,#180,#181,#182));
#449=FACE_BOUND('',#408,.T.);
#450=FACE_BOUND('',#409,.T.);
#451=FACE_BOUND('',#410,.T.);
#452=FACE_BOUND('',#411,.T.);
#453=FACE_BOUND('',#412,.T.);
#454=FACE_BOUND('',#413,.T.);
#455=FACE_BOUND('',#414,.T.);
#456=FACE_BOUND('',#415,.T.);
#457=FACE_BOUND('',#416,.T.);
#458=FACE_BOUND('',#417,.T.);
#459=FACE_BOUND('',#418,.T.);
#460=FACE_BOUND('',#419,.T.);
#461=FACE_BOUND('',#420,.T.);
#462=FACE_BOUND('',#421,.T.);
#463=FACE_BOUND('',#422,.T.);
#464=FACE_BOUND('',#423,.T.);
#465=FACE_BOUND('',#424,.T.);
#466=FACE_BOUND('',#425,.T.);
#467=FACE_BOUND('',#426,.T.);
#468=FACE_BOUND('',#427,.T.);
#469=FACE_BOUND('',#428,.T.);
#470=FACE_BOUND('',#429,.T.);
#471=FACE_BOUND('',#430,.T.);
#472=FACE_BOUND('',#431,.T.);
#473=FACE_BOUND('',#432,.T.);
#474=FACE_BOUND('',#433,.T.);
#475=FACE_BOUND('',#434,.T.);
#476=FACE_BOUND('',#435,.T.);
#477=FACE_BOUND('',#436,.T.);
#478=FACE_BOUND('',#437,.T.);
#479=FACE_BOUND('',#438,.T.);
#480=FACE_BOUND('',#439,.T.);
#481=FACE_BOUND('',#440,.T.);
#482=FACE_BOUND('',#441,.T.);
#483=FACE_BOUND('',#442,.T.);
#484=FACE_BOUND('',#443,.T.);
#485=FACE_BOUND('',#444,.T.);
#486=FACE_BOUND('',#445,.T.);
#487=FACE_BOUND('',#446,.T.);
#488=FACE_BOUND('',#447,.T.);
#489=FACE_BOUND('',#448,.T.);
#490=PLANE('',#558);
#491=PLANE('',#559);
#492=PLANE('',#563);
#493=PLANE('',#564);
#494=PLANE('',#565);
#495=PLANE('',#569);
#496=PLANE('',#574);
#497=PLANE('',#575);
#498=PLANE('',#576);
#499=PLANE('',#577);
#500=PLANE('',#578);
#501=PLANE('',#579);
#502=PLANE('',#580);
#503=PLANE('',#581);
#504=PLANE('',#584);
#505=PLANE('',#587);
#506=PLANE('',#590);
#507=PLANE('',#593);
#508=PLANE('',#603);
#509=PLANE('',#604);
#510=PLANE('',#605);
#511=PLANE('',#606);
#512=ADVANCED_FACE('',(#449),#490,.F.);
#513=ADVANCED_FACE('',(#450,#451,#452),#491,.T.);
#514=ADVANCED_FACE('',(#453),#492,.T.);
#515=ADVANCED_FACE('',(#454),#493,.F.);
#516=ADVANCED_FACE('',(#455,#456,#457),#494,.T.);
#517=ADVANCED_FACE('',(#458),#495,.F.);
#518=ADVANCED_FACE('',(#459),#18,.T.);
#519=ADVANCED_FACE('',(#460),#19,.T.);
#520=ADVANCED_FACE('',(#461),#496,.T.);
#521=ADVANCED_FACE('',(#462),#497,.F.);
#522=ADVANCED_FACE('',(#463),#498,.F.);
#523=ADVANCED_FACE('',(#464),#499,.T.);
#524=ADVANCED_FACE('',(#465),#500,.T.);
#525=ADVANCED_FACE('',(#466),#501,.T.);
#526=ADVANCED_FACE('',(#467),#502,.T.);
#527=ADVANCED_FACE('',(#468),#503,.F.);
#528=ADVANCED_FACE('',(#469,#470),#20,.F.);
#529=ADVANCED_FACE('',(#471),#504,.T.);
#530=ADVANCED_FACE('',(#472,#473),#21,.F.);
#531=ADVANCED_FACE('',(#474),#505,.T.);
#532=ADVANCED_FACE('',(#475,#476),#22,.F.);
#533=ADVANCED_FACE('',(#477),#506,.T.);
#534=ADVANCED_FACE('',(#478,#479),#23,.F.);
#535=ADVANCED_FACE('',(#480),#507,.T.);
#536=ADVANCED_FACE('',(#481),#24,.T.);
#537=ADVANCED_FACE('',(#482),#12,.T.);
#538=ADVANCED_FACE('',(#483),#25,.T.);
#539=ADVANCED_FACE('',(#484),#26,.T.);
#540=ADVANCED_FACE('',(#485),#13,.T.);
#541=ADVANCED_FACE('',(#486),#508,.F.);
#542=ADVANCED_FACE('',(#487),#509,.T.);
#543=ADVANCED_FACE('',(#488),#510,.F.);
#544=ADVANCED_FACE('',(#489),#511,.T.);
#545=CLOSED_SHELL('',(#512,#513,#514,#515,#516,#517,#518,#519,#520,#521,
#522,#523,#524,#525,#526,#527,#528,#529,#530,#531,#532,#533,#534,#535,#536,
#537,#538,#539,#540,#541,#542,#543,#544));
#546=STYLED_ITEM('',(#547),#554);
#547=PRESENTATION_STYLE_ASSIGNMENT((#548));
#548=SURFACE_STYLE_USAGE(.BOTH.,#549);
#549=SURFACE_SIDE_STYLE('',(#550));
#550=SURFACE_STYLE_FILL_AREA(#551);
#551=FILL_AREA_STYLE('',(#552));
#552=FILL_AREA_STYLE_COLOUR('',#553);
#553=COLOUR_RGB('',0.917647058823529,0.917647058823529,0.917647058823529);
#554=MANIFOLD_SOLID_BREP('Case_Left',#545);
#555=SHAPE_DEFINITION_REPRESENTATION(#971,#556);
#556=SHAPE_REPRESENTATION('Case_Left',(#557),#966);
#557=AXIS2_PLACEMENT_3D('',#760,#607,#608);
#558=AXIS2_PLACEMENT_3D('',#761,#609,#610);
#559=AXIS2_PLACEMENT_3D('',#778,#619,#620);
#560=AXIS2_PLACEMENT_3D('',#781,#622,#623);
#561=AXIS2_PLACEMENT_3D('',#790,#628,#629);
#562=AXIS2_PLACEMENT_3D('',#792,#630,#631);
#563=AXIS2_PLACEMENT_3D('',#794,#632,#633);
#564=AXIS2_PLACEMENT_3D('',#808,#641,#642);
#565=AXIS2_PLACEMENT_3D('',#822,#650,#651);
#566=AXIS2_PLACEMENT_3D('',#825,#654,#655);
#567=AXIS2_PLACEMENT_3D('',#828,#657,#658);
#568=AXIS2_PLACEMENT_3D('',#830,#659,#660);
#569=AXIS2_PLACEMENT_3D('',#832,#661,#662);
#570=AXIS2_PLACEMENT_3D('',#844,#669,#670);
#571=AXIS2_PLACEMENT_3D('',#845,#671,#672);
#572=AXIS2_PLACEMENT_3D('',#846,#673,#674);
#573=AXIS2_PLACEMENT_3D('',#847,#675,#676);
#574=AXIS2_PLACEMENT_3D('',#850,#678,#679);
#575=AXIS2_PLACEMENT_3D('',#860,#685,#686);
#576=AXIS2_PLACEMENT_3D('',#869,#691,#692);
#577=AXIS2_PLACEMENT_3D('',#871,#694,#695);
#578=AXIS2_PLACEMENT_3D('',#873,#697,#698);
#579=AXIS2_PLACEMENT_3D('',#874,#699,#700);
#580=AXIS2_PLACEMENT_3D('',#877,#703,#704);
#581=AXIS2_PLACEMENT_3D('',#878,#705,#706);
#582=AXIS2_PLACEMENT_3D('',#879,#707,#708);
#583=AXIS2_PLACEMENT_3D('',#880,#709,#710);
#584=AXIS2_PLACEMENT_3D('',#882,#711,#712);
#585=AXIS2_PLACEMENT_3D('',#883,#713,#714);
#586=AXIS2_PLACEMENT_3D('',#884,#715,#716);
#587=AXIS2_PLACEMENT_3D('',#886,#717,#718);
#588=AXIS2_PLACEMENT_3D('',#887,#719,#720);
#589=AXIS2_PLACEMENT_3D('',#888,#721,#722);
#590=AXIS2_PLACEMENT_3D('',#890,#723,#724);
#591=AXIS2_PLACEMENT_3D('',#891,#725,#726);
#592=AXIS2_PLACEMENT_3D('',#892,#727,#728);
#593=AXIS2_PLACEMENT_3D('',#894,#729,#730);
#594=AXIS2_PLACEMENT_3D('',#895,#731,#732);
#595=AXIS2_PLACEMENT_3D('',#896,#733,#734);
#596=AXIS2_PLACEMENT_3D('',#897,#735,#736);
#597=AXIS2_PLACEMENT_3D('',#925,#737,#738);
#598=AXIS2_PLACEMENT_3D('',#926,#739,#740);
#599=AXIS2_PLACEMENT_3D('',#927,#741,#742);
#600=AXIS2_PLACEMENT_3D('',#928,#743,#744);
#601=AXIS2_PLACEMENT_3D('',#929,#745,#746);
#602=AXIS2_PLACEMENT_3D('',#930,#747,#748);
#603=AXIS2_PLACEMENT_3D('',#958,#749,#750);
#604=AXIS2_PLACEMENT_3D('',#960,#752,#753);
#605=AXIS2_PLACEMENT_3D('',#962,#755,#756);
#606=AXIS2_PLACEMENT_3D('',#964,#758,#759);
#607=DIRECTION('',(0.,0.,1.));
#608=DIRECTION('',(1.,0.,0.));
#609=DIRECTION('',(1.,0.,0.));
#610=DIRECTION('',(0.,0.,-1.));
#611=DIRECTION('',(0.,1.,-1.83386690555856E-16));
#612=DIRECTION('',(0.,0.,-1.));
#613=DIRECTION('',(0.,1.,0.));
#614=DIRECTION('',(0.,0.,-1.));
#615=DIRECTION('',(0.,1.,0.));
#616=DIRECTION('',(0.,0.,-1.));
#617=DIRECTION('',(0.,1.,0.));
#618=DIRECTION('',(0.,0.,-1.));
#619=DIRECTION('',(0.,0.,1.));
#620=DIRECTION('',(1.,0.,0.));
#621=DIRECTION('',(1.,0.,0.));
#622=DIRECTION('',(0.,0.,1.));
#623=DIRECTION('',(0.,-1.,0.));
#624=DIRECTION('',(0.,-1.,0.));
#625=DIRECTION('',(1.,0.,0.));
#626=DIRECTION('',(0.,-1.,0.));
#627=DIRECTION('',(1.,0.,0.));
#628=DIRECTION('',(0.,0.,1.));
#629=DIRECTION('',(0.,-1.,0.));
#630=DIRECTION('',(0.,0.,1.));
#631=DIRECTION('',(0.,-1.,0.));
#632=DIRECTION('',(1.,0.,0.));
#633=DIRECTION('',(0.,-1.,0.));
#634=DIRECTION('',(0.,0.,-1.));
#635=DIRECTION('',(0.,-1.,0.));
#636=DIRECTION('',(0.,0.,-1.));
#637=DIRECTION('',(0.,-1.,0.));
#638=DIRECTION('',(0.,0.,-1.));
#639=DIRECTION('',(0.,-1.,0.));
#640=DIRECTION('',(0.,0.,-1.));
#641=DIRECTION('',(1.,0.,0.));
#642=DIRECTION('',(0.,-1.,0.));
#643=DIRECTION('',(0.,0.,-1.));
#644=DIRECTION('',(0.,-1.,0.));
#645=DIRECTION('',(0.,0.,-1.));
#646=DIRECTION('',(0.,-1.,0.));
#647=DIRECTION('',(0.,0.,-1.));
#648=DIRECTION('',(0.,0.,-1.));
#649=DIRECTION('',(0.,-1.,0.));
#650=DIRECTION('',(0.,0.,1.));
#651=DIRECTION('',(1.,0.,0.));
#652=DIRECTION('',(1.,0.,0.));
#653=DIRECTION('',(1.,0.,0.));
#654=DIRECTION('',(0.,0.,1.));
#655=DIRECTION('',(0.,-1.,0.));
#656=DIRECTION('',(1.,0.,0.));
#657=DIRECTION('',(0.,0.,1.));
#658=DIRECTION('',(0.,-1.,0.));
#659=DIRECTION('',(0.,0.,1.));
#660=DIRECTION('',(0.,-1.,0.));
#661=DIRECTION('',(0.,1.,0.));
#662=DIRECTION('',(1.,0.,0.));
#663=DIRECTION('',(1.,0.,0.));
#664=DIRECTION('',(0.,0.,-1.));
#665=DIRECTION('',(1.,0.,0.));
#666=DIRECTION('',(0.,0.,-1.));
#667=DIRECTION('',(1.,0.,0.));
#668=DIRECTION('',(0.,0.,-1.));
#669=DIRECTION('',(0.,0.,-1.));
#670=DIRECTION('',(0.,1.,0.));
#671=DIRECTION('',(0.,0.,1.));
#672=DIRECTION('',(0.,-1.,0.));
#673=DIRECTION('',(0.,0.,-1.));
#674=DIRECTION('',(0.,1.,0.));
#675=DIRECTION('',(0.,0.,1.));
#676=DIRECTION('',(0.,-1.,0.));
#677=DIRECTION('',(0.,0.,-1.));
#678=DIRECTION('',(0.,1.,0.));
#679=DIRECTION('',(1.,0.,0.));
#680=DIRECTION('',(1.,0.,0.));
#681=DIRECTION('',(0.,0.,-1.));
#682=DIRECTION('',(1.,0.,0.));
#683=DIRECTION('',(0.,0.,-1.));
#684=DIRECTION('',(1.,0.,0.));
#685=DIRECTION('',(0.,0.,1.));
#686=DIRECTION('',(1.,0.,0.));
#687=DIRECTION('',(1.,0.,0.));
#688=DIRECTION('',(0.,1.,0.));
#689=DIRECTION('',(1.,0.,0.));
#690=DIRECTION('',(0.,-1.,0.));
#691=DIRECTION('',(0.,1.,0.));
#692=DIRECTION('',(1.,0.,0.));
#693=DIRECTION('',(1.,0.,0.));
#694=DIRECTION('',(0.,1.,0.));
#695=DIRECTION('',(1.,0.,0.));
#696=DIRECTION('',(1.,0.,0.));
#697=DIRECTION('',(0.,0.,1.));
#698=DIRECTION('',(1.,0.,0.));
#699=DIRECTION('',(0.,0.,1.));
#700=DIRECTION('',(0.,-1.,0.));
#701=DIRECTION('',(1.,0.,0.));
#702=DIRECTION('',(1.,0.,0.));
#703=DIRECTION('',(0.,-1.,0.));
#704=DIRECTION('',(-1.,0.,0.));
#705=DIRECTION('',(0.,-1.,0.));
#706=DIRECTION('',(-1.,0.,0.));
#707=DIRECTION('',(0.,0.,1.));
#708=DIRECTION('',(0.,-1.,0.));
#709=DIRECTION('',(0.,0.,1.));
#710=DIRECTION('',(0.,-1.,0.));
#711=DIRECTION('',(0.,0.,1.));
#712=DIRECTION('',(1.,0.,0.));
#713=DIRECTION('',(0.,0.,1.));
#714=DIRECTION('',(0.,-1.,0.));
#715=DIRECTION('',(0.,0.,1.));
#716=DIRECTION('',(0.,-1.,0.));
#717=DIRECTION('',(0.,0.,1.));
#718=DIRECTION('',(1.,0.,0.));
#719=DIRECTION('',(0.,0.,1.));
#720=DIRECTION('',(0.,-1.,0.));
#721=DIRECTION('',(0.,0.,1.));
#722=DIRECTION('',(0.,-1.,0.));
#723=DIRECTION('',(0.,0.,1.));
#724=DIRECTION('',(1.,0.,0.));
#725=DIRECTION('',(0.,0.,1.));
#726=DIRECTION('',(0.,-1.,0.));
#727=DIRECTION('',(0.,0.,1.));
#728=DIRECTION('',(0.,-1.,0.));
#729=DIRECTION('',(0.,0.,1.));
#730=DIRECTION('',(1.,0.,0.));
#731=DIRECTION('',(1.,0.,0.));
#732=DIRECTION('',(0.,-1.,0.));
#733=DIRECTION('',(1.,0.,0.));
#734=DIRECTION('',(0.,-1.,0.));
#735=DIRECTION('',(-0.980580675690921,-0.196116135138178,0.));
#736=DIRECTION('',(0.196116135138179,-0.980580675690921,0.));
#737=DIRECTION('',(-0.196116135138178,-0.980580675690921,0.));
#738=DIRECTION('',(0.980580675690921,-0.196116135138179,0.));
#739=DIRECTION('',(-1.,0.,0.));
#740=DIRECTION('',(0.,1.,0.));
#741=DIRECTION('',(1.,0.,0.));
#742=DIRECTION('',(0.,-1.,0.));
#743=DIRECTION('',(0.980580675690921,-0.196116135138178,0.));
#744=DIRECTION('',(0.196116135138179,0.980580675690921,0.));
#745=DIRECTION('',(0.,1.,0.));
#746=DIRECTION('',(1.,0.,0.));
#747=DIRECTION('',(0.196116135138178,-0.980580675690921,0.));
#748=DIRECTION('',(0.980580675690921,0.196116135138179,0.));
#749=DIRECTION('',(1.,0.,0.));
#750=DIRECTION('',(0.,0.,-1.));
#751=DIRECTION('',(0.,1.,-1.83386690555856E-16));
#752=DIRECTION('',(0.,-1.83386690555857E-16,-1.));
#753=DIRECTION('',(0.,1.,-1.83386690555857E-16));
#754=DIRECTION('',(0.,1.,-1.83386690555856E-16));
#755=DIRECTION('',(0.,-1.83386690555857E-16,-1.));
#756=DIRECTION('',(0.,1.,-1.83386690555857E-16));
#757=DIRECTION('',(0.,1.,-1.83386690555856E-16));
#758=DIRECTION('',(-1.,0.,0.));
#759=DIRECTION('',(0.,0.,1.));
#760=CARTESIAN_POINT('',(0.,0.,0.));
#761=CARTESIAN_POINT('',(0.,0.,0.));
#762=CARTESIAN_POINT('',(0.,-0.00250624999999992,0.0078));
#763=CARTESIAN_POINT('',(0.,-0.07818125,0.0078));
#764=CARTESIAN_POINT('',(0.,0.07316875,0.0078));
#765=CARTESIAN_POINT('',(0.,-0.07818125,0.0111));
#766=CARTESIAN_POINT('',(0.,-0.07818125,0.01523));
#767=CARTESIAN_POINT('',(0.,-0.0025062499999999,0.01523));
#768=CARTESIAN_POINT('',(0.,-0.06968125,0.01523));
#769=CARTESIAN_POINT('',(0.,-0.06968125,0.01523));
#770=CARTESIAN_POINT('',(0.,-0.06968125,0.0111));
#771=CARTESIAN_POINT('',(0.,-0.00250624999999992,0.0111));
#772=CARTESIAN_POINT('',(0.,0.06466875,0.0111));
#773=CARTESIAN_POINT('',(0.,0.06466875,0.01523));
#774=CARTESIAN_POINT('',(0.,0.06466875,0.01523));
#775=CARTESIAN_POINT('',(0.,-0.0025062499999999,0.01523));
#776=CARTESIAN_POINT('',(0.,0.07316875,0.01523));
#777=CARTESIAN_POINT('',(0.,0.07316875,0.0111));
#778=CARTESIAN_POINT('',(-0.00169375,-0.0025062499999999,0.01523));
#779=CARTESIAN_POINT('',(-0.00169375,-0.07818125,0.01523));
#780=CARTESIAN_POINT('',(0.1819,-0.07818125,0.01523));
#781=CARTESIAN_POINT('',(0.1819,-0.07418125,0.01523));
#782=CARTESIAN_POINT('',(0.1859,-0.07418125,0.01523));
#783=CARTESIAN_POINT('',(0.1859,-0.00250624999999993,0.01523));
#784=CARTESIAN_POINT('',(0.1859,0.01549717,0.01523));
#785=CARTESIAN_POINT('',(-0.00169375,0.01549717,0.01523));
#786=CARTESIAN_POINT('',(0.1774,0.01549717,0.01523));
#787=CARTESIAN_POINT('',(0.1774,-0.00250624999999992,0.01523));
#788=CARTESIAN_POINT('',(0.1774,-0.06968125,0.01523));
#789=CARTESIAN_POINT('',(-0.00169375,-0.06968125,0.01523));
#790=CARTESIAN_POINT('',(0.06165,-0.07393125,0.01523));
#791=CARTESIAN_POINT('',(0.06165,-0.07598125,0.01523));
#792=CARTESIAN_POINT('',(0.18165,-0.07393125,0.01523));
#793=CARTESIAN_POINT('',(0.18165,-0.07598125,0.01523));
#794=CARTESIAN_POINT('',(0.1859,-0.00250624999999993,0.0111));
#795=CARTESIAN_POINT('',(0.1859,-0.07418125,0.0111));
#796=CARTESIAN_POINT('',(0.1859,-0.07418125,0.005));
#797=CARTESIAN_POINT('',(0.1859,0.06916875,0.005));
#798=CARTESIAN_POINT('',(0.1859,0.06916875,0.005));
#799=CARTESIAN_POINT('',(0.1859,0.06916875,0.0111));
#800=CARTESIAN_POINT('',(0.1859,0.06916875,0.01523));
#801=CARTESIAN_POINT('',(0.1859,-0.00250624999999993,0.01523));
#802=CARTESIAN_POINT('',(0.1859,0.02784312,0.01523));
#803=CARTESIAN_POINT('',(0.1859,0.02784312,0.01493));
#804=CARTESIAN_POINT('',(0.1859,0.02784312,0.01243));
#805=CARTESIAN_POINT('',(0.1859,0.0216701450000001,0.01243));
#806=CARTESIAN_POINT('',(0.1859,0.01549717,0.01243));
#807=CARTESIAN_POINT('',(0.1859,0.01549717,0.01493));
#808=CARTESIAN_POINT('',(0.1774,-0.00250624999999992,0.01523));
#809=CARTESIAN_POINT('',(0.1774,0.02784312,0.01523));
#810=CARTESIAN_POINT('',(0.1774,0.02784312,0.01523));
#811=CARTESIAN_POINT('',(0.1774,0.02784312,0.01243));
#812=CARTESIAN_POINT('',(0.1774,-0.00250624999999992,0.01523));
#813=CARTESIAN_POINT('',(0.1774,0.06466875,0.01523));
#814=CARTESIAN_POINT('',(0.1774,0.06466875,0.01523));
#815=CARTESIAN_POINT('',(0.1774,0.06466875,0.0111));
#816=CARTESIAN_POINT('',(0.1774,-0.00250624999999992,0.0111));
#817=CARTESIAN_POINT('',(0.1774,-0.06968125,0.0111));
#818=CARTESIAN_POINT('',(0.1774,-0.06968125,0.01523));
#819=CARTESIAN_POINT('',(0.1774,0.01549717,0.01523));
#820=CARTESIAN_POINT('',(0.1774,0.01549717,0.01243));
#821=CARTESIAN_POINT('',(0.1774,-0.00250624999999992,0.01243));
#822=CARTESIAN_POINT('',(-0.00169375,-0.0025062499999999,0.01523));
#823=CARTESIAN_POINT('',(-0.00169375,0.06466875,0.01523));
#824=CARTESIAN_POINT('',(-0.00169375,0.02784312,0.01523));
#825=CARTESIAN_POINT('',(0.1819,0.06916875,0.01523));
#826=CARTESIAN_POINT('',(0.1819,0.07316875,0.01523));
#827=CARTESIAN_POINT('',(-0.00169375,0.07316875,0.01523));
#828=CARTESIAN_POINT('',(0.18165,0.06891875,0.01523));
#829=CARTESIAN_POINT('',(0.18165,0.06686875,0.01523));
#830=CARTESIAN_POINT('',(0.06165,0.06891875,0.01523));
#831=CARTESIAN_POINT('',(0.06165,0.06686875,0.01523));
#832=CARTESIAN_POINT('',(-0.00169375,-0.07818125,0.0111));
#833=CARTESIAN_POINT('',(-0.0148,-0.07818125,0.0078));
#834=CARTESIAN_POINT('',(-0.0148,-0.07818125,0.0078));
#835=CARTESIAN_POINT('',(-0.0148,-0.07818125,0.0111));
#836=CARTESIAN_POINT('',(-0.0148,-0.07818125,0.0052));
#837=CARTESIAN_POINT('',(-0.0148,-0.07818125,0.0052));
#838=CARTESIAN_POINT('',(0.,-0.07818125,0.0052));
#839=CARTESIAN_POINT('',(0.,-0.07818125,0.0111));
#840=CARTESIAN_POINT('',(0.,-0.07818125,0.005));
#841=CARTESIAN_POINT('',(-0.00169375,-0.07818125,0.005));
#842=CARTESIAN_POINT('',(0.1819,-0.07818125,0.005));
#843=CARTESIAN_POINT('',(0.1819,-0.07818125,0.0111));
#844=CARTESIAN_POINT('',(0.1819,-0.07418125,0.0111));
#845=CARTESIAN_POINT('',(0.1819,-0.07418125,0.005));
#846=CARTESIAN_POINT('',(0.1819,0.06916875,0.0111));
#847=CARTESIAN_POINT('',(0.1819,0.06916875,0.005));
#848=CARTESIAN_POINT('',(0.1819,0.07316875,0.005));
#849=CARTESIAN_POINT('',(0.1819,0.07316875,0.0111));
#850=CARTESIAN_POINT('',(-0.00169375,0.07316875,0.0111));
#851=CARTESIAN_POINT('',(-0.1852875,0.07316875,0.005));
#852=CARTESIAN_POINT('',(0.,0.07316875,0.005));
#853=CARTESIAN_POINT('',(0.,0.07316875,0.0111));
#854=CARTESIAN_POINT('',(0.,0.07316875,0.0052));
#855=CARTESIAN_POINT('',(-0.0148,0.07316875,0.0052));
#856=CARTESIAN_POINT('',(-0.0148,0.07316875,0.0052));
#857=CARTESIAN_POINT('',(-0.0148,0.07316875,0.0111));
#858=CARTESIAN_POINT('',(-0.0148,0.07316875,0.0078));
#859=CARTESIAN_POINT('',(-0.0148,0.07316875,0.0078));
#860=CARTESIAN_POINT('',(-0.00169375,-0.00250624999999992,0.));
#861=CARTESIAN_POINT('',(-0.00169375,-0.07318125,0.));
#862=CARTESIAN_POINT('',(0.1809,-0.07318125,0.));
#863=CARTESIAN_POINT('',(0.,-0.07318125,0.));
#864=CARTESIAN_POINT('',(0.,-0.00250624999999992,0.));
#865=CARTESIAN_POINT('',(0.,0.06816875,0.));
#866=CARTESIAN_POINT('',(0.1819,0.06816875,0.));
#867=CARTESIAN_POINT('',(0.1809,0.06816875,0.));
#868=CARTESIAN_POINT('',(0.1809,-0.07418125,0.));
#869=CARTESIAN_POINT('',(-0.00169375,0.06466875,0.01523));
#870=CARTESIAN_POINT('',(-0.00169375,0.06466875,0.0111));
#871=CARTESIAN_POINT('',(-0.00169375,-0.06968125,0.01523));
#872=CARTESIAN_POINT('',(-0.00169375,-0.06968125,0.0111));
#873=CARTESIAN_POINT('',(-0.00169375,-0.00250624999999992,0.0111));
#874=CARTESIAN_POINT('',(0.1682,0.0216701450000001,0.01243));
#875=CARTESIAN_POINT('',(0.1682,0.01549717,0.01243));
#876=CARTESIAN_POINT('',(0.1682,0.02784312,0.01243));
#877=CARTESIAN_POINT('',(0.1682,0.02784312,0.01493));
#878=CARTESIAN_POINT('',(0.1682,0.01549717,0.01493));
#879=CARTESIAN_POINT('',(0.06165,0.06891875,0.00773));
#880=CARTESIAN_POINT('',(0.06165,0.06891875,0.00773));
#881=CARTESIAN_POINT('',(0.06165,0.06686875,0.00773));
#882=CARTESIAN_POINT('',(-0.00169375,-0.00250624999999992,0.00773));
#883=CARTESIAN_POINT('',(0.06165,-0.07393125,0.00773));
#884=CARTESIAN_POINT('',(0.06165,-0.07393125,0.00773));
#885=CARTESIAN_POINT('',(0.06165,-0.07598125,0.00773));
#886=CARTESIAN_POINT('',(-0.00169375,-0.00250624999999992,0.00773));
#887=CARTESIAN_POINT('',(0.18165,-0.07393125,0.00773));
#888=CARTESIAN_POINT('',(0.18165,-0.07393125,0.00773));
#889=CARTESIAN_POINT('',(0.18165,-0.07598125,0.00773));
#890=CARTESIAN_POINT('',(-0.00169375,-0.00250624999999992,0.00773));
#891=CARTESIAN_POINT('',(0.18165,0.06891875,0.00773));
#892=CARTESIAN_POINT('',(0.18165,0.06891875,0.00773));
#893=CARTESIAN_POINT('',(0.18165,0.06686875,0.00773));
#894=CARTESIAN_POINT('',(-0.00169375,-0.00250624999999992,0.00773));
#895=CARTESIAN_POINT('',(-0.00169375,-0.07318125,0.005));
#896=CARTESIAN_POINT('',(0.,-0.07318125,0.005));
#897=CARTESIAN_POINT('',(0.1809,-0.07318125,0.005));
#898=CARTESIAN_POINT('',(0.1819,-0.07818125,0.005));
#899=CARTESIAN_POINT('',(0.1859,-0.07818125,0.005));
#900=CARTESIAN_POINT('',(0.1859,-0.07418125,0.005));
#901=CARTESIAN_POINT('',(0.181899999999984,-0.07818125,0.00467275065616782));
#902=CARTESIAN_POINT('',(0.185899999998315,-0.0781812499983151,0.00441095072302478));
#903=CARTESIAN_POINT('',(0.1859,-0.0741812499999836,0.00467275065616782));
#904=CARTESIAN_POINT('',(0.181887107063674,-0.0781167853183314,0.00401826511875997));
#905=CARTESIAN_POINT('',(0.185730836533711,-0.0780120865337112,0.00325705558392842));
#906=CARTESIAN_POINT('',(0.185835535318332,-0.0741683570636739,0.00401826511876));
#907=CARTESIAN_POINT('',(0.181829836959585,-0.0778304347979367,0.00307423643960461));
#908=CARTESIAN_POINT('',(0.185087742248167,-0.0773689922481675,0.00188916557922996));
#909=CARTESIAN_POINT('',(0.185549184797937,-0.0741110869595853,0.00307423643960456));
#910=CARTESIAN_POINT('',(0.181736822293053,-0.0773653614652601,0.00220428615186904));
#911=CARTESIAN_POINT('',(0.184290405107748,-0.0765716551077477,0.00100108812150307));
#912=CARTESIAN_POINT('',(0.18508411146526,-0.0740180722930525,0.00220428615186906));
#913=CARTESIAN_POINT('',(0.181569981291675,-0.0765311564583787,0.00118725389915195));
#914=CARTESIAN_POINT('',(0.183257574159192,-0.075538824159192,0.000336646632926709));
#915=CARTESIAN_POINT('',(0.184249906458379,-0.0738512312916754,0.00118725389915189));
#916=CARTESIAN_POINT('',(0.181292658627457,-0.0751445431372826,0.000260275559296732));
#917=CARTESIAN_POINT('',(0.182109033385069,-0.0743902833850654,4.78947953414155E-5));
#918=CARTESIAN_POINT('',(0.182863293137283,-0.0735739086274566,0.000260275559296754));
#919=CARTESIAN_POINT('',(0.181030899715715,-0.0738357485785772,2.94902990916057E-17));
#920=CARTESIAN_POINT('',(0.181292699114444,-0.0735739491144503,-5.0140551855825E-11));
#921=CARTESIAN_POINT('',(0.181554498578577,-0.0733121497157155,2.94902990916057E-17));
#922=CARTESIAN_POINT('',(0.1809,-0.07318125,2.94902990916057E-17));
#923=CARTESIAN_POINT('',(0.1809,-0.07318125,2.94902990916057E-17));
#924=CARTESIAN_POINT('',(0.1809,-0.07318125,2.94902990916057E-17));
#925=CARTESIAN_POINT('',(0.1809,-0.07318125,0.005));
#926=CARTESIAN_POINT('',(-0.00169375,0.06816875,0.005));
#927=CARTESIAN_POINT('',(0.,0.06816875,0.005));
#928=CARTESIAN_POINT('',(0.1809,0.06816875,0.005));
#929=CARTESIAN_POINT('',(0.1809,-0.00250624999999992,0.005));
#930=CARTESIAN_POINT('',(0.1809,0.06816875,0.005));
#931=CARTESIAN_POINT('',(0.1859,0.06916875,0.005));
#932=CARTESIAN_POINT('',(0.1859,0.07316875,0.005));
#933=CARTESIAN_POINT('',(0.1819,0.07316875,0.005));
#934=CARTESIAN_POINT('',(0.1859,0.0691687499999836,0.00467275065616782));
#935=CARTESIAN_POINT('',(0.185899999998315,0.0731687499983141,0.00441095072302478));
#936=CARTESIAN_POINT('',(0.181899999999984,0.07316875,0.00467275065616782));
#937=CARTESIAN_POINT('',(0.185835535318331,0.0691558570636739,0.00401826511875996));
#938=CARTESIAN_POINT('',(0.185730836533711,0.0729995865337117,0.0032570555839284));
#939=CARTESIAN_POINT('',(0.181887107063674,0.0731042853183315,0.00401826511875998));
#940=CARTESIAN_POINT('',(0.185549184797937,0.0690985869595853,0.00307423643960463));
#941=CARTESIAN_POINT('',(0.185087742248168,0.0723564922481674,0.00188916557923001));
#942=CARTESIAN_POINT('',(0.181829836959585,0.0728179347979367,0.00307423643960458));
#943=CARTESIAN_POINT('',(0.18508411146526,0.0690055722930525,0.002204286151869));
#944=CARTESIAN_POINT('',(0.184290405107748,0.0715591551077478,0.00100108812150304));
#945=CARTESIAN_POINT('',(0.181736822293053,0.0723528614652601,0.00220428615186906));
#946=CARTESIAN_POINT('',(0.184249906458379,0.0688387312916754,0.001187253899152));
#947=CARTESIAN_POINT('',(0.183257574159192,0.0705263241591917,0.000336646632926738));
#948=CARTESIAN_POINT('',(0.181569981291675,0.0715186564583786,0.00118725389915191));
#949=CARTESIAN_POINT('',(0.182863293137283,0.0685614086274567,0.000260275559296701));
#950=CARTESIAN_POINT('',(0.182109033385068,0.0693777833850671,4.78947953414038E-5));
#951=CARTESIAN_POINT('',(0.181292658627457,0.0701320431372826,0.000260275559296732));
#952=CARTESIAN_POINT('',(0.181554498578577,0.0682996497157154,2.25514051876985E-17));
#953=CARTESIAN_POINT('',(0.181292699114444,0.0685614491144471,-5.01405587946912E-11));
#954=CARTESIAN_POINT('',(0.181030899715715,0.0688232485785772,2.25514051876985E-17));
#955=CARTESIAN_POINT('',(0.1809,0.06816875,2.25514051876985E-17));
#956=CARTESIAN_POINT('',(0.1809,0.06816875,2.25514051876985E-17));
#957=CARTESIAN_POINT('',(0.1809,0.06816875,2.25514051876985E-17));
#958=CARTESIAN_POINT('',(0.,0.,0.));
#959=CARTESIAN_POINT('',(0.,-0.00250624999999992,0.0052));
#960=CARTESIAN_POINT('',(-0.0148,-0.00250624999999992,0.0052));
#961=CARTESIAN_POINT('',(-0.0148,-0.00250624999999992,0.0052));
#962=CARTESIAN_POINT('',(-0.0148,-0.00250624999999992,0.0078));
#963=CARTESIAN_POINT('',(-0.0148,-0.00250624999999992,0.0078));
#964=CARTESIAN_POINT('',(-0.0148,-0.00250624999999992,0.007615));
#965=MECHANICAL_DESIGN_GEOMETRIC_PRESENTATION_REPRESENTATION('',(#546),
#966);
#966=(
GEOMETRIC_REPRESENTATION_CONTEXT(3)
GLOBAL_UNCERTAINTY_ASSIGNED_CONTEXT((#967))
GLOBAL_UNIT_ASSIGNED_CONTEXT((#970,#969,#968))
REPRESENTATION_CONTEXT('Case_Left','TOP_LEVEL_ASSEMBLY_PART')
);
#967=UNCERTAINTY_MEASURE_WITH_UNIT(LENGTH_MEASURE(2.E-5),#970,
'DISTANCE_ACCURACY_VALUE','Maximum Tolerance applied to model');
#968=(
NAMED_UNIT(*)
SI_UNIT($,.STERADIAN.)
SOLID_ANGLE_UNIT()
);
#969=(
NAMED_UNIT(*)
PLANE_ANGLE_UNIT()
SI_UNIT($,.RADIAN.)
);
#970=(
LENGTH_UNIT()
NAMED_UNIT(*)
SI_UNIT($,.METRE.)
);
#971=PRODUCT_DEFINITION_SHAPE('','',#972);
#972=PRODUCT_DEFINITION('','',#974,#973);
#973=PRODUCT_DEFINITION_CONTEXT('',#980,'design');
#974=PRODUCT_DEFINITION_FORMATION_WITH_SPECIFIED_SOURCE('','',#976,
 .NOT_KNOWN.);
#975=PRODUCT_RELATED_PRODUCT_CATEGORY('','',(#976));
#976=PRODUCT('Case_Left','Case_Left','Case_Left',(#978));
#977=PRODUCT_CATEGORY('','');
#978=PRODUCT_CONTEXT('',#980,'mechanical');
#979=APPLICATION_PROTOCOL_DEFINITION('international standard',
'ap242_managed_model_based_3d_engineering',2020,#980);
#980=APPLICATION_CONTEXT('managed model based 3d engineering');
ENDSEC;
END-ISO-10303-21;
