0
SECTION
2
HEADER
9
$INSUNITS
70
4
0
ENDSEC
0
SECTION
2
TABLES
0
TABLE
2
LTYPE
0
LTYPE
72
65
70
0
2
CONTINUOUS
3
______
73
0
40
0
0
LTYPE
72
65
70
0
2
DASHED
3
_ _ _ 
73
2
40
7.5
49
5
49
-2.5
0
LTYPE
72
65
70
0
2
DOTTED
3
. . . 
73
2
40
1.5
49
0.5
49
-1
0
ENDTAB
0
TABLE
2
LAYER
0
ENDTAB
0
ENDSEC
0
SECTION
2
ENTITIES
0
POLYLINE
8
0
6
CONTINUOUS
66
1
70
1
0
VERTEX
8
0
10
-7
20
-6.5
42
0.4142136
0
VERTEX
8
0
10
-6.5
20
-7
0
VERTEX
8
0
10
6.5
20
-7
42
0.4142136
0
VERTEX
8
0
10
7
20
-6.5
0
VERTEX
8
0
10
7
20
6.5
42
0.4142136
0
VERTEX
8
0
10
6.5
20
7
0
VERTEX
8
0
10
-6.5
20
7
42
0.4142136
0
VERTEX
8
0
10
-7
20
6.5
0
SEQEND
0
POLYLINE
8
0
6
CONTINUOUS
66
1
70
1
0
VERTEX
8
0
10
12.05
20
-6.5
42
0.4142136
0
VERTEX
8
0
10
12.55
20
-7
0
VERTEX
8
0
10
25.55
20
-7
42
0.4142136
0
VERTEX
8
0
10
26.05
20
-6.5
0
VERTEX
8
0
10
26.05
20
6.5
42
0.4142136
0
VERTEX
8
0
10
25.55
20
7
0
VERTEX
8
0
10
12.55
20
7
42
0.4142136
0
VERTEX
8
0
10
12.05
20
6.5
0
SEQEND
0
POLYLINE
8
0
6
CONTINUOUS
66
1
70
1
0
VERTEX
8
0
10
31.1
20
-6.5
42
0.4142136
0
VERTEX
8
0
10
31.6
20
-7
0
VERTEX
8
0
10
44.6
20
-7
42
0.4142136
0
VERTEX
8
0
10
45.1
20
-6.5
0
VERTEX
8
0
10
45.1
20
6.5
42
0.4142136
0
VERTEX
8
0
10
44.6
20
7
0
VERTEX
8
0
10
31.6
20
7
42
0.4142136
0
VERTEX
8
0
10
31.1
20
6.5
0
SEQEND
0
POLYLINE
8
0
6
CONTINUOUS
66
1
70
1
0
VERTEX
8
0
10
50.15
20
-6.5
42
0.4142136
0
VERTEX
8
0
10
50.65
20
-7
0
VERTEX
8
0
10
63.65
20
-7
42
0.4142136
0
VERTEX
8
0
10
64.15
20
-6.5
0
VERTEX
8
0
10
64.15
20
6.5
42
0.4142136
0
VERTEX
8
0
10
63.65
20
7
0
VERTEX
8
0
10
50.65
20
7
42
0.4142136
0
VERTEX
8
0
10
50.15
20
6.5
0
SEQEND
0
POLYLINE
8
0
6
CONTINUOUS
66
1
70
1
0
VERTEX
8
0
10
69.2
20
-6.5
42
0.4142136
0
VERTEX
8
0
10
69.7
20
-7
0
VERTEX
8
0
10
82.7
20
-7
42
0.4142136
0
VERTEX
8
0
10
83.2
20
-6.5
0
VERTEX
8
0
10
83.2
20
6.5
42
0.4142136
0
VERTEX
8
0
10
82.7
20
7
0
VERTEX
8
0
10
69.7
20
7
42
0.4142136
0
VERTEX
8
0
10
69.2
20
6.5
0
SEQEND
0
POLYLINE
8
0
6
CONTINUOUS
66
1
70
1
0
VERTEX
8
0
10
88.25
20
-6.5
42
0.4142136
0
VERTEX
8
0
10
88.75
20
-7
0
VERTEX
8
0
10
101.75
20
-7
42
0.4142136
0
VERTEX
8
0
10
102.25
20
-6.5
0
VERTEX
8
0
10
102.25
20
6.5
42
0.4142136
0
VERTEX
8
0
10
101.75
20
7
0
VERTEX
8
0
10
88.75
20
7
42
0.4142136
0
VERTEX
8
0
10
88.25
20
6.5
0
SEQEND
0
POLYLINE
8
0
6
CONTINUOUS
66
1
70
1
0
VERTEX
8
0
10
107.3
20
-6.5
42
0.4142136
0
VERTEX
8
0
10
107.8
20
-7
0
VERTEX
8
0
10
120.8
20
-7
42
0.4142136
0
VERTEX
8
0
10
121.3
20
-6.5
0
VERTEX
8
0
10
121.3
20
6.5
42
0.4142136
0
VERTEX
8
0
10
120.8
20
7
0
VERTEX
8
0
10
107.8
20
7
42
0.4142136
0
VERTEX
8
0
10
107.3
20
6.5
0
SEQEND
0
POLYLINE
8
0
6
CONTINUOUS
66
1
70
1
0
VERTEX
8
0
10
126.35
20
-6.5
42
0.4142136
0
VERTEX
8
0
10
126.85
20
-7
0
VERTEX
8
0
10
139.85
20
-7
42
0.4142136
0
VERTEX
8
0
10
140.35
20
-6.5
0
VERTEX
8
0
10
140.35
20
6.5
42
0.4142136
0
VERTEX
8
0
10
139.85
20
7
0
VERTEX
8
0
10
126.85
20
7
42
0.4142136
0
VERTEX
8
0
10
126.35
20
6.5
0
SEQEND
0
POLYLINE
8
0
6
CONTINUOUS
66
1
70
1
0
VERTEX
8
0
10
145.4
20
-6.5
42
0.4142136
0
VERTEX
8
0
10
145.9
20
-7
0
VERTEX
8
0
10
158.9
20
-7
42
0.4142136
0
VERTEX
8
0
10
159.4
20
-6.5
0
VERTEX
8
0
10
159.4
20
6.5
42
0.4142136
0
VERTEX
8
0
10
158.9
20
7
0
VERTEX
8
0
10
145.9
20
7
42
0.4142136
0
VERTEX
8
0
10
145.4
20
6.5
0
SEQEND
0
POLYLINE
8
0
6
CONTINUOUS
66
1
70
1
0
VERTEX
8
0
10
164.45
20
-6.5
42
0.4142136
0
VERTEX
8
0
10
164.95
20
-7
0
VERTEX
8
0
10
177.95
20
-7
42
0.4142136
0
VERTEX
8
0
10
178.45
20
-6.5
0
VERTEX
8
0
10
178.45
20
6.5
42
0.4142136
0
VERTEX
8
0
10
177.95
20
7
0
VERTEX
8
0
10
164.95
20
7
42
0.4142136
0
VERTEX
8
0
10
164.45
20
6.5
0
SEQEND
0
POLYLINE
8
0
6
CONTINUOUS
66
1
70
1
0
VERTEX
8
0
10
183.5
20
-6.5
42
0.4142136
0
VERTEX
8
0
10
184
20
-7
0
VERTEX
8
0
10
197
20
-7
42
0.4142136
0
VERTEX
8
0
10
197.5
20
-6.5
0
VERTEX
8
0
10
197.5
20
6.5
42
0.4142136
0
VERTEX
8
0
10
197
20
7
0
VERTEX
8
0
10
184
20
7
42
0.4142136
0
VERTEX
8
0
10
183.5
20
6.5
0
SEQEND
0
POLYLINE
8
0
6
CONTINUOUS
66
1
70
1
0
VERTEX
8
0
10
202.55
20
-6.5
42
0.4142136
0
VERTEX
8
0
10
203.05
20
-7
0
VERTEX
8
0
10
216.05
20
-7
42
0.4142136
0
VERTEX
8
0
10
216.55
20
-6.5
0
VERTEX
8
0
10
216.55
20
6.5
42
0.4142136
0
VERTEX
8
0
10
216.05
20
7
0
VERTEX
8
0
10
203.05
20
7
42
0.4142136
0
VERTEX
8
0
10
202.55
20
6.5
0
SEQEND
0
POLYLINE
8
0
6
CONTINUOUS
66
1
70
1
0
VERTEX
8
0
10
221.6
20
-6.5
42
0.4142136
0
VERTEX
8
0
10
222.1
20
-7
0
VERTEX
8
0
10
235.1
20
-7
42
0.4142136
0
VERTEX
8
0
10
235.6
20
-6.5
0
VERTEX
8
0
10
235.6
20
6.5
42
0.4142136
0
VERTEX
8
0
10
235.1
20
7
0
VERTEX
8
0
10
222.1
20
7
42
0.4142136
0
VERTEX
8
0
10
221.6
20
6.5
0
SEQEND
0
POLYLINE
8
0
6
CONTINUOUS
66
1
70
1
0
VERTEX
8
0
10
245.4125
20
-6.5
42
0.4142136
0
VERTEX
8
0
10
245.9125
20
-7
0
VERTEX
8
0
10
258.9125
20
-7
42
0.4142136
0
VERTEX
8
0
10
259.4125
20
-6.5
0
VERTEX
8
0
10
259.4125
20
6.5
42
0.4142136
0
VERTEX
8
0
10
258.9125
20
7
0
VERTEX
8
0
10
245.9125
20
7
42
0.4142136
0
VERTEX
8
0
10
245.4125
20
6.5
0
SEQEND
0
POLYLINE
8
0
6
CONTINUOUS
66
1
70
1
0
VERTEX
8
0
10
-2.2375
20
-25.55
42
0.4142136
0
VERTEX
8
0
10
-1.7375
20
-26.05
0
VERTEX
8
0
10
11.2625
20
-26.05
42
0.4142136
0
VERTEX
8
0
10
11.7625
20
-25.55
0
VERTEX
8
0
10
11.7625
20
-12.55
42
0.4142136
0
VERTEX
8
0
10
11.2625
20
-12.05
0
VERTEX
8
0
10
-1.7375
20
-12.05
42
0.4142136
0
VERTEX
8
0
10
-2.2375
20
-12.55
0
SEQEND
0
POLYLINE
8
0
6
CONTINUOUS
66
1
70
1
0
VERTEX
8
0
10
21.575
20
-25.55
42
0.4142136
0
VERTEX
8
0
10
22.075
20
-26.05
0
VERTEX
8
0
10
35.075
20
-26.05
42
0.4142136
0
VERTEX
8
0
10
35.575
20
-25.55
0
VERTEX
8
0
10
35.575
20
-12.55
42
0.4142136
0
VERTEX
8
0
10
35.075
20
-12.05
0
VERTEX
8
0
10
22.075
20
-12.05
42
0.4142136
0
VERTEX
8
0
10
21.575
20
-12.55
0
SEQEND
0
POLYLINE
8
0
6
CONTINUOUS
66
1
70
1
0
VERTEX
8
0
10
40.625
20
-25.55
42
0.4142136
0
VERTEX
8
0
10
41.125
20
-26.05
0
VERTEX
8
0
10
54.125
20
-26.05
42
0.4142136
0
VERTEX
8
0
10
54.625
20
-25.55
0
VERTEX
8
0
10
54.625
20
-12.55
42
0.4142136
0
VERTEX
8
0
10
54.125
20
-12.05
0
VERTEX
8
0
10
41.125
20
-12.05
42
0.4142136
0
VERTEX
8
0
10
40.625
20
-12.55
0
SEQEND
0
POLYLINE
8
0
6
CONTINUOUS
66
1
70
1
0
VERTEX
8
0
10
59.675
20
-25.55
42
0.4142136
0
VERTEX
8
0
10
60.175
20
-26.05
0
VERTEX
8
0
10
73.175
20
-26.05
42
0.4142136
0
VERTEX
8
0
10
73.675
20
-25.55
0
VERTEX
8
0
10
73.675
20
-12.55
42
0.4142136
0
VERTEX
8
0
10
73.175
20
-12.05
0
VERTEX
8
0
10
60.175
20
-12.05
42
0.4142136
0
VERTEX
8
0
10
59.675
20
-12.55
0
SEQEND
0
POLYLINE
8
0
6
CONTINUOUS
66
1
70
1
0
VERTEX
8
0
10
78.725
20
-25.55
42
0.4142136
0
VERTEX
8
0
10
79.225
20
-26.05
0
VERTEX
8
0
10
92.225
20
-26.05
42
0.4142136
0
VERTEX
8
0
10
92.725
20
-25.55
0
VERTEX
8
0
10
92.725
20
-12.55
42
0.4142136
0
VERTEX
8
0
10
92.225
20
-12.05
0
VERTEX
8
0
10
79.225
20
-12.05
42
0.4142136
0
VERTEX
8
0
10
78.725
20
-12.55
0
SEQEND
0
POLYLINE
8
0
6
CONTINUOUS
66
1
70
1
0
VERTEX
8
0
10
97.775
20
-25.55
42
0.4142136
0
VERTEX
8
0
10
98.275
20
-26.05
0
VERTEX
8
0
10
111.275
20
-26.05
42
0.4142136
0
VERTEX
8
0
10
111.775
20
-25.55
0
VERTEX
8
0
10
111.775
20
-12.55
42
0.4142136
0
VERTEX
8
0
10
111.275
20
-12.05
0
VERTEX
8
0
10
98.275
20
-12.05
42
0.4142136
0
VERTEX
8
0
10
97.775
20
-12.55
0
SEQEND
0
POLYLINE
8
0
6
CONTINUOUS
66
1
70
1
0
VERTEX
8
0
10
116.825
20
-25.55
42
0.4142136
0
VERTEX
8
0
10
117.325
20
-26.05
0
VERTEX
8
0
10
130.325
20
-26.05
42
0.4142136
0
VERTEX
8
0
10
130.825
20
-25.55
0
VERTEX
8
0
10
130.825
20
-12.55
42
0.4142136
0
VERTEX
8
0
10
130.325
20
-12.05
0
VERTEX
8
0
10
117.325
20
-12.05
42
0.4142136
0
VERTEX
8
0
10
116.825
20
-12.55
0
SEQEND
0
POLYLINE
8
0
6
CONTINUOUS
66
1
70
1
0
VERTEX
8
0
10
135.875
20
-25.55
42
0.4142136
0
VERTEX
8
0
10
136.375
20
-26.05
0
VERTEX
8
0
10
149.375
20
-26.05
42
0.4142136
0
VERTEX
8
0
10
149.875
20
-25.55
0
VERTEX
8
0
10
149.875
20
-12.55
42
0.4142136
0
VERTEX
8
0
10
149.375
20
-12.05
0
VERTEX
8
0
10
136.375
20
-12.05
42
0.4142136
0
VERTEX
8
0
10
135.875
20
-12.55
0
SEQEND
0
POLYLINE
8
0
6
CONTINUOUS
66
1
70
1
0
VERTEX
8
0
10
154.925
20
-25.55
42
0.4142136
0
VERTEX
8
0
10
155.425
20
-26.05
0
VERTEX
8
0
10
168.425
20
-26.05
42
0.4142136
0
VERTEX
8
0
10
168.925
20
-25.55
0
VERTEX
8
0
10
168.925
20
-12.55
42
0.4142136
0
VERTEX
8
0
10
168.425
20
-12.05
0
VERTEX
8
0
10
155.425
20
-12.05
42
0.4142136
0
VERTEX
8
0
10
154.925
20
-12.55
0
SEQEND
0
POLYLINE
8
0
6
CONTINUOUS
66
1
70
1
0
VERTEX
8
0
10
173.975
20
-25.55
42
0.4142136
0
VERTEX
8
0
10
174.475
20
-26.05
0
VERTEX
8
0
10
187.475
20
-26.05
42
0.4142136
0
VERTEX
8
0
10
187.975
20
-25.55
0
VERTEX
8
0
10
187.975
20
-12.55
42
0.4142136
0
VERTEX
8
0
10
187.475
20
-12.05
0
VERTEX
8
0
10
174.475
20
-12.05
42
0.4142136
0
VERTEX
8
0
10
173.975
20
-12.55
0
SEQEND
0
POLYLINE
8
0
6
CONTINUOUS
66
1
70
1
0
VERTEX
8
0
10
193.025
20
-25.55
42
0.4142136
0
VERTEX
8
0
10
193.525
20
-26.05
0
VERTEX
8
0
10
206.525
20
-26.05
42
0.4142136
0
VERTEX
8
0
10
207.025
20
-25.55
0
VERTEX
8
0
10
207.025
20
-12.55
42
0.4142136
0
VERTEX
8
0
10
206.525
20
-12.05
0
VERTEX
8
0
10
193.525
20
-12.05
42
0.4142136
0
VERTEX
8
0
10
193.025
20
-12.55
0
SEQEND
0
POLYLINE
8
0
6
CONTINUOUS
66
1
70
1
0
VERTEX
8
0
10
212.075
20
-25.55
42
0.4142136
0
VERTEX
8
0
10
212.575
20
-26.05
0
VERTEX
8
0
10
225.575
20
-26.05
42
0.4142136
0
VERTEX
8
0
10
226.075
20
-25.55
0
VERTEX
8
0
10
226.075
20
-12.55
42
0.4142136
0
VERTEX
8
0
10
225.575
20
-12.05
0
VERTEX
8
0
10
212.575
20
-12.05
42
0.4142136
0
VERTEX
8
0
10
212.075
20
-12.55
0
SEQEND
0
POLYLINE
8
0
6
CONTINUOUS
66
1
70
1
0
VERTEX
8
0
10
231.125
20
-25.55
42
0.4142136
0
VERTEX
8
0
10
231.625
20
-26.05
0
VERTEX
8
0
10
244.625
20
-26.05
42
0.4142136
0
VERTEX
8
0
10
245.125
20
-25.55
0
VERTEX
8
0
10
245.125
20
-12.55
42
0.4142136
0
VERTEX
8
0
10
244.625
20
-12.05
0
VERTEX
8
0
10
231.625
20
-12.05
42
0.4142136
0
VERTEX
8
0
10
231.125
20
-12.55
0
SEQEND
0
POLYLINE
8
0
6
CONTINUOUS
66
1
70
1
0
VERTEX
8
0
10
250.175
20
-25.55
42
0.4142136
0
VERTEX
8
0
10
250.675
20
-26.05
0
VERTEX
8
0
10
263.675
20
-26.05
42
0.4142136
0
VERTEX
8
0
10
264.175
20
-25.55
0
VERTEX
8
0
10
264.175
20
-12.55
42
0.4142136
0
VERTEX
8
0
10
263.675
20
-12.05
0
VERTEX
8
0
10
250.675
20
-12.05
42
0.4142136
0
VERTEX
8
0
10
250.175
20
-12.55
0
SEQEND
0
POLYLINE
8
0
6
CONTINUOUS
66
1
70
1
0
VERTEX
8
0
10
0.14375
20
-44.6
42
0.4142136
0
VERTEX
8
0
10
0.64375
20
-45.1
0
VERTEX
8
0
10
13.64375
20
-45.1
42
0.4142136
0
VERTEX
8
0
10
14.14375
20
-44.6
0
VERTEX
8
0
10
14.14375
20
-31.6
42
0.4142136
0
VERTEX
8
0
10
13.64375
20
-31.1
0
VERTEX
8
0
10
0.64375
20
-31.1
42
0.4142136
0
VERTEX
8
0
10
0.14375
20
-31.6
0
SEQEND
0
POLYLINE
8
0
6
CONTINUOUS
66
1
70
1
0
VERTEX
8
0
10
26.3375
20
-44.6
42
0.4142136
0
VERTEX
8
0
10
26.8375
20
-45.1
0
VERTEX
8
0
10
39.8375
20
-45.1
42
0.4142136
0
VERTEX
8
0
10
40.3375
20
-44.6
0
VERTEX
8
0
10
40.3375
20
-31.6
42
0.4142136
0
VERTEX
8
0
10
39.8375
20
-31.1
0
VERTEX
8
0
10
26.8375
20
-31.1
42
0.4142136
0
VERTEX
8
0
10
26.3375
20
-31.6
0
SEQEND
0
POLYLINE
8
0
6
CONTINUOUS
66
1
70
1
0
VERTEX
8
0
10
45.3875
20
-44.6
42
0.4142136
0
VERTEX
8
0
10
45.8875
20
-45.1
0
VERTEX
8
0
10
58.8875
20
-45.1
42
0.4142136
0
VERTEX
8
0
10
59.3875
20
-44.6
0
VERTEX
8
0
10
59.3875
20
-31.6
42
0.4142136
0
VERTEX
8
0
10
58.8875
20
-31.1
0
VERTEX
8
0
10
45.8875
20
-31.1
42
0.4142136
0
VERTEX
8
0
10
45.3875
20
-31.6
0
SEQEND
0
POLYLINE
8
0
6
CONTINUOUS
66
1
70
1
0
VERTEX
8
0
10
64.4375
20
-44.6
42
0.4142136
0
VERTEX
8
0
10
64.9375
20
-45.1
0
VERTEX
8
0
10
77.9375
20
-45.1
42
0.4142136
0
VERTEX
8
0
10
78.4375
20
-44.6
0
VERTEX
8
0
10
78.4375
20
-31.6
42
0.4142136
0
VERTEX
8
0
10
77.9375
20
-31.1
0
VERTEX
8
0
10
64.9375
20
-31.1
42
0.4142136
0
VERTEX
8
0
10
64.4375
20
-31.6
0
SEQEND
0
POLYLINE
8
0
6
CONTINUOUS
66
1
70
1
0
VERTEX
8
0
10
83.4875
20
-44.6
42
0.4142136
0
VERTEX
8
0
10
83.9875
20
-45.1
0
VERTEX
8
0
10
96.9875
20
-45.1
42
0.4142136
0
VERTEX
8
0
10
97.4875
20
-44.6
0
VERTEX
8
0
10
97.4875
20
-31.6
42
0.4142136
0
VERTEX
8
0
10
96.9875
20
-31.1
0
VERTEX
8
0
10
83.9875
20
-31.1
42
0.4142136
0
VERTEX
8
0
10
83.4875
20
-31.6
0
SEQEND
0
POLYLINE
8
0
6
CONTINUOUS
66
1
70
1
0
VERTEX
8
0
10
102.5375
20
-44.6
42
0.4142136
0
VERTEX
8
0
10
103.0375
20
-45.1
0
VERTEX
8
0
10
116.0375
20
-45.1
42
0.4142136
0
VERTEX
8
0
10
116.5375
20
-44.6
0
VERTEX
8
0
10
116.5375
20
-31.6
42
0.4142136
0
VERTEX
8
0
10
116.0375
20
-31.1
0
VERTEX
8
0
10
103.0375
20
-31.1
42
0.4142136
0
VERTEX
8
0
10
102.5375
20
-31.6
0
SEQEND
0
POLYLINE
8
0
6
CONTINUOUS
66
1
70
1
0
VERTEX
8
0
10
121.5875
20
-44.6
42
0.4142136
0
VERTEX
8
0
10
122.0875
20
-45.1
0
VERTEX
8
0
10
135.0875
20
-45.1
42
0.4142136
0
VERTEX
8
0
10
135.5875
20
-44.6
0
VERTEX
8
0
10
135.5875
20
-31.6
42
0.4142136
0
VERTEX
8
0
10
135.0875
20
-31.1
0
VERTEX
8
0
10
122.0875
20
-31.1
42
0.4142136
0
VERTEX
8
0
10
121.5875
20
-31.6
0
SEQEND
0
POLYLINE
8
0
6
CONTINUOUS
66
1
70
1
0
VERTEX
8
0
10
140.6375
20
-44.6
42
0.4142136
0
VERTEX
8
0
10
141.1375
20
-45.1
0
VERTEX
8
0
10
154.1375
20
-45.1
42
0.4142136
0
VERTEX
8
0
10
154.6375
20
-44.6
0
VERTEX
8
0
10
154.6375
20
-31.6
42
0.4142136
0
VERTEX
8
0
10
154.1375
20
-31.1
0
VERTEX
8
0
10
141.1375
20
-31.1
42
0.4142136
0
VERTEX
8
0
10
140.6375
20
-31.6
0
SEQEND
0
POLYLINE
8
0
6
CONTINUOUS
66
1
70
1
0
VERTEX
8
0
10
159.6875
20
-44.6
42
0.4142136
0
VERTEX
8
0
10
160.1875
20
-45.1
0
VERTEX
8
0
10
173.1875
20
-45.1
42
0.4142136
0
VERTEX
8
0
10
173.6875
20
-44.6
0
VERTEX
8
0
10
173.6875
20
-31.6
42
0.4142136
0
VERTEX
8
0
10
173.1875
20
-31.1
0
VERTEX
8
0
10
160.1875
20
-31.1
42
0.4142136
0
VERTEX
8
0
10
159.6875
20
-31.6
0
SEQEND
0
POLYLINE
8
0
6
CONTINUOUS
66
1
70
1
0
VERTEX
8
0
10
178.7375
20
-44.6
42
0.4142136
0
VERTEX
8
0
10
179.2375
20
-45.1
0
VERTEX
8
0
10
192.2375
20
-45.1
42
0.4142136
0
VERTEX
8
0
10
192.7375
20
-44.6
0
VERTEX
8
0
10
192.7375
20
-31.6
42
0.4142136
0
VERTEX
8
0
10
192.2375
20
-31.1
0
VERTEX
8
0
10
179.2375
20
-31.1
42
0.4142136
0
VERTEX
8
0
10
178.7375
20
-31.6
0
SEQEND
0
POLYLINE
8
0
6
CONTINUOUS
66
1
70
1
0
VERTEX
8
0
10
197.7875
20
-44.6
42
0.4142136
0
VERTEX
8
0
10
198.2875
20
-45.1
0
VERTEX
8
0
10
211.2875
20
-45.1
42
0.4142136
0
VERTEX
8
0
10
211.7875
20
-44.6
0
VERTEX
8
0
10
211.7875
20
-31.6
42
0.4142136
0
VERTEX
8
0
10
211.2875
20
-31.1
0
VERTEX
8
0
10
198.2875
20
-31.1
42
0.4142136
0
VERTEX
8
0
10
197.7875
20
-31.6
0
SEQEND
0
POLYLINE
8
0
6
CONTINUOUS
66
1
70
1
0
VERTEX
8
0
10
216.8375
20
-44.6
42
0.4142136
0
VERTEX
8
0
10
217.3375
20
-45.1
0
VERTEX
8
0
10
230.3375
20
-45.1
42
0.4142136
0
VERTEX
8
0
10
230.8375
20
-44.6
0
VERTEX
8
0
10
230.8375
20
-31.6
42
0.4142136
0
VERTEX
8
0
10
230.3375
20
-31.1
0
VERTEX
8
0
10
217.3375
20
-31.1
42
0.4142136
0
VERTEX
8
0
10
216.8375
20
-31.6
0
SEQEND
0
POLYLINE
8
0
6
CONTINUOUS
66
1
70
1
0
VERTEX
8
0
10
243.03125
20
-44.6
42
0.4142136
0
VERTEX
8
0
10
243.53125
20
-45.1
0
VERTEX
8
0
10
256.53125
20
-45.1
42
0.4142136
0
VERTEX
8
0
10
257.03125
20
-44.6
0
VERTEX
8
0
10
257.03125
20
-31.6
42
0.4142136
0
VERTEX
8
0
10
256.53125
20
-31.1
0
VERTEX
8
0
10
243.53125
20
-31.1
42
0.4142136
0
VERTEX
8
0
10
243.03125
20
-31.6
0
SEQEND
0
POLYLINE
8
0
6
CONTINUOUS
66
1
70
1
0
VERTEX
8
0
10
4.90625
20
-63.65
42
0.4142136
0
VERTEX
8
0
10
5.40625
20
-64.15
0
VERTEX
8
0
10
18.40625
20
-64.15
42
0.4142136
0
VERTEX
8
0
10
18.90625
20
-63.65
0
VERTEX
8
0
10
18.90625
20
-50.65
42
0.4142136
0
VERTEX
8
0
10
18.40625
20
-50.15
0
VERTEX
8
0
10
5.40625
20
-50.15
42
0.4142136
0
VERTEX
8
0
10
4.90625
20
-50.65
0
SEQEND
0
POLYLINE
8
0
6
CONTINUOUS
66
1
70
1
0
VERTEX
8
0
10
35.8625
20
-63.65
42
0.4142136
0
VERTEX
8
0
10
36.3625
20
-64.15
0
VERTEX
8
0
10
49.3625
20
-64.15
42
0.4142136
0
VERTEX
8
0
10
49.8625
20
-63.65
0
VERTEX
8
0
10
49.8625
20
-50.65
42
0.4142136
0
VERTEX
8
0
10
49.3625
20
-50.15
0
VERTEX
8
0
10
36.3625
20
-50.15
42
0.4142136
0
VERTEX
8
0
10
35.8625
20
-50.65
0
SEQEND
0
POLYLINE
8
0
6
CONTINUOUS
66
1
70
1
0
VERTEX
8
0
10
54.9125
20
-63.65
42
0.4142136
0
VERTEX
8
0
10
55.4125
20
-64.15
0
VERTEX
8
0
10
68.4125
20
-64.15
42
0.4142136
0
VERTEX
8
0
10
68.9125
20
-63.65
0
VERTEX
8
0
10
68.9125
20
-50.65
42
0.4142136
0
VERTEX
8
0
10
68.4125
20
-50.15
0
VERTEX
8
0
10
55.4125
20
-50.15
42
0.4142136
0
VERTEX
8
0
10
54.9125
20
-50.65
0
SEQEND
0
POLYLINE
8
0
6
CONTINUOUS
66
1
70
1
0
VERTEX
8
0
10
73.9625
20
-63.65
42
0.4142136
0
VERTEX
8
0
10
74.4625
20
-64.15
0
VERTEX
8
0
10
87.4625
20
-64.15
42
0.4142136
0
VERTEX
8
0
10
87.9625
20
-63.65
0
VERTEX
8
0
10
87.9625
20
-50.65
42
0.4142136
0
VERTEX
8
0
10
87.4625
20
-50.15
0
VERTEX
8
0
10
74.4625
20
-50.15
42
0.4142136
0
VERTEX
8
0
10
73.9625
20
-50.65
0
SEQEND
0
POLYLINE
8
0
6
CONTINUOUS
66
1
70
1
0
VERTEX
8
0
10
93.0125
20
-63.65
42
0.4142136
0
VERTEX
8
0
10
93.5125
20
-64.15
0
VERTEX
8
0
10
106.5125
20
-64.15
42
0.4142136
0
VERTEX
8
0
10
107.0125
20
-63.65
0
VERTEX
8
0
10
107.0125
20
-50.65
42
0.4142136
0
VERTEX
8
0
10
106.5125
20
-50.15
0
VERTEX
8
0
10
93.5125
20
-50.15
42
0.4142136
0
VERTEX
8
0
10
93.0125
20
-50.65
0
SEQEND
0
POLYLINE
8
0
6
CONTINUOUS
66
1
70
1
0
VERTEX
8
0
10
112.0625
20
-63.65
42
0.4142136
0
VERTEX
8
0
10
112.5625
20
-64.15
0
VERTEX
8
0
10
125.5625
20
-64.15
42
0.4142136
0
VERTEX
8
0
10
126.0625
20
-63.65
0
VERTEX
8
0
10
126.0625
20
-50.65
42
0.4142136
0
VERTEX
8
0
10
125.5625
20
-50.15
0
VERTEX
8
0
10
112.5625
20
-50.15
42
0.4142136
0
VERTEX
8
0
10
112.0625
20
-50.65
0
SEQEND
0
POLYLINE
8
0
6
CONTINUOUS
66
1
70
1
0
VERTEX
8
0
10
131.1125
20
-63.65
42
0.4142136
0
VERTEX
8
0
10
131.6125
20
-64.15
0
VERTEX
8
0
10
144.6125
20
-64.15
42
0.4142136
0
VERTEX
8
0
10
145.1125
20
-63.65
0
VERTEX
8
0
10
145.1125
20
-50.65
42
0.4142136
0
VERTEX
8
0
10
144.6125
20
-50.15
0
VERTEX
8
0
10
131.6125
20
-50.15
42
0.4142136
0
VERTEX
8
0
10
131.1125
20
-50.65
0
SEQEND
0
POLYLINE
8
0
6
CONTINUOUS
66
1
70
1
0
VERTEX
8
0
10
150.1625
20
-63.65
42
0.4142136
0
VERTEX
8
0
10
150.6625
20
-64.15
0
VERTEX
8
0
10
163.6625
20
-64.15
42
0.4142136
0
VERTEX
8
0
10
164.1625
20
-63.65
0
VERTEX
8
0
10
164.1625
20
-50.65
42
0.4142136
0
VERTEX
8
0
10
163.6625
20
-50.15
0
VERTEX
8
0
10
150.6625
20
-50.15
42
0.4142136
0
VERTEX
8
0
10
150.1625
20
-50.65
0
SEQEND
0
POLYLINE
8
0
6
CONTINUOUS
66
1
70
1
0
VERTEX
8
0
10
169.2125
20
-63.65
42
0.4142136
0
VERTEX
8
0
10
169.7125
20
-64.15
0
VERTEX
8
0
10
182.7125
20
-64.15
42
0.4142136
0
VERTEX
8
0
10
183.2125
20
-63.65
0
VERTEX
8
0
10
183.2125
20
-50.65
42
0.4142136
0
VERTEX
8
0
10
182.7125
20
-50.15
0
VERTEX
8
0
10
169.7125
20
-50.15
42
0.4142136
0
VERTEX
8
0
10
169.2125
20
-50.65
0
SEQEND
0
POLYLINE
8
0
6
CONTINUOUS
66
1
70
1
0
VERTEX
8
0
10
188.2625
20
-63.65
42
0.4142136
0
VERTEX
8
0
10
188.7625
20
-64.15
0
VERTEX
8
0
10
201.7625
20
-64.15
42
0.4142136
0
VERTEX
8
0
10
202.2625
20
-63.65
0
VERTEX
8
0
10
202.2625
20
-50.65
42
0.4142136
0
VERTEX
8
0
10
201.7625
20
-50.15
0
VERTEX
8
0
10
188.7625
20
-50.15
42
0.4142136
0
VERTEX
8
0
10
188.2625
20
-50.65
0
SEQEND
0
POLYLINE
8
0
6
CONTINUOUS
66
1
70
1
0
VERTEX
8
0
10
207.3125
20
-63.65
42
0.4142136
0
VERTEX
8
0
10
207.8125
20
-64.15
0
VERTEX
8
0
10
220.8125
20
-64.15
42
0.4142136
0
VERTEX
8
0
10
221.3125
20
-63.65
0
VERTEX
8
0
10
221.3125
20
-50.65
42
0.4142136
0
VERTEX
8
0
10
220.8125
20
-50.15
0
VERTEX
8
0
10
207.8125
20
-50.15
42
0.4142136
0
VERTEX
8
0
10
207.3125
20
-50.65
0
SEQEND
0
POLYLINE
8
0
6
CONTINUOUS
66
1
70
1
0
VERTEX
8
0
10
238.26875
20
-63.65
42
0.4142136
0
VERTEX
8
0
10
238.76875
20
-64.15
0
VERTEX
8
0
10
251.76875
20
-64.15
42
0.4142136
0
VERTEX
8
0
10
252.26875
20
-63.65
0
VERTEX
8
0
10
252.26875
20
-50.65
42
0.4142136
0
VERTEX
8
0
10
251.76875
20
-50.15
0
VERTEX
8
0
10
238.76875
20
-50.15
42
0.4142136
0
VERTEX
8
0
10
238.26875
20
-50.65
0
SEQEND
0
POLYLINE
8
0
6
CONTINUOUS
66
1
70
1
0
VERTEX
8
0
10
269.225
20
-63.65
42
0.4142136
0
VERTEX
8
0
10
269.725
20
-64.15
0
VERTEX
8
0
10
282.725
20
-64.15
42
0.4142136
0
VERTEX
8
0
10
283.225
20
-63.65
0
VERTEX
8
0
10
283.225
20
-50.65
42
0.4142136
0
VERTEX
8
0
10
282.725
20
-50.15
0
VERTEX
8
0
10
269.725
20
-50.15
42
0.4142136
0
VERTEX
8
0
10
269.225
20
-50.65
0
SEQEND
0
POLYLINE
8
0
6
CONTINUOUS
66
1
70
1
0
VERTEX
8
0
10
-4.61875
20
-82.7
42
0.4142136
0
VERTEX
8
0
10
-4.11875
20
-83.2
0
VERTEX
8
0
10
8.88125
20
-83.2
42
0.4142136
0
VERTEX
8
0
10
9.38125
20
-82.7
0
VERTEX
8
0
10
9.38125
20
-69.7
42
0.4142136
0
VERTEX
8
0
10
8.88125
20
-69.2
0
VERTEX
8
0
10
-4.11875
20
-69.2
42
0.4142136
0
VERTEX
8
0
10
-4.61875
20
-69.7
0
SEQEND
0
POLYLINE
8
0
6
CONTINUOUS
66
1
70
1
0
VERTEX
8
0
10
26.3375
20
-82.7
42
0.4142136
0
VERTEX
8
0
10
26.8375
20
-83.2
0
VERTEX
8
0
10
39.8375
20
-83.2
42
0.4142136
0
VERTEX
8
0
10
40.3375
20
-82.7
0
VERTEX
8
0
10
40.3375
20
-69.7
42
0.4142136
0
VERTEX
8
0
10
39.8375
20
-69.2
0
VERTEX
8
0
10
26.8375
20
-69.2
42
0.4142136
0
VERTEX
8
0
10
26.3375
20
-69.7
0
SEQEND
0
POLYLINE
8
0
6
CONTINUOUS
66
1
70
1
0
VERTEX
8
0
10
112.0625
20
-82.7
42
0.4142136
0
VERTEX
8
0
10
112.5625
20
-83.2
0
VERTEX
8
0
10
125.5625
20
-83.2
42
0.4142136
0
VERTEX
8
0
10
126.0625
20
-82.7
0
VERTEX
8
0
10
126.0625
20
-69.7
42
0.4142136
0
VERTEX
8
0
10
125.5625
20
-69.2
0
VERTEX
8
0
10
112.5625
20
-69.2
42
0.4142136
0
VERTEX
8
0
10
112.0625
20
-69.7
0
SEQEND
0
POLYLINE
8
0
6
CONTINUOUS
66
1
70
1
0
VERTEX
8
0
10
197.7875
20
-82.7
42
0.4142136
0
VERTEX
8
0
10
198.2875
20
-83.2
0
VERTEX
8
0
10
211.2875
20
-83.2
42
0.4142136
0
VERTEX
8
0
10
211.7875
20
-82.7
0
VERTEX
8
0
10
211.7875
20
-69.7
42
0.4142136
0
VERTEX
8
0
10
211.2875
20
-69.2
0
VERTEX
8
0
10
198.2875
20
-69.2
42
0.4142136
0
VERTEX
8
0
10
197.7875
20
-69.7
0
SEQEND
0
POLYLINE
8
0
6
CONTINUOUS
66
1
70
1
0
VERTEX
8
0
10
228.74375
20
-82.7
42
0.4142136
0
VERTEX
8
0
10
229.24375
20
-83.2
0
VERTEX
8
0
10
242.24375
20
-83.2
42
0.4142136
0
VERTEX
8
0
10
242.74375
20
-82.7
0
VERTEX
8
0
10
242.74375
20
-69.7
42
0.4142136
0
VERTEX
8
0
10
242.24375
20
-69.2
0
VERTEX
8
0
10
229.24375
20
-69.2
42
0.4142136
0
VERTEX
8
0
10
228.74375
20
-69.7
0
SEQEND
0
POLYLINE
8
0
6
CONTINUOUS
66
1
70
1
0
VERTEX
8
0
10
250.175
20
-82.7
42
0.4142136
0
VERTEX
8
0
10
250.675
20
-83.2
0
VERTEX
8
0
10
263.675
20
-83.2
42
0.4142136
0
VERTEX
8
0
10
264.175
20
-82.7
0
VERTEX
8
0
10
264.175
20
-69.7
42
0.4142136
0
VERTEX
8
0
10
263.675
20
-69.2
0
VERTEX
8
0
10
250.675
20
-69.2
42
0.4142136
0
VERTEX
8
0
10
250.175
20
-69.7
0
SEQEND
0
POLYLINE
8
0
6
CONTINUOUS
66
1
70
1
0
VERTEX
8
0
10
269.225
20
-82.7
42
0.4142136
0
VERTEX
8
0
10
269.725
20
-83.2
0
VERTEX
8
0
10
282.725
20
-83.2
42
0.4142136
0
VERTEX
8
0
10
283.225
20
-82.7
0
VERTEX
8
0
10
283.225
20
-69.7
42
0.4142136
0
VERTEX
8
0
10
282.725
20
-69.2
0
VERTEX
8
0
10
269.725
20
-69.2
42
0.4142136
0
VERTEX
8
0
10
269.225
20
-69.7
0
SEQEND
0
POLYLINE
8
0
6
CONTINUOUS
66
1
70
1
0
VERTEX
8
0
10
288.275
20
-82.7
42
0.4142136
0
VERTEX
8
0
10
288.775
20
-83.2
0
VERTEX
8
0
10
301.775
20
-83.2
42
0.4142136
0
VERTEX
8
0
10
302.275
20
-82.7
0
VERTEX
8
0
10
302.275
20
-69.7
42
0.4142136
0
VERTEX
8
0
10
301.775
20
-69.2
0
VERTEX
8
0
10
288.775
20
-69.2
42
0.4142136
0
VERTEX
8
0
10
288.275
20
-69.7
0
SEQEND
0
POLYLINE
8
0
6
CONTINUOUS
66
1
70
1
0
VERTEX
8
0
10
-3.53175
20
-65.65
42
0.4142136
0
VERTEX
8
0
10
-3.03175
20
-66.15
0
VERTEX
8
0
10
2.96825
20
-66.15
42
0.4142136
0
VERTEX
8
0
10
3.46825
20
-65.65
0
VERTEX
8
0
10
3.46825
20
-51.65
42
0.4142136
0
VERTEX
8
0
10
2.96825
20
-51.15
0
VERTEX
8
0
10
-3.03175
20
-51.15
42
0.4142136
0
VERTEX
8
0
10
-3.53175
20
-51.65
0
SEQEND
0
POLYLINE
8
0
6
CONTINUOUS
66
1
70
1
0
VERTEX
8
0
10
20.34425
20
-65.65
42
0.4142136
0
VERTEX
8
0
10
20.84425
20
-66.15
0
VERTEX
8
0
10
26.84425
20
-66.15
42
0.4142136
0
VERTEX
8
0
10
27.34425
20
-65.65
0
VERTEX
8
0
10
27.34425
20
-51.65
42
0.4142136
0
VERTEX
8
0
10
26.84425
20
-51.15
0
VERTEX
8
0
10
20.84425
20
-51.15
42
0.4142136
0
VERTEX
8
0
10
20.34425
20
-51.65
0
SEQEND
0
POLYLINE
8
0
6
CONTINUOUS
66
1
70
1
0
VERTEX
8
0
10
229.83075
20
-65.65
42
0.4142136
0
VERTEX
8
0
10
230.33075
20
-66.15
0
VERTEX
8
0
10
236.33075
20
-66.15
42
0.4142136
0
VERTEX
8
0
10
236.83075
20
-65.65
0
VERTEX
8
0
10
236.83075
20
-51.65
42
0.4142136
0
VERTEX
8
0
10
236.33075
20
-51.15
0
VERTEX
8
0
10
230.33075
20
-51.15
42
0.4142136
0
VERTEX
8
0
10
229.83075
20
-51.65
0
SEQEND
0
POLYLINE
8
0
6
CONTINUOUS
66
1
70
1
0
VERTEX
8
0
10
253.70675
20
-65.65
42
0.4142136
0
VERTEX
8
0
10
254.20675
20
-66.15
0
VERTEX
8
0
10
260.20675
20
-66.15
42
0.4142136
0
VERTEX
8
0
10
260.70675
20
-65.65
0
VERTEX
8
0
10
260.70675
20
-51.65
42
0.4142136
0
VERTEX
8
0
10
260.20675
20
-51.15
0
VERTEX
8
0
10
254.20675
20
-51.15
42
0.4142136
0
VERTEX
8
0
10
253.70675
20
-51.65
0
SEQEND
0
POLYLINE
8
0
6
CONTINUOUS
66
1
70
1
0
VERTEX
8
0
10
17.8995
20
-84.7
42
0.4142136
0
VERTEX
8
0
10
18.3995
20
-85.2
0
VERTEX
8
0
10
24.3995
20
-85.2
42
0.4142136
0
VERTEX
8
0
10
24.8995
20
-84.7
0
VERTEX
8
0
10
24.8995
20
-70.7
42
0.4142136
0
VERTEX
8
0
10
24.3995
20
-70.2
0
VERTEX
8
0
10
18.3995
20
-70.2
42
0.4142136
0
VERTEX
8
0
10
17.8995
20
-70.7
0
SEQEND
0
POLYLINE
8
0
6
CONTINUOUS
66
1
70
1
0
VERTEX
8
0
10
41.7755
20
-84.7
42
0.4142136
0
VERTEX
8
0
10
42.2755
20
-85.2
0
VERTEX
8
0
10
48.2755
20
-85.2
42
0.4142136
0
VERTEX
8
0
10
48.7755
20
-84.7
0
VERTEX
8
0
10
48.7755
20
-70.7
42
0.4142136
0
VERTEX
8
0
10
48.2755
20
-70.2
0
VERTEX
8
0
10
42.2755
20
-70.2
42
0.4142136
0
VERTEX
8
0
10
41.7755
20
-70.7
0
SEQEND
0
POLYLINE
8
0
6
CONTINUOUS
66
1
70
1
0
VERTEX
8
0
10
58.4125
20
-84.7
42
0.4142136
0
VERTEX
8
0
10
58.9125
20
-85.2
0
VERTEX
8
0
10
64.9125
20
-85.2
42
0.4142136
0
VERTEX
8
0
10
65.4125
20
-84.7
0
VERTEX
8
0
10
65.4125
20
-70.7
42
0.4142136
0
VERTEX
8
0
10
64.9125
20
-70.2
0
VERTEX
8
0
10
58.9125
20
-70.2
42
0.4142136
0
VERTEX
8
0
10
58.4125
20
-70.7
0
SEQEND
0
POLYLINE
8
0
6
CONTINUOUS
66
1
70
1
0
VERTEX
8
0
10
172.7125
20
-84.7
42
0.4142136
0
VERTEX
8
0
10
173.2125
20
-85.2
0
VERTEX
8
0
10
179.2125
20
-85.2
42
0.4142136
0
VERTEX
8
0
10
179.7125
20
-84.7
0
VERTEX
8
0
10
179.7125
20
-70.7
42
0.4142136
0
VERTEX
8
0
10
179.2125
20
-70.2
0
VERTEX
8
0
10
173.2125
20
-70.2
42
0.4142136
0
VERTEX
8
0
10
172.7125
20
-70.7
0
SEQEND
0
POLYLINE
8
0
6
CONTINUOUS
66
1
70
1
0
VERTEX
8
0
10
189.3495
20
-84.7
42
0.4142136
0
VERTEX
8
0
10
189.8495
20
-85.2
0
VERTEX
8
0
10
195.8495
20
-85.2
42
0.4142136
0
VERTEX
8
0
10
196.3495
20
-84.7
0
VERTEX
8
0
10
196.3495
20
-70.7
42
0.4142136
0
VERTEX
8
0
10
195.8495
20
-70.2
0
VERTEX
8
0
10
189.8495
20
-70.2
42
0.4142136
0
VERTEX
8
0
10
189.3495
20
-70.7
0
SEQEND
0
POLYLINE
8
0
6
CONTINUOUS
66
1
70
1
0
VERTEX
8
0
10
213.2255
20
-84.7
42
0.4142136
0
VERTEX
8
0
10
213.7255
20
-85.2
0
VERTEX
8
0
10
219.7255
20
-85.2
42
0.4142136
0
VERTEX
8
0
10
220.2255
20
-84.7
0
VERTEX
8
0
10
220.2255
20
-70.7
42
0.4142136
0
VERTEX
8
0
10
219.7255
20
-70.2
0
VERTEX
8
0
10
213.7255
20
-70.2
42
0.4142136
0
VERTEX
8
0
10
213.2255
20
-70.7
0
SEQEND
0
POLYLINE
8
outline
6
CONTINUOUS
66
1
70
1
0
VERTEX
8
outline
10
-12
20
-89.2
42
0.4142136
0
VERTEX
8
outline
10
-11
20
-90.2
0
VERTEX
8
outline
10
306.275
20
-90.2
42
0.4142136
0
VERTEX
8
outline
10
307.275
20
-89.2
0
VERTEX
8
outline
10
307.275
20
11
42
0.4142136
0
VERTEX
8
outline
10
306.275
20
12
0
VERTEX
8
outline
10
-11
20
12
42
0.4142136
0
VERTEX
8
outline
10
-12
20
11
0
SEQEND
0
ENDSEC
0
EOF