M48
; DRILL file KiCad 10.0.4 date 2026-07-24T12:45:12
; FORMAT={-:-/ absolute / metric / decimal}
; #@! TF.CreationDate,2026-07-24T12:45:12+05:30
; #@! TF.GenerationSoftware,Kicad,Pcbnew,10.0.4
; #@! TF.FileFunction,Plated,1,2,PTH
FMAT,2
METRIC
; #@! TA.AperFunction,Plated,PTH,ComponentDrill
T1C0.800
; #@! TA.AperFunction,Plated,PTH,ComponentDrill
T2C1.000
; #@! TA.AperFunction,Plated,PTH,ComponentDrill
T3C1.524
%
G90
G05
T1
X18.098Y-249.714
X18.098Y-257.334
X21.431Y-325.914
X21.431Y-333.534
X22.86Y-268.764
X22.86Y-276.384
X25.241Y-287.814
X25.241Y-295.434
X37.148Y-249.714
X37.148Y-257.334
X40.481Y-306.864
X40.481Y-314.484
X46.672Y-268.764
X46.672Y-276.384
X51.435Y-287.814
X51.435Y-295.434
X56.197Y-249.714
X56.197Y-257.334
X59.531Y-325.914
X59.531Y-333.534
X60.96Y-306.864
X60.96Y-314.484
X65.722Y-268.764
X65.722Y-276.384
X70.485Y-287.814
X70.485Y-295.434
X75.248Y-249.714
X75.248Y-257.334
X80.01Y-306.864
X80.01Y-314.484
X84.772Y-268.764
X84.772Y-276.384
X89.535Y-287.814
X89.535Y-295.434
X94.297Y-249.714
X94.297Y-257.334
X99.06Y-306.864
X99.06Y-314.484
X103.822Y-268.764
X103.822Y-276.384
X108.585Y-287.814
X108.585Y-295.434
X113.347Y-249.714
X113.347Y-257.334
X118.11Y-306.864
X118.11Y-314.484
X122.872Y-268.764
X122.872Y-276.384
X127.635Y-287.814
X127.635Y-295.434
X132.398Y-249.714
X132.398Y-257.334
X137.16Y-306.864
X137.16Y-314.484
X137.16Y-325.914
X137.16Y-333.534
X141.922Y-268.764
X141.922Y-276.384
X146.685Y-287.814
X146.685Y-295.434
X151.447Y-249.714
X151.447Y-257.334
X156.21Y-306.864
X156.21Y-314.484
X160.972Y-268.764
X160.972Y-276.384
X165.735Y-287.814
X165.735Y-295.434
X170.498Y-249.714
X170.498Y-257.334
X175.26Y-306.864
X175.26Y-314.484
X180.022Y-268.764
X180.022Y-276.384
X184.785Y-287.814
X184.785Y-295.434
X189.547Y-249.714
X189.547Y-257.334
X194.31Y-306.864
X194.31Y-314.484
X199.072Y-268.764
X199.072Y-276.384
X203.835Y-287.814
X203.835Y-295.434
X208.597Y-249.714
X208.597Y-257.334
X213.36Y-306.864
X213.36Y-314.484
X218.123Y-268.764
X218.123Y-276.384
X222.885Y-287.814
X222.885Y-295.434
X222.885Y-325.914
X222.885Y-333.534
X227.647Y-249.714
X227.647Y-257.334
X232.41Y-306.864
X232.41Y-314.484
X237.172Y-268.764
X237.172Y-276.384
X241.935Y-287.814
X241.935Y-295.434
X246.697Y-249.714
X246.697Y-257.334
X253.841Y-325.914
X253.841Y-333.534
X256.222Y-268.764
X256.222Y-276.384
X269.081Y-287.814
X269.081Y-295.434
X270.51Y-249.714
X270.51Y-257.334
X273.844Y-306.705
X273.844Y-314.325
X275.272Y-268.764
X275.272Y-276.384
X275.272Y-325.914
X275.272Y-333.534
X294.322Y-306.864
X294.322Y-314.484
X294.322Y-325.914
X294.322Y-333.534
X313.373Y-325.914
X313.373Y-333.534
T2
X291.957Y-245.451
X291.957Y-263.231
X294.498Y-245.451
X294.498Y-263.231
X297.037Y-245.451
X297.037Y-263.231
X299.577Y-245.451
X299.577Y-263.231
X302.118Y-245.451
X302.118Y-263.231
X304.657Y-245.451
X304.657Y-263.231
X307.197Y-245.451
X307.197Y-263.231
X309.738Y-245.451
X309.738Y-263.231
X312.277Y-245.451
X312.277Y-263.231
X314.817Y-245.451
X314.817Y-263.231
X317.357Y-245.451
X317.357Y-263.231
X319.897Y-245.451
X319.897Y-263.231
X322.438Y-245.451
X322.438Y-263.231
X324.977Y-245.451
X324.977Y-263.231
X327.517Y-245.451
X327.517Y-263.231
X330.058Y-245.451
X330.058Y-263.231
X332.597Y-245.451
X332.597Y-263.231
X335.137Y-245.451
X335.137Y-263.231
X337.678Y-245.451
X337.678Y-263.231
X340.217Y-245.451
X340.217Y-263.231
T3
X4.763Y-250.031
X7.144Y-326.231
X9.525Y-269.081
X11.112Y-247.491
X11.906Y-288.131
X13.494Y-323.691
X15.875Y-266.541
X16.669Y-307.181
X18.256Y-285.591
X23.019Y-304.641
X23.812Y-250.031
X30.162Y-247.491
X33.337Y-269.081
X38.1Y-288.131
X38.1Y-326.231
X39.688Y-266.541
X42.862Y-250.031
X44.45Y-285.591
X44.45Y-323.691
X47.625Y-307.181
X49.212Y-247.491
X52.387Y-269.081
X53.975Y-304.641
X57.15Y-288.131
X58.737Y-266.541
X61.912Y-250.031
X63.5Y-285.591
X66.675Y-307.181
X68.263Y-247.491
X71.438Y-269.081
X73.025Y-304.641
X76.2Y-288.131
X77.787Y-266.541
X80.962Y-250.031
X82.55Y-285.591
X85.725Y-307.181
X87.312Y-247.491
X90.487Y-269.081
X92.075Y-304.641
X95.25Y-288.131
X96.837Y-266.541
X100.012Y-250.031
X101.6Y-285.591
X104.775Y-307.181
X106.362Y-247.491
X109.537Y-269.081
X111.125Y-304.641
X114.3Y-288.131
X115.887Y-266.541
X119.062Y-250.031
X120.65Y-285.591
X123.825Y-307.181
X123.825Y-326.231
X125.412Y-247.491
X128.588Y-269.081
X130.175Y-304.641
X130.175Y-323.691
X133.35Y-288.131
X134.938Y-266.541
X138.112Y-250.031
X139.7Y-285.591
X142.875Y-307.181
X144.463Y-247.491
X147.637Y-269.081
X149.225Y-304.641
X152.4Y-288.131
X153.987Y-266.541
X157.162Y-250.031
X158.75Y-285.591
X161.925Y-307.181
X163.512Y-247.491
X166.688Y-269.081
X168.275Y-304.641
X171.45Y-288.131
X173.037Y-266.541
X176.213Y-250.031
X177.8Y-285.591
X180.975Y-307.181
X182.562Y-247.491
X185.737Y-269.081
X187.325Y-304.641
X190.5Y-288.131
X192.087Y-266.541
X195.262Y-250.031
X196.85Y-285.591
X200.025Y-307.181
X201.612Y-247.491
X204.787Y-269.081
X206.375Y-304.641
X209.55Y-288.131
X209.55Y-326.231
X211.137Y-266.541
X214.312Y-250.031
X215.9Y-285.591
X215.9Y-323.691
X219.075Y-307.181
X220.662Y-247.491
X223.837Y-269.081
X225.425Y-304.641
X228.6Y-288.131
X230.188Y-266.541
X233.362Y-250.031
X234.95Y-285.591
X239.712Y-247.491
X240.506Y-326.231
X242.887Y-269.081
X246.856Y-323.691
X249.237Y-266.541
X250.031Y-307.181
X254.794Y-288.131
X256.381Y-304.641
X257.175Y-250.031
X261.144Y-285.591
X261.938Y-269.081
X261.938Y-326.231
X263.525Y-247.491
X268.287Y-266.541
X268.287Y-323.691
X280.988Y-307.181
X280.988Y-326.231
X287.337Y-304.641
X287.337Y-323.691
X300.037Y-326.231
X306.387Y-323.691
M30
