%TF.GenerationSoftware,KiCad,Pcbnew,10.0.4*%
%TF.CreationDate,2026-07-24T12:44:57+05:30*%
%TF.ProjectId,Keeb,4b656562-2e6b-4696-9361-645f70636258,rev?*%
%TF.SameCoordinates,Original*%
%TF.FileFunction,Legend,Top*%
%TF.FilePolarity,Positive*%
%FSLAX46Y46*%
G04 Gerber Fmt 4.6, Leading zero omitted, Abs format (unit mm)*
G04 Created by KiCad (PCBNEW 10.0.4) date 2026-07-24 12:44:57*
%MOMM*%
%LPD*%
G01*
G04 APERTURE LIST*
%ADD10C,0.150000*%
%ADD11C,0.120000*%
G04 APERTURE END LIST*
D10*
X332613095Y-214279819D02*
X332613095Y-213279819D01*
X332613095Y-213756009D02*
X333184523Y-213756009D01*
X333184523Y-214279819D02*
X333184523Y-213279819D01*
X333565476Y-213279819D02*
X334184523Y-213279819D01*
X334184523Y-213279819D02*
X333851190Y-213660771D01*
X333851190Y-213660771D02*
X333994047Y-213660771D01*
X333994047Y-213660771D02*
X334089285Y-213708390D01*
X334089285Y-213708390D02*
X334136904Y-213756009D01*
X334136904Y-213756009D02*
X334184523Y-213851247D01*
X334184523Y-213851247D02*
X334184523Y-214089342D01*
X334184523Y-214089342D02*
X334136904Y-214184580D01*
X334136904Y-214184580D02*
X334089285Y-214232200D01*
X334089285Y-214232200D02*
X333994047Y-214279819D01*
X333994047Y-214279819D02*
X333708333Y-214279819D01*
X333708333Y-214279819D02*
X333613095Y-214232200D01*
X333613095Y-214232200D02*
X333565476Y-214184580D01*
X216457319Y-273788035D02*
X215457319Y-273788035D01*
X215457319Y-273788035D02*
X215457319Y-273549940D01*
X215457319Y-273549940D02*
X215504938Y-273407083D01*
X215504938Y-273407083D02*
X215600176Y-273311845D01*
X215600176Y-273311845D02*
X215695414Y-273264226D01*
X215695414Y-273264226D02*
X215885890Y-273216607D01*
X215885890Y-273216607D02*
X216028747Y-273216607D01*
X216028747Y-273216607D02*
X216219223Y-273264226D01*
X216219223Y-273264226D02*
X216314461Y-273311845D01*
X216314461Y-273311845D02*
X216409700Y-273407083D01*
X216409700Y-273407083D02*
X216457319Y-273549940D01*
X216457319Y-273549940D02*
X216457319Y-273788035D01*
X215552557Y-272835654D02*
X215504938Y-272788035D01*
X215504938Y-272788035D02*
X215457319Y-272692797D01*
X215457319Y-272692797D02*
X215457319Y-272454702D01*
X215457319Y-272454702D02*
X215504938Y-272359464D01*
X215504938Y-272359464D02*
X215552557Y-272311845D01*
X215552557Y-272311845D02*
X215647795Y-272264226D01*
X215647795Y-272264226D02*
X215743033Y-272264226D01*
X215743033Y-272264226D02*
X215885890Y-272311845D01*
X215885890Y-272311845D02*
X216457319Y-272883273D01*
X216457319Y-272883273D02*
X216457319Y-272264226D01*
X215457319Y-271359464D02*
X215457319Y-271835654D01*
X215457319Y-271835654D02*
X215933509Y-271883273D01*
X215933509Y-271883273D02*
X215885890Y-271835654D01*
X215885890Y-271835654D02*
X215838271Y-271740416D01*
X215838271Y-271740416D02*
X215838271Y-271502321D01*
X215838271Y-271502321D02*
X215885890Y-271407083D01*
X215885890Y-271407083D02*
X215933509Y-271359464D01*
X215933509Y-271359464D02*
X216028747Y-271311845D01*
X216028747Y-271311845D02*
X216266842Y-271311845D01*
X216266842Y-271311845D02*
X216362080Y-271359464D01*
X216362080Y-271359464D02*
X216409700Y-271407083D01*
X216409700Y-271407083D02*
X216457319Y-271502321D01*
X216457319Y-271502321D02*
X216457319Y-271740416D01*
X216457319Y-271740416D02*
X216409700Y-271835654D01*
X216409700Y-271835654D02*
X216362080Y-271883273D01*
X216777319Y-276645654D02*
X215777319Y-276645654D01*
X216777319Y-276074226D02*
X216205890Y-276502797D01*
X215777319Y-276074226D02*
X216348747Y-276645654D01*
X197407319Y-273788035D02*
X196407319Y-273788035D01*
X196407319Y-273788035D02*
X196407319Y-273549940D01*
X196407319Y-273549940D02*
X196454938Y-273407083D01*
X196454938Y-273407083D02*
X196550176Y-273311845D01*
X196550176Y-273311845D02*
X196645414Y-273264226D01*
X196645414Y-273264226D02*
X196835890Y-273216607D01*
X196835890Y-273216607D02*
X196978747Y-273216607D01*
X196978747Y-273216607D02*
X197169223Y-273264226D01*
X197169223Y-273264226D02*
X197264461Y-273311845D01*
X197264461Y-273311845D02*
X197359700Y-273407083D01*
X197359700Y-273407083D02*
X197407319Y-273549940D01*
X197407319Y-273549940D02*
X197407319Y-273788035D01*
X196502557Y-272835654D02*
X196454938Y-272788035D01*
X196454938Y-272788035D02*
X196407319Y-272692797D01*
X196407319Y-272692797D02*
X196407319Y-272454702D01*
X196407319Y-272454702D02*
X196454938Y-272359464D01*
X196454938Y-272359464D02*
X196502557Y-272311845D01*
X196502557Y-272311845D02*
X196597795Y-272264226D01*
X196597795Y-272264226D02*
X196693033Y-272264226D01*
X196693033Y-272264226D02*
X196835890Y-272311845D01*
X196835890Y-272311845D02*
X197407319Y-272883273D01*
X197407319Y-272883273D02*
X197407319Y-272264226D01*
X196740652Y-271407083D02*
X197407319Y-271407083D01*
X196359700Y-271645178D02*
X197073985Y-271883273D01*
X197073985Y-271883273D02*
X197073985Y-271264226D01*
X197727319Y-276645654D02*
X196727319Y-276645654D01*
X197727319Y-276074226D02*
X197155890Y-276502797D01*
X196727319Y-276074226D02*
X197298747Y-276645654D01*
X192644819Y-311888035D02*
X191644819Y-311888035D01*
X191644819Y-311888035D02*
X191644819Y-311649940D01*
X191644819Y-311649940D02*
X191692438Y-311507083D01*
X191692438Y-311507083D02*
X191787676Y-311411845D01*
X191787676Y-311411845D02*
X191882914Y-311364226D01*
X191882914Y-311364226D02*
X192073390Y-311316607D01*
X192073390Y-311316607D02*
X192216247Y-311316607D01*
X192216247Y-311316607D02*
X192406723Y-311364226D01*
X192406723Y-311364226D02*
X192501961Y-311411845D01*
X192501961Y-311411845D02*
X192597200Y-311507083D01*
X192597200Y-311507083D02*
X192644819Y-311649940D01*
X192644819Y-311649940D02*
X192644819Y-311888035D01*
X191644819Y-310411845D02*
X191644819Y-310888035D01*
X191644819Y-310888035D02*
X192121009Y-310935654D01*
X192121009Y-310935654D02*
X192073390Y-310888035D01*
X192073390Y-310888035D02*
X192025771Y-310792797D01*
X192025771Y-310792797D02*
X192025771Y-310554702D01*
X192025771Y-310554702D02*
X192073390Y-310459464D01*
X192073390Y-310459464D02*
X192121009Y-310411845D01*
X192121009Y-310411845D02*
X192216247Y-310364226D01*
X192216247Y-310364226D02*
X192454342Y-310364226D01*
X192454342Y-310364226D02*
X192549580Y-310411845D01*
X192549580Y-310411845D02*
X192597200Y-310459464D01*
X192597200Y-310459464D02*
X192644819Y-310554702D01*
X192644819Y-310554702D02*
X192644819Y-310792797D01*
X192644819Y-310792797D02*
X192597200Y-310888035D01*
X192597200Y-310888035D02*
X192549580Y-310935654D01*
X191644819Y-309745178D02*
X191644819Y-309649940D01*
X191644819Y-309649940D02*
X191692438Y-309554702D01*
X191692438Y-309554702D02*
X191740057Y-309507083D01*
X191740057Y-309507083D02*
X191835295Y-309459464D01*
X191835295Y-309459464D02*
X192025771Y-309411845D01*
X192025771Y-309411845D02*
X192263866Y-309411845D01*
X192263866Y-309411845D02*
X192454342Y-309459464D01*
X192454342Y-309459464D02*
X192549580Y-309507083D01*
X192549580Y-309507083D02*
X192597200Y-309554702D01*
X192597200Y-309554702D02*
X192644819Y-309649940D01*
X192644819Y-309649940D02*
X192644819Y-309745178D01*
X192644819Y-309745178D02*
X192597200Y-309840416D01*
X192597200Y-309840416D02*
X192549580Y-309888035D01*
X192549580Y-309888035D02*
X192454342Y-309935654D01*
X192454342Y-309935654D02*
X192263866Y-309983273D01*
X192263866Y-309983273D02*
X192025771Y-309983273D01*
X192025771Y-309983273D02*
X191835295Y-309935654D01*
X191835295Y-309935654D02*
X191740057Y-309888035D01*
X191740057Y-309888035D02*
X191692438Y-309840416D01*
X191692438Y-309840416D02*
X191644819Y-309745178D01*
X192964819Y-314745654D02*
X191964819Y-314745654D01*
X192964819Y-314174226D02*
X192393390Y-314602797D01*
X191964819Y-314174226D02*
X192536247Y-314745654D01*
X273607319Y-330938035D02*
X272607319Y-330938035D01*
X272607319Y-330938035D02*
X272607319Y-330699940D01*
X272607319Y-330699940D02*
X272654938Y-330557083D01*
X272654938Y-330557083D02*
X272750176Y-330461845D01*
X272750176Y-330461845D02*
X272845414Y-330414226D01*
X272845414Y-330414226D02*
X273035890Y-330366607D01*
X273035890Y-330366607D02*
X273178747Y-330366607D01*
X273178747Y-330366607D02*
X273369223Y-330414226D01*
X273369223Y-330414226D02*
X273464461Y-330461845D01*
X273464461Y-330461845D02*
X273559700Y-330557083D01*
X273559700Y-330557083D02*
X273607319Y-330699940D01*
X273607319Y-330699940D02*
X273607319Y-330938035D01*
X272607319Y-329509464D02*
X272607319Y-329699940D01*
X272607319Y-329699940D02*
X272654938Y-329795178D01*
X272654938Y-329795178D02*
X272702557Y-329842797D01*
X272702557Y-329842797D02*
X272845414Y-329938035D01*
X272845414Y-329938035D02*
X273035890Y-329985654D01*
X273035890Y-329985654D02*
X273416842Y-329985654D01*
X273416842Y-329985654D02*
X273512080Y-329938035D01*
X273512080Y-329938035D02*
X273559700Y-329890416D01*
X273559700Y-329890416D02*
X273607319Y-329795178D01*
X273607319Y-329795178D02*
X273607319Y-329604702D01*
X273607319Y-329604702D02*
X273559700Y-329509464D01*
X273559700Y-329509464D02*
X273512080Y-329461845D01*
X273512080Y-329461845D02*
X273416842Y-329414226D01*
X273416842Y-329414226D02*
X273178747Y-329414226D01*
X273178747Y-329414226D02*
X273083509Y-329461845D01*
X273083509Y-329461845D02*
X273035890Y-329509464D01*
X273035890Y-329509464D02*
X272988271Y-329604702D01*
X272988271Y-329604702D02*
X272988271Y-329795178D01*
X272988271Y-329795178D02*
X273035890Y-329890416D01*
X273035890Y-329890416D02*
X273083509Y-329938035D01*
X273083509Y-329938035D02*
X273178747Y-329985654D01*
X272702557Y-329033273D02*
X272654938Y-328985654D01*
X272654938Y-328985654D02*
X272607319Y-328890416D01*
X272607319Y-328890416D02*
X272607319Y-328652321D01*
X272607319Y-328652321D02*
X272654938Y-328557083D01*
X272654938Y-328557083D02*
X272702557Y-328509464D01*
X272702557Y-328509464D02*
X272797795Y-328461845D01*
X272797795Y-328461845D02*
X272893033Y-328461845D01*
X272893033Y-328461845D02*
X273035890Y-328509464D01*
X273035890Y-328509464D02*
X273607319Y-329080892D01*
X273607319Y-329080892D02*
X273607319Y-328461845D01*
X273927319Y-333795654D02*
X272927319Y-333795654D01*
X273927319Y-333224226D02*
X273355890Y-333652797D01*
X272927319Y-333224226D02*
X273498747Y-333795654D01*
X159307319Y-273788035D02*
X158307319Y-273788035D01*
X158307319Y-273788035D02*
X158307319Y-273549940D01*
X158307319Y-273549940D02*
X158354938Y-273407083D01*
X158354938Y-273407083D02*
X158450176Y-273311845D01*
X158450176Y-273311845D02*
X158545414Y-273264226D01*
X158545414Y-273264226D02*
X158735890Y-273216607D01*
X158735890Y-273216607D02*
X158878747Y-273216607D01*
X158878747Y-273216607D02*
X159069223Y-273264226D01*
X159069223Y-273264226D02*
X159164461Y-273311845D01*
X159164461Y-273311845D02*
X159259700Y-273407083D01*
X159259700Y-273407083D02*
X159307319Y-273549940D01*
X159307319Y-273549940D02*
X159307319Y-273788035D01*
X158402557Y-272835654D02*
X158354938Y-272788035D01*
X158354938Y-272788035D02*
X158307319Y-272692797D01*
X158307319Y-272692797D02*
X158307319Y-272454702D01*
X158307319Y-272454702D02*
X158354938Y-272359464D01*
X158354938Y-272359464D02*
X158402557Y-272311845D01*
X158402557Y-272311845D02*
X158497795Y-272264226D01*
X158497795Y-272264226D02*
X158593033Y-272264226D01*
X158593033Y-272264226D02*
X158735890Y-272311845D01*
X158735890Y-272311845D02*
X159307319Y-272883273D01*
X159307319Y-272883273D02*
X159307319Y-272264226D01*
X158402557Y-271883273D02*
X158354938Y-271835654D01*
X158354938Y-271835654D02*
X158307319Y-271740416D01*
X158307319Y-271740416D02*
X158307319Y-271502321D01*
X158307319Y-271502321D02*
X158354938Y-271407083D01*
X158354938Y-271407083D02*
X158402557Y-271359464D01*
X158402557Y-271359464D02*
X158497795Y-271311845D01*
X158497795Y-271311845D02*
X158593033Y-271311845D01*
X158593033Y-271311845D02*
X158735890Y-271359464D01*
X158735890Y-271359464D02*
X159307319Y-271930892D01*
X159307319Y-271930892D02*
X159307319Y-271311845D01*
X159627319Y-276645654D02*
X158627319Y-276645654D01*
X159627319Y-276074226D02*
X159055890Y-276502797D01*
X158627319Y-276074226D02*
X159198747Y-276645654D01*
X121207319Y-273788035D02*
X120207319Y-273788035D01*
X120207319Y-273788035D02*
X120207319Y-273549940D01*
X120207319Y-273549940D02*
X120254938Y-273407083D01*
X120254938Y-273407083D02*
X120350176Y-273311845D01*
X120350176Y-273311845D02*
X120445414Y-273264226D01*
X120445414Y-273264226D02*
X120635890Y-273216607D01*
X120635890Y-273216607D02*
X120778747Y-273216607D01*
X120778747Y-273216607D02*
X120969223Y-273264226D01*
X120969223Y-273264226D02*
X121064461Y-273311845D01*
X121064461Y-273311845D02*
X121159700Y-273407083D01*
X121159700Y-273407083D02*
X121207319Y-273549940D01*
X121207319Y-273549940D02*
X121207319Y-273788035D01*
X120302557Y-272835654D02*
X120254938Y-272788035D01*
X120254938Y-272788035D02*
X120207319Y-272692797D01*
X120207319Y-272692797D02*
X120207319Y-272454702D01*
X120207319Y-272454702D02*
X120254938Y-272359464D01*
X120254938Y-272359464D02*
X120302557Y-272311845D01*
X120302557Y-272311845D02*
X120397795Y-272264226D01*
X120397795Y-272264226D02*
X120493033Y-272264226D01*
X120493033Y-272264226D02*
X120635890Y-272311845D01*
X120635890Y-272311845D02*
X121207319Y-272883273D01*
X121207319Y-272883273D02*
X121207319Y-272264226D01*
X120207319Y-271645178D02*
X120207319Y-271549940D01*
X120207319Y-271549940D02*
X120254938Y-271454702D01*
X120254938Y-271454702D02*
X120302557Y-271407083D01*
X120302557Y-271407083D02*
X120397795Y-271359464D01*
X120397795Y-271359464D02*
X120588271Y-271311845D01*
X120588271Y-271311845D02*
X120826366Y-271311845D01*
X120826366Y-271311845D02*
X121016842Y-271359464D01*
X121016842Y-271359464D02*
X121112080Y-271407083D01*
X121112080Y-271407083D02*
X121159700Y-271454702D01*
X121159700Y-271454702D02*
X121207319Y-271549940D01*
X121207319Y-271549940D02*
X121207319Y-271645178D01*
X121207319Y-271645178D02*
X121159700Y-271740416D01*
X121159700Y-271740416D02*
X121112080Y-271788035D01*
X121112080Y-271788035D02*
X121016842Y-271835654D01*
X121016842Y-271835654D02*
X120826366Y-271883273D01*
X120826366Y-271883273D02*
X120588271Y-271883273D01*
X120588271Y-271883273D02*
X120397795Y-271835654D01*
X120397795Y-271835654D02*
X120302557Y-271788035D01*
X120302557Y-271788035D02*
X120254938Y-271740416D01*
X120254938Y-271740416D02*
X120207319Y-271645178D01*
X121527319Y-276645654D02*
X120527319Y-276645654D01*
X121527319Y-276074226D02*
X120955890Y-276502797D01*
X120527319Y-276074226D02*
X121098747Y-276645654D01*
X164069819Y-292838035D02*
X163069819Y-292838035D01*
X163069819Y-292838035D02*
X163069819Y-292599940D01*
X163069819Y-292599940D02*
X163117438Y-292457083D01*
X163117438Y-292457083D02*
X163212676Y-292361845D01*
X163212676Y-292361845D02*
X163307914Y-292314226D01*
X163307914Y-292314226D02*
X163498390Y-292266607D01*
X163498390Y-292266607D02*
X163641247Y-292266607D01*
X163641247Y-292266607D02*
X163831723Y-292314226D01*
X163831723Y-292314226D02*
X163926961Y-292361845D01*
X163926961Y-292361845D02*
X164022200Y-292457083D01*
X164022200Y-292457083D02*
X164069819Y-292599940D01*
X164069819Y-292599940D02*
X164069819Y-292838035D01*
X163069819Y-291933273D02*
X163069819Y-291314226D01*
X163069819Y-291314226D02*
X163450771Y-291647559D01*
X163450771Y-291647559D02*
X163450771Y-291504702D01*
X163450771Y-291504702D02*
X163498390Y-291409464D01*
X163498390Y-291409464D02*
X163546009Y-291361845D01*
X163546009Y-291361845D02*
X163641247Y-291314226D01*
X163641247Y-291314226D02*
X163879342Y-291314226D01*
X163879342Y-291314226D02*
X163974580Y-291361845D01*
X163974580Y-291361845D02*
X164022200Y-291409464D01*
X164022200Y-291409464D02*
X164069819Y-291504702D01*
X164069819Y-291504702D02*
X164069819Y-291790416D01*
X164069819Y-291790416D02*
X164022200Y-291885654D01*
X164022200Y-291885654D02*
X163974580Y-291933273D01*
X163069819Y-290457083D02*
X163069819Y-290647559D01*
X163069819Y-290647559D02*
X163117438Y-290742797D01*
X163117438Y-290742797D02*
X163165057Y-290790416D01*
X163165057Y-290790416D02*
X163307914Y-290885654D01*
X163307914Y-290885654D02*
X163498390Y-290933273D01*
X163498390Y-290933273D02*
X163879342Y-290933273D01*
X163879342Y-290933273D02*
X163974580Y-290885654D01*
X163974580Y-290885654D02*
X164022200Y-290838035D01*
X164022200Y-290838035D02*
X164069819Y-290742797D01*
X164069819Y-290742797D02*
X164069819Y-290552321D01*
X164069819Y-290552321D02*
X164022200Y-290457083D01*
X164022200Y-290457083D02*
X163974580Y-290409464D01*
X163974580Y-290409464D02*
X163879342Y-290361845D01*
X163879342Y-290361845D02*
X163641247Y-290361845D01*
X163641247Y-290361845D02*
X163546009Y-290409464D01*
X163546009Y-290409464D02*
X163498390Y-290457083D01*
X163498390Y-290457083D02*
X163450771Y-290552321D01*
X163450771Y-290552321D02*
X163450771Y-290742797D01*
X163450771Y-290742797D02*
X163498390Y-290838035D01*
X163498390Y-290838035D02*
X163546009Y-290885654D01*
X163546009Y-290885654D02*
X163641247Y-290933273D01*
X164389819Y-295695654D02*
X163389819Y-295695654D01*
X164389819Y-295124226D02*
X163818390Y-295552797D01*
X163389819Y-295124226D02*
X163961247Y-295695654D01*
X267416069Y-292838035D02*
X266416069Y-292838035D01*
X266416069Y-292838035D02*
X266416069Y-292599940D01*
X266416069Y-292599940D02*
X266463688Y-292457083D01*
X266463688Y-292457083D02*
X266558926Y-292361845D01*
X266558926Y-292361845D02*
X266654164Y-292314226D01*
X266654164Y-292314226D02*
X266844640Y-292266607D01*
X266844640Y-292266607D02*
X266987497Y-292266607D01*
X266987497Y-292266607D02*
X267177973Y-292314226D01*
X267177973Y-292314226D02*
X267273211Y-292361845D01*
X267273211Y-292361845D02*
X267368450Y-292457083D01*
X267368450Y-292457083D02*
X267416069Y-292599940D01*
X267416069Y-292599940D02*
X267416069Y-292838035D01*
X266749402Y-291409464D02*
X267416069Y-291409464D01*
X266368450Y-291647559D02*
X267082735Y-291885654D01*
X267082735Y-291885654D02*
X267082735Y-291266607D01*
X267416069Y-290361845D02*
X267416069Y-290933273D01*
X267416069Y-290647559D02*
X266416069Y-290647559D01*
X266416069Y-290647559D02*
X266558926Y-290742797D01*
X266558926Y-290742797D02*
X266654164Y-290838035D01*
X266654164Y-290838035D02*
X266701783Y-290933273D01*
X267736069Y-295695654D02*
X266736069Y-295695654D01*
X267736069Y-295124226D02*
X267164640Y-295552797D01*
X266736069Y-295124226D02*
X267307497Y-295695654D01*
X292657319Y-330938035D02*
X291657319Y-330938035D01*
X291657319Y-330938035D02*
X291657319Y-330699940D01*
X291657319Y-330699940D02*
X291704938Y-330557083D01*
X291704938Y-330557083D02*
X291800176Y-330461845D01*
X291800176Y-330461845D02*
X291895414Y-330414226D01*
X291895414Y-330414226D02*
X292085890Y-330366607D01*
X292085890Y-330366607D02*
X292228747Y-330366607D01*
X292228747Y-330366607D02*
X292419223Y-330414226D01*
X292419223Y-330414226D02*
X292514461Y-330461845D01*
X292514461Y-330461845D02*
X292609700Y-330557083D01*
X292609700Y-330557083D02*
X292657319Y-330699940D01*
X292657319Y-330699940D02*
X292657319Y-330938035D01*
X291657319Y-329509464D02*
X291657319Y-329699940D01*
X291657319Y-329699940D02*
X291704938Y-329795178D01*
X291704938Y-329795178D02*
X291752557Y-329842797D01*
X291752557Y-329842797D02*
X291895414Y-329938035D01*
X291895414Y-329938035D02*
X292085890Y-329985654D01*
X292085890Y-329985654D02*
X292466842Y-329985654D01*
X292466842Y-329985654D02*
X292562080Y-329938035D01*
X292562080Y-329938035D02*
X292609700Y-329890416D01*
X292609700Y-329890416D02*
X292657319Y-329795178D01*
X292657319Y-329795178D02*
X292657319Y-329604702D01*
X292657319Y-329604702D02*
X292609700Y-329509464D01*
X292609700Y-329509464D02*
X292562080Y-329461845D01*
X292562080Y-329461845D02*
X292466842Y-329414226D01*
X292466842Y-329414226D02*
X292228747Y-329414226D01*
X292228747Y-329414226D02*
X292133509Y-329461845D01*
X292133509Y-329461845D02*
X292085890Y-329509464D01*
X292085890Y-329509464D02*
X292038271Y-329604702D01*
X292038271Y-329604702D02*
X292038271Y-329795178D01*
X292038271Y-329795178D02*
X292085890Y-329890416D01*
X292085890Y-329890416D02*
X292133509Y-329938035D01*
X292133509Y-329938035D02*
X292228747Y-329985654D01*
X291657319Y-329080892D02*
X291657319Y-328461845D01*
X291657319Y-328461845D02*
X292038271Y-328795178D01*
X292038271Y-328795178D02*
X292038271Y-328652321D01*
X292038271Y-328652321D02*
X292085890Y-328557083D01*
X292085890Y-328557083D02*
X292133509Y-328509464D01*
X292133509Y-328509464D02*
X292228747Y-328461845D01*
X292228747Y-328461845D02*
X292466842Y-328461845D01*
X292466842Y-328461845D02*
X292562080Y-328509464D01*
X292562080Y-328509464D02*
X292609700Y-328557083D01*
X292609700Y-328557083D02*
X292657319Y-328652321D01*
X292657319Y-328652321D02*
X292657319Y-328938035D01*
X292657319Y-328938035D02*
X292609700Y-329033273D01*
X292609700Y-329033273D02*
X292562080Y-329080892D01*
X292977319Y-333795654D02*
X291977319Y-333795654D01*
X292977319Y-333224226D02*
X292405890Y-333652797D01*
X291977319Y-333224226D02*
X292548747Y-333795654D01*
X23576069Y-292838035D02*
X22576069Y-292838035D01*
X22576069Y-292838035D02*
X22576069Y-292599940D01*
X22576069Y-292599940D02*
X22623688Y-292457083D01*
X22623688Y-292457083D02*
X22718926Y-292361845D01*
X22718926Y-292361845D02*
X22814164Y-292314226D01*
X22814164Y-292314226D02*
X23004640Y-292266607D01*
X23004640Y-292266607D02*
X23147497Y-292266607D01*
X23147497Y-292266607D02*
X23337973Y-292314226D01*
X23337973Y-292314226D02*
X23433211Y-292361845D01*
X23433211Y-292361845D02*
X23528450Y-292457083D01*
X23528450Y-292457083D02*
X23576069Y-292599940D01*
X23576069Y-292599940D02*
X23576069Y-292838035D01*
X22671307Y-291885654D02*
X22623688Y-291838035D01*
X22623688Y-291838035D02*
X22576069Y-291742797D01*
X22576069Y-291742797D02*
X22576069Y-291504702D01*
X22576069Y-291504702D02*
X22623688Y-291409464D01*
X22623688Y-291409464D02*
X22671307Y-291361845D01*
X22671307Y-291361845D02*
X22766545Y-291314226D01*
X22766545Y-291314226D02*
X22861783Y-291314226D01*
X22861783Y-291314226D02*
X23004640Y-291361845D01*
X23004640Y-291361845D02*
X23576069Y-291933273D01*
X23576069Y-291933273D02*
X23576069Y-291314226D01*
X23576069Y-290838035D02*
X23576069Y-290647559D01*
X23576069Y-290647559D02*
X23528450Y-290552321D01*
X23528450Y-290552321D02*
X23480830Y-290504702D01*
X23480830Y-290504702D02*
X23337973Y-290409464D01*
X23337973Y-290409464D02*
X23147497Y-290361845D01*
X23147497Y-290361845D02*
X22766545Y-290361845D01*
X22766545Y-290361845D02*
X22671307Y-290409464D01*
X22671307Y-290409464D02*
X22623688Y-290457083D01*
X22623688Y-290457083D02*
X22576069Y-290552321D01*
X22576069Y-290552321D02*
X22576069Y-290742797D01*
X22576069Y-290742797D02*
X22623688Y-290838035D01*
X22623688Y-290838035D02*
X22671307Y-290885654D01*
X22671307Y-290885654D02*
X22766545Y-290933273D01*
X22766545Y-290933273D02*
X23004640Y-290933273D01*
X23004640Y-290933273D02*
X23099878Y-290885654D01*
X23099878Y-290885654D02*
X23147497Y-290838035D01*
X23147497Y-290838035D02*
X23195116Y-290742797D01*
X23195116Y-290742797D02*
X23195116Y-290552321D01*
X23195116Y-290552321D02*
X23147497Y-290457083D01*
X23147497Y-290457083D02*
X23099878Y-290409464D01*
X23099878Y-290409464D02*
X23004640Y-290361845D01*
X23896069Y-295695654D02*
X22896069Y-295695654D01*
X23896069Y-295124226D02*
X23324640Y-295552797D01*
X22896069Y-295124226D02*
X23467497Y-295695654D01*
X332613095Y-333342319D02*
X332613095Y-332342319D01*
X332613095Y-332818509D02*
X333184523Y-332818509D01*
X333184523Y-333342319D02*
X333184523Y-332342319D01*
X334089285Y-332675652D02*
X334089285Y-333342319D01*
X333851190Y-332294700D02*
X333613095Y-333008985D01*
X333613095Y-333008985D02*
X334232142Y-333008985D01*
X202169819Y-292838035D02*
X201169819Y-292838035D01*
X201169819Y-292838035D02*
X201169819Y-292599940D01*
X201169819Y-292599940D02*
X201217438Y-292457083D01*
X201217438Y-292457083D02*
X201312676Y-292361845D01*
X201312676Y-292361845D02*
X201407914Y-292314226D01*
X201407914Y-292314226D02*
X201598390Y-292266607D01*
X201598390Y-292266607D02*
X201741247Y-292266607D01*
X201741247Y-292266607D02*
X201931723Y-292314226D01*
X201931723Y-292314226D02*
X202026961Y-292361845D01*
X202026961Y-292361845D02*
X202122200Y-292457083D01*
X202122200Y-292457083D02*
X202169819Y-292599940D01*
X202169819Y-292599940D02*
X202169819Y-292838035D01*
X201169819Y-291933273D02*
X201169819Y-291314226D01*
X201169819Y-291314226D02*
X201550771Y-291647559D01*
X201550771Y-291647559D02*
X201550771Y-291504702D01*
X201550771Y-291504702D02*
X201598390Y-291409464D01*
X201598390Y-291409464D02*
X201646009Y-291361845D01*
X201646009Y-291361845D02*
X201741247Y-291314226D01*
X201741247Y-291314226D02*
X201979342Y-291314226D01*
X201979342Y-291314226D02*
X202074580Y-291361845D01*
X202074580Y-291361845D02*
X202122200Y-291409464D01*
X202122200Y-291409464D02*
X202169819Y-291504702D01*
X202169819Y-291504702D02*
X202169819Y-291790416D01*
X202169819Y-291790416D02*
X202122200Y-291885654D01*
X202122200Y-291885654D02*
X202074580Y-291933273D01*
X201598390Y-290742797D02*
X201550771Y-290838035D01*
X201550771Y-290838035D02*
X201503152Y-290885654D01*
X201503152Y-290885654D02*
X201407914Y-290933273D01*
X201407914Y-290933273D02*
X201360295Y-290933273D01*
X201360295Y-290933273D02*
X201265057Y-290885654D01*
X201265057Y-290885654D02*
X201217438Y-290838035D01*
X201217438Y-290838035D02*
X201169819Y-290742797D01*
X201169819Y-290742797D02*
X201169819Y-290552321D01*
X201169819Y-290552321D02*
X201217438Y-290457083D01*
X201217438Y-290457083D02*
X201265057Y-290409464D01*
X201265057Y-290409464D02*
X201360295Y-290361845D01*
X201360295Y-290361845D02*
X201407914Y-290361845D01*
X201407914Y-290361845D02*
X201503152Y-290409464D01*
X201503152Y-290409464D02*
X201550771Y-290457083D01*
X201550771Y-290457083D02*
X201598390Y-290552321D01*
X201598390Y-290552321D02*
X201598390Y-290742797D01*
X201598390Y-290742797D02*
X201646009Y-290838035D01*
X201646009Y-290838035D02*
X201693628Y-290885654D01*
X201693628Y-290885654D02*
X201788866Y-290933273D01*
X201788866Y-290933273D02*
X201979342Y-290933273D01*
X201979342Y-290933273D02*
X202074580Y-290885654D01*
X202074580Y-290885654D02*
X202122200Y-290838035D01*
X202122200Y-290838035D02*
X202169819Y-290742797D01*
X202169819Y-290742797D02*
X202169819Y-290552321D01*
X202169819Y-290552321D02*
X202122200Y-290457083D01*
X202122200Y-290457083D02*
X202074580Y-290409464D01*
X202074580Y-290409464D02*
X201979342Y-290361845D01*
X201979342Y-290361845D02*
X201788866Y-290361845D01*
X201788866Y-290361845D02*
X201693628Y-290409464D01*
X201693628Y-290409464D02*
X201646009Y-290457083D01*
X201646009Y-290457083D02*
X201598390Y-290552321D01*
X202489819Y-295695654D02*
X201489819Y-295695654D01*
X202489819Y-295124226D02*
X201918390Y-295552797D01*
X201489819Y-295124226D02*
X202061247Y-295695654D01*
X187882319Y-254738035D02*
X186882319Y-254738035D01*
X186882319Y-254738035D02*
X186882319Y-254499940D01*
X186882319Y-254499940D02*
X186929938Y-254357083D01*
X186929938Y-254357083D02*
X187025176Y-254261845D01*
X187025176Y-254261845D02*
X187120414Y-254214226D01*
X187120414Y-254214226D02*
X187310890Y-254166607D01*
X187310890Y-254166607D02*
X187453747Y-254166607D01*
X187453747Y-254166607D02*
X187644223Y-254214226D01*
X187644223Y-254214226D02*
X187739461Y-254261845D01*
X187739461Y-254261845D02*
X187834700Y-254357083D01*
X187834700Y-254357083D02*
X187882319Y-254499940D01*
X187882319Y-254499940D02*
X187882319Y-254738035D01*
X187882319Y-253214226D02*
X187882319Y-253785654D01*
X187882319Y-253499940D02*
X186882319Y-253499940D01*
X186882319Y-253499940D02*
X187025176Y-253595178D01*
X187025176Y-253595178D02*
X187120414Y-253690416D01*
X187120414Y-253690416D02*
X187168033Y-253785654D01*
X186882319Y-252595178D02*
X186882319Y-252499940D01*
X186882319Y-252499940D02*
X186929938Y-252404702D01*
X186929938Y-252404702D02*
X186977557Y-252357083D01*
X186977557Y-252357083D02*
X187072795Y-252309464D01*
X187072795Y-252309464D02*
X187263271Y-252261845D01*
X187263271Y-252261845D02*
X187501366Y-252261845D01*
X187501366Y-252261845D02*
X187691842Y-252309464D01*
X187691842Y-252309464D02*
X187787080Y-252357083D01*
X187787080Y-252357083D02*
X187834700Y-252404702D01*
X187834700Y-252404702D02*
X187882319Y-252499940D01*
X187882319Y-252499940D02*
X187882319Y-252595178D01*
X187882319Y-252595178D02*
X187834700Y-252690416D01*
X187834700Y-252690416D02*
X187787080Y-252738035D01*
X187787080Y-252738035D02*
X187691842Y-252785654D01*
X187691842Y-252785654D02*
X187501366Y-252833273D01*
X187501366Y-252833273D02*
X187263271Y-252833273D01*
X187263271Y-252833273D02*
X187072795Y-252785654D01*
X187072795Y-252785654D02*
X186977557Y-252738035D01*
X186977557Y-252738035D02*
X186929938Y-252690416D01*
X186929938Y-252690416D02*
X186882319Y-252595178D01*
X188202319Y-257595654D02*
X187202319Y-257595654D01*
X188202319Y-257024226D02*
X187630890Y-257452797D01*
X187202319Y-257024226D02*
X187773747Y-257595654D01*
X64057319Y-273788035D02*
X63057319Y-273788035D01*
X63057319Y-273788035D02*
X63057319Y-273549940D01*
X63057319Y-273549940D02*
X63104938Y-273407083D01*
X63104938Y-273407083D02*
X63200176Y-273311845D01*
X63200176Y-273311845D02*
X63295414Y-273264226D01*
X63295414Y-273264226D02*
X63485890Y-273216607D01*
X63485890Y-273216607D02*
X63628747Y-273216607D01*
X63628747Y-273216607D02*
X63819223Y-273264226D01*
X63819223Y-273264226D02*
X63914461Y-273311845D01*
X63914461Y-273311845D02*
X64009700Y-273407083D01*
X64009700Y-273407083D02*
X64057319Y-273549940D01*
X64057319Y-273549940D02*
X64057319Y-273788035D01*
X64057319Y-272264226D02*
X64057319Y-272835654D01*
X64057319Y-272549940D02*
X63057319Y-272549940D01*
X63057319Y-272549940D02*
X63200176Y-272645178D01*
X63200176Y-272645178D02*
X63295414Y-272740416D01*
X63295414Y-272740416D02*
X63343033Y-272835654D01*
X63057319Y-271930892D02*
X63057319Y-271264226D01*
X63057319Y-271264226D02*
X64057319Y-271692797D01*
X64377319Y-276645654D02*
X63377319Y-276645654D01*
X64377319Y-276074226D02*
X63805890Y-276502797D01*
X63377319Y-276074226D02*
X63948747Y-276645654D01*
X252176069Y-330938035D02*
X251176069Y-330938035D01*
X251176069Y-330938035D02*
X251176069Y-330699940D01*
X251176069Y-330699940D02*
X251223688Y-330557083D01*
X251223688Y-330557083D02*
X251318926Y-330461845D01*
X251318926Y-330461845D02*
X251414164Y-330414226D01*
X251414164Y-330414226D02*
X251604640Y-330366607D01*
X251604640Y-330366607D02*
X251747497Y-330366607D01*
X251747497Y-330366607D02*
X251937973Y-330414226D01*
X251937973Y-330414226D02*
X252033211Y-330461845D01*
X252033211Y-330461845D02*
X252128450Y-330557083D01*
X252128450Y-330557083D02*
X252176069Y-330699940D01*
X252176069Y-330699940D02*
X252176069Y-330938035D01*
X251176069Y-329509464D02*
X251176069Y-329699940D01*
X251176069Y-329699940D02*
X251223688Y-329795178D01*
X251223688Y-329795178D02*
X251271307Y-329842797D01*
X251271307Y-329842797D02*
X251414164Y-329938035D01*
X251414164Y-329938035D02*
X251604640Y-329985654D01*
X251604640Y-329985654D02*
X251985592Y-329985654D01*
X251985592Y-329985654D02*
X252080830Y-329938035D01*
X252080830Y-329938035D02*
X252128450Y-329890416D01*
X252128450Y-329890416D02*
X252176069Y-329795178D01*
X252176069Y-329795178D02*
X252176069Y-329604702D01*
X252176069Y-329604702D02*
X252128450Y-329509464D01*
X252128450Y-329509464D02*
X252080830Y-329461845D01*
X252080830Y-329461845D02*
X251985592Y-329414226D01*
X251985592Y-329414226D02*
X251747497Y-329414226D01*
X251747497Y-329414226D02*
X251652259Y-329461845D01*
X251652259Y-329461845D02*
X251604640Y-329509464D01*
X251604640Y-329509464D02*
X251557021Y-329604702D01*
X251557021Y-329604702D02*
X251557021Y-329795178D01*
X251557021Y-329795178D02*
X251604640Y-329890416D01*
X251604640Y-329890416D02*
X251652259Y-329938035D01*
X251652259Y-329938035D02*
X251747497Y-329985654D01*
X252176069Y-328461845D02*
X252176069Y-329033273D01*
X252176069Y-328747559D02*
X251176069Y-328747559D01*
X251176069Y-328747559D02*
X251318926Y-328842797D01*
X251318926Y-328842797D02*
X251414164Y-328938035D01*
X251414164Y-328938035D02*
X251461783Y-329033273D01*
X252496069Y-333795654D02*
X251496069Y-333795654D01*
X252496069Y-333224226D02*
X251924640Y-333652797D01*
X251496069Y-333224226D02*
X252067497Y-333795654D01*
X245032319Y-254738035D02*
X244032319Y-254738035D01*
X244032319Y-254738035D02*
X244032319Y-254499940D01*
X244032319Y-254499940D02*
X244079938Y-254357083D01*
X244079938Y-254357083D02*
X244175176Y-254261845D01*
X244175176Y-254261845D02*
X244270414Y-254214226D01*
X244270414Y-254214226D02*
X244460890Y-254166607D01*
X244460890Y-254166607D02*
X244603747Y-254166607D01*
X244603747Y-254166607D02*
X244794223Y-254214226D01*
X244794223Y-254214226D02*
X244889461Y-254261845D01*
X244889461Y-254261845D02*
X244984700Y-254357083D01*
X244984700Y-254357083D02*
X245032319Y-254499940D01*
X245032319Y-254499940D02*
X245032319Y-254738035D01*
X245032319Y-253214226D02*
X245032319Y-253785654D01*
X245032319Y-253499940D02*
X244032319Y-253499940D01*
X244032319Y-253499940D02*
X244175176Y-253595178D01*
X244175176Y-253595178D02*
X244270414Y-253690416D01*
X244270414Y-253690416D02*
X244318033Y-253785654D01*
X244032319Y-252880892D02*
X244032319Y-252261845D01*
X244032319Y-252261845D02*
X244413271Y-252595178D01*
X244413271Y-252595178D02*
X244413271Y-252452321D01*
X244413271Y-252452321D02*
X244460890Y-252357083D01*
X244460890Y-252357083D02*
X244508509Y-252309464D01*
X244508509Y-252309464D02*
X244603747Y-252261845D01*
X244603747Y-252261845D02*
X244841842Y-252261845D01*
X244841842Y-252261845D02*
X244937080Y-252309464D01*
X244937080Y-252309464D02*
X244984700Y-252357083D01*
X244984700Y-252357083D02*
X245032319Y-252452321D01*
X245032319Y-252452321D02*
X245032319Y-252738035D01*
X245032319Y-252738035D02*
X244984700Y-252833273D01*
X244984700Y-252833273D02*
X244937080Y-252880892D01*
X245352319Y-257595654D02*
X244352319Y-257595654D01*
X245352319Y-257024226D02*
X244780890Y-257452797D01*
X244352319Y-257024226D02*
X244923747Y-257595654D01*
X211694819Y-311888035D02*
X210694819Y-311888035D01*
X210694819Y-311888035D02*
X210694819Y-311649940D01*
X210694819Y-311649940D02*
X210742438Y-311507083D01*
X210742438Y-311507083D02*
X210837676Y-311411845D01*
X210837676Y-311411845D02*
X210932914Y-311364226D01*
X210932914Y-311364226D02*
X211123390Y-311316607D01*
X211123390Y-311316607D02*
X211266247Y-311316607D01*
X211266247Y-311316607D02*
X211456723Y-311364226D01*
X211456723Y-311364226D02*
X211551961Y-311411845D01*
X211551961Y-311411845D02*
X211647200Y-311507083D01*
X211647200Y-311507083D02*
X211694819Y-311649940D01*
X211694819Y-311649940D02*
X211694819Y-311888035D01*
X210694819Y-310411845D02*
X210694819Y-310888035D01*
X210694819Y-310888035D02*
X211171009Y-310935654D01*
X211171009Y-310935654D02*
X211123390Y-310888035D01*
X211123390Y-310888035D02*
X211075771Y-310792797D01*
X211075771Y-310792797D02*
X211075771Y-310554702D01*
X211075771Y-310554702D02*
X211123390Y-310459464D01*
X211123390Y-310459464D02*
X211171009Y-310411845D01*
X211171009Y-310411845D02*
X211266247Y-310364226D01*
X211266247Y-310364226D02*
X211504342Y-310364226D01*
X211504342Y-310364226D02*
X211599580Y-310411845D01*
X211599580Y-310411845D02*
X211647200Y-310459464D01*
X211647200Y-310459464D02*
X211694819Y-310554702D01*
X211694819Y-310554702D02*
X211694819Y-310792797D01*
X211694819Y-310792797D02*
X211647200Y-310888035D01*
X211647200Y-310888035D02*
X211599580Y-310935654D01*
X211694819Y-309411845D02*
X211694819Y-309983273D01*
X211694819Y-309697559D02*
X210694819Y-309697559D01*
X210694819Y-309697559D02*
X210837676Y-309792797D01*
X210837676Y-309792797D02*
X210932914Y-309888035D01*
X210932914Y-309888035D02*
X210980533Y-309983273D01*
X212014819Y-314745654D02*
X211014819Y-314745654D01*
X212014819Y-314174226D02*
X211443390Y-314602797D01*
X211014819Y-314174226D02*
X211586247Y-314745654D01*
X57866069Y-330938035D02*
X56866069Y-330938035D01*
X56866069Y-330938035D02*
X56866069Y-330699940D01*
X56866069Y-330699940D02*
X56913688Y-330557083D01*
X56913688Y-330557083D02*
X57008926Y-330461845D01*
X57008926Y-330461845D02*
X57104164Y-330414226D01*
X57104164Y-330414226D02*
X57294640Y-330366607D01*
X57294640Y-330366607D02*
X57437497Y-330366607D01*
X57437497Y-330366607D02*
X57627973Y-330414226D01*
X57627973Y-330414226D02*
X57723211Y-330461845D01*
X57723211Y-330461845D02*
X57818450Y-330557083D01*
X57818450Y-330557083D02*
X57866069Y-330699940D01*
X57866069Y-330699940D02*
X57866069Y-330938035D01*
X56866069Y-329461845D02*
X56866069Y-329938035D01*
X56866069Y-329938035D02*
X57342259Y-329985654D01*
X57342259Y-329985654D02*
X57294640Y-329938035D01*
X57294640Y-329938035D02*
X57247021Y-329842797D01*
X57247021Y-329842797D02*
X57247021Y-329604702D01*
X57247021Y-329604702D02*
X57294640Y-329509464D01*
X57294640Y-329509464D02*
X57342259Y-329461845D01*
X57342259Y-329461845D02*
X57437497Y-329414226D01*
X57437497Y-329414226D02*
X57675592Y-329414226D01*
X57675592Y-329414226D02*
X57770830Y-329461845D01*
X57770830Y-329461845D02*
X57818450Y-329509464D01*
X57818450Y-329509464D02*
X57866069Y-329604702D01*
X57866069Y-329604702D02*
X57866069Y-329842797D01*
X57866069Y-329842797D02*
X57818450Y-329938035D01*
X57818450Y-329938035D02*
X57770830Y-329985654D01*
X56866069Y-329080892D02*
X56866069Y-328414226D01*
X56866069Y-328414226D02*
X57866069Y-328842797D01*
X58186069Y-333795654D02*
X57186069Y-333795654D01*
X58186069Y-333224226D02*
X57614640Y-333652797D01*
X57186069Y-333224226D02*
X57757497Y-333795654D01*
X78344819Y-311888035D02*
X77344819Y-311888035D01*
X77344819Y-311888035D02*
X77344819Y-311649940D01*
X77344819Y-311649940D02*
X77392438Y-311507083D01*
X77392438Y-311507083D02*
X77487676Y-311411845D01*
X77487676Y-311411845D02*
X77582914Y-311364226D01*
X77582914Y-311364226D02*
X77773390Y-311316607D01*
X77773390Y-311316607D02*
X77916247Y-311316607D01*
X77916247Y-311316607D02*
X78106723Y-311364226D01*
X78106723Y-311364226D02*
X78201961Y-311411845D01*
X78201961Y-311411845D02*
X78297200Y-311507083D01*
X78297200Y-311507083D02*
X78344819Y-311649940D01*
X78344819Y-311649940D02*
X78344819Y-311888035D01*
X77678152Y-310459464D02*
X78344819Y-310459464D01*
X77297200Y-310697559D02*
X78011485Y-310935654D01*
X78011485Y-310935654D02*
X78011485Y-310316607D01*
X77678152Y-309507083D02*
X78344819Y-309507083D01*
X77297200Y-309745178D02*
X78011485Y-309983273D01*
X78011485Y-309983273D02*
X78011485Y-309364226D01*
X78664819Y-314745654D02*
X77664819Y-314745654D01*
X78664819Y-314174226D02*
X78093390Y-314602797D01*
X77664819Y-314174226D02*
X78236247Y-314745654D01*
X183119819Y-292838035D02*
X182119819Y-292838035D01*
X182119819Y-292838035D02*
X182119819Y-292599940D01*
X182119819Y-292599940D02*
X182167438Y-292457083D01*
X182167438Y-292457083D02*
X182262676Y-292361845D01*
X182262676Y-292361845D02*
X182357914Y-292314226D01*
X182357914Y-292314226D02*
X182548390Y-292266607D01*
X182548390Y-292266607D02*
X182691247Y-292266607D01*
X182691247Y-292266607D02*
X182881723Y-292314226D01*
X182881723Y-292314226D02*
X182976961Y-292361845D01*
X182976961Y-292361845D02*
X183072200Y-292457083D01*
X183072200Y-292457083D02*
X183119819Y-292599940D01*
X183119819Y-292599940D02*
X183119819Y-292838035D01*
X182119819Y-291933273D02*
X182119819Y-291314226D01*
X182119819Y-291314226D02*
X182500771Y-291647559D01*
X182500771Y-291647559D02*
X182500771Y-291504702D01*
X182500771Y-291504702D02*
X182548390Y-291409464D01*
X182548390Y-291409464D02*
X182596009Y-291361845D01*
X182596009Y-291361845D02*
X182691247Y-291314226D01*
X182691247Y-291314226D02*
X182929342Y-291314226D01*
X182929342Y-291314226D02*
X183024580Y-291361845D01*
X183024580Y-291361845D02*
X183072200Y-291409464D01*
X183072200Y-291409464D02*
X183119819Y-291504702D01*
X183119819Y-291504702D02*
X183119819Y-291790416D01*
X183119819Y-291790416D02*
X183072200Y-291885654D01*
X183072200Y-291885654D02*
X183024580Y-291933273D01*
X182119819Y-290980892D02*
X182119819Y-290314226D01*
X182119819Y-290314226D02*
X183119819Y-290742797D01*
X183439819Y-295695654D02*
X182439819Y-295695654D01*
X183439819Y-295124226D02*
X182868390Y-295552797D01*
X182439819Y-295124226D02*
X183011247Y-295695654D01*
X-7905654Y-333342319D02*
X-7905654Y-332342319D01*
X-7905654Y-332818509D02*
X-7334226Y-332818509D01*
X-7334226Y-333342319D02*
X-7334226Y-332342319D01*
X-6334226Y-333342319D02*
X-6905654Y-333342319D01*
X-6619940Y-333342319D02*
X-6619940Y-332342319D01*
X-6619940Y-332342319D02*
X-6715178Y-332485176D01*
X-6715178Y-332485176D02*
X-6810416Y-332580414D01*
X-6810416Y-332580414D02*
X-6905654Y-332628033D01*
X230744819Y-311888035D02*
X229744819Y-311888035D01*
X229744819Y-311888035D02*
X229744819Y-311649940D01*
X229744819Y-311649940D02*
X229792438Y-311507083D01*
X229792438Y-311507083D02*
X229887676Y-311411845D01*
X229887676Y-311411845D02*
X229982914Y-311364226D01*
X229982914Y-311364226D02*
X230173390Y-311316607D01*
X230173390Y-311316607D02*
X230316247Y-311316607D01*
X230316247Y-311316607D02*
X230506723Y-311364226D01*
X230506723Y-311364226D02*
X230601961Y-311411845D01*
X230601961Y-311411845D02*
X230697200Y-311507083D01*
X230697200Y-311507083D02*
X230744819Y-311649940D01*
X230744819Y-311649940D02*
X230744819Y-311888035D01*
X229744819Y-310411845D02*
X229744819Y-310888035D01*
X229744819Y-310888035D02*
X230221009Y-310935654D01*
X230221009Y-310935654D02*
X230173390Y-310888035D01*
X230173390Y-310888035D02*
X230125771Y-310792797D01*
X230125771Y-310792797D02*
X230125771Y-310554702D01*
X230125771Y-310554702D02*
X230173390Y-310459464D01*
X230173390Y-310459464D02*
X230221009Y-310411845D01*
X230221009Y-310411845D02*
X230316247Y-310364226D01*
X230316247Y-310364226D02*
X230554342Y-310364226D01*
X230554342Y-310364226D02*
X230649580Y-310411845D01*
X230649580Y-310411845D02*
X230697200Y-310459464D01*
X230697200Y-310459464D02*
X230744819Y-310554702D01*
X230744819Y-310554702D02*
X230744819Y-310792797D01*
X230744819Y-310792797D02*
X230697200Y-310888035D01*
X230697200Y-310888035D02*
X230649580Y-310935654D01*
X229840057Y-309983273D02*
X229792438Y-309935654D01*
X229792438Y-309935654D02*
X229744819Y-309840416D01*
X229744819Y-309840416D02*
X229744819Y-309602321D01*
X229744819Y-309602321D02*
X229792438Y-309507083D01*
X229792438Y-309507083D02*
X229840057Y-309459464D01*
X229840057Y-309459464D02*
X229935295Y-309411845D01*
X229935295Y-309411845D02*
X230030533Y-309411845D01*
X230030533Y-309411845D02*
X230173390Y-309459464D01*
X230173390Y-309459464D02*
X230744819Y-310030892D01*
X230744819Y-310030892D02*
X230744819Y-309411845D01*
X231064819Y-314745654D02*
X230064819Y-314745654D01*
X231064819Y-314174226D02*
X230493390Y-314602797D01*
X230064819Y-314174226D02*
X230636247Y-314745654D01*
X35482319Y-254261844D02*
X34482319Y-254261844D01*
X34482319Y-254261844D02*
X34482319Y-254023749D01*
X34482319Y-254023749D02*
X34529938Y-253880892D01*
X34529938Y-253880892D02*
X34625176Y-253785654D01*
X34625176Y-253785654D02*
X34720414Y-253738035D01*
X34720414Y-253738035D02*
X34910890Y-253690416D01*
X34910890Y-253690416D02*
X35053747Y-253690416D01*
X35053747Y-253690416D02*
X35244223Y-253738035D01*
X35244223Y-253738035D02*
X35339461Y-253785654D01*
X35339461Y-253785654D02*
X35434700Y-253880892D01*
X35434700Y-253880892D02*
X35482319Y-254023749D01*
X35482319Y-254023749D02*
X35482319Y-254261844D01*
X34577557Y-253309463D02*
X34529938Y-253261844D01*
X34529938Y-253261844D02*
X34482319Y-253166606D01*
X34482319Y-253166606D02*
X34482319Y-252928511D01*
X34482319Y-252928511D02*
X34529938Y-252833273D01*
X34529938Y-252833273D02*
X34577557Y-252785654D01*
X34577557Y-252785654D02*
X34672795Y-252738035D01*
X34672795Y-252738035D02*
X34768033Y-252738035D01*
X34768033Y-252738035D02*
X34910890Y-252785654D01*
X34910890Y-252785654D02*
X35482319Y-253357082D01*
X35482319Y-253357082D02*
X35482319Y-252738035D01*
X35802319Y-257595654D02*
X34802319Y-257595654D01*
X35802319Y-257024226D02*
X35230890Y-257452797D01*
X34802319Y-257024226D02*
X35373747Y-257595654D01*
X87869819Y-292838035D02*
X86869819Y-292838035D01*
X86869819Y-292838035D02*
X86869819Y-292599940D01*
X86869819Y-292599940D02*
X86917438Y-292457083D01*
X86917438Y-292457083D02*
X87012676Y-292361845D01*
X87012676Y-292361845D02*
X87107914Y-292314226D01*
X87107914Y-292314226D02*
X87298390Y-292266607D01*
X87298390Y-292266607D02*
X87441247Y-292266607D01*
X87441247Y-292266607D02*
X87631723Y-292314226D01*
X87631723Y-292314226D02*
X87726961Y-292361845D01*
X87726961Y-292361845D02*
X87822200Y-292457083D01*
X87822200Y-292457083D02*
X87869819Y-292599940D01*
X87869819Y-292599940D02*
X87869819Y-292838035D01*
X86869819Y-291933273D02*
X86869819Y-291314226D01*
X86869819Y-291314226D02*
X87250771Y-291647559D01*
X87250771Y-291647559D02*
X87250771Y-291504702D01*
X87250771Y-291504702D02*
X87298390Y-291409464D01*
X87298390Y-291409464D02*
X87346009Y-291361845D01*
X87346009Y-291361845D02*
X87441247Y-291314226D01*
X87441247Y-291314226D02*
X87679342Y-291314226D01*
X87679342Y-291314226D02*
X87774580Y-291361845D01*
X87774580Y-291361845D02*
X87822200Y-291409464D01*
X87822200Y-291409464D02*
X87869819Y-291504702D01*
X87869819Y-291504702D02*
X87869819Y-291790416D01*
X87869819Y-291790416D02*
X87822200Y-291885654D01*
X87822200Y-291885654D02*
X87774580Y-291933273D01*
X86965057Y-290933273D02*
X86917438Y-290885654D01*
X86917438Y-290885654D02*
X86869819Y-290790416D01*
X86869819Y-290790416D02*
X86869819Y-290552321D01*
X86869819Y-290552321D02*
X86917438Y-290457083D01*
X86917438Y-290457083D02*
X86965057Y-290409464D01*
X86965057Y-290409464D02*
X87060295Y-290361845D01*
X87060295Y-290361845D02*
X87155533Y-290361845D01*
X87155533Y-290361845D02*
X87298390Y-290409464D01*
X87298390Y-290409464D02*
X87869819Y-290980892D01*
X87869819Y-290980892D02*
X87869819Y-290361845D01*
X88189819Y-295695654D02*
X87189819Y-295695654D01*
X88189819Y-295124226D02*
X87618390Y-295552797D01*
X87189819Y-295124226D02*
X87761247Y-295695654D01*
X273607319Y-273788035D02*
X272607319Y-273788035D01*
X272607319Y-273788035D02*
X272607319Y-273549940D01*
X272607319Y-273549940D02*
X272654938Y-273407083D01*
X272654938Y-273407083D02*
X272750176Y-273311845D01*
X272750176Y-273311845D02*
X272845414Y-273264226D01*
X272845414Y-273264226D02*
X273035890Y-273216607D01*
X273035890Y-273216607D02*
X273178747Y-273216607D01*
X273178747Y-273216607D02*
X273369223Y-273264226D01*
X273369223Y-273264226D02*
X273464461Y-273311845D01*
X273464461Y-273311845D02*
X273559700Y-273407083D01*
X273559700Y-273407083D02*
X273607319Y-273549940D01*
X273607319Y-273549940D02*
X273607319Y-273788035D01*
X272702557Y-272835654D02*
X272654938Y-272788035D01*
X272654938Y-272788035D02*
X272607319Y-272692797D01*
X272607319Y-272692797D02*
X272607319Y-272454702D01*
X272607319Y-272454702D02*
X272654938Y-272359464D01*
X272654938Y-272359464D02*
X272702557Y-272311845D01*
X272702557Y-272311845D02*
X272797795Y-272264226D01*
X272797795Y-272264226D02*
X272893033Y-272264226D01*
X272893033Y-272264226D02*
X273035890Y-272311845D01*
X273035890Y-272311845D02*
X273607319Y-272883273D01*
X273607319Y-272883273D02*
X273607319Y-272264226D01*
X273035890Y-271692797D02*
X272988271Y-271788035D01*
X272988271Y-271788035D02*
X272940652Y-271835654D01*
X272940652Y-271835654D02*
X272845414Y-271883273D01*
X272845414Y-271883273D02*
X272797795Y-271883273D01*
X272797795Y-271883273D02*
X272702557Y-271835654D01*
X272702557Y-271835654D02*
X272654938Y-271788035D01*
X272654938Y-271788035D02*
X272607319Y-271692797D01*
X272607319Y-271692797D02*
X272607319Y-271502321D01*
X272607319Y-271502321D02*
X272654938Y-271407083D01*
X272654938Y-271407083D02*
X272702557Y-271359464D01*
X272702557Y-271359464D02*
X272797795Y-271311845D01*
X272797795Y-271311845D02*
X272845414Y-271311845D01*
X272845414Y-271311845D02*
X272940652Y-271359464D01*
X272940652Y-271359464D02*
X272988271Y-271407083D01*
X272988271Y-271407083D02*
X273035890Y-271502321D01*
X273035890Y-271502321D02*
X273035890Y-271692797D01*
X273035890Y-271692797D02*
X273083509Y-271788035D01*
X273083509Y-271788035D02*
X273131128Y-271835654D01*
X273131128Y-271835654D02*
X273226366Y-271883273D01*
X273226366Y-271883273D02*
X273416842Y-271883273D01*
X273416842Y-271883273D02*
X273512080Y-271835654D01*
X273512080Y-271835654D02*
X273559700Y-271788035D01*
X273559700Y-271788035D02*
X273607319Y-271692797D01*
X273607319Y-271692797D02*
X273607319Y-271502321D01*
X273607319Y-271502321D02*
X273559700Y-271407083D01*
X273559700Y-271407083D02*
X273512080Y-271359464D01*
X273512080Y-271359464D02*
X273416842Y-271311845D01*
X273416842Y-271311845D02*
X273226366Y-271311845D01*
X273226366Y-271311845D02*
X273131128Y-271359464D01*
X273131128Y-271359464D02*
X273083509Y-271407083D01*
X273083509Y-271407083D02*
X273035890Y-271502321D01*
X273927319Y-276645654D02*
X272927319Y-276645654D01*
X273927319Y-276074226D02*
X273355890Y-276502797D01*
X272927319Y-276074226D02*
X273498747Y-276645654D01*
X168832319Y-254261844D02*
X167832319Y-254261844D01*
X167832319Y-254261844D02*
X167832319Y-254023749D01*
X167832319Y-254023749D02*
X167879938Y-253880892D01*
X167879938Y-253880892D02*
X167975176Y-253785654D01*
X167975176Y-253785654D02*
X168070414Y-253738035D01*
X168070414Y-253738035D02*
X168260890Y-253690416D01*
X168260890Y-253690416D02*
X168403747Y-253690416D01*
X168403747Y-253690416D02*
X168594223Y-253738035D01*
X168594223Y-253738035D02*
X168689461Y-253785654D01*
X168689461Y-253785654D02*
X168784700Y-253880892D01*
X168784700Y-253880892D02*
X168832319Y-254023749D01*
X168832319Y-254023749D02*
X168832319Y-254261844D01*
X168832319Y-253214225D02*
X168832319Y-253023749D01*
X168832319Y-253023749D02*
X168784700Y-252928511D01*
X168784700Y-252928511D02*
X168737080Y-252880892D01*
X168737080Y-252880892D02*
X168594223Y-252785654D01*
X168594223Y-252785654D02*
X168403747Y-252738035D01*
X168403747Y-252738035D02*
X168022795Y-252738035D01*
X168022795Y-252738035D02*
X167927557Y-252785654D01*
X167927557Y-252785654D02*
X167879938Y-252833273D01*
X167879938Y-252833273D02*
X167832319Y-252928511D01*
X167832319Y-252928511D02*
X167832319Y-253118987D01*
X167832319Y-253118987D02*
X167879938Y-253214225D01*
X167879938Y-253214225D02*
X167927557Y-253261844D01*
X167927557Y-253261844D02*
X168022795Y-253309463D01*
X168022795Y-253309463D02*
X168260890Y-253309463D01*
X168260890Y-253309463D02*
X168356128Y-253261844D01*
X168356128Y-253261844D02*
X168403747Y-253214225D01*
X168403747Y-253214225D02*
X168451366Y-253118987D01*
X168451366Y-253118987D02*
X168451366Y-252928511D01*
X168451366Y-252928511D02*
X168403747Y-252833273D01*
X168403747Y-252833273D02*
X168356128Y-252785654D01*
X168356128Y-252785654D02*
X168260890Y-252738035D01*
X169152319Y-257595654D02*
X168152319Y-257595654D01*
X169152319Y-257024226D02*
X168580890Y-257452797D01*
X168152319Y-257024226D02*
X168723747Y-257595654D01*
X21194819Y-273788035D02*
X20194819Y-273788035D01*
X20194819Y-273788035D02*
X20194819Y-273549940D01*
X20194819Y-273549940D02*
X20242438Y-273407083D01*
X20242438Y-273407083D02*
X20337676Y-273311845D01*
X20337676Y-273311845D02*
X20432914Y-273264226D01*
X20432914Y-273264226D02*
X20623390Y-273216607D01*
X20623390Y-273216607D02*
X20766247Y-273216607D01*
X20766247Y-273216607D02*
X20956723Y-273264226D01*
X20956723Y-273264226D02*
X21051961Y-273311845D01*
X21051961Y-273311845D02*
X21147200Y-273407083D01*
X21147200Y-273407083D02*
X21194819Y-273549940D01*
X21194819Y-273549940D02*
X21194819Y-273788035D01*
X21194819Y-272264226D02*
X21194819Y-272835654D01*
X21194819Y-272549940D02*
X20194819Y-272549940D01*
X20194819Y-272549940D02*
X20337676Y-272645178D01*
X20337676Y-272645178D02*
X20432914Y-272740416D01*
X20432914Y-272740416D02*
X20480533Y-272835654D01*
X20194819Y-271359464D02*
X20194819Y-271835654D01*
X20194819Y-271835654D02*
X20671009Y-271883273D01*
X20671009Y-271883273D02*
X20623390Y-271835654D01*
X20623390Y-271835654D02*
X20575771Y-271740416D01*
X20575771Y-271740416D02*
X20575771Y-271502321D01*
X20575771Y-271502321D02*
X20623390Y-271407083D01*
X20623390Y-271407083D02*
X20671009Y-271359464D01*
X20671009Y-271359464D02*
X20766247Y-271311845D01*
X20766247Y-271311845D02*
X21004342Y-271311845D01*
X21004342Y-271311845D02*
X21099580Y-271359464D01*
X21099580Y-271359464D02*
X21147200Y-271407083D01*
X21147200Y-271407083D02*
X21194819Y-271502321D01*
X21194819Y-271502321D02*
X21194819Y-271740416D01*
X21194819Y-271740416D02*
X21147200Y-271835654D01*
X21147200Y-271835654D02*
X21099580Y-271883273D01*
X21514819Y-276645654D02*
X20514819Y-276645654D01*
X21514819Y-276074226D02*
X20943390Y-276502797D01*
X20514819Y-276074226D02*
X21086247Y-276645654D01*
X145019819Y-292838035D02*
X144019819Y-292838035D01*
X144019819Y-292838035D02*
X144019819Y-292599940D01*
X144019819Y-292599940D02*
X144067438Y-292457083D01*
X144067438Y-292457083D02*
X144162676Y-292361845D01*
X144162676Y-292361845D02*
X144257914Y-292314226D01*
X144257914Y-292314226D02*
X144448390Y-292266607D01*
X144448390Y-292266607D02*
X144591247Y-292266607D01*
X144591247Y-292266607D02*
X144781723Y-292314226D01*
X144781723Y-292314226D02*
X144876961Y-292361845D01*
X144876961Y-292361845D02*
X144972200Y-292457083D01*
X144972200Y-292457083D02*
X145019819Y-292599940D01*
X145019819Y-292599940D02*
X145019819Y-292838035D01*
X144019819Y-291933273D02*
X144019819Y-291314226D01*
X144019819Y-291314226D02*
X144400771Y-291647559D01*
X144400771Y-291647559D02*
X144400771Y-291504702D01*
X144400771Y-291504702D02*
X144448390Y-291409464D01*
X144448390Y-291409464D02*
X144496009Y-291361845D01*
X144496009Y-291361845D02*
X144591247Y-291314226D01*
X144591247Y-291314226D02*
X144829342Y-291314226D01*
X144829342Y-291314226D02*
X144924580Y-291361845D01*
X144924580Y-291361845D02*
X144972200Y-291409464D01*
X144972200Y-291409464D02*
X145019819Y-291504702D01*
X145019819Y-291504702D02*
X145019819Y-291790416D01*
X145019819Y-291790416D02*
X144972200Y-291885654D01*
X144972200Y-291885654D02*
X144924580Y-291933273D01*
X144019819Y-290409464D02*
X144019819Y-290885654D01*
X144019819Y-290885654D02*
X144496009Y-290933273D01*
X144496009Y-290933273D02*
X144448390Y-290885654D01*
X144448390Y-290885654D02*
X144400771Y-290790416D01*
X144400771Y-290790416D02*
X144400771Y-290552321D01*
X144400771Y-290552321D02*
X144448390Y-290457083D01*
X144448390Y-290457083D02*
X144496009Y-290409464D01*
X144496009Y-290409464D02*
X144591247Y-290361845D01*
X144591247Y-290361845D02*
X144829342Y-290361845D01*
X144829342Y-290361845D02*
X144924580Y-290409464D01*
X144924580Y-290409464D02*
X144972200Y-290457083D01*
X144972200Y-290457083D02*
X145019819Y-290552321D01*
X145019819Y-290552321D02*
X145019819Y-290790416D01*
X145019819Y-290790416D02*
X144972200Y-290885654D01*
X144972200Y-290885654D02*
X144924580Y-290933273D01*
X145339819Y-295695654D02*
X144339819Y-295695654D01*
X145339819Y-295124226D02*
X144768390Y-295552797D01*
X144339819Y-295124226D02*
X144911247Y-295695654D01*
X225982319Y-254738035D02*
X224982319Y-254738035D01*
X224982319Y-254738035D02*
X224982319Y-254499940D01*
X224982319Y-254499940D02*
X225029938Y-254357083D01*
X225029938Y-254357083D02*
X225125176Y-254261845D01*
X225125176Y-254261845D02*
X225220414Y-254214226D01*
X225220414Y-254214226D02*
X225410890Y-254166607D01*
X225410890Y-254166607D02*
X225553747Y-254166607D01*
X225553747Y-254166607D02*
X225744223Y-254214226D01*
X225744223Y-254214226D02*
X225839461Y-254261845D01*
X225839461Y-254261845D02*
X225934700Y-254357083D01*
X225934700Y-254357083D02*
X225982319Y-254499940D01*
X225982319Y-254499940D02*
X225982319Y-254738035D01*
X225982319Y-253214226D02*
X225982319Y-253785654D01*
X225982319Y-253499940D02*
X224982319Y-253499940D01*
X224982319Y-253499940D02*
X225125176Y-253595178D01*
X225125176Y-253595178D02*
X225220414Y-253690416D01*
X225220414Y-253690416D02*
X225268033Y-253785654D01*
X225077557Y-252833273D02*
X225029938Y-252785654D01*
X225029938Y-252785654D02*
X224982319Y-252690416D01*
X224982319Y-252690416D02*
X224982319Y-252452321D01*
X224982319Y-252452321D02*
X225029938Y-252357083D01*
X225029938Y-252357083D02*
X225077557Y-252309464D01*
X225077557Y-252309464D02*
X225172795Y-252261845D01*
X225172795Y-252261845D02*
X225268033Y-252261845D01*
X225268033Y-252261845D02*
X225410890Y-252309464D01*
X225410890Y-252309464D02*
X225982319Y-252880892D01*
X225982319Y-252880892D02*
X225982319Y-252261845D01*
X226302319Y-257595654D02*
X225302319Y-257595654D01*
X226302319Y-257024226D02*
X225730890Y-257452797D01*
X225302319Y-257024226D02*
X225873747Y-257595654D01*
X235507319Y-273788035D02*
X234507319Y-273788035D01*
X234507319Y-273788035D02*
X234507319Y-273549940D01*
X234507319Y-273549940D02*
X234554938Y-273407083D01*
X234554938Y-273407083D02*
X234650176Y-273311845D01*
X234650176Y-273311845D02*
X234745414Y-273264226D01*
X234745414Y-273264226D02*
X234935890Y-273216607D01*
X234935890Y-273216607D02*
X235078747Y-273216607D01*
X235078747Y-273216607D02*
X235269223Y-273264226D01*
X235269223Y-273264226D02*
X235364461Y-273311845D01*
X235364461Y-273311845D02*
X235459700Y-273407083D01*
X235459700Y-273407083D02*
X235507319Y-273549940D01*
X235507319Y-273549940D02*
X235507319Y-273788035D01*
X234602557Y-272835654D02*
X234554938Y-272788035D01*
X234554938Y-272788035D02*
X234507319Y-272692797D01*
X234507319Y-272692797D02*
X234507319Y-272454702D01*
X234507319Y-272454702D02*
X234554938Y-272359464D01*
X234554938Y-272359464D02*
X234602557Y-272311845D01*
X234602557Y-272311845D02*
X234697795Y-272264226D01*
X234697795Y-272264226D02*
X234793033Y-272264226D01*
X234793033Y-272264226D02*
X234935890Y-272311845D01*
X234935890Y-272311845D02*
X235507319Y-272883273D01*
X235507319Y-272883273D02*
X235507319Y-272264226D01*
X234507319Y-271407083D02*
X234507319Y-271597559D01*
X234507319Y-271597559D02*
X234554938Y-271692797D01*
X234554938Y-271692797D02*
X234602557Y-271740416D01*
X234602557Y-271740416D02*
X234745414Y-271835654D01*
X234745414Y-271835654D02*
X234935890Y-271883273D01*
X234935890Y-271883273D02*
X235316842Y-271883273D01*
X235316842Y-271883273D02*
X235412080Y-271835654D01*
X235412080Y-271835654D02*
X235459700Y-271788035D01*
X235459700Y-271788035D02*
X235507319Y-271692797D01*
X235507319Y-271692797D02*
X235507319Y-271502321D01*
X235507319Y-271502321D02*
X235459700Y-271407083D01*
X235459700Y-271407083D02*
X235412080Y-271359464D01*
X235412080Y-271359464D02*
X235316842Y-271311845D01*
X235316842Y-271311845D02*
X235078747Y-271311845D01*
X235078747Y-271311845D02*
X234983509Y-271359464D01*
X234983509Y-271359464D02*
X234935890Y-271407083D01*
X234935890Y-271407083D02*
X234888271Y-271502321D01*
X234888271Y-271502321D02*
X234888271Y-271692797D01*
X234888271Y-271692797D02*
X234935890Y-271788035D01*
X234935890Y-271788035D02*
X234983509Y-271835654D01*
X234983509Y-271835654D02*
X235078747Y-271883273D01*
X235827319Y-276645654D02*
X234827319Y-276645654D01*
X235827319Y-276074226D02*
X235255890Y-276502797D01*
X234827319Y-276074226D02*
X235398747Y-276645654D01*
X292657319Y-311888035D02*
X291657319Y-311888035D01*
X291657319Y-311888035D02*
X291657319Y-311649940D01*
X291657319Y-311649940D02*
X291704938Y-311507083D01*
X291704938Y-311507083D02*
X291800176Y-311411845D01*
X291800176Y-311411845D02*
X291895414Y-311364226D01*
X291895414Y-311364226D02*
X292085890Y-311316607D01*
X292085890Y-311316607D02*
X292228747Y-311316607D01*
X292228747Y-311316607D02*
X292419223Y-311364226D01*
X292419223Y-311364226D02*
X292514461Y-311411845D01*
X292514461Y-311411845D02*
X292609700Y-311507083D01*
X292609700Y-311507083D02*
X292657319Y-311649940D01*
X292657319Y-311649940D02*
X292657319Y-311888035D01*
X291657319Y-310411845D02*
X291657319Y-310888035D01*
X291657319Y-310888035D02*
X292133509Y-310935654D01*
X292133509Y-310935654D02*
X292085890Y-310888035D01*
X292085890Y-310888035D02*
X292038271Y-310792797D01*
X292038271Y-310792797D02*
X292038271Y-310554702D01*
X292038271Y-310554702D02*
X292085890Y-310459464D01*
X292085890Y-310459464D02*
X292133509Y-310411845D01*
X292133509Y-310411845D02*
X292228747Y-310364226D01*
X292228747Y-310364226D02*
X292466842Y-310364226D01*
X292466842Y-310364226D02*
X292562080Y-310411845D01*
X292562080Y-310411845D02*
X292609700Y-310459464D01*
X292609700Y-310459464D02*
X292657319Y-310554702D01*
X292657319Y-310554702D02*
X292657319Y-310792797D01*
X292657319Y-310792797D02*
X292609700Y-310888035D01*
X292609700Y-310888035D02*
X292562080Y-310935654D01*
X291990652Y-309507083D02*
X292657319Y-309507083D01*
X291609700Y-309745178D02*
X292323985Y-309983273D01*
X292323985Y-309983273D02*
X292323985Y-309364226D01*
X292977319Y-314745654D02*
X291977319Y-314745654D01*
X292977319Y-314174226D02*
X292405890Y-314602797D01*
X291977319Y-314174226D02*
X292548747Y-314745654D01*
X68819819Y-292838035D02*
X67819819Y-292838035D01*
X67819819Y-292838035D02*
X67819819Y-292599940D01*
X67819819Y-292599940D02*
X67867438Y-292457083D01*
X67867438Y-292457083D02*
X67962676Y-292361845D01*
X67962676Y-292361845D02*
X68057914Y-292314226D01*
X68057914Y-292314226D02*
X68248390Y-292266607D01*
X68248390Y-292266607D02*
X68391247Y-292266607D01*
X68391247Y-292266607D02*
X68581723Y-292314226D01*
X68581723Y-292314226D02*
X68676961Y-292361845D01*
X68676961Y-292361845D02*
X68772200Y-292457083D01*
X68772200Y-292457083D02*
X68819819Y-292599940D01*
X68819819Y-292599940D02*
X68819819Y-292838035D01*
X67819819Y-291933273D02*
X67819819Y-291314226D01*
X67819819Y-291314226D02*
X68200771Y-291647559D01*
X68200771Y-291647559D02*
X68200771Y-291504702D01*
X68200771Y-291504702D02*
X68248390Y-291409464D01*
X68248390Y-291409464D02*
X68296009Y-291361845D01*
X68296009Y-291361845D02*
X68391247Y-291314226D01*
X68391247Y-291314226D02*
X68629342Y-291314226D01*
X68629342Y-291314226D02*
X68724580Y-291361845D01*
X68724580Y-291361845D02*
X68772200Y-291409464D01*
X68772200Y-291409464D02*
X68819819Y-291504702D01*
X68819819Y-291504702D02*
X68819819Y-291790416D01*
X68819819Y-291790416D02*
X68772200Y-291885654D01*
X68772200Y-291885654D02*
X68724580Y-291933273D01*
X68819819Y-290361845D02*
X68819819Y-290933273D01*
X68819819Y-290647559D02*
X67819819Y-290647559D01*
X67819819Y-290647559D02*
X67962676Y-290742797D01*
X67962676Y-290742797D02*
X68057914Y-290838035D01*
X68057914Y-290838035D02*
X68105533Y-290933273D01*
X69139819Y-295695654D02*
X68139819Y-295695654D01*
X69139819Y-295124226D02*
X68568390Y-295552797D01*
X68139819Y-295124226D02*
X68711247Y-295695654D01*
X135494819Y-311888035D02*
X134494819Y-311888035D01*
X134494819Y-311888035D02*
X134494819Y-311649940D01*
X134494819Y-311649940D02*
X134542438Y-311507083D01*
X134542438Y-311507083D02*
X134637676Y-311411845D01*
X134637676Y-311411845D02*
X134732914Y-311364226D01*
X134732914Y-311364226D02*
X134923390Y-311316607D01*
X134923390Y-311316607D02*
X135066247Y-311316607D01*
X135066247Y-311316607D02*
X135256723Y-311364226D01*
X135256723Y-311364226D02*
X135351961Y-311411845D01*
X135351961Y-311411845D02*
X135447200Y-311507083D01*
X135447200Y-311507083D02*
X135494819Y-311649940D01*
X135494819Y-311649940D02*
X135494819Y-311888035D01*
X134828152Y-310459464D02*
X135494819Y-310459464D01*
X134447200Y-310697559D02*
X135161485Y-310935654D01*
X135161485Y-310935654D02*
X135161485Y-310316607D01*
X134494819Y-310030892D02*
X134494819Y-309364226D01*
X134494819Y-309364226D02*
X135494819Y-309792797D01*
X135814819Y-314745654D02*
X134814819Y-314745654D01*
X135814819Y-314174226D02*
X135243390Y-314602797D01*
X134814819Y-314174226D02*
X135386247Y-314745654D01*
X311707319Y-330938035D02*
X310707319Y-330938035D01*
X310707319Y-330938035D02*
X310707319Y-330699940D01*
X310707319Y-330699940D02*
X310754938Y-330557083D01*
X310754938Y-330557083D02*
X310850176Y-330461845D01*
X310850176Y-330461845D02*
X310945414Y-330414226D01*
X310945414Y-330414226D02*
X311135890Y-330366607D01*
X311135890Y-330366607D02*
X311278747Y-330366607D01*
X311278747Y-330366607D02*
X311469223Y-330414226D01*
X311469223Y-330414226D02*
X311564461Y-330461845D01*
X311564461Y-330461845D02*
X311659700Y-330557083D01*
X311659700Y-330557083D02*
X311707319Y-330699940D01*
X311707319Y-330699940D02*
X311707319Y-330938035D01*
X310707319Y-329509464D02*
X310707319Y-329699940D01*
X310707319Y-329699940D02*
X310754938Y-329795178D01*
X310754938Y-329795178D02*
X310802557Y-329842797D01*
X310802557Y-329842797D02*
X310945414Y-329938035D01*
X310945414Y-329938035D02*
X311135890Y-329985654D01*
X311135890Y-329985654D02*
X311516842Y-329985654D01*
X311516842Y-329985654D02*
X311612080Y-329938035D01*
X311612080Y-329938035D02*
X311659700Y-329890416D01*
X311659700Y-329890416D02*
X311707319Y-329795178D01*
X311707319Y-329795178D02*
X311707319Y-329604702D01*
X311707319Y-329604702D02*
X311659700Y-329509464D01*
X311659700Y-329509464D02*
X311612080Y-329461845D01*
X311612080Y-329461845D02*
X311516842Y-329414226D01*
X311516842Y-329414226D02*
X311278747Y-329414226D01*
X311278747Y-329414226D02*
X311183509Y-329461845D01*
X311183509Y-329461845D02*
X311135890Y-329509464D01*
X311135890Y-329509464D02*
X311088271Y-329604702D01*
X311088271Y-329604702D02*
X311088271Y-329795178D01*
X311088271Y-329795178D02*
X311135890Y-329890416D01*
X311135890Y-329890416D02*
X311183509Y-329938035D01*
X311183509Y-329938035D02*
X311278747Y-329985654D01*
X311040652Y-328557083D02*
X311707319Y-328557083D01*
X310659700Y-328795178D02*
X311373985Y-329033273D01*
X311373985Y-329033273D02*
X311373985Y-328414226D01*
X312027319Y-333795654D02*
X311027319Y-333795654D01*
X312027319Y-333224226D02*
X311455890Y-333652797D01*
X311027319Y-333224226D02*
X311598747Y-333795654D01*
X16432319Y-254261844D02*
X15432319Y-254261844D01*
X15432319Y-254261844D02*
X15432319Y-254023749D01*
X15432319Y-254023749D02*
X15479938Y-253880892D01*
X15479938Y-253880892D02*
X15575176Y-253785654D01*
X15575176Y-253785654D02*
X15670414Y-253738035D01*
X15670414Y-253738035D02*
X15860890Y-253690416D01*
X15860890Y-253690416D02*
X16003747Y-253690416D01*
X16003747Y-253690416D02*
X16194223Y-253738035D01*
X16194223Y-253738035D02*
X16289461Y-253785654D01*
X16289461Y-253785654D02*
X16384700Y-253880892D01*
X16384700Y-253880892D02*
X16432319Y-254023749D01*
X16432319Y-254023749D02*
X16432319Y-254261844D01*
X16432319Y-252738035D02*
X16432319Y-253309463D01*
X16432319Y-253023749D02*
X15432319Y-253023749D01*
X15432319Y-253023749D02*
X15575176Y-253118987D01*
X15575176Y-253118987D02*
X15670414Y-253214225D01*
X15670414Y-253214225D02*
X15718033Y-253309463D01*
X16752319Y-257595654D02*
X15752319Y-257595654D01*
X16752319Y-257024226D02*
X16180890Y-257452797D01*
X15752319Y-257024226D02*
X16323747Y-257595654D01*
X106919819Y-292838035D02*
X105919819Y-292838035D01*
X105919819Y-292838035D02*
X105919819Y-292599940D01*
X105919819Y-292599940D02*
X105967438Y-292457083D01*
X105967438Y-292457083D02*
X106062676Y-292361845D01*
X106062676Y-292361845D02*
X106157914Y-292314226D01*
X106157914Y-292314226D02*
X106348390Y-292266607D01*
X106348390Y-292266607D02*
X106491247Y-292266607D01*
X106491247Y-292266607D02*
X106681723Y-292314226D01*
X106681723Y-292314226D02*
X106776961Y-292361845D01*
X106776961Y-292361845D02*
X106872200Y-292457083D01*
X106872200Y-292457083D02*
X106919819Y-292599940D01*
X106919819Y-292599940D02*
X106919819Y-292838035D01*
X105919819Y-291933273D02*
X105919819Y-291314226D01*
X105919819Y-291314226D02*
X106300771Y-291647559D01*
X106300771Y-291647559D02*
X106300771Y-291504702D01*
X106300771Y-291504702D02*
X106348390Y-291409464D01*
X106348390Y-291409464D02*
X106396009Y-291361845D01*
X106396009Y-291361845D02*
X106491247Y-291314226D01*
X106491247Y-291314226D02*
X106729342Y-291314226D01*
X106729342Y-291314226D02*
X106824580Y-291361845D01*
X106824580Y-291361845D02*
X106872200Y-291409464D01*
X106872200Y-291409464D02*
X106919819Y-291504702D01*
X106919819Y-291504702D02*
X106919819Y-291790416D01*
X106919819Y-291790416D02*
X106872200Y-291885654D01*
X106872200Y-291885654D02*
X106824580Y-291933273D01*
X105919819Y-290980892D02*
X105919819Y-290361845D01*
X105919819Y-290361845D02*
X106300771Y-290695178D01*
X106300771Y-290695178D02*
X106300771Y-290552321D01*
X106300771Y-290552321D02*
X106348390Y-290457083D01*
X106348390Y-290457083D02*
X106396009Y-290409464D01*
X106396009Y-290409464D02*
X106491247Y-290361845D01*
X106491247Y-290361845D02*
X106729342Y-290361845D01*
X106729342Y-290361845D02*
X106824580Y-290409464D01*
X106824580Y-290409464D02*
X106872200Y-290457083D01*
X106872200Y-290457083D02*
X106919819Y-290552321D01*
X106919819Y-290552321D02*
X106919819Y-290838035D01*
X106919819Y-290838035D02*
X106872200Y-290933273D01*
X106872200Y-290933273D02*
X106824580Y-290980892D01*
X107239819Y-295695654D02*
X106239819Y-295695654D01*
X107239819Y-295124226D02*
X106668390Y-295552797D01*
X106239819Y-295124226D02*
X106811247Y-295695654D01*
X92632319Y-254261844D02*
X91632319Y-254261844D01*
X91632319Y-254261844D02*
X91632319Y-254023749D01*
X91632319Y-254023749D02*
X91679938Y-253880892D01*
X91679938Y-253880892D02*
X91775176Y-253785654D01*
X91775176Y-253785654D02*
X91870414Y-253738035D01*
X91870414Y-253738035D02*
X92060890Y-253690416D01*
X92060890Y-253690416D02*
X92203747Y-253690416D01*
X92203747Y-253690416D02*
X92394223Y-253738035D01*
X92394223Y-253738035D02*
X92489461Y-253785654D01*
X92489461Y-253785654D02*
X92584700Y-253880892D01*
X92584700Y-253880892D02*
X92632319Y-254023749D01*
X92632319Y-254023749D02*
X92632319Y-254261844D01*
X91632319Y-252785654D02*
X91632319Y-253261844D01*
X91632319Y-253261844D02*
X92108509Y-253309463D01*
X92108509Y-253309463D02*
X92060890Y-253261844D01*
X92060890Y-253261844D02*
X92013271Y-253166606D01*
X92013271Y-253166606D02*
X92013271Y-252928511D01*
X92013271Y-252928511D02*
X92060890Y-252833273D01*
X92060890Y-252833273D02*
X92108509Y-252785654D01*
X92108509Y-252785654D02*
X92203747Y-252738035D01*
X92203747Y-252738035D02*
X92441842Y-252738035D01*
X92441842Y-252738035D02*
X92537080Y-252785654D01*
X92537080Y-252785654D02*
X92584700Y-252833273D01*
X92584700Y-252833273D02*
X92632319Y-252928511D01*
X92632319Y-252928511D02*
X92632319Y-253166606D01*
X92632319Y-253166606D02*
X92584700Y-253261844D01*
X92584700Y-253261844D02*
X92537080Y-253309463D01*
X92952319Y-257595654D02*
X91952319Y-257595654D01*
X92952319Y-257024226D02*
X92380890Y-257452797D01*
X91952319Y-257024226D02*
X92523747Y-257595654D01*
X38816069Y-311888035D02*
X37816069Y-311888035D01*
X37816069Y-311888035D02*
X37816069Y-311649940D01*
X37816069Y-311649940D02*
X37863688Y-311507083D01*
X37863688Y-311507083D02*
X37958926Y-311411845D01*
X37958926Y-311411845D02*
X38054164Y-311364226D01*
X38054164Y-311364226D02*
X38244640Y-311316607D01*
X38244640Y-311316607D02*
X38387497Y-311316607D01*
X38387497Y-311316607D02*
X38577973Y-311364226D01*
X38577973Y-311364226D02*
X38673211Y-311411845D01*
X38673211Y-311411845D02*
X38768450Y-311507083D01*
X38768450Y-311507083D02*
X38816069Y-311649940D01*
X38816069Y-311649940D02*
X38816069Y-311888035D01*
X38149402Y-310459464D02*
X38816069Y-310459464D01*
X37768450Y-310697559D02*
X38482735Y-310935654D01*
X38482735Y-310935654D02*
X38482735Y-310316607D01*
X37911307Y-309983273D02*
X37863688Y-309935654D01*
X37863688Y-309935654D02*
X37816069Y-309840416D01*
X37816069Y-309840416D02*
X37816069Y-309602321D01*
X37816069Y-309602321D02*
X37863688Y-309507083D01*
X37863688Y-309507083D02*
X37911307Y-309459464D01*
X37911307Y-309459464D02*
X38006545Y-309411845D01*
X38006545Y-309411845D02*
X38101783Y-309411845D01*
X38101783Y-309411845D02*
X38244640Y-309459464D01*
X38244640Y-309459464D02*
X38816069Y-310030892D01*
X38816069Y-310030892D02*
X38816069Y-309411845D01*
X39136069Y-314745654D02*
X38136069Y-314745654D01*
X39136069Y-314174226D02*
X38564640Y-314602797D01*
X38136069Y-314174226D02*
X38707497Y-314745654D01*
X140257319Y-273788035D02*
X139257319Y-273788035D01*
X139257319Y-273788035D02*
X139257319Y-273549940D01*
X139257319Y-273549940D02*
X139304938Y-273407083D01*
X139304938Y-273407083D02*
X139400176Y-273311845D01*
X139400176Y-273311845D02*
X139495414Y-273264226D01*
X139495414Y-273264226D02*
X139685890Y-273216607D01*
X139685890Y-273216607D02*
X139828747Y-273216607D01*
X139828747Y-273216607D02*
X140019223Y-273264226D01*
X140019223Y-273264226D02*
X140114461Y-273311845D01*
X140114461Y-273311845D02*
X140209700Y-273407083D01*
X140209700Y-273407083D02*
X140257319Y-273549940D01*
X140257319Y-273549940D02*
X140257319Y-273788035D01*
X139352557Y-272835654D02*
X139304938Y-272788035D01*
X139304938Y-272788035D02*
X139257319Y-272692797D01*
X139257319Y-272692797D02*
X139257319Y-272454702D01*
X139257319Y-272454702D02*
X139304938Y-272359464D01*
X139304938Y-272359464D02*
X139352557Y-272311845D01*
X139352557Y-272311845D02*
X139447795Y-272264226D01*
X139447795Y-272264226D02*
X139543033Y-272264226D01*
X139543033Y-272264226D02*
X139685890Y-272311845D01*
X139685890Y-272311845D02*
X140257319Y-272883273D01*
X140257319Y-272883273D02*
X140257319Y-272264226D01*
X140257319Y-271311845D02*
X140257319Y-271883273D01*
X140257319Y-271597559D02*
X139257319Y-271597559D01*
X139257319Y-271597559D02*
X139400176Y-271692797D01*
X139400176Y-271692797D02*
X139495414Y-271788035D01*
X139495414Y-271788035D02*
X139543033Y-271883273D01*
X140577319Y-276645654D02*
X139577319Y-276645654D01*
X140577319Y-276074226D02*
X140005890Y-276502797D01*
X139577319Y-276074226D02*
X140148747Y-276645654D01*
X45007319Y-273788035D02*
X44007319Y-273788035D01*
X44007319Y-273788035D02*
X44007319Y-273549940D01*
X44007319Y-273549940D02*
X44054938Y-273407083D01*
X44054938Y-273407083D02*
X44150176Y-273311845D01*
X44150176Y-273311845D02*
X44245414Y-273264226D01*
X44245414Y-273264226D02*
X44435890Y-273216607D01*
X44435890Y-273216607D02*
X44578747Y-273216607D01*
X44578747Y-273216607D02*
X44769223Y-273264226D01*
X44769223Y-273264226D02*
X44864461Y-273311845D01*
X44864461Y-273311845D02*
X44959700Y-273407083D01*
X44959700Y-273407083D02*
X45007319Y-273549940D01*
X45007319Y-273549940D02*
X45007319Y-273788035D01*
X45007319Y-272264226D02*
X45007319Y-272835654D01*
X45007319Y-272549940D02*
X44007319Y-272549940D01*
X44007319Y-272549940D02*
X44150176Y-272645178D01*
X44150176Y-272645178D02*
X44245414Y-272740416D01*
X44245414Y-272740416D02*
X44293033Y-272835654D01*
X44007319Y-271407083D02*
X44007319Y-271597559D01*
X44007319Y-271597559D02*
X44054938Y-271692797D01*
X44054938Y-271692797D02*
X44102557Y-271740416D01*
X44102557Y-271740416D02*
X44245414Y-271835654D01*
X44245414Y-271835654D02*
X44435890Y-271883273D01*
X44435890Y-271883273D02*
X44816842Y-271883273D01*
X44816842Y-271883273D02*
X44912080Y-271835654D01*
X44912080Y-271835654D02*
X44959700Y-271788035D01*
X44959700Y-271788035D02*
X45007319Y-271692797D01*
X45007319Y-271692797D02*
X45007319Y-271502321D01*
X45007319Y-271502321D02*
X44959700Y-271407083D01*
X44959700Y-271407083D02*
X44912080Y-271359464D01*
X44912080Y-271359464D02*
X44816842Y-271311845D01*
X44816842Y-271311845D02*
X44578747Y-271311845D01*
X44578747Y-271311845D02*
X44483509Y-271359464D01*
X44483509Y-271359464D02*
X44435890Y-271407083D01*
X44435890Y-271407083D02*
X44388271Y-271502321D01*
X44388271Y-271502321D02*
X44388271Y-271692797D01*
X44388271Y-271692797D02*
X44435890Y-271788035D01*
X44435890Y-271788035D02*
X44483509Y-271835654D01*
X44483509Y-271835654D02*
X44578747Y-271883273D01*
X45327319Y-276645654D02*
X44327319Y-276645654D01*
X45327319Y-276074226D02*
X44755890Y-276502797D01*
X44327319Y-276074226D02*
X44898747Y-276645654D01*
X154544819Y-311888035D02*
X153544819Y-311888035D01*
X153544819Y-311888035D02*
X153544819Y-311649940D01*
X153544819Y-311649940D02*
X153592438Y-311507083D01*
X153592438Y-311507083D02*
X153687676Y-311411845D01*
X153687676Y-311411845D02*
X153782914Y-311364226D01*
X153782914Y-311364226D02*
X153973390Y-311316607D01*
X153973390Y-311316607D02*
X154116247Y-311316607D01*
X154116247Y-311316607D02*
X154306723Y-311364226D01*
X154306723Y-311364226D02*
X154401961Y-311411845D01*
X154401961Y-311411845D02*
X154497200Y-311507083D01*
X154497200Y-311507083D02*
X154544819Y-311649940D01*
X154544819Y-311649940D02*
X154544819Y-311888035D01*
X153878152Y-310459464D02*
X154544819Y-310459464D01*
X153497200Y-310697559D02*
X154211485Y-310935654D01*
X154211485Y-310935654D02*
X154211485Y-310316607D01*
X153973390Y-309792797D02*
X153925771Y-309888035D01*
X153925771Y-309888035D02*
X153878152Y-309935654D01*
X153878152Y-309935654D02*
X153782914Y-309983273D01*
X153782914Y-309983273D02*
X153735295Y-309983273D01*
X153735295Y-309983273D02*
X153640057Y-309935654D01*
X153640057Y-309935654D02*
X153592438Y-309888035D01*
X153592438Y-309888035D02*
X153544819Y-309792797D01*
X153544819Y-309792797D02*
X153544819Y-309602321D01*
X153544819Y-309602321D02*
X153592438Y-309507083D01*
X153592438Y-309507083D02*
X153640057Y-309459464D01*
X153640057Y-309459464D02*
X153735295Y-309411845D01*
X153735295Y-309411845D02*
X153782914Y-309411845D01*
X153782914Y-309411845D02*
X153878152Y-309459464D01*
X153878152Y-309459464D02*
X153925771Y-309507083D01*
X153925771Y-309507083D02*
X153973390Y-309602321D01*
X153973390Y-309602321D02*
X153973390Y-309792797D01*
X153973390Y-309792797D02*
X154021009Y-309888035D01*
X154021009Y-309888035D02*
X154068628Y-309935654D01*
X154068628Y-309935654D02*
X154163866Y-309983273D01*
X154163866Y-309983273D02*
X154354342Y-309983273D01*
X154354342Y-309983273D02*
X154449580Y-309935654D01*
X154449580Y-309935654D02*
X154497200Y-309888035D01*
X154497200Y-309888035D02*
X154544819Y-309792797D01*
X154544819Y-309792797D02*
X154544819Y-309602321D01*
X154544819Y-309602321D02*
X154497200Y-309507083D01*
X154497200Y-309507083D02*
X154449580Y-309459464D01*
X154449580Y-309459464D02*
X154354342Y-309411845D01*
X154354342Y-309411845D02*
X154163866Y-309411845D01*
X154163866Y-309411845D02*
X154068628Y-309459464D01*
X154068628Y-309459464D02*
X154021009Y-309507083D01*
X154021009Y-309507083D02*
X153973390Y-309602321D01*
X154864819Y-314745654D02*
X153864819Y-314745654D01*
X154864819Y-314174226D02*
X154293390Y-314602797D01*
X153864819Y-314174226D02*
X154436247Y-314745654D01*
X125969819Y-292838035D02*
X124969819Y-292838035D01*
X124969819Y-292838035D02*
X124969819Y-292599940D01*
X124969819Y-292599940D02*
X125017438Y-292457083D01*
X125017438Y-292457083D02*
X125112676Y-292361845D01*
X125112676Y-292361845D02*
X125207914Y-292314226D01*
X125207914Y-292314226D02*
X125398390Y-292266607D01*
X125398390Y-292266607D02*
X125541247Y-292266607D01*
X125541247Y-292266607D02*
X125731723Y-292314226D01*
X125731723Y-292314226D02*
X125826961Y-292361845D01*
X125826961Y-292361845D02*
X125922200Y-292457083D01*
X125922200Y-292457083D02*
X125969819Y-292599940D01*
X125969819Y-292599940D02*
X125969819Y-292838035D01*
X124969819Y-291933273D02*
X124969819Y-291314226D01*
X124969819Y-291314226D02*
X125350771Y-291647559D01*
X125350771Y-291647559D02*
X125350771Y-291504702D01*
X125350771Y-291504702D02*
X125398390Y-291409464D01*
X125398390Y-291409464D02*
X125446009Y-291361845D01*
X125446009Y-291361845D02*
X125541247Y-291314226D01*
X125541247Y-291314226D02*
X125779342Y-291314226D01*
X125779342Y-291314226D02*
X125874580Y-291361845D01*
X125874580Y-291361845D02*
X125922200Y-291409464D01*
X125922200Y-291409464D02*
X125969819Y-291504702D01*
X125969819Y-291504702D02*
X125969819Y-291790416D01*
X125969819Y-291790416D02*
X125922200Y-291885654D01*
X125922200Y-291885654D02*
X125874580Y-291933273D01*
X125303152Y-290457083D02*
X125969819Y-290457083D01*
X124922200Y-290695178D02*
X125636485Y-290933273D01*
X125636485Y-290933273D02*
X125636485Y-290314226D01*
X126289819Y-295695654D02*
X125289819Y-295695654D01*
X126289819Y-295124226D02*
X125718390Y-295552797D01*
X125289819Y-295124226D02*
X125861247Y-295695654D01*
X116444819Y-311888035D02*
X115444819Y-311888035D01*
X115444819Y-311888035D02*
X115444819Y-311649940D01*
X115444819Y-311649940D02*
X115492438Y-311507083D01*
X115492438Y-311507083D02*
X115587676Y-311411845D01*
X115587676Y-311411845D02*
X115682914Y-311364226D01*
X115682914Y-311364226D02*
X115873390Y-311316607D01*
X115873390Y-311316607D02*
X116016247Y-311316607D01*
X116016247Y-311316607D02*
X116206723Y-311364226D01*
X116206723Y-311364226D02*
X116301961Y-311411845D01*
X116301961Y-311411845D02*
X116397200Y-311507083D01*
X116397200Y-311507083D02*
X116444819Y-311649940D01*
X116444819Y-311649940D02*
X116444819Y-311888035D01*
X115778152Y-310459464D02*
X116444819Y-310459464D01*
X115397200Y-310697559D02*
X116111485Y-310935654D01*
X116111485Y-310935654D02*
X116111485Y-310316607D01*
X115444819Y-309507083D02*
X115444819Y-309697559D01*
X115444819Y-309697559D02*
X115492438Y-309792797D01*
X115492438Y-309792797D02*
X115540057Y-309840416D01*
X115540057Y-309840416D02*
X115682914Y-309935654D01*
X115682914Y-309935654D02*
X115873390Y-309983273D01*
X115873390Y-309983273D02*
X116254342Y-309983273D01*
X116254342Y-309983273D02*
X116349580Y-309935654D01*
X116349580Y-309935654D02*
X116397200Y-309888035D01*
X116397200Y-309888035D02*
X116444819Y-309792797D01*
X116444819Y-309792797D02*
X116444819Y-309602321D01*
X116444819Y-309602321D02*
X116397200Y-309507083D01*
X116397200Y-309507083D02*
X116349580Y-309459464D01*
X116349580Y-309459464D02*
X116254342Y-309411845D01*
X116254342Y-309411845D02*
X116016247Y-309411845D01*
X116016247Y-309411845D02*
X115921009Y-309459464D01*
X115921009Y-309459464D02*
X115873390Y-309507083D01*
X115873390Y-309507083D02*
X115825771Y-309602321D01*
X115825771Y-309602321D02*
X115825771Y-309792797D01*
X115825771Y-309792797D02*
X115873390Y-309888035D01*
X115873390Y-309888035D02*
X115921009Y-309935654D01*
X115921009Y-309935654D02*
X116016247Y-309983273D01*
X116764819Y-314745654D02*
X115764819Y-314745654D01*
X116764819Y-314174226D02*
X116193390Y-314602797D01*
X115764819Y-314174226D02*
X116336247Y-314745654D01*
X240269819Y-292838035D02*
X239269819Y-292838035D01*
X239269819Y-292838035D02*
X239269819Y-292599940D01*
X239269819Y-292599940D02*
X239317438Y-292457083D01*
X239317438Y-292457083D02*
X239412676Y-292361845D01*
X239412676Y-292361845D02*
X239507914Y-292314226D01*
X239507914Y-292314226D02*
X239698390Y-292266607D01*
X239698390Y-292266607D02*
X239841247Y-292266607D01*
X239841247Y-292266607D02*
X240031723Y-292314226D01*
X240031723Y-292314226D02*
X240126961Y-292361845D01*
X240126961Y-292361845D02*
X240222200Y-292457083D01*
X240222200Y-292457083D02*
X240269819Y-292599940D01*
X240269819Y-292599940D02*
X240269819Y-292838035D01*
X239603152Y-291409464D02*
X240269819Y-291409464D01*
X239222200Y-291647559D02*
X239936485Y-291885654D01*
X239936485Y-291885654D02*
X239936485Y-291266607D01*
X239269819Y-290695178D02*
X239269819Y-290599940D01*
X239269819Y-290599940D02*
X239317438Y-290504702D01*
X239317438Y-290504702D02*
X239365057Y-290457083D01*
X239365057Y-290457083D02*
X239460295Y-290409464D01*
X239460295Y-290409464D02*
X239650771Y-290361845D01*
X239650771Y-290361845D02*
X239888866Y-290361845D01*
X239888866Y-290361845D02*
X240079342Y-290409464D01*
X240079342Y-290409464D02*
X240174580Y-290457083D01*
X240174580Y-290457083D02*
X240222200Y-290504702D01*
X240222200Y-290504702D02*
X240269819Y-290599940D01*
X240269819Y-290599940D02*
X240269819Y-290695178D01*
X240269819Y-290695178D02*
X240222200Y-290790416D01*
X240222200Y-290790416D02*
X240174580Y-290838035D01*
X240174580Y-290838035D02*
X240079342Y-290885654D01*
X240079342Y-290885654D02*
X239888866Y-290933273D01*
X239888866Y-290933273D02*
X239650771Y-290933273D01*
X239650771Y-290933273D02*
X239460295Y-290885654D01*
X239460295Y-290885654D02*
X239365057Y-290838035D01*
X239365057Y-290838035D02*
X239317438Y-290790416D01*
X239317438Y-290790416D02*
X239269819Y-290695178D01*
X240589819Y-295695654D02*
X239589819Y-295695654D01*
X240589819Y-295124226D02*
X240018390Y-295552797D01*
X239589819Y-295124226D02*
X240161247Y-295695654D01*
X73582319Y-254261844D02*
X72582319Y-254261844D01*
X72582319Y-254261844D02*
X72582319Y-254023749D01*
X72582319Y-254023749D02*
X72629938Y-253880892D01*
X72629938Y-253880892D02*
X72725176Y-253785654D01*
X72725176Y-253785654D02*
X72820414Y-253738035D01*
X72820414Y-253738035D02*
X73010890Y-253690416D01*
X73010890Y-253690416D02*
X73153747Y-253690416D01*
X73153747Y-253690416D02*
X73344223Y-253738035D01*
X73344223Y-253738035D02*
X73439461Y-253785654D01*
X73439461Y-253785654D02*
X73534700Y-253880892D01*
X73534700Y-253880892D02*
X73582319Y-254023749D01*
X73582319Y-254023749D02*
X73582319Y-254261844D01*
X72915652Y-252833273D02*
X73582319Y-252833273D01*
X72534700Y-253071368D02*
X73248985Y-253309463D01*
X73248985Y-253309463D02*
X73248985Y-252690416D01*
X73902319Y-257595654D02*
X72902319Y-257595654D01*
X73902319Y-257024226D02*
X73330890Y-257452797D01*
X72902319Y-257024226D02*
X73473747Y-257595654D01*
X206932319Y-254738035D02*
X205932319Y-254738035D01*
X205932319Y-254738035D02*
X205932319Y-254499940D01*
X205932319Y-254499940D02*
X205979938Y-254357083D01*
X205979938Y-254357083D02*
X206075176Y-254261845D01*
X206075176Y-254261845D02*
X206170414Y-254214226D01*
X206170414Y-254214226D02*
X206360890Y-254166607D01*
X206360890Y-254166607D02*
X206503747Y-254166607D01*
X206503747Y-254166607D02*
X206694223Y-254214226D01*
X206694223Y-254214226D02*
X206789461Y-254261845D01*
X206789461Y-254261845D02*
X206884700Y-254357083D01*
X206884700Y-254357083D02*
X206932319Y-254499940D01*
X206932319Y-254499940D02*
X206932319Y-254738035D01*
X206932319Y-253214226D02*
X206932319Y-253785654D01*
X206932319Y-253499940D02*
X205932319Y-253499940D01*
X205932319Y-253499940D02*
X206075176Y-253595178D01*
X206075176Y-253595178D02*
X206170414Y-253690416D01*
X206170414Y-253690416D02*
X206218033Y-253785654D01*
X206932319Y-252261845D02*
X206932319Y-252833273D01*
X206932319Y-252547559D02*
X205932319Y-252547559D01*
X205932319Y-252547559D02*
X206075176Y-252642797D01*
X206075176Y-252642797D02*
X206170414Y-252738035D01*
X206170414Y-252738035D02*
X206218033Y-252833273D01*
X207252319Y-257595654D02*
X206252319Y-257595654D01*
X207252319Y-257024226D02*
X206680890Y-257452797D01*
X206252319Y-257024226D02*
X206823747Y-257595654D01*
X49769819Y-292838035D02*
X48769819Y-292838035D01*
X48769819Y-292838035D02*
X48769819Y-292599940D01*
X48769819Y-292599940D02*
X48817438Y-292457083D01*
X48817438Y-292457083D02*
X48912676Y-292361845D01*
X48912676Y-292361845D02*
X49007914Y-292314226D01*
X49007914Y-292314226D02*
X49198390Y-292266607D01*
X49198390Y-292266607D02*
X49341247Y-292266607D01*
X49341247Y-292266607D02*
X49531723Y-292314226D01*
X49531723Y-292314226D02*
X49626961Y-292361845D01*
X49626961Y-292361845D02*
X49722200Y-292457083D01*
X49722200Y-292457083D02*
X49769819Y-292599940D01*
X49769819Y-292599940D02*
X49769819Y-292838035D01*
X48769819Y-291933273D02*
X48769819Y-291314226D01*
X48769819Y-291314226D02*
X49150771Y-291647559D01*
X49150771Y-291647559D02*
X49150771Y-291504702D01*
X49150771Y-291504702D02*
X49198390Y-291409464D01*
X49198390Y-291409464D02*
X49246009Y-291361845D01*
X49246009Y-291361845D02*
X49341247Y-291314226D01*
X49341247Y-291314226D02*
X49579342Y-291314226D01*
X49579342Y-291314226D02*
X49674580Y-291361845D01*
X49674580Y-291361845D02*
X49722200Y-291409464D01*
X49722200Y-291409464D02*
X49769819Y-291504702D01*
X49769819Y-291504702D02*
X49769819Y-291790416D01*
X49769819Y-291790416D02*
X49722200Y-291885654D01*
X49722200Y-291885654D02*
X49674580Y-291933273D01*
X48769819Y-290695178D02*
X48769819Y-290599940D01*
X48769819Y-290599940D02*
X48817438Y-290504702D01*
X48817438Y-290504702D02*
X48865057Y-290457083D01*
X48865057Y-290457083D02*
X48960295Y-290409464D01*
X48960295Y-290409464D02*
X49150771Y-290361845D01*
X49150771Y-290361845D02*
X49388866Y-290361845D01*
X49388866Y-290361845D02*
X49579342Y-290409464D01*
X49579342Y-290409464D02*
X49674580Y-290457083D01*
X49674580Y-290457083D02*
X49722200Y-290504702D01*
X49722200Y-290504702D02*
X49769819Y-290599940D01*
X49769819Y-290599940D02*
X49769819Y-290695178D01*
X49769819Y-290695178D02*
X49722200Y-290790416D01*
X49722200Y-290790416D02*
X49674580Y-290838035D01*
X49674580Y-290838035D02*
X49579342Y-290885654D01*
X49579342Y-290885654D02*
X49388866Y-290933273D01*
X49388866Y-290933273D02*
X49150771Y-290933273D01*
X49150771Y-290933273D02*
X48960295Y-290885654D01*
X48960295Y-290885654D02*
X48865057Y-290838035D01*
X48865057Y-290838035D02*
X48817438Y-290790416D01*
X48817438Y-290790416D02*
X48769819Y-290695178D01*
X50089819Y-295695654D02*
X49089819Y-295695654D01*
X50089819Y-295124226D02*
X49518390Y-295552797D01*
X49089819Y-295124226D02*
X49661247Y-295695654D01*
X130732319Y-254261844D02*
X129732319Y-254261844D01*
X129732319Y-254261844D02*
X129732319Y-254023749D01*
X129732319Y-254023749D02*
X129779938Y-253880892D01*
X129779938Y-253880892D02*
X129875176Y-253785654D01*
X129875176Y-253785654D02*
X129970414Y-253738035D01*
X129970414Y-253738035D02*
X130160890Y-253690416D01*
X130160890Y-253690416D02*
X130303747Y-253690416D01*
X130303747Y-253690416D02*
X130494223Y-253738035D01*
X130494223Y-253738035D02*
X130589461Y-253785654D01*
X130589461Y-253785654D02*
X130684700Y-253880892D01*
X130684700Y-253880892D02*
X130732319Y-254023749D01*
X130732319Y-254023749D02*
X130732319Y-254261844D01*
X129732319Y-253357082D02*
X129732319Y-252690416D01*
X129732319Y-252690416D02*
X130732319Y-253118987D01*
X131052319Y-257595654D02*
X130052319Y-257595654D01*
X131052319Y-257024226D02*
X130480890Y-257452797D01*
X130052319Y-257024226D02*
X130623747Y-257595654D01*
X268844819Y-254738035D02*
X267844819Y-254738035D01*
X267844819Y-254738035D02*
X267844819Y-254499940D01*
X267844819Y-254499940D02*
X267892438Y-254357083D01*
X267892438Y-254357083D02*
X267987676Y-254261845D01*
X267987676Y-254261845D02*
X268082914Y-254214226D01*
X268082914Y-254214226D02*
X268273390Y-254166607D01*
X268273390Y-254166607D02*
X268416247Y-254166607D01*
X268416247Y-254166607D02*
X268606723Y-254214226D01*
X268606723Y-254214226D02*
X268701961Y-254261845D01*
X268701961Y-254261845D02*
X268797200Y-254357083D01*
X268797200Y-254357083D02*
X268844819Y-254499940D01*
X268844819Y-254499940D02*
X268844819Y-254738035D01*
X268844819Y-253214226D02*
X268844819Y-253785654D01*
X268844819Y-253499940D02*
X267844819Y-253499940D01*
X267844819Y-253499940D02*
X267987676Y-253595178D01*
X267987676Y-253595178D02*
X268082914Y-253690416D01*
X268082914Y-253690416D02*
X268130533Y-253785654D01*
X268178152Y-252357083D02*
X268844819Y-252357083D01*
X267797200Y-252595178D02*
X268511485Y-252833273D01*
X268511485Y-252833273D02*
X268511485Y-252214226D01*
X269164819Y-257595654D02*
X268164819Y-257595654D01*
X269164819Y-257024226D02*
X268593390Y-257452797D01*
X268164819Y-257024226D02*
X268736247Y-257595654D01*
X135494819Y-330938035D02*
X134494819Y-330938035D01*
X134494819Y-330938035D02*
X134494819Y-330699940D01*
X134494819Y-330699940D02*
X134542438Y-330557083D01*
X134542438Y-330557083D02*
X134637676Y-330461845D01*
X134637676Y-330461845D02*
X134732914Y-330414226D01*
X134732914Y-330414226D02*
X134923390Y-330366607D01*
X134923390Y-330366607D02*
X135066247Y-330366607D01*
X135066247Y-330366607D02*
X135256723Y-330414226D01*
X135256723Y-330414226D02*
X135351961Y-330461845D01*
X135351961Y-330461845D02*
X135447200Y-330557083D01*
X135447200Y-330557083D02*
X135494819Y-330699940D01*
X135494819Y-330699940D02*
X135494819Y-330938035D01*
X134494819Y-329461845D02*
X134494819Y-329938035D01*
X134494819Y-329938035D02*
X134971009Y-329985654D01*
X134971009Y-329985654D02*
X134923390Y-329938035D01*
X134923390Y-329938035D02*
X134875771Y-329842797D01*
X134875771Y-329842797D02*
X134875771Y-329604702D01*
X134875771Y-329604702D02*
X134923390Y-329509464D01*
X134923390Y-329509464D02*
X134971009Y-329461845D01*
X134971009Y-329461845D02*
X135066247Y-329414226D01*
X135066247Y-329414226D02*
X135304342Y-329414226D01*
X135304342Y-329414226D02*
X135399580Y-329461845D01*
X135399580Y-329461845D02*
X135447200Y-329509464D01*
X135447200Y-329509464D02*
X135494819Y-329604702D01*
X135494819Y-329604702D02*
X135494819Y-329842797D01*
X135494819Y-329842797D02*
X135447200Y-329938035D01*
X135447200Y-329938035D02*
X135399580Y-329985654D01*
X135494819Y-328938035D02*
X135494819Y-328747559D01*
X135494819Y-328747559D02*
X135447200Y-328652321D01*
X135447200Y-328652321D02*
X135399580Y-328604702D01*
X135399580Y-328604702D02*
X135256723Y-328509464D01*
X135256723Y-328509464D02*
X135066247Y-328461845D01*
X135066247Y-328461845D02*
X134685295Y-328461845D01*
X134685295Y-328461845D02*
X134590057Y-328509464D01*
X134590057Y-328509464D02*
X134542438Y-328557083D01*
X134542438Y-328557083D02*
X134494819Y-328652321D01*
X134494819Y-328652321D02*
X134494819Y-328842797D01*
X134494819Y-328842797D02*
X134542438Y-328938035D01*
X134542438Y-328938035D02*
X134590057Y-328985654D01*
X134590057Y-328985654D02*
X134685295Y-329033273D01*
X134685295Y-329033273D02*
X134923390Y-329033273D01*
X134923390Y-329033273D02*
X135018628Y-328985654D01*
X135018628Y-328985654D02*
X135066247Y-328938035D01*
X135066247Y-328938035D02*
X135113866Y-328842797D01*
X135113866Y-328842797D02*
X135113866Y-328652321D01*
X135113866Y-328652321D02*
X135066247Y-328557083D01*
X135066247Y-328557083D02*
X135018628Y-328509464D01*
X135018628Y-328509464D02*
X134923390Y-328461845D01*
X135814819Y-333795654D02*
X134814819Y-333795654D01*
X135814819Y-333224226D02*
X135243390Y-333652797D01*
X134814819Y-333224226D02*
X135386247Y-333795654D01*
X221219819Y-330938035D02*
X220219819Y-330938035D01*
X220219819Y-330938035D02*
X220219819Y-330699940D01*
X220219819Y-330699940D02*
X220267438Y-330557083D01*
X220267438Y-330557083D02*
X220362676Y-330461845D01*
X220362676Y-330461845D02*
X220457914Y-330414226D01*
X220457914Y-330414226D02*
X220648390Y-330366607D01*
X220648390Y-330366607D02*
X220791247Y-330366607D01*
X220791247Y-330366607D02*
X220981723Y-330414226D01*
X220981723Y-330414226D02*
X221076961Y-330461845D01*
X221076961Y-330461845D02*
X221172200Y-330557083D01*
X221172200Y-330557083D02*
X221219819Y-330699940D01*
X221219819Y-330699940D02*
X221219819Y-330938035D01*
X220219819Y-329509464D02*
X220219819Y-329699940D01*
X220219819Y-329699940D02*
X220267438Y-329795178D01*
X220267438Y-329795178D02*
X220315057Y-329842797D01*
X220315057Y-329842797D02*
X220457914Y-329938035D01*
X220457914Y-329938035D02*
X220648390Y-329985654D01*
X220648390Y-329985654D02*
X221029342Y-329985654D01*
X221029342Y-329985654D02*
X221124580Y-329938035D01*
X221124580Y-329938035D02*
X221172200Y-329890416D01*
X221172200Y-329890416D02*
X221219819Y-329795178D01*
X221219819Y-329795178D02*
X221219819Y-329604702D01*
X221219819Y-329604702D02*
X221172200Y-329509464D01*
X221172200Y-329509464D02*
X221124580Y-329461845D01*
X221124580Y-329461845D02*
X221029342Y-329414226D01*
X221029342Y-329414226D02*
X220791247Y-329414226D01*
X220791247Y-329414226D02*
X220696009Y-329461845D01*
X220696009Y-329461845D02*
X220648390Y-329509464D01*
X220648390Y-329509464D02*
X220600771Y-329604702D01*
X220600771Y-329604702D02*
X220600771Y-329795178D01*
X220600771Y-329795178D02*
X220648390Y-329890416D01*
X220648390Y-329890416D02*
X220696009Y-329938035D01*
X220696009Y-329938035D02*
X220791247Y-329985654D01*
X220219819Y-328795178D02*
X220219819Y-328699940D01*
X220219819Y-328699940D02*
X220267438Y-328604702D01*
X220267438Y-328604702D02*
X220315057Y-328557083D01*
X220315057Y-328557083D02*
X220410295Y-328509464D01*
X220410295Y-328509464D02*
X220600771Y-328461845D01*
X220600771Y-328461845D02*
X220838866Y-328461845D01*
X220838866Y-328461845D02*
X221029342Y-328509464D01*
X221029342Y-328509464D02*
X221124580Y-328557083D01*
X221124580Y-328557083D02*
X221172200Y-328604702D01*
X221172200Y-328604702D02*
X221219819Y-328699940D01*
X221219819Y-328699940D02*
X221219819Y-328795178D01*
X221219819Y-328795178D02*
X221172200Y-328890416D01*
X221172200Y-328890416D02*
X221124580Y-328938035D01*
X221124580Y-328938035D02*
X221029342Y-328985654D01*
X221029342Y-328985654D02*
X220838866Y-329033273D01*
X220838866Y-329033273D02*
X220600771Y-329033273D01*
X220600771Y-329033273D02*
X220410295Y-328985654D01*
X220410295Y-328985654D02*
X220315057Y-328938035D01*
X220315057Y-328938035D02*
X220267438Y-328890416D01*
X220267438Y-328890416D02*
X220219819Y-328795178D01*
X221539819Y-333795654D02*
X220539819Y-333795654D01*
X221539819Y-333224226D02*
X220968390Y-333652797D01*
X220539819Y-333224226D02*
X221111247Y-333795654D01*
X111682319Y-254261844D02*
X110682319Y-254261844D01*
X110682319Y-254261844D02*
X110682319Y-254023749D01*
X110682319Y-254023749D02*
X110729938Y-253880892D01*
X110729938Y-253880892D02*
X110825176Y-253785654D01*
X110825176Y-253785654D02*
X110920414Y-253738035D01*
X110920414Y-253738035D02*
X111110890Y-253690416D01*
X111110890Y-253690416D02*
X111253747Y-253690416D01*
X111253747Y-253690416D02*
X111444223Y-253738035D01*
X111444223Y-253738035D02*
X111539461Y-253785654D01*
X111539461Y-253785654D02*
X111634700Y-253880892D01*
X111634700Y-253880892D02*
X111682319Y-254023749D01*
X111682319Y-254023749D02*
X111682319Y-254261844D01*
X110682319Y-252833273D02*
X110682319Y-253023749D01*
X110682319Y-253023749D02*
X110729938Y-253118987D01*
X110729938Y-253118987D02*
X110777557Y-253166606D01*
X110777557Y-253166606D02*
X110920414Y-253261844D01*
X110920414Y-253261844D02*
X111110890Y-253309463D01*
X111110890Y-253309463D02*
X111491842Y-253309463D01*
X111491842Y-253309463D02*
X111587080Y-253261844D01*
X111587080Y-253261844D02*
X111634700Y-253214225D01*
X111634700Y-253214225D02*
X111682319Y-253118987D01*
X111682319Y-253118987D02*
X111682319Y-252928511D01*
X111682319Y-252928511D02*
X111634700Y-252833273D01*
X111634700Y-252833273D02*
X111587080Y-252785654D01*
X111587080Y-252785654D02*
X111491842Y-252738035D01*
X111491842Y-252738035D02*
X111253747Y-252738035D01*
X111253747Y-252738035D02*
X111158509Y-252785654D01*
X111158509Y-252785654D02*
X111110890Y-252833273D01*
X111110890Y-252833273D02*
X111063271Y-252928511D01*
X111063271Y-252928511D02*
X111063271Y-253118987D01*
X111063271Y-253118987D02*
X111110890Y-253214225D01*
X111110890Y-253214225D02*
X111158509Y-253261844D01*
X111158509Y-253261844D02*
X111253747Y-253309463D01*
X112002319Y-257595654D02*
X111002319Y-257595654D01*
X112002319Y-257024226D02*
X111430890Y-257452797D01*
X111002319Y-257024226D02*
X111573747Y-257595654D01*
X291153395Y-266377910D02*
X291153395Y-266854100D01*
X290867680Y-266282672D02*
X291867680Y-266616005D01*
X291867680Y-266616005D02*
X290867680Y-266949338D01*
X290867680Y-267806481D02*
X290867680Y-267235053D01*
X290867680Y-267520767D02*
X291867680Y-267520767D01*
X291867680Y-267520767D02*
X291724823Y-267425529D01*
X291724823Y-267425529D02*
X291629585Y-267330291D01*
X291629585Y-267330291D02*
X291581966Y-267235053D01*
X178357319Y-273788035D02*
X177357319Y-273788035D01*
X177357319Y-273788035D02*
X177357319Y-273549940D01*
X177357319Y-273549940D02*
X177404938Y-273407083D01*
X177404938Y-273407083D02*
X177500176Y-273311845D01*
X177500176Y-273311845D02*
X177595414Y-273264226D01*
X177595414Y-273264226D02*
X177785890Y-273216607D01*
X177785890Y-273216607D02*
X177928747Y-273216607D01*
X177928747Y-273216607D02*
X178119223Y-273264226D01*
X178119223Y-273264226D02*
X178214461Y-273311845D01*
X178214461Y-273311845D02*
X178309700Y-273407083D01*
X178309700Y-273407083D02*
X178357319Y-273549940D01*
X178357319Y-273549940D02*
X178357319Y-273788035D01*
X177452557Y-272835654D02*
X177404938Y-272788035D01*
X177404938Y-272788035D02*
X177357319Y-272692797D01*
X177357319Y-272692797D02*
X177357319Y-272454702D01*
X177357319Y-272454702D02*
X177404938Y-272359464D01*
X177404938Y-272359464D02*
X177452557Y-272311845D01*
X177452557Y-272311845D02*
X177547795Y-272264226D01*
X177547795Y-272264226D02*
X177643033Y-272264226D01*
X177643033Y-272264226D02*
X177785890Y-272311845D01*
X177785890Y-272311845D02*
X178357319Y-272883273D01*
X178357319Y-272883273D02*
X178357319Y-272264226D01*
X177357319Y-271930892D02*
X177357319Y-271311845D01*
X177357319Y-271311845D02*
X177738271Y-271645178D01*
X177738271Y-271645178D02*
X177738271Y-271502321D01*
X177738271Y-271502321D02*
X177785890Y-271407083D01*
X177785890Y-271407083D02*
X177833509Y-271359464D01*
X177833509Y-271359464D02*
X177928747Y-271311845D01*
X177928747Y-271311845D02*
X178166842Y-271311845D01*
X178166842Y-271311845D02*
X178262080Y-271359464D01*
X178262080Y-271359464D02*
X178309700Y-271407083D01*
X178309700Y-271407083D02*
X178357319Y-271502321D01*
X178357319Y-271502321D02*
X178357319Y-271788035D01*
X178357319Y-271788035D02*
X178309700Y-271883273D01*
X178309700Y-271883273D02*
X178262080Y-271930892D01*
X178677319Y-276645654D02*
X177677319Y-276645654D01*
X178677319Y-276074226D02*
X178105890Y-276502797D01*
X177677319Y-276074226D02*
X178248747Y-276645654D01*
X102157319Y-273788035D02*
X101157319Y-273788035D01*
X101157319Y-273788035D02*
X101157319Y-273549940D01*
X101157319Y-273549940D02*
X101204938Y-273407083D01*
X101204938Y-273407083D02*
X101300176Y-273311845D01*
X101300176Y-273311845D02*
X101395414Y-273264226D01*
X101395414Y-273264226D02*
X101585890Y-273216607D01*
X101585890Y-273216607D02*
X101728747Y-273216607D01*
X101728747Y-273216607D02*
X101919223Y-273264226D01*
X101919223Y-273264226D02*
X102014461Y-273311845D01*
X102014461Y-273311845D02*
X102109700Y-273407083D01*
X102109700Y-273407083D02*
X102157319Y-273549940D01*
X102157319Y-273549940D02*
X102157319Y-273788035D01*
X102157319Y-272264226D02*
X102157319Y-272835654D01*
X102157319Y-272549940D02*
X101157319Y-272549940D01*
X101157319Y-272549940D02*
X101300176Y-272645178D01*
X101300176Y-272645178D02*
X101395414Y-272740416D01*
X101395414Y-272740416D02*
X101443033Y-272835654D01*
X102157319Y-271788035D02*
X102157319Y-271597559D01*
X102157319Y-271597559D02*
X102109700Y-271502321D01*
X102109700Y-271502321D02*
X102062080Y-271454702D01*
X102062080Y-271454702D02*
X101919223Y-271359464D01*
X101919223Y-271359464D02*
X101728747Y-271311845D01*
X101728747Y-271311845D02*
X101347795Y-271311845D01*
X101347795Y-271311845D02*
X101252557Y-271359464D01*
X101252557Y-271359464D02*
X101204938Y-271407083D01*
X101204938Y-271407083D02*
X101157319Y-271502321D01*
X101157319Y-271502321D02*
X101157319Y-271692797D01*
X101157319Y-271692797D02*
X101204938Y-271788035D01*
X101204938Y-271788035D02*
X101252557Y-271835654D01*
X101252557Y-271835654D02*
X101347795Y-271883273D01*
X101347795Y-271883273D02*
X101585890Y-271883273D01*
X101585890Y-271883273D02*
X101681128Y-271835654D01*
X101681128Y-271835654D02*
X101728747Y-271788035D01*
X101728747Y-271788035D02*
X101776366Y-271692797D01*
X101776366Y-271692797D02*
X101776366Y-271502321D01*
X101776366Y-271502321D02*
X101728747Y-271407083D01*
X101728747Y-271407083D02*
X101681128Y-271359464D01*
X101681128Y-271359464D02*
X101585890Y-271311845D01*
X102477319Y-276645654D02*
X101477319Y-276645654D01*
X102477319Y-276074226D02*
X101905890Y-276502797D01*
X101477319Y-276074226D02*
X102048747Y-276645654D01*
X272178569Y-311729285D02*
X271178569Y-311729285D01*
X271178569Y-311729285D02*
X271178569Y-311491190D01*
X271178569Y-311491190D02*
X271226188Y-311348333D01*
X271226188Y-311348333D02*
X271321426Y-311253095D01*
X271321426Y-311253095D02*
X271416664Y-311205476D01*
X271416664Y-311205476D02*
X271607140Y-311157857D01*
X271607140Y-311157857D02*
X271749997Y-311157857D01*
X271749997Y-311157857D02*
X271940473Y-311205476D01*
X271940473Y-311205476D02*
X272035711Y-311253095D01*
X272035711Y-311253095D02*
X272130950Y-311348333D01*
X272130950Y-311348333D02*
X272178569Y-311491190D01*
X272178569Y-311491190D02*
X272178569Y-311729285D01*
X271178569Y-310253095D02*
X271178569Y-310729285D01*
X271178569Y-310729285D02*
X271654759Y-310776904D01*
X271654759Y-310776904D02*
X271607140Y-310729285D01*
X271607140Y-310729285D02*
X271559521Y-310634047D01*
X271559521Y-310634047D02*
X271559521Y-310395952D01*
X271559521Y-310395952D02*
X271607140Y-310300714D01*
X271607140Y-310300714D02*
X271654759Y-310253095D01*
X271654759Y-310253095D02*
X271749997Y-310205476D01*
X271749997Y-310205476D02*
X271988092Y-310205476D01*
X271988092Y-310205476D02*
X272083330Y-310253095D01*
X272083330Y-310253095D02*
X272130950Y-310300714D01*
X272130950Y-310300714D02*
X272178569Y-310395952D01*
X272178569Y-310395952D02*
X272178569Y-310634047D01*
X272178569Y-310634047D02*
X272130950Y-310729285D01*
X272130950Y-310729285D02*
X272083330Y-310776904D01*
X271178569Y-309872142D02*
X271178569Y-309253095D01*
X271178569Y-309253095D02*
X271559521Y-309586428D01*
X271559521Y-309586428D02*
X271559521Y-309443571D01*
X271559521Y-309443571D02*
X271607140Y-309348333D01*
X271607140Y-309348333D02*
X271654759Y-309300714D01*
X271654759Y-309300714D02*
X271749997Y-309253095D01*
X271749997Y-309253095D02*
X271988092Y-309253095D01*
X271988092Y-309253095D02*
X272083330Y-309300714D01*
X272083330Y-309300714D02*
X272130950Y-309348333D01*
X272130950Y-309348333D02*
X272178569Y-309443571D01*
X272178569Y-309443571D02*
X272178569Y-309729285D01*
X272178569Y-309729285D02*
X272130950Y-309824523D01*
X272130950Y-309824523D02*
X272083330Y-309872142D01*
X272498569Y-314586904D02*
X271498569Y-314586904D01*
X272498569Y-314015476D02*
X271927140Y-314444047D01*
X271498569Y-314015476D02*
X272069997Y-314586904D01*
X19766069Y-330938035D02*
X18766069Y-330938035D01*
X18766069Y-330938035D02*
X18766069Y-330699940D01*
X18766069Y-330699940D02*
X18813688Y-330557083D01*
X18813688Y-330557083D02*
X18908926Y-330461845D01*
X18908926Y-330461845D02*
X19004164Y-330414226D01*
X19004164Y-330414226D02*
X19194640Y-330366607D01*
X19194640Y-330366607D02*
X19337497Y-330366607D01*
X19337497Y-330366607D02*
X19527973Y-330414226D01*
X19527973Y-330414226D02*
X19623211Y-330461845D01*
X19623211Y-330461845D02*
X19718450Y-330557083D01*
X19718450Y-330557083D02*
X19766069Y-330699940D01*
X19766069Y-330699940D02*
X19766069Y-330938035D01*
X18766069Y-329461845D02*
X18766069Y-329938035D01*
X18766069Y-329938035D02*
X19242259Y-329985654D01*
X19242259Y-329985654D02*
X19194640Y-329938035D01*
X19194640Y-329938035D02*
X19147021Y-329842797D01*
X19147021Y-329842797D02*
X19147021Y-329604702D01*
X19147021Y-329604702D02*
X19194640Y-329509464D01*
X19194640Y-329509464D02*
X19242259Y-329461845D01*
X19242259Y-329461845D02*
X19337497Y-329414226D01*
X19337497Y-329414226D02*
X19575592Y-329414226D01*
X19575592Y-329414226D02*
X19670830Y-329461845D01*
X19670830Y-329461845D02*
X19718450Y-329509464D01*
X19718450Y-329509464D02*
X19766069Y-329604702D01*
X19766069Y-329604702D02*
X19766069Y-329842797D01*
X19766069Y-329842797D02*
X19718450Y-329938035D01*
X19718450Y-329938035D02*
X19670830Y-329985654D01*
X18766069Y-328509464D02*
X18766069Y-328985654D01*
X18766069Y-328985654D02*
X19242259Y-329033273D01*
X19242259Y-329033273D02*
X19194640Y-328985654D01*
X19194640Y-328985654D02*
X19147021Y-328890416D01*
X19147021Y-328890416D02*
X19147021Y-328652321D01*
X19147021Y-328652321D02*
X19194640Y-328557083D01*
X19194640Y-328557083D02*
X19242259Y-328509464D01*
X19242259Y-328509464D02*
X19337497Y-328461845D01*
X19337497Y-328461845D02*
X19575592Y-328461845D01*
X19575592Y-328461845D02*
X19670830Y-328509464D01*
X19670830Y-328509464D02*
X19718450Y-328557083D01*
X19718450Y-328557083D02*
X19766069Y-328652321D01*
X19766069Y-328652321D02*
X19766069Y-328890416D01*
X19766069Y-328890416D02*
X19718450Y-328985654D01*
X19718450Y-328985654D02*
X19670830Y-329033273D01*
X20086069Y-333795654D02*
X19086069Y-333795654D01*
X20086069Y-333224226D02*
X19514640Y-333652797D01*
X19086069Y-333224226D02*
X19657497Y-333795654D01*
X221219819Y-292838035D02*
X220219819Y-292838035D01*
X220219819Y-292838035D02*
X220219819Y-292599940D01*
X220219819Y-292599940D02*
X220267438Y-292457083D01*
X220267438Y-292457083D02*
X220362676Y-292361845D01*
X220362676Y-292361845D02*
X220457914Y-292314226D01*
X220457914Y-292314226D02*
X220648390Y-292266607D01*
X220648390Y-292266607D02*
X220791247Y-292266607D01*
X220791247Y-292266607D02*
X220981723Y-292314226D01*
X220981723Y-292314226D02*
X221076961Y-292361845D01*
X221076961Y-292361845D02*
X221172200Y-292457083D01*
X221172200Y-292457083D02*
X221219819Y-292599940D01*
X221219819Y-292599940D02*
X221219819Y-292838035D01*
X220219819Y-291933273D02*
X220219819Y-291314226D01*
X220219819Y-291314226D02*
X220600771Y-291647559D01*
X220600771Y-291647559D02*
X220600771Y-291504702D01*
X220600771Y-291504702D02*
X220648390Y-291409464D01*
X220648390Y-291409464D02*
X220696009Y-291361845D01*
X220696009Y-291361845D02*
X220791247Y-291314226D01*
X220791247Y-291314226D02*
X221029342Y-291314226D01*
X221029342Y-291314226D02*
X221124580Y-291361845D01*
X221124580Y-291361845D02*
X221172200Y-291409464D01*
X221172200Y-291409464D02*
X221219819Y-291504702D01*
X221219819Y-291504702D02*
X221219819Y-291790416D01*
X221219819Y-291790416D02*
X221172200Y-291885654D01*
X221172200Y-291885654D02*
X221124580Y-291933273D01*
X221219819Y-290838035D02*
X221219819Y-290647559D01*
X221219819Y-290647559D02*
X221172200Y-290552321D01*
X221172200Y-290552321D02*
X221124580Y-290504702D01*
X221124580Y-290504702D02*
X220981723Y-290409464D01*
X220981723Y-290409464D02*
X220791247Y-290361845D01*
X220791247Y-290361845D02*
X220410295Y-290361845D01*
X220410295Y-290361845D02*
X220315057Y-290409464D01*
X220315057Y-290409464D02*
X220267438Y-290457083D01*
X220267438Y-290457083D02*
X220219819Y-290552321D01*
X220219819Y-290552321D02*
X220219819Y-290742797D01*
X220219819Y-290742797D02*
X220267438Y-290838035D01*
X220267438Y-290838035D02*
X220315057Y-290885654D01*
X220315057Y-290885654D02*
X220410295Y-290933273D01*
X220410295Y-290933273D02*
X220648390Y-290933273D01*
X220648390Y-290933273D02*
X220743628Y-290885654D01*
X220743628Y-290885654D02*
X220791247Y-290838035D01*
X220791247Y-290838035D02*
X220838866Y-290742797D01*
X220838866Y-290742797D02*
X220838866Y-290552321D01*
X220838866Y-290552321D02*
X220791247Y-290457083D01*
X220791247Y-290457083D02*
X220743628Y-290409464D01*
X220743628Y-290409464D02*
X220648390Y-290361845D01*
X221539819Y-295695654D02*
X220539819Y-295695654D01*
X221539819Y-295124226D02*
X220968390Y-295552797D01*
X220539819Y-295124226D02*
X221111247Y-295695654D01*
X83107319Y-273788035D02*
X82107319Y-273788035D01*
X82107319Y-273788035D02*
X82107319Y-273549940D01*
X82107319Y-273549940D02*
X82154938Y-273407083D01*
X82154938Y-273407083D02*
X82250176Y-273311845D01*
X82250176Y-273311845D02*
X82345414Y-273264226D01*
X82345414Y-273264226D02*
X82535890Y-273216607D01*
X82535890Y-273216607D02*
X82678747Y-273216607D01*
X82678747Y-273216607D02*
X82869223Y-273264226D01*
X82869223Y-273264226D02*
X82964461Y-273311845D01*
X82964461Y-273311845D02*
X83059700Y-273407083D01*
X83059700Y-273407083D02*
X83107319Y-273549940D01*
X83107319Y-273549940D02*
X83107319Y-273788035D01*
X83107319Y-272264226D02*
X83107319Y-272835654D01*
X83107319Y-272549940D02*
X82107319Y-272549940D01*
X82107319Y-272549940D02*
X82250176Y-272645178D01*
X82250176Y-272645178D02*
X82345414Y-272740416D01*
X82345414Y-272740416D02*
X82393033Y-272835654D01*
X82535890Y-271692797D02*
X82488271Y-271788035D01*
X82488271Y-271788035D02*
X82440652Y-271835654D01*
X82440652Y-271835654D02*
X82345414Y-271883273D01*
X82345414Y-271883273D02*
X82297795Y-271883273D01*
X82297795Y-271883273D02*
X82202557Y-271835654D01*
X82202557Y-271835654D02*
X82154938Y-271788035D01*
X82154938Y-271788035D02*
X82107319Y-271692797D01*
X82107319Y-271692797D02*
X82107319Y-271502321D01*
X82107319Y-271502321D02*
X82154938Y-271407083D01*
X82154938Y-271407083D02*
X82202557Y-271359464D01*
X82202557Y-271359464D02*
X82297795Y-271311845D01*
X82297795Y-271311845D02*
X82345414Y-271311845D01*
X82345414Y-271311845D02*
X82440652Y-271359464D01*
X82440652Y-271359464D02*
X82488271Y-271407083D01*
X82488271Y-271407083D02*
X82535890Y-271502321D01*
X82535890Y-271502321D02*
X82535890Y-271692797D01*
X82535890Y-271692797D02*
X82583509Y-271788035D01*
X82583509Y-271788035D02*
X82631128Y-271835654D01*
X82631128Y-271835654D02*
X82726366Y-271883273D01*
X82726366Y-271883273D02*
X82916842Y-271883273D01*
X82916842Y-271883273D02*
X83012080Y-271835654D01*
X83012080Y-271835654D02*
X83059700Y-271788035D01*
X83059700Y-271788035D02*
X83107319Y-271692797D01*
X83107319Y-271692797D02*
X83107319Y-271502321D01*
X83107319Y-271502321D02*
X83059700Y-271407083D01*
X83059700Y-271407083D02*
X83012080Y-271359464D01*
X83012080Y-271359464D02*
X82916842Y-271311845D01*
X82916842Y-271311845D02*
X82726366Y-271311845D01*
X82726366Y-271311845D02*
X82631128Y-271359464D01*
X82631128Y-271359464D02*
X82583509Y-271407083D01*
X82583509Y-271407083D02*
X82535890Y-271502321D01*
X83427319Y-276645654D02*
X82427319Y-276645654D01*
X83427319Y-276074226D02*
X82855890Y-276502797D01*
X82427319Y-276074226D02*
X82998747Y-276645654D01*
X59294819Y-311888035D02*
X58294819Y-311888035D01*
X58294819Y-311888035D02*
X58294819Y-311649940D01*
X58294819Y-311649940D02*
X58342438Y-311507083D01*
X58342438Y-311507083D02*
X58437676Y-311411845D01*
X58437676Y-311411845D02*
X58532914Y-311364226D01*
X58532914Y-311364226D02*
X58723390Y-311316607D01*
X58723390Y-311316607D02*
X58866247Y-311316607D01*
X58866247Y-311316607D02*
X59056723Y-311364226D01*
X59056723Y-311364226D02*
X59151961Y-311411845D01*
X59151961Y-311411845D02*
X59247200Y-311507083D01*
X59247200Y-311507083D02*
X59294819Y-311649940D01*
X59294819Y-311649940D02*
X59294819Y-311888035D01*
X58628152Y-310459464D02*
X59294819Y-310459464D01*
X58247200Y-310697559D02*
X58961485Y-310935654D01*
X58961485Y-310935654D02*
X58961485Y-310316607D01*
X58294819Y-310030892D02*
X58294819Y-309411845D01*
X58294819Y-309411845D02*
X58675771Y-309745178D01*
X58675771Y-309745178D02*
X58675771Y-309602321D01*
X58675771Y-309602321D02*
X58723390Y-309507083D01*
X58723390Y-309507083D02*
X58771009Y-309459464D01*
X58771009Y-309459464D02*
X58866247Y-309411845D01*
X58866247Y-309411845D02*
X59104342Y-309411845D01*
X59104342Y-309411845D02*
X59199580Y-309459464D01*
X59199580Y-309459464D02*
X59247200Y-309507083D01*
X59247200Y-309507083D02*
X59294819Y-309602321D01*
X59294819Y-309602321D02*
X59294819Y-309888035D01*
X59294819Y-309888035D02*
X59247200Y-309983273D01*
X59247200Y-309983273D02*
X59199580Y-310030892D01*
X59614819Y-314745654D02*
X58614819Y-314745654D01*
X59614819Y-314174226D02*
X59043390Y-314602797D01*
X58614819Y-314174226D02*
X59186247Y-314745654D01*
X54532319Y-254261844D02*
X53532319Y-254261844D01*
X53532319Y-254261844D02*
X53532319Y-254023749D01*
X53532319Y-254023749D02*
X53579938Y-253880892D01*
X53579938Y-253880892D02*
X53675176Y-253785654D01*
X53675176Y-253785654D02*
X53770414Y-253738035D01*
X53770414Y-253738035D02*
X53960890Y-253690416D01*
X53960890Y-253690416D02*
X54103747Y-253690416D01*
X54103747Y-253690416D02*
X54294223Y-253738035D01*
X54294223Y-253738035D02*
X54389461Y-253785654D01*
X54389461Y-253785654D02*
X54484700Y-253880892D01*
X54484700Y-253880892D02*
X54532319Y-254023749D01*
X54532319Y-254023749D02*
X54532319Y-254261844D01*
X53532319Y-253357082D02*
X53532319Y-252738035D01*
X53532319Y-252738035D02*
X53913271Y-253071368D01*
X53913271Y-253071368D02*
X53913271Y-252928511D01*
X53913271Y-252928511D02*
X53960890Y-252833273D01*
X53960890Y-252833273D02*
X54008509Y-252785654D01*
X54008509Y-252785654D02*
X54103747Y-252738035D01*
X54103747Y-252738035D02*
X54341842Y-252738035D01*
X54341842Y-252738035D02*
X54437080Y-252785654D01*
X54437080Y-252785654D02*
X54484700Y-252833273D01*
X54484700Y-252833273D02*
X54532319Y-252928511D01*
X54532319Y-252928511D02*
X54532319Y-253214225D01*
X54532319Y-253214225D02*
X54484700Y-253309463D01*
X54484700Y-253309463D02*
X54437080Y-253357082D01*
X54852319Y-257595654D02*
X53852319Y-257595654D01*
X54852319Y-257024226D02*
X54280890Y-257452797D01*
X53852319Y-257024226D02*
X54423747Y-257595654D01*
X173594819Y-311888035D02*
X172594819Y-311888035D01*
X172594819Y-311888035D02*
X172594819Y-311649940D01*
X172594819Y-311649940D02*
X172642438Y-311507083D01*
X172642438Y-311507083D02*
X172737676Y-311411845D01*
X172737676Y-311411845D02*
X172832914Y-311364226D01*
X172832914Y-311364226D02*
X173023390Y-311316607D01*
X173023390Y-311316607D02*
X173166247Y-311316607D01*
X173166247Y-311316607D02*
X173356723Y-311364226D01*
X173356723Y-311364226D02*
X173451961Y-311411845D01*
X173451961Y-311411845D02*
X173547200Y-311507083D01*
X173547200Y-311507083D02*
X173594819Y-311649940D01*
X173594819Y-311649940D02*
X173594819Y-311888035D01*
X172928152Y-310459464D02*
X173594819Y-310459464D01*
X172547200Y-310697559D02*
X173261485Y-310935654D01*
X173261485Y-310935654D02*
X173261485Y-310316607D01*
X173594819Y-309888035D02*
X173594819Y-309697559D01*
X173594819Y-309697559D02*
X173547200Y-309602321D01*
X173547200Y-309602321D02*
X173499580Y-309554702D01*
X173499580Y-309554702D02*
X173356723Y-309459464D01*
X173356723Y-309459464D02*
X173166247Y-309411845D01*
X173166247Y-309411845D02*
X172785295Y-309411845D01*
X172785295Y-309411845D02*
X172690057Y-309459464D01*
X172690057Y-309459464D02*
X172642438Y-309507083D01*
X172642438Y-309507083D02*
X172594819Y-309602321D01*
X172594819Y-309602321D02*
X172594819Y-309792797D01*
X172594819Y-309792797D02*
X172642438Y-309888035D01*
X172642438Y-309888035D02*
X172690057Y-309935654D01*
X172690057Y-309935654D02*
X172785295Y-309983273D01*
X172785295Y-309983273D02*
X173023390Y-309983273D01*
X173023390Y-309983273D02*
X173118628Y-309935654D01*
X173118628Y-309935654D02*
X173166247Y-309888035D01*
X173166247Y-309888035D02*
X173213866Y-309792797D01*
X173213866Y-309792797D02*
X173213866Y-309602321D01*
X173213866Y-309602321D02*
X173166247Y-309507083D01*
X173166247Y-309507083D02*
X173118628Y-309459464D01*
X173118628Y-309459464D02*
X173023390Y-309411845D01*
X173914819Y-314745654D02*
X172914819Y-314745654D01*
X173914819Y-314174226D02*
X173343390Y-314602797D01*
X172914819Y-314174226D02*
X173486247Y-314745654D01*
X149782319Y-254261844D02*
X148782319Y-254261844D01*
X148782319Y-254261844D02*
X148782319Y-254023749D01*
X148782319Y-254023749D02*
X148829938Y-253880892D01*
X148829938Y-253880892D02*
X148925176Y-253785654D01*
X148925176Y-253785654D02*
X149020414Y-253738035D01*
X149020414Y-253738035D02*
X149210890Y-253690416D01*
X149210890Y-253690416D02*
X149353747Y-253690416D01*
X149353747Y-253690416D02*
X149544223Y-253738035D01*
X149544223Y-253738035D02*
X149639461Y-253785654D01*
X149639461Y-253785654D02*
X149734700Y-253880892D01*
X149734700Y-253880892D02*
X149782319Y-254023749D01*
X149782319Y-254023749D02*
X149782319Y-254261844D01*
X149210890Y-253118987D02*
X149163271Y-253214225D01*
X149163271Y-253214225D02*
X149115652Y-253261844D01*
X149115652Y-253261844D02*
X149020414Y-253309463D01*
X149020414Y-253309463D02*
X148972795Y-253309463D01*
X148972795Y-253309463D02*
X148877557Y-253261844D01*
X148877557Y-253261844D02*
X148829938Y-253214225D01*
X148829938Y-253214225D02*
X148782319Y-253118987D01*
X148782319Y-253118987D02*
X148782319Y-252928511D01*
X148782319Y-252928511D02*
X148829938Y-252833273D01*
X148829938Y-252833273D02*
X148877557Y-252785654D01*
X148877557Y-252785654D02*
X148972795Y-252738035D01*
X148972795Y-252738035D02*
X149020414Y-252738035D01*
X149020414Y-252738035D02*
X149115652Y-252785654D01*
X149115652Y-252785654D02*
X149163271Y-252833273D01*
X149163271Y-252833273D02*
X149210890Y-252928511D01*
X149210890Y-252928511D02*
X149210890Y-253118987D01*
X149210890Y-253118987D02*
X149258509Y-253214225D01*
X149258509Y-253214225D02*
X149306128Y-253261844D01*
X149306128Y-253261844D02*
X149401366Y-253309463D01*
X149401366Y-253309463D02*
X149591842Y-253309463D01*
X149591842Y-253309463D02*
X149687080Y-253261844D01*
X149687080Y-253261844D02*
X149734700Y-253214225D01*
X149734700Y-253214225D02*
X149782319Y-253118987D01*
X149782319Y-253118987D02*
X149782319Y-252928511D01*
X149782319Y-252928511D02*
X149734700Y-252833273D01*
X149734700Y-252833273D02*
X149687080Y-252785654D01*
X149687080Y-252785654D02*
X149591842Y-252738035D01*
X149591842Y-252738035D02*
X149401366Y-252738035D01*
X149401366Y-252738035D02*
X149306128Y-252785654D01*
X149306128Y-252785654D02*
X149258509Y-252833273D01*
X149258509Y-252833273D02*
X149210890Y-252928511D01*
X150102319Y-257595654D02*
X149102319Y-257595654D01*
X150102319Y-257024226D02*
X149530890Y-257452797D01*
X149102319Y-257024226D02*
X149673747Y-257595654D01*
X-7905654Y-214279819D02*
X-7905654Y-213279819D01*
X-7905654Y-213756009D02*
X-7334226Y-213756009D01*
X-7334226Y-214279819D02*
X-7334226Y-213279819D01*
X-6905654Y-213375057D02*
X-6858035Y-213327438D01*
X-6858035Y-213327438D02*
X-6762797Y-213279819D01*
X-6762797Y-213279819D02*
X-6524702Y-213279819D01*
X-6524702Y-213279819D02*
X-6429464Y-213327438D01*
X-6429464Y-213327438D02*
X-6381845Y-213375057D01*
X-6381845Y-213375057D02*
X-6334226Y-213470295D01*
X-6334226Y-213470295D02*
X-6334226Y-213565533D01*
X-6334226Y-213565533D02*
X-6381845Y-213708390D01*
X-6381845Y-213708390D02*
X-6953273Y-214279819D01*
X-6953273Y-214279819D02*
X-6334226Y-214279819D01*
X254557319Y-273788035D02*
X253557319Y-273788035D01*
X253557319Y-273788035D02*
X253557319Y-273549940D01*
X253557319Y-273549940D02*
X253604938Y-273407083D01*
X253604938Y-273407083D02*
X253700176Y-273311845D01*
X253700176Y-273311845D02*
X253795414Y-273264226D01*
X253795414Y-273264226D02*
X253985890Y-273216607D01*
X253985890Y-273216607D02*
X254128747Y-273216607D01*
X254128747Y-273216607D02*
X254319223Y-273264226D01*
X254319223Y-273264226D02*
X254414461Y-273311845D01*
X254414461Y-273311845D02*
X254509700Y-273407083D01*
X254509700Y-273407083D02*
X254557319Y-273549940D01*
X254557319Y-273549940D02*
X254557319Y-273788035D01*
X253652557Y-272835654D02*
X253604938Y-272788035D01*
X253604938Y-272788035D02*
X253557319Y-272692797D01*
X253557319Y-272692797D02*
X253557319Y-272454702D01*
X253557319Y-272454702D02*
X253604938Y-272359464D01*
X253604938Y-272359464D02*
X253652557Y-272311845D01*
X253652557Y-272311845D02*
X253747795Y-272264226D01*
X253747795Y-272264226D02*
X253843033Y-272264226D01*
X253843033Y-272264226D02*
X253985890Y-272311845D01*
X253985890Y-272311845D02*
X254557319Y-272883273D01*
X254557319Y-272883273D02*
X254557319Y-272264226D01*
X253557319Y-271930892D02*
X253557319Y-271264226D01*
X253557319Y-271264226D02*
X254557319Y-271692797D01*
X254877319Y-276645654D02*
X253877319Y-276645654D01*
X254877319Y-276074226D02*
X254305890Y-276502797D01*
X253877319Y-276074226D02*
X254448747Y-276645654D01*
X97394819Y-311888035D02*
X96394819Y-311888035D01*
X96394819Y-311888035D02*
X96394819Y-311649940D01*
X96394819Y-311649940D02*
X96442438Y-311507083D01*
X96442438Y-311507083D02*
X96537676Y-311411845D01*
X96537676Y-311411845D02*
X96632914Y-311364226D01*
X96632914Y-311364226D02*
X96823390Y-311316607D01*
X96823390Y-311316607D02*
X96966247Y-311316607D01*
X96966247Y-311316607D02*
X97156723Y-311364226D01*
X97156723Y-311364226D02*
X97251961Y-311411845D01*
X97251961Y-311411845D02*
X97347200Y-311507083D01*
X97347200Y-311507083D02*
X97394819Y-311649940D01*
X97394819Y-311649940D02*
X97394819Y-311888035D01*
X96728152Y-310459464D02*
X97394819Y-310459464D01*
X96347200Y-310697559D02*
X97061485Y-310935654D01*
X97061485Y-310935654D02*
X97061485Y-310316607D01*
X96394819Y-309459464D02*
X96394819Y-309935654D01*
X96394819Y-309935654D02*
X96871009Y-309983273D01*
X96871009Y-309983273D02*
X96823390Y-309935654D01*
X96823390Y-309935654D02*
X96775771Y-309840416D01*
X96775771Y-309840416D02*
X96775771Y-309602321D01*
X96775771Y-309602321D02*
X96823390Y-309507083D01*
X96823390Y-309507083D02*
X96871009Y-309459464D01*
X96871009Y-309459464D02*
X96966247Y-309411845D01*
X96966247Y-309411845D02*
X97204342Y-309411845D01*
X97204342Y-309411845D02*
X97299580Y-309459464D01*
X97299580Y-309459464D02*
X97347200Y-309507083D01*
X97347200Y-309507083D02*
X97394819Y-309602321D01*
X97394819Y-309602321D02*
X97394819Y-309840416D01*
X97394819Y-309840416D02*
X97347200Y-309935654D01*
X97347200Y-309935654D02*
X97299580Y-309983273D01*
X97714819Y-314745654D02*
X96714819Y-314745654D01*
X97714819Y-314174226D02*
X97143390Y-314602797D01*
X96714819Y-314174226D02*
X97286247Y-314745654D01*
%TO.C,D25*%
D11*
X217002500Y-273853750D02*
X219242500Y-273853750D01*
X217002500Y-273973750D02*
X219242500Y-273973750D01*
X217002500Y-274093750D02*
X219242500Y-274093750D01*
X218122500Y-269803750D02*
X218122500Y-270453750D01*
X218122500Y-275343750D02*
X218122500Y-274693750D01*
X217002500Y-270453750D02*
X219242500Y-270453750D01*
X219242500Y-274693750D01*
X217002500Y-274693750D01*
X217002500Y-270453750D01*
%TO.C,D24*%
X197952500Y-273853750D02*
X200192500Y-273853750D01*
X197952500Y-273973750D02*
X200192500Y-273973750D01*
X197952500Y-274093750D02*
X200192500Y-274093750D01*
X199072500Y-269803750D02*
X199072500Y-270453750D01*
X199072500Y-275343750D02*
X199072500Y-274693750D01*
X197952500Y-270453750D02*
X200192500Y-270453750D01*
X200192500Y-274693750D01*
X197952500Y-274693750D01*
X197952500Y-270453750D01*
%TO.C,D50*%
X193190000Y-311953750D02*
X195430000Y-311953750D01*
X193190000Y-312073750D02*
X195430000Y-312073750D01*
X193190000Y-312193750D02*
X195430000Y-312193750D01*
X194310000Y-307903750D02*
X194310000Y-308553750D01*
X194310000Y-313443750D02*
X194310000Y-312793750D01*
X193190000Y-308553750D02*
X195430000Y-308553750D01*
X195430000Y-312793750D01*
X193190000Y-312793750D01*
X193190000Y-308553750D01*
%TO.C,D62*%
X274152500Y-331003750D02*
X276392500Y-331003750D01*
X274152500Y-331123750D02*
X276392500Y-331123750D01*
X274152500Y-331243750D02*
X276392500Y-331243750D01*
X275272500Y-326953750D02*
X275272500Y-327603750D01*
X275272500Y-332493750D02*
X275272500Y-331843750D01*
X274152500Y-327603750D02*
X276392500Y-327603750D01*
X276392500Y-331843750D01*
X274152500Y-331843750D01*
X274152500Y-327603750D01*
%TO.C,D22*%
X159852500Y-273853750D02*
X162092500Y-273853750D01*
X159852500Y-273973750D02*
X162092500Y-273973750D01*
X159852500Y-274093750D02*
X162092500Y-274093750D01*
X160972500Y-269803750D02*
X160972500Y-270453750D01*
X160972500Y-275343750D02*
X160972500Y-274693750D01*
X159852500Y-270453750D02*
X162092500Y-270453750D01*
X162092500Y-274693750D01*
X159852500Y-274693750D01*
X159852500Y-270453750D01*
%TO.C,D20*%
X121752500Y-273853750D02*
X123992500Y-273853750D01*
X121752500Y-273973750D02*
X123992500Y-273973750D01*
X121752500Y-274093750D02*
X123992500Y-274093750D01*
X122872500Y-269803750D02*
X122872500Y-270453750D01*
X122872500Y-275343750D02*
X122872500Y-274693750D01*
X121752500Y-270453750D02*
X123992500Y-270453750D01*
X123992500Y-274693750D01*
X121752500Y-274693750D01*
X121752500Y-270453750D01*
%TO.C,D36*%
X164615000Y-292903750D02*
X166855000Y-292903750D01*
X164615000Y-293023750D02*
X166855000Y-293023750D01*
X164615000Y-293143750D02*
X166855000Y-293143750D01*
X165735000Y-288853750D02*
X165735000Y-289503750D01*
X165735000Y-294393750D02*
X165735000Y-293743750D01*
X164615000Y-289503750D02*
X166855000Y-289503750D01*
X166855000Y-293743750D01*
X164615000Y-293743750D01*
X164615000Y-289503750D01*
%TO.C,D41*%
X267961250Y-292903750D02*
X270201250Y-292903750D01*
X267961250Y-293023750D02*
X270201250Y-293023750D01*
X267961250Y-293143750D02*
X270201250Y-293143750D01*
X269081250Y-288853750D02*
X269081250Y-289503750D01*
X269081250Y-294393750D02*
X269081250Y-293743750D01*
X267961250Y-289503750D02*
X270201250Y-289503750D01*
X270201250Y-293743750D01*
X267961250Y-293743750D01*
X267961250Y-289503750D01*
%TO.C,D63*%
X293202500Y-331003750D02*
X295442500Y-331003750D01*
X293202500Y-331123750D02*
X295442500Y-331123750D01*
X293202500Y-331243750D02*
X295442500Y-331243750D01*
X294322500Y-326953750D02*
X294322500Y-327603750D01*
X294322500Y-332493750D02*
X294322500Y-331843750D01*
X293202500Y-327603750D02*
X295442500Y-327603750D01*
X295442500Y-331843750D01*
X293202500Y-331843750D01*
X293202500Y-327603750D01*
%TO.C,D29*%
X24121250Y-292903750D02*
X26361250Y-292903750D01*
X24121250Y-293023750D02*
X26361250Y-293023750D01*
X24121250Y-293143750D02*
X26361250Y-293143750D01*
X25241250Y-288853750D02*
X25241250Y-289503750D01*
X25241250Y-294393750D02*
X25241250Y-293743750D01*
X24121250Y-289503750D02*
X26361250Y-289503750D01*
X26361250Y-293743750D01*
X24121250Y-293743750D01*
X24121250Y-289503750D01*
%TO.C,D38*%
X202715000Y-292903750D02*
X204955000Y-292903750D01*
X202715000Y-293023750D02*
X204955000Y-293023750D01*
X202715000Y-293143750D02*
X204955000Y-293143750D01*
X203835000Y-288853750D02*
X203835000Y-289503750D01*
X203835000Y-294393750D02*
X203835000Y-293743750D01*
X202715000Y-289503750D02*
X204955000Y-289503750D01*
X204955000Y-293743750D01*
X202715000Y-293743750D01*
X202715000Y-289503750D01*
%TO.C,D10*%
X188427500Y-254803750D02*
X190667500Y-254803750D01*
X188427500Y-254923750D02*
X190667500Y-254923750D01*
X188427500Y-255043750D02*
X190667500Y-255043750D01*
X189547500Y-250753750D02*
X189547500Y-251403750D01*
X189547500Y-256293750D02*
X189547500Y-255643750D01*
X188427500Y-251403750D02*
X190667500Y-251403750D01*
X190667500Y-255643750D01*
X188427500Y-255643750D01*
X188427500Y-251403750D01*
%TO.C,D17*%
X64602500Y-273853750D02*
X66842500Y-273853750D01*
X64602500Y-273973750D02*
X66842500Y-273973750D01*
X64602500Y-274093750D02*
X66842500Y-274093750D01*
X65722500Y-269803750D02*
X65722500Y-270453750D01*
X65722500Y-275343750D02*
X65722500Y-274693750D01*
X64602500Y-270453750D02*
X66842500Y-270453750D01*
X66842500Y-274693750D01*
X64602500Y-274693750D01*
X64602500Y-270453750D01*
%TO.C,D61*%
X252721250Y-331003750D02*
X254961250Y-331003750D01*
X252721250Y-331123750D02*
X254961250Y-331123750D01*
X252721250Y-331243750D02*
X254961250Y-331243750D01*
X253841250Y-326953750D02*
X253841250Y-327603750D01*
X253841250Y-332493750D02*
X253841250Y-331843750D01*
X252721250Y-327603750D02*
X254961250Y-327603750D01*
X254961250Y-331843750D01*
X252721250Y-331843750D01*
X252721250Y-327603750D01*
%TO.C,D13*%
X245577500Y-254803750D02*
X247817500Y-254803750D01*
X245577500Y-254923750D02*
X247817500Y-254923750D01*
X245577500Y-255043750D02*
X247817500Y-255043750D01*
X246697500Y-250753750D02*
X246697500Y-251403750D01*
X246697500Y-256293750D02*
X246697500Y-255643750D01*
X245577500Y-251403750D02*
X247817500Y-251403750D01*
X247817500Y-255643750D01*
X245577500Y-255643750D01*
X245577500Y-251403750D01*
%TO.C,D51*%
X212240000Y-311953750D02*
X214480000Y-311953750D01*
X212240000Y-312073750D02*
X214480000Y-312073750D01*
X212240000Y-312193750D02*
X214480000Y-312193750D01*
X213360000Y-307903750D02*
X213360000Y-308553750D01*
X213360000Y-313443750D02*
X213360000Y-312793750D01*
X212240000Y-308553750D02*
X214480000Y-308553750D01*
X214480000Y-312793750D01*
X212240000Y-312793750D01*
X212240000Y-308553750D01*
%TO.C,D57*%
X58411250Y-331003750D02*
X60651250Y-331003750D01*
X58411250Y-331123750D02*
X60651250Y-331123750D01*
X58411250Y-331243750D02*
X60651250Y-331243750D01*
X59531250Y-326953750D02*
X59531250Y-327603750D01*
X59531250Y-332493750D02*
X59531250Y-331843750D01*
X58411250Y-327603750D02*
X60651250Y-327603750D01*
X60651250Y-331843750D01*
X58411250Y-331843750D01*
X58411250Y-327603750D01*
%TO.C,D44*%
X78890000Y-311953750D02*
X81130000Y-311953750D01*
X78890000Y-312073750D02*
X81130000Y-312073750D01*
X78890000Y-312193750D02*
X81130000Y-312193750D01*
X80010000Y-307903750D02*
X80010000Y-308553750D01*
X80010000Y-313443750D02*
X80010000Y-312793750D01*
X78890000Y-308553750D02*
X81130000Y-308553750D01*
X81130000Y-312793750D01*
X78890000Y-312793750D01*
X78890000Y-308553750D01*
%TO.C,D37*%
X183665000Y-292903750D02*
X185905000Y-292903750D01*
X183665000Y-293023750D02*
X185905000Y-293023750D01*
X183665000Y-293143750D02*
X185905000Y-293143750D01*
X184785000Y-288853750D02*
X184785000Y-289503750D01*
X184785000Y-294393750D02*
X184785000Y-293743750D01*
X183665000Y-289503750D02*
X185905000Y-289503750D01*
X185905000Y-293743750D01*
X183665000Y-293743750D01*
X183665000Y-289503750D01*
%TO.C,D52*%
X231290000Y-311953750D02*
X233530000Y-311953750D01*
X231290000Y-312073750D02*
X233530000Y-312073750D01*
X231290000Y-312193750D02*
X233530000Y-312193750D01*
X232410000Y-307903750D02*
X232410000Y-308553750D01*
X232410000Y-313443750D02*
X232410000Y-312793750D01*
X231290000Y-308553750D02*
X233530000Y-308553750D01*
X233530000Y-312793750D01*
X231290000Y-312793750D01*
X231290000Y-308553750D01*
%TO.C,D2*%
X36027500Y-254803750D02*
X38267500Y-254803750D01*
X36027500Y-254923750D02*
X38267500Y-254923750D01*
X36027500Y-255043750D02*
X38267500Y-255043750D01*
X37147500Y-250753750D02*
X37147500Y-251403750D01*
X37147500Y-256293750D02*
X37147500Y-255643750D01*
X36027500Y-251403750D02*
X38267500Y-251403750D01*
X38267500Y-255643750D01*
X36027500Y-255643750D01*
X36027500Y-251403750D01*
%TO.C,D32*%
X88415000Y-292903750D02*
X90655000Y-292903750D01*
X88415000Y-293023750D02*
X90655000Y-293023750D01*
X88415000Y-293143750D02*
X90655000Y-293143750D01*
X89535000Y-288853750D02*
X89535000Y-289503750D01*
X89535000Y-294393750D02*
X89535000Y-293743750D01*
X88415000Y-289503750D02*
X90655000Y-289503750D01*
X90655000Y-293743750D01*
X88415000Y-293743750D01*
X88415000Y-289503750D01*
%TO.C,D28*%
X274152500Y-273853750D02*
X276392500Y-273853750D01*
X274152500Y-273973750D02*
X276392500Y-273973750D01*
X274152500Y-274093750D02*
X276392500Y-274093750D01*
X275272500Y-269803750D02*
X275272500Y-270453750D01*
X275272500Y-275343750D02*
X275272500Y-274693750D01*
X274152500Y-270453750D02*
X276392500Y-270453750D01*
X276392500Y-274693750D01*
X274152500Y-274693750D01*
X274152500Y-270453750D01*
%TO.C,D9*%
X169377500Y-254803750D02*
X171617500Y-254803750D01*
X169377500Y-254923750D02*
X171617500Y-254923750D01*
X169377500Y-255043750D02*
X171617500Y-255043750D01*
X170497500Y-250753750D02*
X170497500Y-251403750D01*
X170497500Y-256293750D02*
X170497500Y-255643750D01*
X169377500Y-251403750D02*
X171617500Y-251403750D01*
X171617500Y-255643750D01*
X169377500Y-255643750D01*
X169377500Y-251403750D01*
%TO.C,D15*%
X21740000Y-273853750D02*
X23980000Y-273853750D01*
X21740000Y-273973750D02*
X23980000Y-273973750D01*
X21740000Y-274093750D02*
X23980000Y-274093750D01*
X22860000Y-269803750D02*
X22860000Y-270453750D01*
X22860000Y-275343750D02*
X22860000Y-274693750D01*
X21740000Y-270453750D02*
X23980000Y-270453750D01*
X23980000Y-274693750D01*
X21740000Y-274693750D01*
X21740000Y-270453750D01*
%TO.C,D35*%
X145565000Y-292903750D02*
X147805000Y-292903750D01*
X145565000Y-293023750D02*
X147805000Y-293023750D01*
X145565000Y-293143750D02*
X147805000Y-293143750D01*
X146685000Y-288853750D02*
X146685000Y-289503750D01*
X146685000Y-294393750D02*
X146685000Y-293743750D01*
X145565000Y-289503750D02*
X147805000Y-289503750D01*
X147805000Y-293743750D01*
X145565000Y-293743750D01*
X145565000Y-289503750D01*
%TO.C,D12*%
X226527500Y-254803750D02*
X228767500Y-254803750D01*
X226527500Y-254923750D02*
X228767500Y-254923750D01*
X226527500Y-255043750D02*
X228767500Y-255043750D01*
X227647500Y-250753750D02*
X227647500Y-251403750D01*
X227647500Y-256293750D02*
X227647500Y-255643750D01*
X226527500Y-251403750D02*
X228767500Y-251403750D01*
X228767500Y-255643750D01*
X226527500Y-255643750D01*
X226527500Y-251403750D01*
%TO.C,D26*%
X236052500Y-273853750D02*
X238292500Y-273853750D01*
X236052500Y-273973750D02*
X238292500Y-273973750D01*
X236052500Y-274093750D02*
X238292500Y-274093750D01*
X237172500Y-269803750D02*
X237172500Y-270453750D01*
X237172500Y-275343750D02*
X237172500Y-274693750D01*
X236052500Y-270453750D02*
X238292500Y-270453750D01*
X238292500Y-274693750D01*
X236052500Y-274693750D01*
X236052500Y-270453750D01*
%TO.C,D54*%
X293202500Y-311953750D02*
X295442500Y-311953750D01*
X293202500Y-312073750D02*
X295442500Y-312073750D01*
X293202500Y-312193750D02*
X295442500Y-312193750D01*
X294322500Y-307903750D02*
X294322500Y-308553750D01*
X294322500Y-313443750D02*
X294322500Y-312793750D01*
X293202500Y-308553750D02*
X295442500Y-308553750D01*
X295442500Y-312793750D01*
X293202500Y-312793750D01*
X293202500Y-308553750D01*
%TO.C,D31*%
X69365000Y-292903750D02*
X71605000Y-292903750D01*
X69365000Y-293023750D02*
X71605000Y-293023750D01*
X69365000Y-293143750D02*
X71605000Y-293143750D01*
X70485000Y-288853750D02*
X70485000Y-289503750D01*
X70485000Y-294393750D02*
X70485000Y-293743750D01*
X69365000Y-289503750D02*
X71605000Y-289503750D01*
X71605000Y-293743750D01*
X69365000Y-293743750D01*
X69365000Y-289503750D01*
%TO.C,D47*%
X136040000Y-311953750D02*
X138280000Y-311953750D01*
X136040000Y-312073750D02*
X138280000Y-312073750D01*
X136040000Y-312193750D02*
X138280000Y-312193750D01*
X137160000Y-307903750D02*
X137160000Y-308553750D01*
X137160000Y-313443750D02*
X137160000Y-312793750D01*
X136040000Y-308553750D02*
X138280000Y-308553750D01*
X138280000Y-312793750D01*
X136040000Y-312793750D01*
X136040000Y-308553750D01*
%TO.C,D64*%
X312252500Y-331003750D02*
X314492500Y-331003750D01*
X312252500Y-331123750D02*
X314492500Y-331123750D01*
X312252500Y-331243750D02*
X314492500Y-331243750D01*
X313372500Y-326953750D02*
X313372500Y-327603750D01*
X313372500Y-332493750D02*
X313372500Y-331843750D01*
X312252500Y-327603750D02*
X314492500Y-327603750D01*
X314492500Y-331843750D01*
X312252500Y-331843750D01*
X312252500Y-327603750D01*
%TO.C,D1*%
X16977500Y-254803750D02*
X19217500Y-254803750D01*
X16977500Y-254923750D02*
X19217500Y-254923750D01*
X16977500Y-255043750D02*
X19217500Y-255043750D01*
X18097500Y-250753750D02*
X18097500Y-251403750D01*
X18097500Y-256293750D02*
X18097500Y-255643750D01*
X16977500Y-251403750D02*
X19217500Y-251403750D01*
X19217500Y-255643750D01*
X16977500Y-255643750D01*
X16977500Y-251403750D01*
%TO.C,D33*%
X107465000Y-292903750D02*
X109705000Y-292903750D01*
X107465000Y-293023750D02*
X109705000Y-293023750D01*
X107465000Y-293143750D02*
X109705000Y-293143750D01*
X108585000Y-288853750D02*
X108585000Y-289503750D01*
X108585000Y-294393750D02*
X108585000Y-293743750D01*
X107465000Y-289503750D02*
X109705000Y-289503750D01*
X109705000Y-293743750D01*
X107465000Y-293743750D01*
X107465000Y-289503750D01*
%TO.C,D5*%
X93177500Y-254803750D02*
X95417500Y-254803750D01*
X93177500Y-254923750D02*
X95417500Y-254923750D01*
X93177500Y-255043750D02*
X95417500Y-255043750D01*
X94297500Y-250753750D02*
X94297500Y-251403750D01*
X94297500Y-256293750D02*
X94297500Y-255643750D01*
X93177500Y-251403750D02*
X95417500Y-251403750D01*
X95417500Y-255643750D01*
X93177500Y-255643750D01*
X93177500Y-251403750D01*
%TO.C,D42*%
X39361250Y-311953750D02*
X41601250Y-311953750D01*
X39361250Y-312073750D02*
X41601250Y-312073750D01*
X39361250Y-312193750D02*
X41601250Y-312193750D01*
X40481250Y-307903750D02*
X40481250Y-308553750D01*
X40481250Y-313443750D02*
X40481250Y-312793750D01*
X39361250Y-308553750D02*
X41601250Y-308553750D01*
X41601250Y-312793750D01*
X39361250Y-312793750D01*
X39361250Y-308553750D01*
%TO.C,D21*%
X140802500Y-273853750D02*
X143042500Y-273853750D01*
X140802500Y-273973750D02*
X143042500Y-273973750D01*
X140802500Y-274093750D02*
X143042500Y-274093750D01*
X141922500Y-269803750D02*
X141922500Y-270453750D01*
X141922500Y-275343750D02*
X141922500Y-274693750D01*
X140802500Y-270453750D02*
X143042500Y-270453750D01*
X143042500Y-274693750D01*
X140802500Y-274693750D01*
X140802500Y-270453750D01*
%TO.C,D16*%
X45552500Y-273853750D02*
X47792500Y-273853750D01*
X45552500Y-273973750D02*
X47792500Y-273973750D01*
X45552500Y-274093750D02*
X47792500Y-274093750D01*
X46672500Y-269803750D02*
X46672500Y-270453750D01*
X46672500Y-275343750D02*
X46672500Y-274693750D01*
X45552500Y-270453750D02*
X47792500Y-270453750D01*
X47792500Y-274693750D01*
X45552500Y-274693750D01*
X45552500Y-270453750D01*
%TO.C,D48*%
X155090000Y-311953750D02*
X157330000Y-311953750D01*
X155090000Y-312073750D02*
X157330000Y-312073750D01*
X155090000Y-312193750D02*
X157330000Y-312193750D01*
X156210000Y-307903750D02*
X156210000Y-308553750D01*
X156210000Y-313443750D02*
X156210000Y-312793750D01*
X155090000Y-308553750D02*
X157330000Y-308553750D01*
X157330000Y-312793750D01*
X155090000Y-312793750D01*
X155090000Y-308553750D01*
%TO.C,D34*%
X126515000Y-292903750D02*
X128755000Y-292903750D01*
X126515000Y-293023750D02*
X128755000Y-293023750D01*
X126515000Y-293143750D02*
X128755000Y-293143750D01*
X127635000Y-288853750D02*
X127635000Y-289503750D01*
X127635000Y-294393750D02*
X127635000Y-293743750D01*
X126515000Y-289503750D02*
X128755000Y-289503750D01*
X128755000Y-293743750D01*
X126515000Y-293743750D01*
X126515000Y-289503750D01*
%TO.C,D46*%
X116990000Y-311953750D02*
X119230000Y-311953750D01*
X116990000Y-312073750D02*
X119230000Y-312073750D01*
X116990000Y-312193750D02*
X119230000Y-312193750D01*
X118110000Y-307903750D02*
X118110000Y-308553750D01*
X118110000Y-313443750D02*
X118110000Y-312793750D01*
X116990000Y-308553750D02*
X119230000Y-308553750D01*
X119230000Y-312793750D01*
X116990000Y-312793750D01*
X116990000Y-308553750D01*
%TO.C,D40*%
X240815000Y-292903750D02*
X243055000Y-292903750D01*
X240815000Y-293023750D02*
X243055000Y-293023750D01*
X240815000Y-293143750D02*
X243055000Y-293143750D01*
X241935000Y-288853750D02*
X241935000Y-289503750D01*
X241935000Y-294393750D02*
X241935000Y-293743750D01*
X240815000Y-289503750D02*
X243055000Y-289503750D01*
X243055000Y-293743750D01*
X240815000Y-293743750D01*
X240815000Y-289503750D01*
%TO.C,D4*%
X74127500Y-254803750D02*
X76367500Y-254803750D01*
X74127500Y-254923750D02*
X76367500Y-254923750D01*
X74127500Y-255043750D02*
X76367500Y-255043750D01*
X75247500Y-250753750D02*
X75247500Y-251403750D01*
X75247500Y-256293750D02*
X75247500Y-255643750D01*
X74127500Y-251403750D02*
X76367500Y-251403750D01*
X76367500Y-255643750D01*
X74127500Y-255643750D01*
X74127500Y-251403750D01*
%TO.C,D11*%
X207477500Y-254803750D02*
X209717500Y-254803750D01*
X207477500Y-254923750D02*
X209717500Y-254923750D01*
X207477500Y-255043750D02*
X209717500Y-255043750D01*
X208597500Y-250753750D02*
X208597500Y-251403750D01*
X208597500Y-256293750D02*
X208597500Y-255643750D01*
X207477500Y-251403750D02*
X209717500Y-251403750D01*
X209717500Y-255643750D01*
X207477500Y-255643750D01*
X207477500Y-251403750D01*
%TO.C,D30*%
X50315000Y-292903750D02*
X52555000Y-292903750D01*
X50315000Y-293023750D02*
X52555000Y-293023750D01*
X50315000Y-293143750D02*
X52555000Y-293143750D01*
X51435000Y-288853750D02*
X51435000Y-289503750D01*
X51435000Y-294393750D02*
X51435000Y-293743750D01*
X50315000Y-289503750D02*
X52555000Y-289503750D01*
X52555000Y-293743750D01*
X50315000Y-293743750D01*
X50315000Y-289503750D01*
%TO.C,D7*%
X131277500Y-254803750D02*
X133517500Y-254803750D01*
X131277500Y-254923750D02*
X133517500Y-254923750D01*
X131277500Y-255043750D02*
X133517500Y-255043750D01*
X132397500Y-250753750D02*
X132397500Y-251403750D01*
X132397500Y-256293750D02*
X132397500Y-255643750D01*
X131277500Y-251403750D02*
X133517500Y-251403750D01*
X133517500Y-255643750D01*
X131277500Y-255643750D01*
X131277500Y-251403750D01*
%TO.C,D14*%
X269390000Y-254803750D02*
X271630000Y-254803750D01*
X269390000Y-254923750D02*
X271630000Y-254923750D01*
X269390000Y-255043750D02*
X271630000Y-255043750D01*
X270510000Y-250753750D02*
X270510000Y-251403750D01*
X270510000Y-256293750D02*
X270510000Y-255643750D01*
X269390000Y-251403750D02*
X271630000Y-251403750D01*
X271630000Y-255643750D01*
X269390000Y-255643750D01*
X269390000Y-251403750D01*
%TO.C,D59*%
X136040000Y-331003750D02*
X138280000Y-331003750D01*
X136040000Y-331123750D02*
X138280000Y-331123750D01*
X136040000Y-331243750D02*
X138280000Y-331243750D01*
X137160000Y-326953750D02*
X137160000Y-327603750D01*
X137160000Y-332493750D02*
X137160000Y-331843750D01*
X136040000Y-327603750D02*
X138280000Y-327603750D01*
X138280000Y-331843750D01*
X136040000Y-331843750D01*
X136040000Y-327603750D01*
%TO.C,D60*%
X221765000Y-331003750D02*
X224005000Y-331003750D01*
X221765000Y-331123750D02*
X224005000Y-331123750D01*
X221765000Y-331243750D02*
X224005000Y-331243750D01*
X222885000Y-326953750D02*
X222885000Y-327603750D01*
X222885000Y-332493750D02*
X222885000Y-331843750D01*
X221765000Y-327603750D02*
X224005000Y-327603750D01*
X224005000Y-331843750D01*
X221765000Y-331843750D01*
X221765000Y-327603750D01*
%TO.C,D6*%
X112227500Y-254803750D02*
X114467500Y-254803750D01*
X112227500Y-254923750D02*
X114467500Y-254923750D01*
X112227500Y-255043750D02*
X114467500Y-255043750D01*
X113347500Y-250753750D02*
X113347500Y-251403750D01*
X113347500Y-256293750D02*
X113347500Y-255643750D01*
X112227500Y-251403750D02*
X114467500Y-251403750D01*
X114467500Y-255643750D01*
X112227500Y-255643750D01*
X112227500Y-251403750D01*
%TO.C,A1*%
X290477500Y-244341250D02*
X290477500Y-248179189D01*
X290477500Y-250741250D02*
X290477500Y-249103311D01*
X290477500Y-257941250D02*
X290477500Y-250741250D01*
X290477500Y-259579189D02*
X290477500Y-257941250D01*
X290477500Y-260503311D02*
X290477500Y-264341250D01*
X290897563Y-244071250D02*
X290540500Y-244071250D01*
X290897563Y-264611250D02*
X290540500Y-264611250D01*
X291391020Y-246831250D02*
X290477500Y-246831250D01*
X291391020Y-261851250D02*
X290477500Y-261851250D01*
X293437500Y-243731250D02*
X293017500Y-243731250D01*
X293437500Y-244071250D02*
X293017500Y-244071250D01*
X293437500Y-264611250D02*
X293017500Y-264611250D01*
X293437500Y-264951250D02*
X293017500Y-264951250D01*
X295977500Y-243731250D02*
X295557500Y-243731250D01*
X295977500Y-244071250D02*
X295557500Y-244071250D01*
X295977500Y-264611250D02*
X295557500Y-264611250D01*
X295977500Y-264951250D02*
X295557500Y-264951250D01*
X298517500Y-243731250D02*
X298097500Y-243731250D01*
X298517500Y-244071250D02*
X298097500Y-244071250D01*
X298517500Y-264611250D02*
X298097500Y-264611250D01*
X298517500Y-264951250D02*
X298097500Y-264951250D01*
X301057500Y-243731250D02*
X300637500Y-243731250D01*
X301057500Y-244071250D02*
X300637500Y-244071250D01*
X301057500Y-264611250D02*
X300637500Y-264611250D01*
X301057500Y-264951250D02*
X300637500Y-264951250D01*
X303597500Y-243731250D02*
X303177500Y-243731250D01*
X303597500Y-244071250D02*
X303177500Y-244071250D01*
X303597500Y-264611250D02*
X303177500Y-264611250D01*
X303597500Y-264951250D02*
X303177500Y-264951250D01*
X306137500Y-243731250D02*
X305717500Y-243731250D01*
X306137500Y-244071250D02*
X305717500Y-244071250D01*
X306137500Y-264611250D02*
X305717500Y-264611250D01*
X306137500Y-264951250D02*
X305717500Y-264951250D01*
X308677500Y-243731250D02*
X308257500Y-243731250D01*
X308677500Y-244071250D02*
X308257500Y-244071250D01*
X308677500Y-264611250D02*
X308257500Y-264611250D01*
X308677500Y-264951250D02*
X308257500Y-264951250D01*
X311217500Y-243731250D02*
X310797500Y-243731250D01*
X311217500Y-244071250D02*
X310797500Y-244071250D01*
X311217500Y-264611250D02*
X310797500Y-264611250D01*
X311217500Y-264951250D02*
X310797500Y-264951250D01*
X313757500Y-243731250D02*
X313337500Y-243731250D01*
X313757500Y-244071250D02*
X313337500Y-244071250D01*
X313757500Y-264611250D02*
X313337500Y-264611250D01*
X313757500Y-264951250D02*
X313337500Y-264951250D01*
X316297500Y-243731250D02*
X315877500Y-243731250D01*
X316297500Y-244071250D02*
X315877500Y-244071250D01*
X316297500Y-264611250D02*
X315877500Y-264611250D01*
X316297500Y-264951250D02*
X315877500Y-264951250D01*
X318837500Y-243731250D02*
X318417500Y-243731250D01*
X318837500Y-244071250D02*
X318417500Y-244071250D01*
X318837500Y-264611250D02*
X318417500Y-264611250D01*
X318837500Y-264951250D02*
X318417500Y-264951250D01*
X321377500Y-243731250D02*
X320957500Y-243731250D01*
X321377500Y-244071250D02*
X320957500Y-244071250D01*
X321377500Y-264611250D02*
X320957500Y-264611250D01*
X321377500Y-264951250D02*
X320957500Y-264951250D01*
X323917500Y-243731250D02*
X323497500Y-243731250D01*
X323917500Y-244071250D02*
X323497500Y-244071250D01*
X323917500Y-264611250D02*
X323497500Y-264611250D01*
X323917500Y-264951250D02*
X323497500Y-264951250D01*
X326457500Y-243731250D02*
X326037500Y-243731250D01*
X326457500Y-244071250D02*
X326037500Y-244071250D01*
X326457500Y-264611250D02*
X326037500Y-264611250D01*
X326457500Y-264951250D02*
X326037500Y-264951250D01*
X328997500Y-243731250D02*
X328577500Y-243731250D01*
X328997500Y-244071250D02*
X328577500Y-244071250D01*
X328997500Y-264611250D02*
X328577500Y-264611250D01*
X328997500Y-264951250D02*
X328577500Y-264951250D01*
X331537500Y-243731250D02*
X331117500Y-243731250D01*
X331537500Y-244071250D02*
X331117500Y-244071250D01*
X331537500Y-264611250D02*
X331117500Y-264611250D01*
X331537500Y-264951250D02*
X331117500Y-264951250D01*
X334077500Y-243731250D02*
X333657500Y-243731250D01*
X334077500Y-244071250D02*
X333657500Y-244071250D01*
X334077500Y-264611250D02*
X333657500Y-264611250D01*
X334077500Y-264951250D02*
X333657500Y-264951250D01*
X336617500Y-243731250D02*
X336197500Y-243731250D01*
X336617500Y-244071250D02*
X336197500Y-244071250D01*
X336617500Y-264611250D02*
X336197500Y-264611250D01*
X336617500Y-264951250D02*
X336197500Y-264951250D01*
X337177500Y-250441250D02*
X337177500Y-250737340D01*
X337177500Y-253095160D02*
X337177500Y-255587340D01*
X337177500Y-257945160D02*
X337177500Y-258241250D01*
X338391020Y-246831250D02*
X293783980Y-246831250D01*
X338391020Y-261851250D02*
X293783980Y-261851250D01*
X338393500Y-250441250D02*
X337177500Y-250441250D01*
X338393500Y-258241250D02*
X337177500Y-258241250D01*
X339157500Y-243731250D02*
X338737500Y-243731250D01*
X339157500Y-243731250D02*
X339157500Y-243251250D01*
X339157500Y-244071250D02*
X338737500Y-244071250D01*
X339157500Y-264611250D02*
X338737500Y-264611250D01*
X339157500Y-264951250D02*
X338737500Y-264951250D01*
X341277437Y-244071250D02*
X341634500Y-244071250D01*
X341277437Y-264611250D02*
X341634500Y-264611250D01*
X341277500Y-243761574D02*
X341277500Y-243251250D01*
X341697500Y-244341250D02*
X341697500Y-246831250D01*
X341697500Y-246831250D02*
X340783980Y-246831250D01*
X341697500Y-246831250D02*
X341697500Y-248179190D01*
X341697500Y-249103311D02*
X341697500Y-250106250D01*
X341697500Y-250106250D02*
X341697500Y-258576250D01*
X341697500Y-250441250D02*
X340781500Y-250441250D01*
X341697500Y-258241250D02*
X340781500Y-258241250D01*
X341697500Y-258576250D02*
X341697500Y-259579189D01*
X341697500Y-260503311D02*
X341697500Y-261851250D01*
X341697500Y-261851250D02*
X340783980Y-261851250D01*
X341697500Y-264341250D02*
X341697500Y-261851250D01*
X290477500Y-244341250D02*
G75*
G02*
X290897563Y-243761574I610002J-1D01*
G01*
X290897563Y-264920926D02*
G75*
G02*
X290477431Y-264341250I189837J579676D01*
G01*
X341277500Y-243761574D02*
G75*
G02*
X341697500Y-244341250I-190051J-579692D01*
G01*
X341697500Y-264341250D02*
G75*
G02*
X341277437Y-264920926I-610000J0D01*
G01*
%TO.C,D23*%
X178902500Y-273853750D02*
X181142500Y-273853750D01*
X178902500Y-273973750D02*
X181142500Y-273973750D01*
X178902500Y-274093750D02*
X181142500Y-274093750D01*
X180022500Y-269803750D02*
X180022500Y-270453750D01*
X180022500Y-275343750D02*
X180022500Y-274693750D01*
X178902500Y-270453750D02*
X181142500Y-270453750D01*
X181142500Y-274693750D01*
X178902500Y-274693750D01*
X178902500Y-270453750D01*
%TO.C,D19*%
X102702500Y-273853750D02*
X104942500Y-273853750D01*
X102702500Y-273973750D02*
X104942500Y-273973750D01*
X102702500Y-274093750D02*
X104942500Y-274093750D01*
X103822500Y-269803750D02*
X103822500Y-270453750D01*
X103822500Y-275343750D02*
X103822500Y-274693750D01*
X102702500Y-270453750D02*
X104942500Y-270453750D01*
X104942500Y-274693750D01*
X102702500Y-274693750D01*
X102702500Y-270453750D01*
%TO.C,D53*%
X272723750Y-311795000D02*
X274963750Y-311795000D01*
X272723750Y-311915000D02*
X274963750Y-311915000D01*
X272723750Y-312035000D02*
X274963750Y-312035000D01*
X273843750Y-307745000D02*
X273843750Y-308395000D01*
X273843750Y-313285000D02*
X273843750Y-312635000D01*
X272723750Y-308395000D02*
X274963750Y-308395000D01*
X274963750Y-312635000D01*
X272723750Y-312635000D01*
X272723750Y-308395000D01*
%TO.C,D55*%
X20311250Y-331003750D02*
X22551250Y-331003750D01*
X20311250Y-331123750D02*
X22551250Y-331123750D01*
X20311250Y-331243750D02*
X22551250Y-331243750D01*
X21431250Y-326953750D02*
X21431250Y-327603750D01*
X21431250Y-332493750D02*
X21431250Y-331843750D01*
X20311250Y-327603750D02*
X22551250Y-327603750D01*
X22551250Y-331843750D01*
X20311250Y-331843750D01*
X20311250Y-327603750D01*
%TO.C,D39*%
X221765000Y-292903750D02*
X224005000Y-292903750D01*
X221765000Y-293023750D02*
X224005000Y-293023750D01*
X221765000Y-293143750D02*
X224005000Y-293143750D01*
X222885000Y-288853750D02*
X222885000Y-289503750D01*
X222885000Y-294393750D02*
X222885000Y-293743750D01*
X221765000Y-289503750D02*
X224005000Y-289503750D01*
X224005000Y-293743750D01*
X221765000Y-293743750D01*
X221765000Y-289503750D01*
%TO.C,D18*%
X83652500Y-273853750D02*
X85892500Y-273853750D01*
X83652500Y-273973750D02*
X85892500Y-273973750D01*
X83652500Y-274093750D02*
X85892500Y-274093750D01*
X84772500Y-269803750D02*
X84772500Y-270453750D01*
X84772500Y-275343750D02*
X84772500Y-274693750D01*
X83652500Y-270453750D02*
X85892500Y-270453750D01*
X85892500Y-274693750D01*
X83652500Y-274693750D01*
X83652500Y-270453750D01*
%TO.C,D43*%
X59840000Y-311953750D02*
X62080000Y-311953750D01*
X59840000Y-312073750D02*
X62080000Y-312073750D01*
X59840000Y-312193750D02*
X62080000Y-312193750D01*
X60960000Y-307903750D02*
X60960000Y-308553750D01*
X60960000Y-313443750D02*
X60960000Y-312793750D01*
X59840000Y-308553750D02*
X62080000Y-308553750D01*
X62080000Y-312793750D01*
X59840000Y-312793750D01*
X59840000Y-308553750D01*
%TO.C,D3*%
X55077500Y-254803750D02*
X57317500Y-254803750D01*
X55077500Y-254923750D02*
X57317500Y-254923750D01*
X55077500Y-255043750D02*
X57317500Y-255043750D01*
X56197500Y-250753750D02*
X56197500Y-251403750D01*
X56197500Y-256293750D02*
X56197500Y-255643750D01*
X55077500Y-251403750D02*
X57317500Y-251403750D01*
X57317500Y-255643750D01*
X55077500Y-255643750D01*
X55077500Y-251403750D01*
%TO.C,D49*%
X174140000Y-311953750D02*
X176380000Y-311953750D01*
X174140000Y-312073750D02*
X176380000Y-312073750D01*
X174140000Y-312193750D02*
X176380000Y-312193750D01*
X175260000Y-307903750D02*
X175260000Y-308553750D01*
X175260000Y-313443750D02*
X175260000Y-312793750D01*
X174140000Y-308553750D02*
X176380000Y-308553750D01*
X176380000Y-312793750D01*
X174140000Y-312793750D01*
X174140000Y-308553750D01*
%TO.C,D8*%
X150327500Y-254803750D02*
X152567500Y-254803750D01*
X150327500Y-254923750D02*
X152567500Y-254923750D01*
X150327500Y-255043750D02*
X152567500Y-255043750D01*
X151447500Y-250753750D02*
X151447500Y-251403750D01*
X151447500Y-256293750D02*
X151447500Y-255643750D01*
X150327500Y-251403750D02*
X152567500Y-251403750D01*
X152567500Y-255643750D01*
X150327500Y-255643750D01*
X150327500Y-251403750D01*
%TO.C,D27*%
X255102500Y-273853750D02*
X257342500Y-273853750D01*
X255102500Y-273973750D02*
X257342500Y-273973750D01*
X255102500Y-274093750D02*
X257342500Y-274093750D01*
X256222500Y-269803750D02*
X256222500Y-270453750D01*
X256222500Y-275343750D02*
X256222500Y-274693750D01*
X255102500Y-270453750D02*
X257342500Y-270453750D01*
X257342500Y-274693750D01*
X255102500Y-274693750D01*
X255102500Y-270453750D01*
%TO.C,D45*%
X97940000Y-311953750D02*
X100180000Y-311953750D01*
X97940000Y-312073750D02*
X100180000Y-312073750D01*
X97940000Y-312193750D02*
X100180000Y-312193750D01*
X99060000Y-307903750D02*
X99060000Y-308553750D01*
X99060000Y-313443750D02*
X99060000Y-312793750D01*
X97940000Y-308553750D02*
X100180000Y-308553750D01*
X100180000Y-312793750D01*
X97940000Y-312793750D01*
X97940000Y-308553750D01*
%TD*%
M02*
