%TF.GenerationSoftware,KiCad,Pcbnew,10.0.4*%
%TF.CreationDate,2026-07-24T12:44:57+05:30*%
%TF.ProjectId,Keeb,4b656562-2e6b-4696-9361-645f70636258,rev?*%
%TF.SameCoordinates,Original*%
%TF.FileFunction,Copper,L2,Bot*%
%TF.FilePolarity,Positive*%
%FSLAX46Y46*%
G04 Gerber Fmt 4.6, Leading zero omitted, Abs format (unit mm)*
G04 Created by KiCad (PCBNEW 10.0.4) date 2026-07-24 12:44:57*
%MOMM*%
%LPD*%
G01*
G04 APERTURE LIST*
G04 Aperture macros list*
%AMRoundRect*
0 Rectangle with rounded corners*
0 $1 Rounding radius*
0 $2 $3 $4 $5 $6 $7 $8 $9 X,Y pos of 4 corners*
0 Add a 4 corners polygon primitive as box body*
4,1,4,$2,$3,$4,$5,$6,$7,$8,$9,$2,$3,0*
0 Add four circle primitives for the rounded corners*
1,1,$1+$1,$2,$3*
1,1,$1+$1,$4,$5*
1,1,$1+$1,$6,$7*
1,1,$1+$1,$8,$9*
0 Add four rect primitives between the rounded corners*
20,1,$1+$1,$2,$3,$4,$5,0*
20,1,$1+$1,$4,$5,$6,$7,0*
20,1,$1+$1,$6,$7,$8,$9,0*
20,1,$1+$1,$8,$9,$2,$3,0*%
%AMFreePoly0*
4,1,37,0.603843,0.796157,0.639018,0.796157,0.711114,0.766294,0.766294,0.711114,0.796157,0.639018,0.796157,0.603843,0.800000,0.600000,0.800000,-0.600000,0.796157,-0.603843,0.796157,-0.639018,0.766294,-0.711114,0.711114,-0.766294,0.639018,-0.796157,0.603843,-0.796157,0.600000,-0.800000,0.000000,-0.800000,0.000000,-0.796148,-0.078414,-0.796148,-0.232228,-0.765552,-0.377117,-0.705537,
-0.507515,-0.618408,-0.618408,-0.507515,-0.705537,-0.377117,-0.765552,-0.232228,-0.796148,-0.078414,-0.796148,0.078414,-0.765552,0.232228,-0.705537,0.377117,-0.618408,0.507515,-0.507515,0.618408,-0.377117,0.705537,-0.232228,0.765552,-0.078414,0.796148,0.000000,0.796148,0.000000,0.800000,0.600000,0.800000,0.603843,0.796157,0.603843,0.796157,$1*%
%AMFreePoly1*
4,1,37,0.000000,0.796148,0.078414,0.796148,0.232228,0.765552,0.377117,0.705537,0.507515,0.618408,0.618408,0.507515,0.705537,0.377117,0.765552,0.232228,0.796148,0.078414,0.796148,-0.078414,0.765552,-0.232228,0.705537,-0.377117,0.618408,-0.507515,0.507515,-0.618408,0.377117,-0.705537,0.232228,-0.765552,0.078414,-0.796148,0.000000,-0.796148,0.000000,-0.800000,-0.600000,-0.800000,
-0.603843,-0.796157,-0.639018,-0.796157,-0.711114,-0.766294,-0.766294,-0.711114,-0.796157,-0.639018,-0.796157,-0.603843,-0.800000,-0.600000,-0.800000,0.600000,-0.796157,0.603843,-0.796157,0.639018,-0.766294,0.711114,-0.711114,0.766294,-0.639018,0.796157,-0.603843,0.796157,-0.600000,0.800000,0.000000,0.800000,0.000000,0.796148,0.000000,0.796148,$1*%
G04 Aperture macros list end*
%TA.AperFunction,ComponentPad*%
%ADD10C,2.300000*%
%TD*%
%TA.AperFunction,ComponentPad*%
%ADD11RoundRect,0.250000X0.550000X-0.550000X0.550000X0.550000X-0.550000X0.550000X-0.550000X-0.550000X0*%
%TD*%
%TA.AperFunction,ComponentPad*%
%ADD12C,1.600000*%
%TD*%
%TA.AperFunction,ComponentPad*%
%ADD13RoundRect,0.200000X-0.600000X0.600000X-0.600000X-0.600000X0.600000X-0.600000X0.600000X0.600000X0*%
%TD*%
%TA.AperFunction,ComponentPad*%
%ADD14FreePoly0,270.000000*%
%TD*%
%TA.AperFunction,ComponentPad*%
%ADD15FreePoly1,270.000000*%
%TD*%
%TA.AperFunction,Conductor*%
%ADD16C,0.200000*%
%TD*%
G04 APERTURE END LIST*
D10*
%TO.P,SW23,1,1_1*%
%TO.N,/COL9*%
X166687500Y-269081250D03*
%TO.P,SW23,2,2_2*%
%TO.N,Net-(D23-A)*%
X173037500Y-266541250D03*
%TD*%
%TO.P,SW5,1,1_1*%
%TO.N,/COL5*%
X80962500Y-250031250D03*
%TO.P,SW5,2,2_2*%
%TO.N,Net-(D5-A)*%
X87312500Y-247491250D03*
%TD*%
%TO.P,SW47,1,1_1*%
%TO.N,/COL6*%
X123825000Y-307181250D03*
%TO.P,SW47,2,2_2*%
%TO.N,Net-(D47-A)*%
X130175000Y-304641250D03*
%TD*%
%TO.P,SW35,1,1_1*%
%TO.N,/COL7*%
X133350000Y-288131250D03*
%TO.P,SW35,2,2_2*%
%TO.N,Net-(D35-A)*%
X139700000Y-285591250D03*
%TD*%
%TO.P,SW20,1,1_1*%
%TO.N,/COL6*%
X109537500Y-269081250D03*
%TO.P,SW20,2,2_2*%
%TO.N,Net-(D20-A)*%
X115887500Y-266541250D03*
%TD*%
D11*
%TO.P,D25,1,K_1*%
%TO.N,/ROW2*%
X218122500Y-276383750D03*
D12*
%TO.P,D25,2,A_2*%
%TO.N,Net-(D25-A)*%
X218122500Y-268763750D03*
%TD*%
D11*
%TO.P,D24,1,K_1*%
%TO.N,/ROW2*%
X199072500Y-276383750D03*
D12*
%TO.P,D24,2,A_2*%
%TO.N,Net-(D24-A)*%
X199072500Y-268763750D03*
%TD*%
D10*
%TO.P,SW63,1,1_1*%
%TO.N,/COL13*%
X280987500Y-326231250D03*
%TO.P,SW63,2,2_2*%
%TO.N,Net-(D63-A)*%
X287337500Y-323691250D03*
%TD*%
%TO.P,SW59,1,1_1*%
%TO.N,/COL6*%
X123825000Y-326231250D03*
%TO.P,SW59,2,2_2*%
%TO.N,Net-(D59-A)*%
X130175000Y-323691250D03*
%TD*%
D11*
%TO.P,D50,1,K_1*%
%TO.N,/ROW4*%
X194310000Y-314483750D03*
D12*
%TO.P,D50,2,A_2*%
%TO.N,Net-(D50-A)*%
X194310000Y-306863750D03*
%TD*%
D11*
%TO.P,D62,1,K_1*%
%TO.N,/ROW5*%
X275272500Y-333533750D03*
D12*
%TO.P,D62,2,A_2*%
%TO.N,Net-(D62-A)*%
X275272500Y-325913750D03*
%TD*%
D10*
%TO.P,SW43,1,1_1*%
%TO.N,/COL2*%
X47625000Y-307181250D03*
%TO.P,SW43,2,2_2*%
%TO.N,Net-(D43-A)*%
X53975000Y-304641250D03*
%TD*%
D11*
%TO.P,D22,1,K_1*%
%TO.N,/ROW2*%
X160972500Y-276383750D03*
D12*
%TO.P,D22,2,A_2*%
%TO.N,Net-(D22-A)*%
X160972500Y-268763750D03*
%TD*%
D10*
%TO.P,SW55,1,1_1*%
%TO.N,/COL1*%
X7143750Y-326231250D03*
%TO.P,SW55,2,2_2*%
%TO.N,Net-(D55-A)*%
X13493750Y-323691250D03*
%TD*%
D11*
%TO.P,D20,1,K_1*%
%TO.N,/ROW2*%
X122872500Y-276383750D03*
D12*
%TO.P,D20,2,A_2*%
%TO.N,Net-(D20-A)*%
X122872500Y-268763750D03*
%TD*%
D10*
%TO.P,SW19,1,1_1*%
%TO.N,/COL5*%
X90487500Y-269081250D03*
%TO.P,SW19,2,2_2*%
%TO.N,Net-(D19-A)*%
X96837500Y-266541250D03*
%TD*%
D11*
%TO.P,D36,1,K_1*%
%TO.N,/ROW3*%
X165735000Y-295433750D03*
D12*
%TO.P,D36,2,A_2*%
%TO.N,Net-(D36-A)*%
X165735000Y-287813750D03*
%TD*%
D11*
%TO.P,D41,1,K_1*%
%TO.N,/ROW3*%
X269081250Y-295433750D03*
D12*
%TO.P,D41,2,A_2*%
%TO.N,Net-(D41-A)*%
X269081250Y-287813750D03*
%TD*%
D10*
%TO.P,SW26,1,1_1*%
%TO.N,/COL12*%
X223837500Y-269081250D03*
%TO.P,SW26,2,2_2*%
%TO.N,Net-(D26-A)*%
X230187500Y-266541250D03*
%TD*%
D11*
%TO.P,D63,1,K_1*%
%TO.N,/ROW5*%
X294322500Y-333533750D03*
D12*
%TO.P,D63,2,A_2*%
%TO.N,Net-(D63-A)*%
X294322500Y-325913750D03*
%TD*%
D10*
%TO.P,SW8,1,1_1*%
%TO.N,/COL8*%
X138112500Y-250031250D03*
%TO.P,SW8,2,2_2*%
%TO.N,Net-(D8-A)*%
X144462500Y-247491250D03*
%TD*%
D11*
%TO.P,D29,1,K_1*%
%TO.N,/ROW3*%
X25241250Y-295433750D03*
D12*
%TO.P,D29,2,A_2*%
%TO.N,Net-(D29-A)*%
X25241250Y-287813750D03*
%TD*%
D10*
%TO.P,SW45,1,1_1*%
%TO.N,/COL4*%
X85725000Y-307181250D03*
%TO.P,SW45,2,2_2*%
%TO.N,Net-(D45-A)*%
X92075000Y-304641250D03*
%TD*%
D11*
%TO.P,D38,1,K_1*%
%TO.N,/ROW3*%
X203835000Y-295433750D03*
D12*
%TO.P,D38,2,A_2*%
%TO.N,Net-(D38-A)*%
X203835000Y-287813750D03*
%TD*%
D10*
%TO.P,SW17,1,1_1*%
%TO.N,/COL3*%
X52387500Y-269081250D03*
%TO.P,SW17,2,2_2*%
%TO.N,Net-(D17-A)*%
X58737500Y-266541250D03*
%TD*%
D11*
%TO.P,D10,1,K_1*%
%TO.N,/ROW1*%
X189547500Y-257333750D03*
D12*
%TO.P,D10,2,A_2*%
%TO.N,Net-(D10-A)*%
X189547500Y-249713750D03*
%TD*%
D10*
%TO.P,SW3,1,1_1*%
%TO.N,/COL3*%
X42862500Y-250031250D03*
%TO.P,SW3,2,2_2*%
%TO.N,Net-(D3-A)*%
X49212500Y-247491250D03*
%TD*%
%TO.P,SW42,1,1_1*%
%TO.N,/COL1*%
X16668750Y-307181250D03*
%TO.P,SW42,2,2_2*%
%TO.N,Net-(D42-A)*%
X23018750Y-304641250D03*
%TD*%
%TO.P,SW13,1,1_1*%
%TO.N,/COL13*%
X233362500Y-250031250D03*
%TO.P,SW13,2,2_2*%
%TO.N,Net-(D13-A)*%
X239712500Y-247491250D03*
%TD*%
%TO.P,SW24,1,1_1*%
%TO.N,/COL10*%
X185737500Y-269081250D03*
%TO.P,SW24,2,2_2*%
%TO.N,Net-(D24-A)*%
X192087500Y-266541250D03*
%TD*%
%TO.P,SW54,1,1_1*%
%TO.N,/COL14*%
X280987500Y-307181250D03*
%TO.P,SW54,2,2_2*%
%TO.N,Net-(D54-A)*%
X287337500Y-304641250D03*
%TD*%
D11*
%TO.P,D17,1,K_1*%
%TO.N,/ROW2*%
X65722500Y-276383750D03*
D12*
%TO.P,D17,2,A_2*%
%TO.N,Net-(D17-A)*%
X65722500Y-268763750D03*
%TD*%
D11*
%TO.P,D61,1,K_1*%
%TO.N,/ROW5*%
X253841250Y-333533750D03*
D12*
%TO.P,D61,2,A_2*%
%TO.N,Net-(D61-A)*%
X253841250Y-325913750D03*
%TD*%
D10*
%TO.P,SW50,1,1_1*%
%TO.N,/COL9*%
X180975000Y-307181250D03*
%TO.P,SW50,2,2_2*%
%TO.N,Net-(D50-A)*%
X187325000Y-304641250D03*
%TD*%
%TO.P,SW25,1,1_1*%
%TO.N,/COL11*%
X204787500Y-269081250D03*
%TO.P,SW25,2,2_2*%
%TO.N,Net-(D25-A)*%
X211137500Y-266541250D03*
%TD*%
D11*
%TO.P,D13,1,K_1*%
%TO.N,/ROW1*%
X246697500Y-257333750D03*
D12*
%TO.P,D13,2,A_2*%
%TO.N,Net-(D13-A)*%
X246697500Y-249713750D03*
%TD*%
D11*
%TO.P,D51,1,K_1*%
%TO.N,/ROW4*%
X213360000Y-314483750D03*
D12*
%TO.P,D51,2,A_2*%
%TO.N,Net-(D51-A)*%
X213360000Y-306863750D03*
%TD*%
D10*
%TO.P,SW51,1,1_1*%
%TO.N,/COL10*%
X200025000Y-307181250D03*
%TO.P,SW51,2,2_2*%
%TO.N,Net-(D51-A)*%
X206375000Y-304641250D03*
%TD*%
%TO.P,SW6,1,1_1*%
%TO.N,/COL6*%
X100012500Y-250031250D03*
%TO.P,SW6,2,2_2*%
%TO.N,Net-(D6-A)*%
X106362500Y-247491250D03*
%TD*%
%TO.P,SW10,1,1_1*%
%TO.N,/COL10*%
X176212500Y-250031250D03*
%TO.P,SW10,2,2_2*%
%TO.N,Net-(D10-A)*%
X182562500Y-247491250D03*
%TD*%
%TO.P,SW32,1,1_1*%
%TO.N,/COL4*%
X76200000Y-288131250D03*
%TO.P,SW32,2,2_2*%
%TO.N,Net-(D32-A)*%
X82550000Y-285591250D03*
%TD*%
D11*
%TO.P,D57,1,K_1*%
%TO.N,/ROW5*%
X59531250Y-333533750D03*
D12*
%TO.P,D57,2,A_2*%
%TO.N,Net-(D57-A)*%
X59531250Y-325913750D03*
%TD*%
D10*
%TO.P,SW62,1,1_1*%
%TO.N,/COL12*%
X261937500Y-326231250D03*
%TO.P,SW62,2,2_2*%
%TO.N,Net-(D62-A)*%
X268287500Y-323691250D03*
%TD*%
D11*
%TO.P,D44,1,K_1*%
%TO.N,/ROW4*%
X80010000Y-314483750D03*
D12*
%TO.P,D44,2,A_2*%
%TO.N,Net-(D44-A)*%
X80010000Y-306863750D03*
%TD*%
D10*
%TO.P,SW64,1,1_1*%
%TO.N,/COL14*%
X300037500Y-326231250D03*
%TO.P,SW64,2,2_2*%
%TO.N,Net-(D64-A)*%
X306387500Y-323691250D03*
%TD*%
D11*
%TO.P,D37,1,K_1*%
%TO.N,/ROW3*%
X184785000Y-295433750D03*
D12*
%TO.P,D37,2,A_2*%
%TO.N,Net-(D37-A)*%
X184785000Y-287813750D03*
%TD*%
D10*
%TO.P,SW16,1,1_1*%
%TO.N,/COL2*%
X33337500Y-269081250D03*
%TO.P,SW16,2,2_2*%
%TO.N,Net-(D16-A)*%
X39687500Y-266541250D03*
%TD*%
%TO.P,SW57,1,1_1*%
%TO.N,/COL2*%
X38100000Y-326231250D03*
%TO.P,SW57,2,2_2*%
%TO.N,Net-(D57-A)*%
X44450000Y-323691250D03*
%TD*%
D11*
%TO.P,D52,1,K_1*%
%TO.N,/ROW4*%
X232410000Y-314483750D03*
D12*
%TO.P,D52,2,A_2*%
%TO.N,Net-(D52-A)*%
X232410000Y-306863750D03*
%TD*%
D10*
%TO.P,SW28,1,1_1*%
%TO.N,/COL14*%
X261937500Y-269081250D03*
%TO.P,SW28,2,2_2*%
%TO.N,Net-(D28-A)*%
X268287500Y-266541250D03*
%TD*%
D11*
%TO.P,D2,1,K_1*%
%TO.N,/ROW1*%
X37147500Y-257333750D03*
D12*
%TO.P,D2,2,A_2*%
%TO.N,Net-(D2-A)*%
X37147500Y-249713750D03*
%TD*%
D11*
%TO.P,D32,1,K_1*%
%TO.N,/ROW3*%
X89535000Y-295433750D03*
D12*
%TO.P,D32,2,A_2*%
%TO.N,Net-(D32-A)*%
X89535000Y-287813750D03*
%TD*%
D10*
%TO.P,SW33,1,1_1*%
%TO.N,/COL5*%
X95250000Y-288131250D03*
%TO.P,SW33,2,2_2*%
%TO.N,Net-(D33-A)*%
X101600000Y-285591250D03*
%TD*%
D11*
%TO.P,D28,1,K_1*%
%TO.N,/ROW2*%
X275272500Y-276383750D03*
D12*
%TO.P,D28,2,A_2*%
%TO.N,Net-(D28-A)*%
X275272500Y-268763750D03*
%TD*%
D10*
%TO.P,SW12,1,1_1*%
%TO.N,/COL12*%
X214312500Y-250031250D03*
%TO.P,SW12,2,2_2*%
%TO.N,Net-(D12-A)*%
X220662500Y-247491250D03*
%TD*%
D11*
%TO.P,D9,1,K_1*%
%TO.N,/ROW1*%
X170497500Y-257333750D03*
D12*
%TO.P,D9,2,A_2*%
%TO.N,Net-(D9-A)*%
X170497500Y-249713750D03*
%TD*%
D11*
%TO.P,D15,1,K_1*%
%TO.N,/ROW2*%
X22860000Y-276383750D03*
D12*
%TO.P,D15,2,A_2*%
%TO.N,Net-(D15-A)*%
X22860000Y-268763750D03*
%TD*%
D10*
%TO.P,SW49,1,1_1*%
%TO.N,/COL8*%
X161925000Y-307181250D03*
%TO.P,SW49,2,2_2*%
%TO.N,Net-(D49-A)*%
X168275000Y-304641250D03*
%TD*%
D11*
%TO.P,D35,1,K_1*%
%TO.N,/ROW3*%
X146685000Y-295433750D03*
D12*
%TO.P,D35,2,A_2*%
%TO.N,Net-(D35-A)*%
X146685000Y-287813750D03*
%TD*%
D11*
%TO.P,D12,1,K_1*%
%TO.N,/ROW1*%
X227647500Y-257333750D03*
D12*
%TO.P,D12,2,A_2*%
%TO.N,Net-(D12-A)*%
X227647500Y-249713750D03*
%TD*%
D10*
%TO.P,SW14,1,1_1*%
%TO.N,/COL14*%
X257175000Y-250031250D03*
%TO.P,SW14,2,2_2*%
%TO.N,Net-(D14-A)*%
X263525000Y-247491250D03*
%TD*%
D11*
%TO.P,D26,1,K_1*%
%TO.N,/ROW2*%
X237172500Y-276383750D03*
D12*
%TO.P,D26,2,A_2*%
%TO.N,Net-(D26-A)*%
X237172500Y-268763750D03*
%TD*%
D11*
%TO.P,D54,1,K_1*%
%TO.N,/ROW4*%
X294322500Y-314483750D03*
D12*
%TO.P,D54,2,A_2*%
%TO.N,Net-(D54-A)*%
X294322500Y-306863750D03*
%TD*%
D11*
%TO.P,D31,1,K_1*%
%TO.N,/ROW3*%
X70485000Y-295433750D03*
D12*
%TO.P,D31,2,A_2*%
%TO.N,Net-(D31-A)*%
X70485000Y-287813750D03*
%TD*%
D11*
%TO.P,D47,1,K_1*%
%TO.N,/ROW4*%
X137160000Y-314483750D03*
D12*
%TO.P,D47,2,A_2*%
%TO.N,Net-(D47-A)*%
X137160000Y-306863750D03*
%TD*%
D10*
%TO.P,SW60,1,1_1*%
%TO.N,/COL10*%
X209550000Y-326231250D03*
%TO.P,SW60,2,2_2*%
%TO.N,Net-(D60-A)*%
X215900000Y-323691250D03*
%TD*%
%TO.P,SW52,1,1_1*%
%TO.N,/COL11*%
X219075000Y-307181250D03*
%TO.P,SW52,2,2_2*%
%TO.N,Net-(D52-A)*%
X225425000Y-304641250D03*
%TD*%
D11*
%TO.P,D64,1,K_1*%
%TO.N,/ROW5*%
X313372500Y-333533750D03*
D12*
%TO.P,D64,2,A_2*%
%TO.N,Net-(D64-A)*%
X313372500Y-325913750D03*
%TD*%
D11*
%TO.P,D1,1,K_1*%
%TO.N,/ROW1*%
X18097500Y-257333750D03*
D12*
%TO.P,D1,2,A_2*%
%TO.N,Net-(D1-A)*%
X18097500Y-249713750D03*
%TD*%
D10*
%TO.P,SW38,1,1_1*%
%TO.N,/COL10*%
X190500000Y-288131250D03*
%TO.P,SW38,2,2_2*%
%TO.N,Net-(D38-A)*%
X196850000Y-285591250D03*
%TD*%
%TO.P,SW4,1,1_1*%
%TO.N,/COL4*%
X61912500Y-250031250D03*
%TO.P,SW4,2,2_2*%
%TO.N,Net-(D4-A)*%
X68262500Y-247491250D03*
%TD*%
%TO.P,SW27,1,1_1*%
%TO.N,/COL13*%
X242887500Y-269081250D03*
%TO.P,SW27,2,2_2*%
%TO.N,Net-(D27-A)*%
X249237500Y-266541250D03*
%TD*%
D11*
%TO.P,D33,1,K_1*%
%TO.N,/ROW3*%
X108585000Y-295433750D03*
D12*
%TO.P,D33,2,A_2*%
%TO.N,Net-(D33-A)*%
X108585000Y-287813750D03*
%TD*%
D10*
%TO.P,SW30,1,1_1*%
%TO.N,/COL2*%
X38100000Y-288131250D03*
%TO.P,SW30,2,2_2*%
%TO.N,Net-(D30-A)*%
X44450000Y-285591250D03*
%TD*%
D11*
%TO.P,D5,1,K_1*%
%TO.N,/ROW1*%
X94297500Y-257333750D03*
D12*
%TO.P,D5,2,A_2*%
%TO.N,Net-(D5-A)*%
X94297500Y-249713750D03*
%TD*%
D11*
%TO.P,D42,1,K_1*%
%TO.N,/ROW4*%
X40481250Y-314483750D03*
D12*
%TO.P,D42,2,A_2*%
%TO.N,Net-(D42-A)*%
X40481250Y-306863750D03*
%TD*%
D10*
%TO.P,SW1,1,1_1*%
%TO.N,/COL1*%
X4762500Y-250031250D03*
%TO.P,SW1,2,2_2*%
%TO.N,Net-(D1-A)*%
X11112500Y-247491250D03*
%TD*%
%TO.P,SW22,1,1_1*%
%TO.N,/COL8*%
X147637500Y-269081250D03*
%TO.P,SW22,2,2_2*%
%TO.N,Net-(D22-A)*%
X153987500Y-266541250D03*
%TD*%
D11*
%TO.P,D21,1,K_1*%
%TO.N,/ROW2*%
X141922500Y-276383750D03*
D12*
%TO.P,D21,2,A_2*%
%TO.N,Net-(D21-A)*%
X141922500Y-268763750D03*
%TD*%
D11*
%TO.P,D16,1,K_1*%
%TO.N,/ROW2*%
X46672500Y-276383750D03*
D12*
%TO.P,D16,2,A_2*%
%TO.N,Net-(D16-A)*%
X46672500Y-268763750D03*
%TD*%
D10*
%TO.P,SW41,1,1_1*%
%TO.N,/COL13*%
X254793750Y-288131250D03*
%TO.P,SW41,2,2_2*%
%TO.N,Net-(D41-A)*%
X261143750Y-285591250D03*
%TD*%
%TO.P,SW31,1,1_1*%
%TO.N,/COL3*%
X57150000Y-288131250D03*
%TO.P,SW31,2,2_2*%
%TO.N,Net-(D31-A)*%
X63500000Y-285591250D03*
%TD*%
D11*
%TO.P,D48,1,K_1*%
%TO.N,/ROW4*%
X156210000Y-314483750D03*
D12*
%TO.P,D48,2,A_2*%
%TO.N,Net-(D48-A)*%
X156210000Y-306863750D03*
%TD*%
D11*
%TO.P,D34,1,K_1*%
%TO.N,/ROW3*%
X127635000Y-295433750D03*
D12*
%TO.P,D34,2,A_2*%
%TO.N,Net-(D34-A)*%
X127635000Y-287813750D03*
%TD*%
D11*
%TO.P,D46,1,K_1*%
%TO.N,/ROW4*%
X118110000Y-314483750D03*
D12*
%TO.P,D46,2,A_2*%
%TO.N,Net-(D46-A)*%
X118110000Y-306863750D03*
%TD*%
D11*
%TO.P,D40,1,K_1*%
%TO.N,/ROW3*%
X241935000Y-295433750D03*
D12*
%TO.P,D40,2,A_2*%
%TO.N,Net-(D40-A)*%
X241935000Y-287813750D03*
%TD*%
D10*
%TO.P,SW40,1,1_1*%
%TO.N,/COL12*%
X228600000Y-288131250D03*
%TO.P,SW40,2,2_2*%
%TO.N,Net-(D40-A)*%
X234950000Y-285591250D03*
%TD*%
%TO.P,SW46,1,1_1*%
%TO.N,/COL5*%
X104775000Y-307181250D03*
%TO.P,SW46,2,2_2*%
%TO.N,Net-(D46-A)*%
X111125000Y-304641250D03*
%TD*%
D11*
%TO.P,D4,1,K_1*%
%TO.N,/ROW1*%
X75247500Y-257333750D03*
D12*
%TO.P,D4,2,A_2*%
%TO.N,Net-(D4-A)*%
X75247500Y-249713750D03*
%TD*%
D11*
%TO.P,D11,1,K_1*%
%TO.N,/ROW1*%
X208597500Y-257333750D03*
D12*
%TO.P,D11,2,A_2*%
%TO.N,Net-(D11-A)*%
X208597500Y-249713750D03*
%TD*%
D10*
%TO.P,SW29,1,1_1*%
%TO.N,/COL1*%
X11906250Y-288131250D03*
%TO.P,SW29,2,2_2*%
%TO.N,Net-(D29-A)*%
X18256250Y-285591250D03*
%TD*%
%TO.P,SW2,1,1_1*%
%TO.N,/COL2*%
X23812500Y-250031250D03*
%TO.P,SW2,2,2_2*%
%TO.N,Net-(D2-A)*%
X30162500Y-247491250D03*
%TD*%
%TO.P,SW61,1,1_1*%
%TO.N,/COL11*%
X240506250Y-326231250D03*
%TO.P,SW61,2,2_2*%
%TO.N,Net-(D61-A)*%
X246856250Y-323691250D03*
%TD*%
D11*
%TO.P,D30,1,K_1*%
%TO.N,/ROW3*%
X51435000Y-295433750D03*
D12*
%TO.P,D30,2,A_2*%
%TO.N,Net-(D30-A)*%
X51435000Y-287813750D03*
%TD*%
D11*
%TO.P,D7,1,K_1*%
%TO.N,/ROW1*%
X132397500Y-257333750D03*
D12*
%TO.P,D7,2,A_2*%
%TO.N,Net-(D7-A)*%
X132397500Y-249713750D03*
%TD*%
D11*
%TO.P,D14,1,K_1*%
%TO.N,/ROW1*%
X270510000Y-257333750D03*
D12*
%TO.P,D14,2,A_2*%
%TO.N,Net-(D14-A)*%
X270510000Y-249713750D03*
%TD*%
D10*
%TO.P,SW48,1,1_1*%
%TO.N,/COL7*%
X142875000Y-307181250D03*
%TO.P,SW48,2,2_2*%
%TO.N,Net-(D48-A)*%
X149225000Y-304641250D03*
%TD*%
%TO.P,SW9,1,1_1*%
%TO.N,/COL9*%
X157162500Y-250031250D03*
%TO.P,SW9,2,2_2*%
%TO.N,Net-(D9-A)*%
X163512500Y-247491250D03*
%TD*%
%TO.P,SW34,1,1_1*%
%TO.N,/COL6*%
X114300000Y-288131250D03*
%TO.P,SW34,2,2_2*%
%TO.N,Net-(D34-A)*%
X120650000Y-285591250D03*
%TD*%
D11*
%TO.P,D59,1,K_1*%
%TO.N,/ROW5*%
X137160000Y-333533750D03*
D12*
%TO.P,D59,2,A_2*%
%TO.N,Net-(D59-A)*%
X137160000Y-325913750D03*
%TD*%
D11*
%TO.P,D60,1,K_1*%
%TO.N,/ROW5*%
X222885000Y-333533750D03*
D12*
%TO.P,D60,2,A_2*%
%TO.N,Net-(D60-A)*%
X222885000Y-325913750D03*
%TD*%
D10*
%TO.P,SW44,1,1_1*%
%TO.N,/COL3*%
X66675000Y-307181250D03*
%TO.P,SW44,2,2_2*%
%TO.N,Net-(D44-A)*%
X73025000Y-304641250D03*
%TD*%
D11*
%TO.P,D6,1,K_1*%
%TO.N,/ROW1*%
X113347500Y-257333750D03*
D12*
%TO.P,D6,2,A_2*%
%TO.N,Net-(D6-A)*%
X113347500Y-249713750D03*
%TD*%
D13*
%TO.P,A1,1,GPIO0_1*%
%TO.N,/COL1*%
X340217500Y-245451250D03*
D12*
%TO.P,A1,2,GPIO1_2*%
%TO.N,/COL2*%
X337677500Y-245451250D03*
D14*
%TO.P,A1,3,GND_3*%
%TO.N,/unconnected-(A1-GND-Pad13)_1*%
X335137500Y-245451250D03*
D12*
%TO.P,A1,4,GPIO2_4*%
%TO.N,/COL3*%
X332597500Y-245451250D03*
%TO.P,A1,5,GPIO3_5*%
%TO.N,/COL4*%
X330057500Y-245451250D03*
%TO.P,A1,6,GPIO4_6*%
%TO.N,/COL5*%
X327517500Y-245451250D03*
%TO.P,A1,7,GPIO5_7*%
%TO.N,/COL6*%
X324977500Y-245451250D03*
D14*
%TO.P,A1,8,GND_8*%
%TO.N,/unconnected-(A1-GND-Pad13)_1_12*%
X322437500Y-245451250D03*
D12*
%TO.P,A1,9,GPIO6_9*%
%TO.N,/COL7*%
X319897500Y-245451250D03*
%TO.P,A1,10,GPIO7_10*%
%TO.N,/COL8*%
X317357500Y-245451250D03*
%TO.P,A1,11,GPIO8_11*%
%TO.N,/COL9*%
X314817500Y-245451250D03*
%TO.P,A1,12,GPIO9_12*%
%TO.N,/COL10*%
X312277500Y-245451250D03*
D14*
%TO.P,A1,13,GND_13*%
%TO.N,/unconnected-(A1-GND-Pad13)_1_6*%
X309737500Y-245451250D03*
D12*
%TO.P,A1,14,GPIO10_14*%
%TO.N,/COL11*%
X307197500Y-245451250D03*
%TO.P,A1,15,GPIO11_15*%
%TO.N,/COL12*%
X304657500Y-245451250D03*
%TO.P,A1,16,GPIO12_16*%
%TO.N,/COL13*%
X302117500Y-245451250D03*
%TO.P,A1,17,GPIO13_17*%
%TO.N,/COL14*%
X299577500Y-245451250D03*
D14*
%TO.P,A1,18,GND_18*%
%TO.N,/unconnected-(A1-GND-Pad13)_1_3*%
X297037500Y-245451250D03*
D12*
%TO.P,A1,19,GPIO14_19*%
%TO.N,unconnected-(A1-GPIO14-Pad19)*%
X294497500Y-245451250D03*
%TO.P,A1,20,GPIO15_20*%
%TO.N,unconnected-(A1-GPIO15-Pad20)*%
X291957500Y-245451250D03*
%TO.P,A1,21,GPIO16_21*%
%TO.N,/ROW1*%
X291957500Y-263231250D03*
%TO.P,A1,22,GPIO17_22*%
%TO.N,/ROW2*%
X294497500Y-263231250D03*
D15*
%TO.P,A1,23,GND_23*%
%TO.N,/unconnected-(A1-GND-Pad13)_1_5*%
X297037500Y-263231250D03*
D12*
%TO.P,A1,24,GPIO18_24*%
%TO.N,/ROW3*%
X299577500Y-263231250D03*
%TO.P,A1,25,GPIO19_25*%
%TO.N,/ROW4*%
X302117500Y-263231250D03*
%TO.P,A1,26,GPIO20_26*%
%TO.N,/ROW5*%
X304657500Y-263231250D03*
%TO.P,A1,27,GPIO21_27*%
%TO.N,/ROW6*%
X307197500Y-263231250D03*
D15*
%TO.P,A1,28,GND_28*%
%TO.N,/unconnected-(A1-GND-Pad13)_1_9*%
X309737500Y-263231250D03*
D12*
%TO.P,A1,29,GPIO22_29*%
%TO.N,unconnected-(A1-GPIO22-Pad29)_1*%
X312277500Y-263231250D03*
%TO.P,A1,30,RUN_30*%
%TO.N,unconnected-(A1-RUN-Pad30)_1*%
X314817500Y-263231250D03*
%TO.P,A1,31,GPIO26_ADC0_31*%
%TO.N,unconnected-(A1-GPIO26_ADC0-Pad31)*%
X317357500Y-263231250D03*
%TO.P,A1,32,GPIO27_ADC1_32*%
%TO.N,unconnected-(A1-GPIO27_ADC1-Pad32)*%
X319897500Y-263231250D03*
D15*
%TO.P,A1,33,AGND_33*%
%TO.N,unconnected-(A1-AGND-Pad33)*%
X322437500Y-263231250D03*
D12*
%TO.P,A1,34,GPIO28_ADC2_34*%
%TO.N,unconnected-(A1-GPIO28_ADC2-Pad34)_1*%
X324977500Y-263231250D03*
%TO.P,A1,35,ADC_VREF_35*%
%TO.N,unconnected-(A1-ADC_VREF-Pad35)_1*%
X327517500Y-263231250D03*
%TO.P,A1,36,3V3_36*%
%TO.N,unconnected-(A1-3V3-Pad36)_1*%
X330057500Y-263231250D03*
%TO.P,A1,37,3V3_EN_37*%
%TO.N,unconnected-(A1-3V3_EN-Pad37)_1*%
X332597500Y-263231250D03*
D15*
%TO.P,A1,38,GND_38*%
%TO.N,/unconnected-(A1-GND-Pad13)_1_13*%
X335137500Y-263231250D03*
D12*
%TO.P,A1,39,VSYS_39*%
%TO.N,unconnected-(A1-VSYS-Pad39)_1*%
X337677500Y-263231250D03*
%TO.P,A1,40,VBUS_40*%
%TO.N,/unconnected-(A1-VBUS-Pad40)_1*%
X340217500Y-263231250D03*
%TD*%
D11*
%TO.P,D23,1,K_1*%
%TO.N,/ROW2*%
X180022500Y-276383750D03*
D12*
%TO.P,D23,2,A_2*%
%TO.N,Net-(D23-A)*%
X180022500Y-268763750D03*
%TD*%
D11*
%TO.P,D19,1,K_1*%
%TO.N,/ROW2*%
X103822500Y-276383750D03*
D12*
%TO.P,D19,2,A_2*%
%TO.N,Net-(D19-A)*%
X103822500Y-268763750D03*
%TD*%
D11*
%TO.P,D53,1,K_1*%
%TO.N,/ROW4*%
X273843750Y-314325000D03*
D12*
%TO.P,D53,2,A_2*%
%TO.N,Net-(D53-A)*%
X273843750Y-306705000D03*
%TD*%
D10*
%TO.P,SW21,1,1_1*%
%TO.N,/COL7*%
X128587500Y-269081250D03*
%TO.P,SW21,2,2_2*%
%TO.N,Net-(D21-A)*%
X134937500Y-266541250D03*
%TD*%
D11*
%TO.P,D55,1,K_1*%
%TO.N,/ROW5*%
X21431250Y-333533750D03*
D12*
%TO.P,D55,2,A_2*%
%TO.N,Net-(D55-A)*%
X21431250Y-325913750D03*
%TD*%
D10*
%TO.P,SW53,1,1_1*%
%TO.N,/COL12*%
X250031250Y-307181250D03*
%TO.P,SW53,2,2_2*%
%TO.N,Net-(D53-A)*%
X256381250Y-304641250D03*
%TD*%
%TO.P,SW37,1,1_1*%
%TO.N,/COL9*%
X171450000Y-288131250D03*
%TO.P,SW37,2,2_2*%
%TO.N,Net-(D37-A)*%
X177800000Y-285591250D03*
%TD*%
D11*
%TO.P,D39,1,K_1*%
%TO.N,/ROW3*%
X222885000Y-295433750D03*
D12*
%TO.P,D39,2,A_2*%
%TO.N,Net-(D39-A)*%
X222885000Y-287813750D03*
%TD*%
D11*
%TO.P,D18,1,K_1*%
%TO.N,/ROW2*%
X84772500Y-276383750D03*
D12*
%TO.P,D18,2,A_2*%
%TO.N,Net-(D18-A)*%
X84772500Y-268763750D03*
%TD*%
D11*
%TO.P,D43,1,K_1*%
%TO.N,/ROW4*%
X60960000Y-314483750D03*
D12*
%TO.P,D43,2,A_2*%
%TO.N,Net-(D43-A)*%
X60960000Y-306863750D03*
%TD*%
D10*
%TO.P,SW18,1,1_1*%
%TO.N,/COL4*%
X71437500Y-269081250D03*
%TO.P,SW18,2,2_2*%
%TO.N,Net-(D18-A)*%
X77787500Y-266541250D03*
%TD*%
D11*
%TO.P,D3,1,K_1*%
%TO.N,/ROW1*%
X56197500Y-257333750D03*
D12*
%TO.P,D3,2,A_2*%
%TO.N,Net-(D3-A)*%
X56197500Y-249713750D03*
%TD*%
D11*
%TO.P,D49,1,K_1*%
%TO.N,/ROW4*%
X175260000Y-314483750D03*
D12*
%TO.P,D49,2,A_2*%
%TO.N,Net-(D49-A)*%
X175260000Y-306863750D03*
%TD*%
D10*
%TO.P,SW11,1,1_1*%
%TO.N,/COL11*%
X195262500Y-250031250D03*
%TO.P,SW11,2,2_2*%
%TO.N,Net-(D11-A)*%
X201612500Y-247491250D03*
%TD*%
D11*
%TO.P,D8,1,K_1*%
%TO.N,/ROW1*%
X151447500Y-257333750D03*
D12*
%TO.P,D8,2,A_2*%
%TO.N,Net-(D8-A)*%
X151447500Y-249713750D03*
%TD*%
D10*
%TO.P,SW15,1,1_1*%
%TO.N,/COL1*%
X9525000Y-269081250D03*
%TO.P,SW15,2,2_2*%
%TO.N,Net-(D15-A)*%
X15875000Y-266541250D03*
%TD*%
%TO.P,SW7,1,1_1*%
%TO.N,/COL7*%
X119062500Y-250031250D03*
%TO.P,SW7,2,2_2*%
%TO.N,Net-(D7-A)*%
X125412500Y-247491250D03*
%TD*%
%TO.P,SW36,1,1_1*%
%TO.N,/COL8*%
X152400000Y-288131250D03*
%TO.P,SW36,2,2_2*%
%TO.N,Net-(D36-A)*%
X158750000Y-285591250D03*
%TD*%
D11*
%TO.P,D27,1,K_1*%
%TO.N,/ROW2*%
X256222500Y-276383750D03*
D12*
%TO.P,D27,2,A_2*%
%TO.N,Net-(D27-A)*%
X256222500Y-268763750D03*
%TD*%
D10*
%TO.P,SW39,1,1_1*%
%TO.N,/COL11*%
X209550000Y-288131250D03*
%TO.P,SW39,2,2_2*%
%TO.N,Net-(D39-A)*%
X215900000Y-285591250D03*
%TD*%
D11*
%TO.P,D45,1,K_1*%
%TO.N,/ROW4*%
X99060000Y-314483750D03*
D12*
%TO.P,D45,2,A_2*%
%TO.N,Net-(D45-A)*%
X99060000Y-306863750D03*
%TD*%
%TO.N,Net-(D23-A)*%
D16*
X173037500Y-266541250D02*
X175260000Y-268763750D01*
X175260000Y-268763750D02*
X180022500Y-268763750D01*
%TO.N,Net-(D5-A)*%
X89535000Y-249713750D02*
X94297500Y-249713750D01*
X87312500Y-247491250D02*
X89535000Y-249713750D01*
%TO.N,Net-(D47-A)*%
X132397500Y-306863750D02*
X137160000Y-306863750D01*
X130175000Y-304641250D02*
X132397500Y-306863750D01*
%TO.N,Net-(D35-A)*%
X139700000Y-285591250D02*
X141922500Y-287813750D01*
X141922500Y-287813750D02*
X146685000Y-287813750D01*
%TO.N,Net-(D20-A)*%
X115887500Y-266541250D02*
X118110000Y-268763750D01*
X118110000Y-268763750D02*
X122872500Y-268763750D01*
%TO.N,/ROW2*%
X22860000Y-276383750D02*
X275272500Y-276383750D01*
X275272500Y-276383750D02*
X289616250Y-276383750D01*
X294497500Y-271502500D02*
X294497500Y-263231250D01*
X289616250Y-276383750D02*
X294497500Y-271502500D01*
%TO.N,Net-(D25-A)*%
X211137500Y-266541250D02*
X213360000Y-268763750D01*
X213360000Y-268763750D02*
X218122500Y-268763750D01*
%TO.N,Net-(D24-A)*%
X192087500Y-266541250D02*
X194310000Y-268763750D01*
X194310000Y-268763750D02*
X199072500Y-268763750D01*
%TO.N,Net-(D63-A)*%
X289560000Y-325913750D02*
X294322500Y-325913750D01*
X287337500Y-323691250D02*
X289560000Y-325913750D01*
%TO.N,Net-(D59-A)*%
X132397500Y-325913750D02*
X137160000Y-325913750D01*
X130175000Y-323691250D02*
X132397500Y-325913750D01*
%TO.N,/ROW4*%
X40481250Y-314483750D02*
X294322500Y-314483750D01*
X302117500Y-306688750D02*
X302117500Y-263231250D01*
X294322500Y-314483750D02*
X302117500Y-306688750D01*
%TO.N,Net-(D50-A)*%
X187325000Y-304641250D02*
X189547500Y-306863750D01*
X189547500Y-306863750D02*
X194310000Y-306863750D01*
%TO.N,/ROW5*%
X323000000Y-323906250D02*
X323000000Y-308000000D01*
X305000000Y-290000000D02*
X305000000Y-263573750D01*
X21431250Y-333533750D02*
X313372500Y-333533750D01*
X305000000Y-263573750D02*
X304657500Y-263231250D01*
X313372500Y-333533750D02*
X323000000Y-323906250D01*
X323000000Y-308000000D02*
X305000000Y-290000000D01*
%TO.N,Net-(D62-A)*%
X270510000Y-325913750D02*
X275272500Y-325913750D01*
X268287500Y-323691250D02*
X270510000Y-325913750D01*
%TO.N,Net-(D43-A)*%
X56197500Y-306863750D02*
X60960000Y-306863750D01*
X53975000Y-304641250D02*
X56197500Y-306863750D01*
%TO.N,Net-(D22-A)*%
X153987500Y-266541250D02*
X156210000Y-268763750D01*
X156210000Y-268763750D02*
X160972500Y-268763750D01*
%TO.N,Net-(D55-A)*%
X13493750Y-323691250D02*
X15716250Y-325913750D01*
X15716250Y-325913750D02*
X21431250Y-325913750D01*
%TO.N,Net-(D19-A)*%
X96837500Y-266541250D02*
X99060000Y-268763750D01*
X99060000Y-268763750D02*
X103822500Y-268763750D01*
%TO.N,/ROW3*%
X299577500Y-272422500D02*
X299577500Y-263231250D01*
X25241250Y-295433750D02*
X265747500Y-295433750D01*
X265747500Y-295433750D02*
X276566250Y-295433750D01*
X276566250Y-295433750D02*
X299577500Y-272422500D01*
%TO.N,Net-(D36-A)*%
X160972500Y-287813750D02*
X165735000Y-287813750D01*
X158750000Y-285591250D02*
X160972500Y-287813750D01*
%TO.N,Net-(D41-A)*%
X261143750Y-285591250D02*
X263366250Y-287813750D01*
X263366250Y-287813750D02*
X269081250Y-287813750D01*
%TO.N,Net-(D26-A)*%
X232410000Y-268763750D02*
X237172500Y-268763750D01*
X230187500Y-266541250D02*
X232410000Y-268763750D01*
%TO.N,Net-(D8-A)*%
X146685000Y-249713750D02*
X151447500Y-249713750D01*
X144462500Y-247491250D02*
X146685000Y-249713750D01*
%TO.N,Net-(D29-A)*%
X20478750Y-287813750D02*
X25241250Y-287813750D01*
X18256250Y-285591250D02*
X20478750Y-287813750D01*
%TO.N,Net-(D45-A)*%
X92075000Y-304641250D02*
X94297500Y-306863750D01*
X94297500Y-306863750D02*
X99060000Y-306863750D01*
%TO.N,Net-(D38-A)*%
X199072500Y-287813750D02*
X203835000Y-287813750D01*
X196850000Y-285591250D02*
X199072500Y-287813750D01*
%TO.N,Net-(D17-A)*%
X60960000Y-268763750D02*
X65722500Y-268763750D01*
X58737500Y-266541250D02*
X60960000Y-268763750D01*
%TO.N,/ROW1*%
X286060000Y-257333750D02*
X291957500Y-263231250D01*
X37147500Y-257333750D02*
X270510000Y-257333750D01*
X270510000Y-257333750D02*
X286060000Y-257333750D01*
X18097500Y-257333750D02*
X37147500Y-257333750D01*
%TO.N,Net-(D10-A)*%
X182562500Y-247491250D02*
X184785000Y-249713750D01*
X184785000Y-249713750D02*
X189547500Y-249713750D01*
%TO.N,Net-(D3-A)*%
X49212500Y-247491250D02*
X51435000Y-249713750D01*
X51435000Y-249713750D02*
X56197500Y-249713750D01*
%TO.N,Net-(D42-A)*%
X23018750Y-304641250D02*
X25241250Y-306863750D01*
X25241250Y-306863750D02*
X40481250Y-306863750D01*
%TO.N,Net-(D13-A)*%
X241935000Y-249713750D02*
X246697500Y-249713750D01*
X239712500Y-247491250D02*
X241935000Y-249713750D01*
%TO.N,Net-(D54-A)*%
X287337500Y-304641250D02*
X289560000Y-306863750D01*
X289560000Y-306863750D02*
X294322500Y-306863750D01*
%TO.N,Net-(D61-A)*%
X246856250Y-323691250D02*
X249078750Y-325913750D01*
X249078750Y-325913750D02*
X253841250Y-325913750D01*
%TO.N,Net-(D51-A)*%
X208597500Y-306863750D02*
X213360000Y-306863750D01*
X206375000Y-304641250D02*
X208597500Y-306863750D01*
%TO.N,Net-(D6-A)*%
X106362500Y-247491250D02*
X108585000Y-249713750D01*
X108585000Y-249713750D02*
X113347500Y-249713750D01*
%TO.N,Net-(D32-A)*%
X84772500Y-287813750D02*
X89535000Y-287813750D01*
X82550000Y-285591250D02*
X84772500Y-287813750D01*
%TO.N,Net-(D57-A)*%
X44450000Y-323691250D02*
X46672500Y-325913750D01*
X46672500Y-325913750D02*
X59531250Y-325913750D01*
%TO.N,Net-(D44-A)*%
X75247500Y-306863750D02*
X80010000Y-306863750D01*
X73025000Y-304641250D02*
X75247500Y-306863750D01*
%TO.N,Net-(D64-A)*%
X306387500Y-323691250D02*
X308610000Y-325913750D01*
X308610000Y-325913750D02*
X313372500Y-325913750D01*
%TO.N,Net-(D37-A)*%
X180022500Y-287813750D02*
X184785000Y-287813750D01*
X177800000Y-285591250D02*
X180022500Y-287813750D01*
%TO.N,Net-(D16-A)*%
X41910000Y-268763750D02*
X46672500Y-268763750D01*
X39687500Y-266541250D02*
X41910000Y-268763750D01*
%TO.N,Net-(D52-A)*%
X227647500Y-306863750D02*
X232410000Y-306863750D01*
X225425000Y-304641250D02*
X227647500Y-306863750D01*
%TO.N,Net-(D28-A)*%
X270510000Y-268763750D02*
X275272500Y-268763750D01*
X268287500Y-266541250D02*
X270510000Y-268763750D01*
%TO.N,Net-(D2-A)*%
X30162500Y-247491250D02*
X32385000Y-249713750D01*
X32385000Y-249713750D02*
X37147500Y-249713750D01*
%TO.N,Net-(D33-A)*%
X103822500Y-287813750D02*
X108585000Y-287813750D01*
X101600000Y-285591250D02*
X103822500Y-287813750D01*
%TO.N,Net-(D12-A)*%
X222885000Y-249713750D02*
X227647500Y-249713750D01*
X220662500Y-247491250D02*
X222885000Y-249713750D01*
%TO.N,Net-(D9-A)*%
X165735000Y-249713750D02*
X170497500Y-249713750D01*
X163512500Y-247491250D02*
X165735000Y-249713750D01*
%TO.N,Net-(D15-A)*%
X15875000Y-266541250D02*
X18097500Y-268763750D01*
X18097500Y-268763750D02*
X22860000Y-268763750D01*
%TO.N,Net-(D49-A)*%
X168275000Y-304641250D02*
X170497500Y-306863750D01*
X170497500Y-306863750D02*
X175260000Y-306863750D01*
%TO.N,Net-(D14-A)*%
X265747500Y-249713750D02*
X270510000Y-249713750D01*
X263525000Y-247491250D02*
X265747500Y-249713750D01*
%TO.N,Net-(D31-A)*%
X63500000Y-285591250D02*
X65722500Y-287813750D01*
X65722500Y-287813750D02*
X70485000Y-287813750D01*
%TO.N,Net-(D60-A)*%
X215900000Y-323691250D02*
X218122500Y-325913750D01*
X218122500Y-325913750D02*
X222885000Y-325913750D01*
%TO.N,Net-(D1-A)*%
X11112500Y-247491250D02*
X13335000Y-249713750D01*
X13335000Y-249713750D02*
X18097500Y-249713750D01*
%TO.N,Net-(D4-A)*%
X68262500Y-247491250D02*
X70485000Y-249713750D01*
X70485000Y-249713750D02*
X75247500Y-249713750D01*
%TO.N,Net-(D27-A)*%
X249237500Y-266541250D02*
X251460000Y-268763750D01*
X251460000Y-268763750D02*
X256222500Y-268763750D01*
%TO.N,Net-(D30-A)*%
X44450000Y-285591250D02*
X46672500Y-287813750D01*
X46672500Y-287813750D02*
X51435000Y-287813750D01*
%TO.N,Net-(D21-A)*%
X134937500Y-266541250D02*
X137160000Y-268763750D01*
X137160000Y-268763750D02*
X141922500Y-268763750D01*
%TO.N,Net-(D48-A)*%
X149225000Y-304641250D02*
X151447500Y-306863750D01*
X151447500Y-306863750D02*
X156210000Y-306863750D01*
%TO.N,Net-(D34-A)*%
X120650000Y-285591250D02*
X122872500Y-287813750D01*
X122872500Y-287813750D02*
X127635000Y-287813750D01*
%TO.N,Net-(D46-A)*%
X111125000Y-304641250D02*
X113347500Y-306863750D01*
X113347500Y-306863750D02*
X118110000Y-306863750D01*
%TO.N,Net-(D40-A)*%
X237172500Y-287813750D02*
X241935000Y-287813750D01*
X234950000Y-285591250D02*
X237172500Y-287813750D01*
%TO.N,Net-(D11-A)*%
X203835000Y-249713750D02*
X208597500Y-249713750D01*
X201612500Y-247491250D02*
X203835000Y-249713750D01*
%TO.N,Net-(D7-A)*%
X127635000Y-249713750D02*
X132397500Y-249713750D01*
X125412500Y-247491250D02*
X127635000Y-249713750D01*
%TO.N,Net-(D53-A)*%
X258603750Y-306863750D02*
X273843750Y-306863750D01*
X256381250Y-304641250D02*
X258603750Y-306863750D01*
%TO.N,Net-(D39-A)*%
X218122500Y-287813750D02*
X222885000Y-287813750D01*
X215900000Y-285591250D02*
X218122500Y-287813750D01*
%TO.N,Net-(D18-A)*%
X77787500Y-266541250D02*
X80010000Y-268763750D01*
X80010000Y-268763750D02*
X84772500Y-268763750D01*
%TD*%
M02*
