%TF.GenerationSoftware,KiCad,Pcbnew,10.0.4*%
%TF.CreationDate,2026-07-24T12:44:57+05:30*%
%TF.ProjectId,Keeb,4b656562-2e6b-4696-9361-645f70636258,rev?*%
%TF.SameCoordinates,Original*%
%TF.FileFunction,Soldermask,Bot*%
%TF.FilePolarity,Negative*%
%FSLAX46Y46*%
G04 Gerber Fmt 4.6, Leading zero omitted, Abs format (unit mm)*
G04 Created by KiCad (PCBNEW 10.0.4) date 2026-07-24 12:44:57*
%MOMM*%
%LPD*%
G01*
G04 APERTURE LIST*
G04 Aperture macros list*
%AMRoundRect*
0 Rectangle with rounded corners*
0 $1 Rounding radius*
0 $2 $3 $4 $5 $6 $7 $8 $9 X,Y pos of 4 corners*
0 Add a 4 corners polygon primitive as box body*
4,1,4,$2,$3,$4,$5,$6,$7,$8,$9,$2,$3,0*
0 Add four circle primitives for the rounded corners*
1,1,$1+$1,$2,$3*
1,1,$1+$1,$4,$5*
1,1,$1+$1,$6,$7*
1,1,$1+$1,$8,$9*
0 Add four rect primitives between the rounded corners*
20,1,$1+$1,$2,$3,$4,$5,0*
20,1,$1+$1,$4,$5,$6,$7,0*
20,1,$1+$1,$6,$7,$8,$9,0*
20,1,$1+$1,$8,$9,$2,$3,0*%
%AMFreePoly0*
4,1,37,0.603843,0.796157,0.639018,0.796157,0.711114,0.766294,0.766294,0.711114,0.796157,0.639018,0.796157,0.603843,0.800000,0.600000,0.800000,-0.600000,0.796157,-0.603843,0.796157,-0.639018,0.766294,-0.711114,0.711114,-0.766294,0.639018,-0.796157,0.603843,-0.796157,0.600000,-0.800000,0.000000,-0.800000,0.000000,-0.796148,-0.078414,-0.796148,-0.232228,-0.765552,-0.377117,-0.705537,
-0.507515,-0.618408,-0.618408,-0.507515,-0.705537,-0.377117,-0.765552,-0.232228,-0.796148,-0.078414,-0.796148,0.078414,-0.765552,0.232228,-0.705537,0.377117,-0.618408,0.507515,-0.507515,0.618408,-0.377117,0.705537,-0.232228,0.765552,-0.078414,0.796148,0.000000,0.796148,0.000000,0.800000,0.600000,0.800000,0.603843,0.796157,0.603843,0.796157,$1*%
%AMFreePoly1*
4,1,37,0.000000,0.796148,0.078414,0.796148,0.232228,0.765552,0.377117,0.705537,0.507515,0.618408,0.618408,0.507515,0.705537,0.377117,0.765552,0.232228,0.796148,0.078414,0.796148,-0.078414,0.765552,-0.232228,0.705537,-0.377117,0.618408,-0.507515,0.507515,-0.618408,0.377117,-0.705537,0.232228,-0.765552,0.078414,-0.796148,0.000000,-0.796148,0.000000,-0.800000,-0.600000,-0.800000,
-0.603843,-0.796157,-0.639018,-0.796157,-0.711114,-0.766294,-0.766294,-0.711114,-0.796157,-0.639018,-0.796157,-0.603843,-0.800000,-0.600000,-0.800000,0.600000,-0.796157,0.603843,-0.796157,0.639018,-0.766294,0.711114,-0.711114,0.766294,-0.639018,0.796157,-0.603843,0.796157,-0.600000,0.800000,0.000000,0.800000,0.000000,0.796148,0.000000,0.796148,$1*%
G04 Aperture macros list end*
%ADD10C,1.750000*%
%ADD11C,3.987800*%
%ADD12C,2.300000*%
%ADD13C,4.300000*%
%ADD14RoundRect,0.250000X0.550000X-0.550000X0.550000X0.550000X-0.550000X0.550000X-0.550000X-0.550000X0*%
%ADD15C,1.600000*%
%ADD16C,3.048000*%
%ADD17C,2.200000*%
%ADD18C,1.850000*%
%ADD19RoundRect,0.200000X-0.600000X0.600000X-0.600000X-0.600000X0.600000X-0.600000X0.600000X0.600000X0*%
%ADD20FreePoly0,270.000000*%
%ADD21FreePoly1,270.000000*%
G04 APERTURE END LIST*
D10*
%TO.C,SW23*%
X165417500Y-271621250D03*
D11*
X170497500Y-271621250D03*
D10*
X175577500Y-271621250D03*
D12*
X166687500Y-269081250D03*
X173037500Y-266541250D03*
%TD*%
D13*
%TO.C,H3*%
X333375000Y-219075000D03*
%TD*%
D10*
%TO.C,SW5*%
X79692500Y-252571250D03*
D11*
X84772500Y-252571250D03*
D10*
X89852500Y-252571250D03*
D12*
X80962500Y-250031250D03*
X87312500Y-247491250D03*
%TD*%
D10*
%TO.C,SW47*%
X122555000Y-309721250D03*
D11*
X127635000Y-309721250D03*
D10*
X132715000Y-309721250D03*
D12*
X123825000Y-307181250D03*
X130175000Y-304641250D03*
%TD*%
D10*
%TO.C,SW35*%
X132080000Y-290671250D03*
D11*
X137160000Y-290671250D03*
D10*
X142240000Y-290671250D03*
D12*
X133350000Y-288131250D03*
X139700000Y-285591250D03*
%TD*%
D10*
%TO.C,SW20*%
X108267500Y-271621250D03*
D11*
X113347500Y-271621250D03*
D10*
X118427500Y-271621250D03*
D12*
X109537500Y-269081250D03*
X115887500Y-266541250D03*
%TD*%
D14*
%TO.C,D25*%
X218122500Y-276383750D03*
D15*
X218122500Y-268763750D03*
%TD*%
D14*
%TO.C,D24*%
X199072500Y-276383750D03*
D15*
X199072500Y-268763750D03*
%TD*%
D10*
%TO.C,SW63*%
X279717500Y-328771250D03*
D11*
X284797500Y-328771250D03*
D10*
X289877500Y-328771250D03*
D12*
X280987500Y-326231250D03*
X287337500Y-323691250D03*
%TD*%
D10*
%TO.C,SW59*%
X122555000Y-328771250D03*
D11*
X127635000Y-328771250D03*
D10*
X132715000Y-328771250D03*
D12*
X123825000Y-326231250D03*
X130175000Y-323691250D03*
%TD*%
D14*
%TO.C,D50*%
X194310000Y-314483750D03*
D15*
X194310000Y-306863750D03*
%TD*%
D14*
%TO.C,D62*%
X275272500Y-333533750D03*
D15*
X275272500Y-325913750D03*
%TD*%
D10*
%TO.C,SW43*%
X46355000Y-309721250D03*
D11*
X51435000Y-309721250D03*
D10*
X56515000Y-309721250D03*
D12*
X47625000Y-307181250D03*
X53975000Y-304641250D03*
%TD*%
D14*
%TO.C,D22*%
X160972500Y-276383750D03*
D15*
X160972500Y-268763750D03*
%TD*%
D10*
%TO.C,SW55*%
X5873750Y-328771250D03*
D11*
X10953750Y-328771250D03*
D10*
X16033750Y-328771250D03*
D12*
X7143750Y-326231250D03*
X13493750Y-323691250D03*
%TD*%
D14*
%TO.C,D20*%
X122872500Y-276383750D03*
D15*
X122872500Y-268763750D03*
%TD*%
D16*
%TO.C,S2*%
X70485000Y-321786250D03*
D11*
X70485000Y-337026250D03*
D16*
X184785000Y-321786250D03*
D11*
X184785000Y-337026250D03*
%TD*%
D16*
%TO.C,S4*%
X201453750Y-321786250D03*
D11*
X201453750Y-337026250D03*
D16*
X225266250Y-321786250D03*
D11*
X225266250Y-337026250D03*
%TD*%
D10*
%TO.C,SW19*%
X89217500Y-271621250D03*
D11*
X94297500Y-271621250D03*
D10*
X99377500Y-271621250D03*
D12*
X90487500Y-269081250D03*
X96837500Y-266541250D03*
%TD*%
D14*
%TO.C,D36*%
X165735000Y-295433750D03*
D15*
X165735000Y-287813750D03*
%TD*%
D14*
%TO.C,D41*%
X269081250Y-295433750D03*
D15*
X269081250Y-287813750D03*
%TD*%
D10*
%TO.C,SW26*%
X222567500Y-271621250D03*
D11*
X227647500Y-271621250D03*
D10*
X232727500Y-271621250D03*
D12*
X223837500Y-269081250D03*
X230187500Y-266541250D03*
%TD*%
D14*
%TO.C,D63*%
X294322500Y-333533750D03*
D15*
X294322500Y-325913750D03*
%TD*%
D10*
%TO.C,SW8*%
X136842500Y-252571250D03*
D11*
X141922500Y-252571250D03*
D10*
X147002500Y-252571250D03*
D12*
X138112500Y-250031250D03*
X144462500Y-247491250D03*
%TD*%
D14*
%TO.C,D29*%
X25241250Y-295433750D03*
D15*
X25241250Y-287813750D03*
%TD*%
D13*
%TO.C,H4*%
X333375000Y-338137500D03*
%TD*%
D10*
%TO.C,SW45*%
X84455000Y-309721250D03*
D11*
X89535000Y-309721250D03*
D10*
X94615000Y-309721250D03*
D12*
X85725000Y-307181250D03*
X92075000Y-304641250D03*
%TD*%
D14*
%TO.C,D38*%
X203835000Y-295433750D03*
D15*
X203835000Y-287813750D03*
%TD*%
D10*
%TO.C,SW17*%
X51117500Y-271621250D03*
D11*
X56197500Y-271621250D03*
D10*
X61277500Y-271621250D03*
D12*
X52387500Y-269081250D03*
X58737500Y-266541250D03*
%TD*%
D14*
%TO.C,D10*%
X189547500Y-257333750D03*
D15*
X189547500Y-249713750D03*
%TD*%
D10*
%TO.C,SW3*%
X41592500Y-252571250D03*
D11*
X46672500Y-252571250D03*
D10*
X51752500Y-252571250D03*
D12*
X42862500Y-250031250D03*
X49212500Y-247491250D03*
%TD*%
D10*
%TO.C,SW42*%
X15398750Y-309721250D03*
D11*
X20478750Y-309721250D03*
D10*
X25558750Y-309721250D03*
D12*
X16668750Y-307181250D03*
X23018750Y-304641250D03*
%TD*%
D10*
%TO.C,SW13*%
X232092500Y-252571250D03*
D11*
X237172500Y-252571250D03*
D10*
X242252500Y-252571250D03*
D12*
X233362500Y-250031250D03*
X239712500Y-247491250D03*
%TD*%
D10*
%TO.C,SW24*%
X184467500Y-271621250D03*
D11*
X189547500Y-271621250D03*
D10*
X194627500Y-271621250D03*
D12*
X185737500Y-269081250D03*
X192087500Y-266541250D03*
%TD*%
D10*
%TO.C,SW54*%
X279717500Y-309721250D03*
D11*
X284797500Y-309721250D03*
D10*
X289877500Y-309721250D03*
D12*
X280987500Y-307181250D03*
X287337500Y-304641250D03*
%TD*%
D14*
%TO.C,D17*%
X65722500Y-276383750D03*
D15*
X65722500Y-268763750D03*
%TD*%
D14*
%TO.C,D61*%
X253841250Y-333533750D03*
D15*
X253841250Y-325913750D03*
%TD*%
D10*
%TO.C,SW50*%
X179705000Y-309721250D03*
D11*
X184785000Y-309721250D03*
D10*
X189865000Y-309721250D03*
D12*
X180975000Y-307181250D03*
X187325000Y-304641250D03*
%TD*%
D10*
%TO.C,SW25*%
X203517500Y-271621250D03*
D11*
X208597500Y-271621250D03*
D10*
X213677500Y-271621250D03*
D12*
X204787500Y-269081250D03*
X211137500Y-266541250D03*
%TD*%
D14*
%TO.C,D13*%
X246697500Y-257333750D03*
D15*
X246697500Y-249713750D03*
%TD*%
D16*
%TO.C,S1*%
X8572500Y-302736250D03*
D11*
X8572500Y-317976250D03*
D16*
X32385000Y-302736250D03*
D11*
X32385000Y-317976250D03*
%TD*%
D14*
%TO.C,D51*%
X213360000Y-314483750D03*
D15*
X213360000Y-306863750D03*
%TD*%
D10*
%TO.C,SW51*%
X198755000Y-309721250D03*
D11*
X203835000Y-309721250D03*
D10*
X208915000Y-309721250D03*
D12*
X200025000Y-307181250D03*
X206375000Y-304641250D03*
%TD*%
D16*
%TO.C,S3*%
X265747500Y-316771250D03*
D11*
X265747500Y-301531250D03*
D16*
X241935000Y-316771250D03*
D11*
X241935000Y-301531250D03*
%TD*%
D10*
%TO.C,SW6*%
X98742500Y-252571250D03*
D11*
X103822500Y-252571250D03*
D10*
X108902500Y-252571250D03*
D12*
X100012500Y-250031250D03*
X106362500Y-247491250D03*
%TD*%
D10*
%TO.C,SW10*%
X174942500Y-252571250D03*
D11*
X180022500Y-252571250D03*
D10*
X185102500Y-252571250D03*
D12*
X176212500Y-250031250D03*
X182562500Y-247491250D03*
%TD*%
D10*
%TO.C,SW32*%
X74930000Y-290671250D03*
D11*
X80010000Y-290671250D03*
D10*
X85090000Y-290671250D03*
D12*
X76200000Y-288131250D03*
X82550000Y-285591250D03*
%TD*%
D14*
%TO.C,D57*%
X59531250Y-333533750D03*
D15*
X59531250Y-325913750D03*
%TD*%
D10*
%TO.C,SW62*%
X260667500Y-328771250D03*
D11*
X265747500Y-328771250D03*
D10*
X270827500Y-328771250D03*
D12*
X261937500Y-326231250D03*
X268287500Y-323691250D03*
%TD*%
D14*
%TO.C,D44*%
X80010000Y-314483750D03*
D15*
X80010000Y-306863750D03*
%TD*%
D10*
%TO.C,SW64*%
X298767500Y-328771250D03*
D11*
X303847500Y-328771250D03*
D10*
X308927500Y-328771250D03*
D12*
X300037500Y-326231250D03*
X306387500Y-323691250D03*
%TD*%
D14*
%TO.C,D37*%
X184785000Y-295433750D03*
D15*
X184785000Y-287813750D03*
%TD*%
D10*
%TO.C,SW16*%
X32067500Y-271621250D03*
D11*
X37147500Y-271621250D03*
D10*
X42227500Y-271621250D03*
D12*
X33337500Y-269081250D03*
X39687500Y-266541250D03*
%TD*%
D10*
%TO.C,SW57*%
X36830000Y-328771250D03*
D11*
X41910000Y-328771250D03*
D10*
X46990000Y-328771250D03*
D12*
X38100000Y-326231250D03*
X44450000Y-323691250D03*
%TD*%
D13*
%TO.C,H1*%
X-7143750Y-338137500D03*
%TD*%
D14*
%TO.C,D52*%
X232410000Y-314483750D03*
D15*
X232410000Y-306863750D03*
%TD*%
D10*
%TO.C,SW28*%
X260667500Y-271621250D03*
D11*
X265747500Y-271621250D03*
D10*
X270827500Y-271621250D03*
D12*
X261937500Y-269081250D03*
X268287500Y-266541250D03*
%TD*%
D14*
%TO.C,D2*%
X37147500Y-257333750D03*
D15*
X37147500Y-249713750D03*
%TD*%
D14*
%TO.C,D32*%
X89535000Y-295433750D03*
D15*
X89535000Y-287813750D03*
%TD*%
D10*
%TO.C,SW33*%
X93980000Y-290671250D03*
D11*
X99060000Y-290671250D03*
D10*
X104140000Y-290671250D03*
D12*
X95250000Y-288131250D03*
X101600000Y-285591250D03*
%TD*%
D14*
%TO.C,D28*%
X275272500Y-276383750D03*
D15*
X275272500Y-268763750D03*
%TD*%
D16*
%TO.C,S5*%
X30003750Y-321786250D03*
D11*
X30003750Y-337026250D03*
D16*
X53816250Y-321786250D03*
D11*
X53816250Y-337026250D03*
%TD*%
D10*
%TO.C,SW12*%
X213042500Y-252571250D03*
D11*
X218122500Y-252571250D03*
D10*
X223202500Y-252571250D03*
D12*
X214312500Y-250031250D03*
X220662500Y-247491250D03*
%TD*%
D14*
%TO.C,D9*%
X170497500Y-257333750D03*
D15*
X170497500Y-249713750D03*
%TD*%
D14*
%TO.C,D15*%
X22860000Y-276383750D03*
D15*
X22860000Y-268763750D03*
%TD*%
D10*
%TO.C,SW49*%
X160655000Y-309721250D03*
D11*
X165735000Y-309721250D03*
D10*
X170815000Y-309721250D03*
D12*
X161925000Y-307181250D03*
X168275000Y-304641250D03*
%TD*%
D14*
%TO.C,D35*%
X146685000Y-295433750D03*
D15*
X146685000Y-287813750D03*
%TD*%
D14*
%TO.C,D12*%
X227647500Y-257333750D03*
D15*
X227647500Y-249713750D03*
%TD*%
D10*
%TO.C,SW14*%
X255905000Y-252571250D03*
D11*
X260985000Y-252571250D03*
D10*
X266065000Y-252571250D03*
D12*
X257175000Y-250031250D03*
X263525000Y-247491250D03*
%TD*%
D14*
%TO.C,D26*%
X237172500Y-276383750D03*
D15*
X237172500Y-268763750D03*
%TD*%
D14*
%TO.C,D54*%
X294322500Y-314483750D03*
D15*
X294322500Y-306863750D03*
%TD*%
D14*
%TO.C,D31*%
X70485000Y-295433750D03*
D15*
X70485000Y-287813750D03*
%TD*%
D14*
%TO.C,D47*%
X137160000Y-314483750D03*
D15*
X137160000Y-306863750D03*
%TD*%
D10*
%TO.C,SW60*%
X208280000Y-328771250D03*
D11*
X213360000Y-328771250D03*
D10*
X218440000Y-328771250D03*
D12*
X209550000Y-326231250D03*
X215900000Y-323691250D03*
%TD*%
D10*
%TO.C,SW52*%
X217805000Y-309721250D03*
D11*
X222885000Y-309721250D03*
D10*
X227965000Y-309721250D03*
D12*
X219075000Y-307181250D03*
X225425000Y-304641250D03*
%TD*%
D14*
%TO.C,D64*%
X313372500Y-333533750D03*
D15*
X313372500Y-325913750D03*
%TD*%
D14*
%TO.C,D1*%
X18097500Y-257333750D03*
D15*
X18097500Y-249713750D03*
%TD*%
D10*
%TO.C,SW38*%
X189230000Y-290671250D03*
D11*
X194310000Y-290671250D03*
D10*
X199390000Y-290671250D03*
D12*
X190500000Y-288131250D03*
X196850000Y-285591250D03*
%TD*%
D10*
%TO.C,SW4*%
X60642500Y-252571250D03*
D11*
X65722500Y-252571250D03*
D10*
X70802500Y-252571250D03*
D12*
X61912500Y-250031250D03*
X68262500Y-247491250D03*
%TD*%
D10*
%TO.C,SW27*%
X241617500Y-271621250D03*
D11*
X246697500Y-271621250D03*
D10*
X251777500Y-271621250D03*
D12*
X242887500Y-269081250D03*
X249237500Y-266541250D03*
%TD*%
D14*
%TO.C,D33*%
X108585000Y-295433750D03*
D15*
X108585000Y-287813750D03*
%TD*%
D10*
%TO.C,SW30*%
X36830000Y-290671250D03*
D11*
X41910000Y-290671250D03*
D10*
X46990000Y-290671250D03*
D12*
X38100000Y-288131250D03*
X44450000Y-285591250D03*
%TD*%
D14*
%TO.C,D5*%
X94297500Y-257333750D03*
D15*
X94297500Y-249713750D03*
%TD*%
D14*
%TO.C,D42*%
X40481250Y-314483750D03*
D15*
X40481250Y-306863750D03*
%TD*%
D10*
%TO.C,SW1*%
X3492500Y-252571250D03*
D11*
X8572500Y-252571250D03*
D10*
X13652500Y-252571250D03*
D12*
X4762500Y-250031250D03*
X11112500Y-247491250D03*
%TD*%
D10*
%TO.C,SW22*%
X146367500Y-271621250D03*
D11*
X151447500Y-271621250D03*
D10*
X156527500Y-271621250D03*
D12*
X147637500Y-269081250D03*
X153987500Y-266541250D03*
%TD*%
D14*
%TO.C,D21*%
X141922500Y-276383750D03*
D15*
X141922500Y-268763750D03*
%TD*%
D14*
%TO.C,D16*%
X46672500Y-276383750D03*
D15*
X46672500Y-268763750D03*
%TD*%
D10*
%TO.C,SW41*%
X253523750Y-290671250D03*
D11*
X258603750Y-290671250D03*
D10*
X263683750Y-290671250D03*
D12*
X254793750Y-288131250D03*
X261143750Y-285591250D03*
%TD*%
D10*
%TO.C,SW31*%
X55880000Y-290671250D03*
D11*
X60960000Y-290671250D03*
D10*
X66040000Y-290671250D03*
D12*
X57150000Y-288131250D03*
X63500000Y-285591250D03*
%TD*%
D14*
%TO.C,D48*%
X156210000Y-314483750D03*
D15*
X156210000Y-306863750D03*
%TD*%
D14*
%TO.C,D34*%
X127635000Y-295433750D03*
D15*
X127635000Y-287813750D03*
%TD*%
D14*
%TO.C,D46*%
X118110000Y-314483750D03*
D15*
X118110000Y-306863750D03*
%TD*%
D14*
%TO.C,D40*%
X241935000Y-295433750D03*
D15*
X241935000Y-287813750D03*
%TD*%
D10*
%TO.C,SW40*%
X227330000Y-290671250D03*
D11*
X232410000Y-290671250D03*
D10*
X237490000Y-290671250D03*
D12*
X228600000Y-288131250D03*
X234950000Y-285591250D03*
%TD*%
D10*
%TO.C,SW46*%
X103505000Y-309721250D03*
D11*
X108585000Y-309721250D03*
D10*
X113665000Y-309721250D03*
D12*
X104775000Y-307181250D03*
X111125000Y-304641250D03*
%TD*%
D14*
%TO.C,D4*%
X75247500Y-257333750D03*
D15*
X75247500Y-249713750D03*
%TD*%
D14*
%TO.C,D11*%
X208597500Y-257333750D03*
D15*
X208597500Y-249713750D03*
%TD*%
D10*
%TO.C,SW29*%
X10636250Y-290671250D03*
D11*
X15716250Y-290671250D03*
D10*
X20796250Y-290671250D03*
D12*
X11906250Y-288131250D03*
X18256250Y-285591250D03*
%TD*%
D10*
%TO.C,SW2*%
X22542500Y-252571250D03*
D11*
X27622500Y-252571250D03*
D10*
X32702500Y-252571250D03*
D12*
X23812500Y-250031250D03*
X30162500Y-247491250D03*
%TD*%
D10*
%TO.C,SW61*%
X239236250Y-328771250D03*
D11*
X244316250Y-328771250D03*
D10*
X249396250Y-328771250D03*
D12*
X240506250Y-326231250D03*
X246856250Y-323691250D03*
%TD*%
D14*
%TO.C,D30*%
X51435000Y-295433750D03*
D15*
X51435000Y-287813750D03*
%TD*%
D14*
%TO.C,D7*%
X132397500Y-257333750D03*
D15*
X132397500Y-249713750D03*
%TD*%
D14*
%TO.C,D14*%
X270510000Y-257333750D03*
D15*
X270510000Y-249713750D03*
%TD*%
D10*
%TO.C,SW48*%
X141605000Y-309721250D03*
D11*
X146685000Y-309721250D03*
D10*
X151765000Y-309721250D03*
D12*
X142875000Y-307181250D03*
X149225000Y-304641250D03*
%TD*%
D10*
%TO.C,SW9*%
X155892500Y-252571250D03*
D11*
X160972500Y-252571250D03*
D10*
X166052500Y-252571250D03*
D12*
X157162500Y-250031250D03*
X163512500Y-247491250D03*
%TD*%
D10*
%TO.C,SW34*%
X113030000Y-290671250D03*
D11*
X118110000Y-290671250D03*
D10*
X123190000Y-290671250D03*
D12*
X114300000Y-288131250D03*
X120650000Y-285591250D03*
%TD*%
D14*
%TO.C,D59*%
X137160000Y-333533750D03*
D15*
X137160000Y-325913750D03*
%TD*%
D14*
%TO.C,D60*%
X222885000Y-333533750D03*
D15*
X222885000Y-325913750D03*
%TD*%
D10*
%TO.C,SW44*%
X65405000Y-309721250D03*
D11*
X70485000Y-309721250D03*
D10*
X75565000Y-309721250D03*
D12*
X66675000Y-307181250D03*
X73025000Y-304641250D03*
%TD*%
D14*
%TO.C,D6*%
X113347500Y-257333750D03*
D15*
X113347500Y-249713750D03*
%TD*%
D17*
%TO.C,A1*%
X340087500Y-251616250D03*
D18*
X337057500Y-251916250D03*
X337057500Y-256766250D03*
D17*
X340087500Y-257066250D03*
D19*
X340217500Y-245451250D03*
D15*
X337677500Y-245451250D03*
D20*
X335137500Y-245451250D03*
D15*
X332597500Y-245451250D03*
X330057500Y-245451250D03*
X327517500Y-245451250D03*
X324977500Y-245451250D03*
D20*
X322437500Y-245451250D03*
D15*
X319897500Y-245451250D03*
X317357500Y-245451250D03*
X314817500Y-245451250D03*
X312277500Y-245451250D03*
D20*
X309737500Y-245451250D03*
D15*
X307197500Y-245451250D03*
X304657500Y-245451250D03*
X302117500Y-245451250D03*
X299577500Y-245451250D03*
D20*
X297037500Y-245451250D03*
D15*
X294497500Y-245451250D03*
X291957500Y-245451250D03*
X291957500Y-263231250D03*
X294497500Y-263231250D03*
D21*
X297037500Y-263231250D03*
D15*
X299577500Y-263231250D03*
X302117500Y-263231250D03*
X304657500Y-263231250D03*
X307197500Y-263231250D03*
D21*
X309737500Y-263231250D03*
D15*
X312277500Y-263231250D03*
X314817500Y-263231250D03*
X317357500Y-263231250D03*
X319897500Y-263231250D03*
D21*
X322437500Y-263231250D03*
D15*
X324977500Y-263231250D03*
X327517500Y-263231250D03*
X330057500Y-263231250D03*
X332597500Y-263231250D03*
D21*
X335137500Y-263231250D03*
D15*
X337677500Y-263231250D03*
X340217500Y-263231250D03*
%TD*%
D14*
%TO.C,D23*%
X180022500Y-276383750D03*
D15*
X180022500Y-268763750D03*
%TD*%
D14*
%TO.C,D19*%
X103822500Y-276383750D03*
D15*
X103822500Y-268763750D03*
%TD*%
D14*
%TO.C,D53*%
X273843750Y-314325000D03*
D15*
X273843750Y-306705000D03*
%TD*%
D10*
%TO.C,SW21*%
X127317500Y-271621250D03*
D11*
X132397500Y-271621250D03*
D10*
X137477500Y-271621250D03*
D12*
X128587500Y-269081250D03*
X134937500Y-266541250D03*
%TD*%
D14*
%TO.C,D55*%
X21431250Y-333533750D03*
D15*
X21431250Y-325913750D03*
%TD*%
D10*
%TO.C,SW53*%
X248761250Y-309721250D03*
D11*
X253841250Y-309721250D03*
D10*
X258921250Y-309721250D03*
D12*
X250031250Y-307181250D03*
X256381250Y-304641250D03*
%TD*%
D10*
%TO.C,SW37*%
X170180000Y-290671250D03*
D11*
X175260000Y-290671250D03*
D10*
X180340000Y-290671250D03*
D12*
X171450000Y-288131250D03*
X177800000Y-285591250D03*
%TD*%
D14*
%TO.C,D39*%
X222885000Y-295433750D03*
D15*
X222885000Y-287813750D03*
%TD*%
D14*
%TO.C,D18*%
X84772500Y-276383750D03*
D15*
X84772500Y-268763750D03*
%TD*%
D14*
%TO.C,D43*%
X60960000Y-314483750D03*
D15*
X60960000Y-306863750D03*
%TD*%
D10*
%TO.C,SW18*%
X70167500Y-271621250D03*
D11*
X75247500Y-271621250D03*
D10*
X80327500Y-271621250D03*
D12*
X71437500Y-269081250D03*
X77787500Y-266541250D03*
%TD*%
D14*
%TO.C,D3*%
X56197500Y-257333750D03*
D15*
X56197500Y-249713750D03*
%TD*%
D14*
%TO.C,D49*%
X175260000Y-314483750D03*
D15*
X175260000Y-306863750D03*
%TD*%
D10*
%TO.C,SW11*%
X193992500Y-252571250D03*
D11*
X199072500Y-252571250D03*
D10*
X204152500Y-252571250D03*
D12*
X195262500Y-250031250D03*
X201612500Y-247491250D03*
%TD*%
D14*
%TO.C,D8*%
X151447500Y-257333750D03*
D15*
X151447500Y-249713750D03*
%TD*%
D10*
%TO.C,SW15*%
X8255000Y-271621250D03*
D11*
X13335000Y-271621250D03*
D10*
X18415000Y-271621250D03*
D12*
X9525000Y-269081250D03*
X15875000Y-266541250D03*
%TD*%
D10*
%TO.C,SW7*%
X117792500Y-252571250D03*
D11*
X122872500Y-252571250D03*
D10*
X127952500Y-252571250D03*
D12*
X119062500Y-250031250D03*
X125412500Y-247491250D03*
%TD*%
D10*
%TO.C,SW36*%
X151130000Y-290671250D03*
D11*
X156210000Y-290671250D03*
D10*
X161290000Y-290671250D03*
D12*
X152400000Y-288131250D03*
X158750000Y-285591250D03*
%TD*%
D13*
%TO.C,H2*%
X-7143750Y-219075000D03*
%TD*%
D14*
%TO.C,D27*%
X256222500Y-276383750D03*
D15*
X256222500Y-268763750D03*
%TD*%
D10*
%TO.C,SW39*%
X208280000Y-290671250D03*
D11*
X213360000Y-290671250D03*
D10*
X218440000Y-290671250D03*
D12*
X209550000Y-288131250D03*
X215900000Y-285591250D03*
%TD*%
D14*
%TO.C,D45*%
X99060000Y-314483750D03*
D15*
X99060000Y-306863750D03*
%TD*%
M02*
