M48
; DRILL file KiCad 10.0.4 date 2026-07-24T12:45:12
; FORMAT={-:-/ absolute / metric / decimal}
; #@! TF.CreationDate,2026-07-24T12:45:12+05:30
; #@! TF.GenerationSoftware,Kicad,Pcbnew,10.0.4
; #@! TF.FileFunction,NonPlated,1,2,NPTH
FMAT,2
METRIC
; #@! TA.AperFunction,NonPlated,NPTH,ComponentDrill
T1C1.750
; #@! TA.AperFunction,NonPlated,NPTH,ComponentDrill
T2C1.850
; #@! TA.AperFunction,NonPlated,NPTH,ComponentDrill
T3C2.200
; #@! TA.AperFunction,NonPlated,NPTH,ComponentDrill
T4C3.048
; #@! TA.AperFunction,NonPlated,NPTH,ComponentDrill
T5C3.988
; #@! TA.AperFunction,NonPlated,NPTH,ComponentDrill
T6C4.300
%
G90
G05
T1
X3.492Y-252.571
X5.874Y-328.771
X8.255Y-271.621
X10.636Y-290.671
X13.652Y-252.571
X15.399Y-309.721
X16.034Y-328.771
X18.415Y-271.621
X20.796Y-290.671
X22.543Y-252.571
X25.559Y-309.721
X32.067Y-271.621
X32.703Y-252.571
X36.83Y-290.671
X36.83Y-328.771
X41.593Y-252.571
X42.227Y-271.621
X46.355Y-309.721
X46.99Y-290.671
X46.99Y-328.771
X51.117Y-271.621
X51.752Y-252.571
X55.88Y-290.671
X56.515Y-309.721
X60.642Y-252.571
X61.277Y-271.621
X65.405Y-309.721
X66.04Y-290.671
X70.167Y-271.621
X70.802Y-252.571
X74.93Y-290.671
X75.565Y-309.721
X79.692Y-252.571
X80.328Y-271.621
X84.455Y-309.721
X85.09Y-290.671
X89.218Y-271.621
X89.852Y-252.571
X93.98Y-290.671
X94.615Y-309.721
X98.742Y-252.571
X99.377Y-271.621
X103.505Y-309.721
X104.14Y-290.671
X108.267Y-271.621
X108.902Y-252.571
X113.03Y-290.671
X113.665Y-309.721
X117.792Y-252.571
X118.427Y-271.621
X122.555Y-309.721
X122.555Y-328.771
X123.19Y-290.671
X127.317Y-271.621
X127.953Y-252.571
X132.08Y-290.671
X132.715Y-309.721
X132.715Y-328.771
X136.843Y-252.571
X137.477Y-271.621
X141.605Y-309.721
X142.24Y-290.671
X146.368Y-271.621
X147.002Y-252.571
X151.13Y-290.671
X151.765Y-309.721
X155.892Y-252.571
X156.528Y-271.621
X160.655Y-309.721
X161.29Y-290.671
X165.417Y-271.621
X166.052Y-252.571
X170.18Y-290.671
X170.815Y-309.721
X174.942Y-252.571
X175.577Y-271.621
X179.705Y-309.721
X180.34Y-290.671
X184.468Y-271.621
X185.102Y-252.571
X189.23Y-290.671
X189.865Y-309.721
X193.992Y-252.571
X194.627Y-271.621
X198.755Y-309.721
X199.39Y-290.671
X203.517Y-271.621
X204.153Y-252.571
X208.28Y-290.671
X208.28Y-328.771
X208.915Y-309.721
X213.042Y-252.571
X213.677Y-271.621
X217.805Y-309.721
X218.44Y-290.671
X218.44Y-328.771
X222.567Y-271.621
X223.202Y-252.571
X227.33Y-290.671
X227.965Y-309.721
X232.093Y-252.571
X232.727Y-271.621
X237.49Y-290.671
X239.236Y-328.771
X241.617Y-271.621
X242.252Y-252.571
X248.761Y-309.721
X249.396Y-328.771
X251.777Y-271.621
X253.524Y-290.671
X255.905Y-252.571
X258.921Y-309.721
X260.667Y-271.621
X260.667Y-328.771
X263.684Y-290.671
X266.065Y-252.571
X270.827Y-271.621
X270.827Y-328.771
X279.717Y-309.721
X279.717Y-328.771
X289.877Y-309.721
X289.877Y-328.771
X298.767Y-328.771
X308.928Y-328.771
T2
X337.058Y-251.916
X337.058Y-256.766
T3
X340.087Y-251.616
X340.087Y-257.066
T4
X8.572Y-302.736
X30.004Y-321.786
X32.385Y-302.736
X53.816Y-321.786
X70.485Y-321.786
X184.785Y-321.786
X201.454Y-321.786
X225.266Y-321.786
X241.935Y-316.771
X265.748Y-316.771
T5
X8.572Y-252.571
X8.572Y-317.976
X10.954Y-328.771
X13.335Y-271.621
X15.716Y-290.671
X20.479Y-309.721
X27.622Y-252.571
X30.004Y-337.026
X32.385Y-317.976
X37.148Y-271.621
X41.91Y-290.671
X41.91Y-328.771
X46.672Y-252.571
X51.435Y-309.721
X53.816Y-337.026
X56.197Y-271.621
X60.96Y-290.671
X65.722Y-252.571
X70.485Y-309.721
X70.485Y-337.026
X75.248Y-271.621
X80.01Y-290.671
X84.772Y-252.571
X89.535Y-309.721
X94.297Y-271.621
X99.06Y-290.671
X103.822Y-252.571
X108.585Y-309.721
X113.347Y-271.621
X118.11Y-290.671
X122.872Y-252.571
X127.635Y-309.721
X127.635Y-328.771
X132.398Y-271.621
X137.16Y-290.671
X141.922Y-252.571
X146.685Y-309.721
X151.447Y-271.621
X156.21Y-290.671
X160.972Y-252.571
X165.735Y-309.721
X170.498Y-271.621
X175.26Y-290.671
X180.022Y-252.571
X184.785Y-309.721
X184.785Y-337.026
X189.547Y-271.621
X194.31Y-290.671
X199.072Y-252.571
X201.454Y-337.026
X203.835Y-309.721
X208.597Y-271.621
X213.36Y-290.671
X213.36Y-328.771
X218.123Y-252.571
X222.885Y-309.721
X225.266Y-337.026
X227.647Y-271.621
X232.41Y-290.671
X237.172Y-252.571
X241.935Y-301.531
X244.316Y-328.771
X246.697Y-271.621
X253.841Y-309.721
X258.604Y-290.671
X260.985Y-252.571
X265.748Y-271.621
X265.748Y-301.531
X265.748Y-328.771
X284.798Y-309.721
X284.798Y-328.771
X303.847Y-328.771
T6
X-7.144Y-219.075
X-7.144Y-338.137
X333.375Y-219.075
X333.375Y-338.137
M30
